<?xml version="1.0" encoding="UTF-8" standalone="no"?>
<!-- Created with Inkscape (http://www.inkscape.org/) -->

<svg
   width="203.2mm"
   height="128.5mm"
   viewBox="0 0 203.2 128.5"
   version="1.1"
   id="svg1"
   inkscape:version="1.3.2 (091e20e, 2023-11-25)"
   sodipodi:docname="canvas.svg"
   xmlns:inkscape="http://www.inkscape.org/namespaces/inkscape"
   xmlns:sodipodi="http://sodipodi.sourceforge.net/DTD/sodipodi-0.dtd"
   xmlns="http://www.w3.org/2000/svg"
   xmlns:svg="http://www.w3.org/2000/svg">
  <sodipodi:namedview
     id="namedview1"
     pagecolor="#ffffff"
     bordercolor="#000000"
     borderopacity="0.25"
     inkscape:showpageshadow="2"
     inkscape:pageopacity="0.0"
     inkscape:pagecheckerboard="0"
     inkscape:deskcolor="#d1d1d1"
     inkscape:document-units="mm"
     inkscape:zoom="0.57623843"
     inkscape:cx="319.31227"
     inkscape:cy="296.75216"
     inkscape:window-width="1264"
     inkscape:window-height="707"
     inkscape:window-x="66"
     inkscape:window-y="25"
     inkscape:window-maximized="0"
     inkscape:current-layer="svg1" />
  <defs
     id="defs1" />
  <rect
     style="fill:#e0e0e0;fill-opacity:1;stroke:none;stroke-width:2.98453;stroke-opacity:1"
     id="rect2"
     width="203.2"
     height="128.5"
     x="-2.6645353e-15"
     y="0" />
  <path
     id="rect26-7"
     fill="#1f1f1f"
     d="M 5.0163631,106.40229 H 13.83827 c 0.601466,0 1.089046,0.48425 1.089046,1.08167 v 12.7784 c 0,0.59741 -0.48758,1.08166 -1.089046,1.08166 H 5.0163631 c -0.6014666,0 -1.0890469,-0.48425 -1.0890469,-1.08166 v -12.7784 c 0,-0.59742 0.4875803,-1.08167 1.0890469,-1.08167 z"
     style="display:inline;stroke-width:0.382891" />
  <path
     d="m 6.6399261,109.13206 q 0,0.0952 0.035983,0.17568 0.035983,0.0804 0.097367,0.1397 0.061383,0.0593 0.1418169,0.0931 0.08255,0.0318 0.1735669,0.0318 0.091017,0 0.1714503,-0.0318 0.08255,-0.0339 0.1439336,-0.0931 0.0635,-0.0593 0.09948,-0.1397 0.03598,-0.0804 0.03598,-0.17568 0,-0.0953 -0.03598,-0.17569 -0.03598,-0.0804 -0.09948,-0.1397 -0.061383,-0.0593 -0.1439336,-0.091 -0.080433,-0.0339 -0.1714503,-0.0339 -0.091017,0 -0.1735669,0.0339 -0.080433,0.0318 -0.1418169,0.091 -0.061383,0.0593 -0.097367,0.1397 -0.035983,0.0804 -0.035983,0.17569 z m -0.4339173,0 q 0,-0.1778 0.065617,-0.3302 0.065617,-0.15452 0.1820336,-0.26882 0.1164168,-0.1143 0.2772837,-0.1778 0.1629836,-0.0656 0.3577172,-0.0656 0.192617,0 0.3556009,0.0656 0.162983,0.0635 0.2794,0.1778 0.118534,0.1143 0.18415,0.26882 0.06562,0.1524 0.06562,0.3302 0,0.1778 -0.06562,0.33231 -0.06562,0.1524 -0.18415,0.2667 -0.116417,0.1143 -0.2794,0.17992 -0.1629839,0.0635 -0.3556009,0.0635 -0.1947336,0 -0.3577172,-0.0635 -0.1608669,-0.0656 -0.2772837,-0.17992 -0.1164169,-0.1143 -0.1820336,-0.2667 -0.065617,-0.15451 -0.065617,-0.33231 z m 2.4500442,-0.79799 v 0.86784 q 0,0.0699 0.0042,0.14393 0.0063,0.072 0.03175,0.13123 0.02752,0.0593 0.08467,0.0974 0.05715,0.036 0.160867,0.036 0.103717,0 0.15875,-0.036 0.05715,-0.0381 0.08467,-0.0974 0.02752,-0.0593 0.03175,-0.13123 0.0063,-0.0741 0.0063,-0.14393 v -0.86784 h 0.41275 v 0.92499 q 0,0.37253 -0.17145,0.54398 -0.169333,0.17145 -0.522817,0.17145 -0.353484,0 -0.524934,-0.17145 -0.171451,-0.17145 -0.171451,-0.54398 v -0.92499 z m 1.920879,0.35137 v 1.2446 h -0.414868 v -1.2446 H 9.821281 v -0.35137 h 1.096435 v 0.35137 z m 1.656824,0 h -0.232834 v -0.35137 h 0.647701 v 1.59597 h -0.414867 z"
     id="text3"
     style="font-weight:bold;font-size:2.11667px;line-height:0.1;font-family:Futura;-inkscape-font-specification:'Futura Bold';letter-spacing:0.00529167px;word-spacing:0.0079375px;fill:#ffffff;stroke-width:2.97"
     aria-label="OUT 1" />
  <path
     style="font-weight:bold;font-size:2.11667px;line-height:0.1;font-family:Futura;-inkscape-font-specification:'Futura Bold';letter-spacing:0.00529167px;word-spacing:0.0079375px;stroke-width:5.925;stroke-linecap:round;stroke-linejoin:round"
     d="M 7.727369,7.0226239 V 8.618593 H 7.3125015 V 7.0226239 Z M 8.067094,8.618593 V 7.0226239 H 8.481962 L 9.248196,7.9984087 V 7.0226239 H 9.660947 V 8.618593 H 9.248196 L 8.481962,7.6428082 V 8.618593 Z M 11.127269,7.3739911 H 10.894435 V 7.0226239 h 0.647701 v 1.5959692 h -0.414867 z"
     id="text5"
     aria-label="IN 1" />
  <rect
     style="fill:#000000;fill-opacity:1;stroke:none;stroke-width:2.56089;stroke-linecap:round;stroke-linejoin:round;stroke-dasharray:none;stroke-opacity:1"
     id="rect6-2"
     width="0.2"
     height="29.545534"
     x="9.3273163"
     y="37.402271" />
  <rect
     style="fill:#000000;fill-opacity:1;stroke:none;stroke-width:2.56089;stroke-linecap:round;stroke-linejoin:round;stroke-dasharray:none;stroke-opacity:1"
     id="rect6-2-60"
     width="0.2"
     height="29.545534"
     x="193.67267"
     y="37.402271" />
  <rect
     style="fill:#000000;fill-opacity:1;stroke:none;stroke-width:1.74642;stroke-linecap:round;stroke-linejoin:round;stroke-dasharray:none;stroke-opacity:1"
     id="rect6-2-6"
     width="0.2"
     height="13.740685"
     x="9.3273163"
     y="89.355682" />
  <path
     d="m 6.7050172,23.736651 v 1.244602 H 6.2901499 V 23.736651 H 5.949366 v -0.351367 h 1.096435 v 0.351367 z m 0.9450939,0.36195 h 0.078317 q 0.1227669,0 0.1883836,-0.0508 0.065617,-0.0508 0.065617,-0.14605 0,-0.09525 -0.065617,-0.14605 -0.065617,-0.0508 -0.1883836,-0.0508 h -0.078317 z m 0.9122847,0.882652 H 8.0459284 L 7.6501111,24.367418 v 0.613835 H 7.2352438 v -1.595969 h 0.6455843 q 0.1333502,0 0.2328337,0.04022 0.099484,0.0381 0.1629836,0.105834 0.065617,0.06773 0.097367,0.156633 0.033867,0.0889 0.033867,0.190501 0,0.182033 -0.0889,0.296334 -0.086783,0.112183 -0.2582337,0.1524 z m 0.5937253,-1.595969 v 1.595969 H 8.7412538 v -1.595969 z m 1.1165439,0.702734 h 0.823384 q 0,0.127 -0.01058,0.230717 -0.01058,0.103717 -0.04233,0.192617 -0.04445,0.124884 -0.12065,0.22225 -0.0762,0.09525 -0.179917,0.160867 -0.1016,0.0635 -0.224367,0.09737 -0.122767,0.03387 -0.258234,0.03387 -0.186266,0 -0.3407834,-0.06138 -0.1524002,-0.06138 -0.262467,-0.17145 -0.1100669,-0.112183 -0.1714503,-0.2667 -0.061383,-0.156634 -0.061383,-0.345017 0,-0.186267 0.059267,-0.340784 0.061383,-0.156634 0.1714503,-0.266701 0.1121835,-0.110067 0.2688171,-0.17145 0.1566343,-0.06138 0.3492513,-0.06138 0.249767,0 0.43815,0.10795 0.188384,0.10795 0.298451,0.334434 l -0.393701,0.162983 q -0.05503,-0.131233 -0.143934,-0.188383 -0.08678,-0.05715 -0.198966,-0.05715 -0.09313,0 -0.169334,0.03598 -0.0762,0.03387 -0.1312339,0.09948 -0.052917,0.0635 -0.084667,0.154517 -0.029633,0.09102 -0.029633,0.203201 0,0.1016 0.0254,0.188383 0.027517,0.08678 0.080433,0.150284 0.052916,0.0635 0.1312329,0.09948 0.07832,0.03387 0.182034,0.03387 0.06138,0 0.118533,-0.0127 0.05715,-0.01482 0.101601,-0.04445 0.04657,-0.03175 0.0762,-0.08043 0.02963,-0.04868 0.04022,-0.118533 h -0.340783 z m 2.217739,-0.351367 H 12.25757 v -0.351367 h 0.647701 v 1.595969 h -0.414867 z"
     id="text11"
     style="font-weight:bold;font-size:2.11667px;line-height:0.1;font-family:Futura;-inkscape-font-specification:'Futura Bold';letter-spacing:0.00529167px;word-spacing:0.0079375px;stroke-width:4.47;stroke-linecap:round;stroke-linejoin:round"
     aria-label="TRIG 1" />
  <circle
     id="uuid-cae7cb64-b9d2-4491-a6b2-1bbe8644b71e-6-0-0-9-0"
     display="inline"
     fill="#0000ff"
     cx="9.4273167"
     cy="81.756248"
     r="4.3757935"
     inkscape:label="PARAM_TIME"
     style="display:inline;fill:none;fill-opacity:1;stroke:#000000;stroke-width:0.248413;stroke-dasharray:none;stroke-opacity:1" />
  <path
     sodipodi:type="star"
     style="fill:#000000;stroke-width:4.47;stroke-linecap:round;stroke-linejoin:round"
     id="path1"
     inkscape:flatsided="false"
     sodipodi:sides="3"
     sodipodi:cx="5.9720817"
     sodipodi:cy="86.380501"
     sodipodi:r1="0.58027047"
     sodipodi:r2="0.29013523"
     sodipodi:arg1="0.73781506"
     sodipodi:arg2="1.7850126"
     inkscape:rounded="0"
     inkscape:randomized="0"
     d="M 6.401447,86.770833 5.9104042,86.664004 5.4193614,86.557176 5.757399,86.185335 l 0.3380375,-0.371842 0.1530053,0.47867 z"
     inkscape:transform-center-x="0.022141576"
     inkscape:transform-center-y="-0.12547079"
     transform="rotate(-7.8970025,-8.2947838,102.47548)" />
  <path
     sodipodi:type="star"
     style="fill:#000000;stroke-width:4.47;stroke-linecap:round;stroke-linejoin:round"
     id="path1-9"
     inkscape:flatsided="false"
     sodipodi:sides="3"
     sodipodi:cx="5.9720817"
     sodipodi:cy="86.380501"
     sodipodi:r1="0.58027047"
     sodipodi:r2="0.29013523"
     sodipodi:arg1="0.73781506"
     sodipodi:arg2="1.7850126"
     inkscape:rounded="0"
     inkscape:randomized="0"
     d="M 6.401447,86.770833 5.9104042,86.664004 5.4193614,86.557176 5.757399,86.185335 l 0.3380375,-0.371842 0.1530053,0.47867 z"
     inkscape:transform-center-x="0.11418628"
     inkscape:transform-center-y="0.03447111"
     transform="rotate(24.549862,16.767886,77.033455)" />
  <path
     sodipodi:type="star"
     style="fill:#000000;stroke-width:4.47;stroke-linecap:round;stroke-linejoin:round"
     id="path1-8"
     inkscape:flatsided="false"
     sodipodi:sides="3"
     sodipodi:cx="5.9720817"
     sodipodi:cy="86.380501"
     sodipodi:r1="0.58027047"
     sodipodi:r2="0.29013523"
     sodipodi:arg1="0.73781506"
     sodipodi:arg2="1.7850126"
     inkscape:rounded="0"
     inkscape:randomized="0"
     d="M 6.401447,86.770833 5.9104042,86.664004 5.4193614,86.557176 5.757399,86.185335 l 0.3380375,-0.371842 0.1530053,0.47867 z"
     inkscape:transform-center-x="-0.047859823"
     inkscape:transform-center-y="0.10163236"
     transform="rotate(57.220842,13.120052,80.675622)" />
  <path
     sodipodi:type="star"
     style="fill:#000000;stroke-width:4.47;stroke-linecap:round;stroke-linejoin:round"
     id="path1-9-1"
     inkscape:flatsided="false"
     sodipodi:sides="3"
     sodipodi:cx="5.9720817"
     sodipodi:cy="86.380501"
     sodipodi:r1="0.58027047"
     sodipodi:r2="0.29013523"
     sodipodi:arg1="0.73781506"
     sodipodi:arg2="1.7850126"
     inkscape:rounded="0"
     inkscape:randomized="0"
     d="M 6.401447,86.770833 5.9104042,86.664004 5.4193614,86.557176 5.757399,86.185335 l 0.3380375,-0.371842 0.1530053,0.47867 z"
     inkscape:transform-center-x="-0.089939348"
     inkscape:transform-center-y="-0.060031288"
     transform="rotate(89.667707,12.032294,81.796831)" />
  <path
     sodipodi:type="star"
     style="fill:#000000;stroke-width:4.47;stroke-linecap:round;stroke-linejoin:round"
     id="path1-3"
     inkscape:flatsided="false"
     sodipodi:sides="3"
     sodipodi:cx="5.9720817"
     sodipodi:cy="86.380501"
     sodipodi:r1="0.58027047"
     sodipodi:r2="0.29013523"
     sodipodi:arg1="0.73781506"
     sodipodi:arg2="1.7850126"
     inkscape:rounded="0"
     inkscape:randomized="0"
     d="M 6.401447,86.770833 5.9104042,86.664004 5.4193614,86.557176 5.757399,86.185335 l 0.3380375,-0.371842 0.1530053,0.47867 z"
     inkscape:transform-center-x="0.097305646"
     inkscape:transform-center-y="-0.052392356"
     transform="rotate(127.32273,11.380374,82.417503)" />
  <path
     sodipodi:type="star"
     style="fill:#000000;stroke-width:4.47;stroke-linecap:round;stroke-linejoin:round"
     id="path1-9-2"
     inkscape:flatsided="false"
     sodipodi:sides="3"
     sodipodi:cx="5.9720817"
     sodipodi:cy="86.380501"
     sodipodi:r1="0.58027047"
     sodipodi:r2="0.29013523"
     sodipodi:arg1="0.73781506"
     sodipodi:arg2="1.7850126"
     inkscape:rounded="0"
     inkscape:randomized="0"
     d="M 6.401447,86.770833 5.9104042,86.664004 5.4193614,86.557176 5.757399,86.185335 l 0.3380375,-0.371842 0.1530053,0.47867 z"
     inkscape:transform-center-x="0.04016288"
     inkscape:transform-center-y="0.10889224"
     transform="rotate(159.76959,10.995175,82.913575)" />
  <path
     sodipodi:type="star"
     style="fill:#000000;stroke-width:4.47;stroke-linecap:round;stroke-linejoin:round"
     id="path1-8-6"
     inkscape:flatsided="false"
     sodipodi:sides="3"
     sodipodi:cx="5.9720817"
     sodipodi:cy="86.380501"
     sodipodi:r1="0.58027047"
     sodipodi:r2="0.29013523"
     sodipodi:arg1="0.73781506"
     sodipodi:arg2="1.7850126"
     inkscape:rounded="0"
     inkscape:randomized="0"
     d="M 6.401447,86.770833 5.9104042,86.664004 5.4193614,86.557176 5.757399,86.185335 l 0.3380375,-0.371842 0.1530053,0.47867 z"
     inkscape:transform-center-x="-0.12130406"
     inkscape:transform-center-y="0.026728557"
     transform="rotate(-167.55943,10.600223,83.275825)" />
  <path
     sodipodi:type="star"
     style="fill:#000000;stroke-width:4.47;stroke-linecap:round;stroke-linejoin:round"
     id="path1-9-1-9"
     inkscape:flatsided="false"
     sodipodi:sides="3"
     sodipodi:cx="5.9720817"
     sodipodi:cy="86.380501"
     sodipodi:r1="0.58027047"
     sodipodi:r2="0.29013523"
     sodipodi:arg1="0.73781506"
     sodipodi:arg2="1.7850126"
     inkscape:rounded="0"
     inkscape:randomized="0"
     d="M 6.401447,86.770833 5.9104042,86.664004 5.4193614,86.557176 5.757399,86.185335 l 0.3380375,-0.371842 0.1530053,0.47867 z"
     inkscape:transform-center-x="-0.014366239"
     inkscape:transform-center-y="-0.13244525"
     transform="rotate(-135.11256,10.256568,83.290635)" />
  <path
     d="M 5.7807431,71.601025 V 73.26049 H 5.227588 V 71.601025 H 4.7732105 v -0.468489 h 1.46191 v 0.468489 z M 7.0391016,71.132536 V 73.26049 H 6.4859465 v -2.127954 z m 0.3552471,2.127954 0.3612441,-2.127954 h 0.5475107 l 0.4261553,1.134533 0.423333,-1.134533 H 9.7001025 L 10.061347,73.26049 H 9.5110137 L 9.3275694,72.035647 8.8252143,73.26049 H 8.6050811 L 8.1281259,72.035647 7.9446816,73.26049 Z m 4.2329773,-1.659465 h -0.657578 v 0.3556 h 0.620889 v 0.468488 h -0.620889 v 0.366889 h 0.657578 v 0.468488 h -1.210733 v -2.127954 h 1.210733 z m 1.900941,0 h -0.310444 v -0.468489 h 0.863599 v 2.127954 h -0.553155 z"
     id="text1"
     style="font-weight:bold;font-size:2.82222px;line-height:0.1;font-family:Futura;-inkscape-font-specification:'Futura Bold';letter-spacing:0.00529167px;word-spacing:0.0079375px;stroke-width:4.47;stroke-linecap:round;stroke-linejoin:round"
     aria-label="TIME 1" />
  <path
     id="rect26-7-9"
     fill="#1f1f1f"
     d="m 189.36171,106.40242 h 8.82191 c 0.60147,0 1.08905,0.48425 1.08905,1.08167 v 12.77841 c 0,0.59741 -0.48758,1.08166 -1.08905,1.08166 h -8.82191 c -0.60146,0 -1.08904,-0.48425 -1.08904,-1.08166 v -12.77841 c 0,-0.59742 0.48758,-1.08167 1.08904,-1.08167 z"
     style="display:inline;stroke-width:0.382891" />
  <rect
     style="fill:#000000;fill-opacity:1;stroke:none;stroke-width:1.74642;stroke-linecap:round;stroke-linejoin:round;stroke-dasharray:none;stroke-opacity:1"
     id="rect6-2-6-7"
     width="0.2"
     height="13.740685"
     x="193.67267"
     y="89.355812" />
  <circle
     id="uuid-cae7cb64-b9d2-4491-a6b2-1bbe8644b71e-6-0-0-9-0-2"
     display="inline"
     fill="#0000ff"
     cx="193.77266"
     cy="81.756378"
     r="4.3757935"
     inkscape:label="PARAM_TIME"
     style="display:inline;fill:none;fill-opacity:1;stroke:#000000;stroke-width:0.248413;stroke-dasharray:none;stroke-opacity:1" />
  <path
     sodipodi:type="star"
     style="fill:#000000;stroke-width:4.47;stroke-linecap:round;stroke-linejoin:round"
     id="path1-7"
     inkscape:flatsided="false"
     sodipodi:sides="3"
     sodipodi:cx="5.9720817"
     sodipodi:cy="86.380501"
     sodipodi:r1="0.58027047"
     sodipodi:r2="0.29013523"
     sodipodi:arg1="0.73781506"
     sodipodi:arg2="1.7850126"
     inkscape:rounded="0"
     inkscape:randomized="0"
     d="M 6.401447,86.770833 5.9104042,86.664004 5.4193614,86.557176 5.757399,86.185335 l 0.3380375,-0.371842 0.1530053,0.47867 z"
     inkscape:transform-center-x="0.022141576"
     inkscape:transform-center-y="-0.12547079"
     transform="rotate(-7.8970025,83.87887,-1232.9026)" />
  <path
     sodipodi:type="star"
     style="fill:#000000;stroke-width:4.47;stroke-linecap:round;stroke-linejoin:round"
     id="path1-9-0"
     inkscape:flatsided="false"
     sodipodi:sides="3"
     sodipodi:cx="5.9720817"
     sodipodi:cy="86.380501"
     sodipodi:r1="0.58027047"
     sodipodi:r2="0.29013523"
     sodipodi:arg1="0.73781506"
     sodipodi:arg2="1.7850126"
     inkscape:rounded="0"
     inkscape:randomized="0"
     d="M 6.401447,86.770833 5.9104042,86.664004 5.4193614,86.557176 5.757399,86.185335 l 0.3380375,-0.371842 0.1530053,0.47867 z"
     inkscape:transform-center-x="0.11418628"
     inkscape:transform-center-y="0.03447111"
     transform="rotate(24.549862,108.94025,500.66603)" />
  <path
     sodipodi:type="star"
     style="fill:#000000;stroke-width:4.47;stroke-linecap:round;stroke-linejoin:round"
     id="path1-8-3"
     inkscape:flatsided="false"
     sodipodi:sides="3"
     sodipodi:cx="5.9720817"
     sodipodi:cy="86.380501"
     sodipodi:r1="0.58027047"
     sodipodi:r2="0.29013523"
     sodipodi:arg1="0.73781506"
     sodipodi:arg2="1.7850126"
     inkscape:rounded="0"
     inkscape:randomized="0"
     d="M 6.401447,86.770833 5.9104042,86.664004 5.4193614,86.557176 5.757399,86.185335 l 0.3380375,-0.371842 0.1530053,0.47867 z"
     inkscape:transform-center-x="-0.047859823"
     inkscape:transform-center-y="0.10163236"
     transform="rotate(57.220842,105.2926,249.6592)" />
  <path
     sodipodi:type="star"
     style="fill:#000000;stroke-width:4.47;stroke-linecap:round;stroke-linejoin:round"
     id="path1-9-1-99"
     inkscape:flatsided="false"
     sodipodi:sides="3"
     sodipodi:cx="5.9720817"
     sodipodi:cy="86.380501"
     sodipodi:r1="0.58027047"
     sodipodi:r2="0.29013523"
     sodipodi:arg1="0.73781506"
     sodipodi:arg2="1.7850126"
     inkscape:rounded="0"
     inkscape:randomized="0"
     d="M 6.401447,86.770833 5.9104042,86.664004 5.4193614,86.557176 5.757399,86.185335 l 0.3380375,-0.371842 0.1530053,0.47867 z"
     inkscape:transform-center-x="-0.089939348"
     inkscape:transform-center-y="-0.060031288"
     transform="rotate(89.667707,104.2049,174.50569)" />
  <path
     sodipodi:type="star"
     style="fill:#000000;stroke-width:4.47;stroke-linecap:round;stroke-linejoin:round"
     id="path1-3-9"
     inkscape:flatsided="false"
     sodipodi:sides="3"
     sodipodi:cx="5.9720817"
     sodipodi:cy="86.380501"
     sodipodi:r1="0.58027047"
     sodipodi:r2="0.29013523"
     sodipodi:arg1="0.73781506"
     sodipodi:arg2="1.7850126"
     inkscape:rounded="0"
     inkscape:randomized="0"
     d="M 6.401447,86.770833 5.9104042,86.664004 5.4193614,86.557176 5.757399,86.185335 l 0.3380375,-0.371842 0.1530053,0.47867 z"
     inkscape:transform-center-x="0.097305646"
     inkscape:transform-center-y="-0.052392356"
     transform="rotate(127.32273,103.55302,128.0495)" />
  <path
     sodipodi:type="star"
     style="fill:#000000;stroke-width:4.47;stroke-linecap:round;stroke-linejoin:round"
     id="path1-9-2-1"
     inkscape:flatsided="false"
     sodipodi:sides="3"
     sodipodi:cx="5.9720817"
     sodipodi:cy="86.380501"
     sodipodi:r1="0.58027047"
     sodipodi:r2="0.29013523"
     sodipodi:arg1="0.73781506"
     sodipodi:arg2="1.7850126"
     inkscape:rounded="0"
     inkscape:randomized="0"
     d="M 6.401447,86.770833 5.9104042,86.664004 5.4193614,86.557176 5.757399,86.185335 l 0.3380375,-0.371842 0.1530053,0.47867 z"
     inkscape:transform-center-x="0.04016288"
     inkscape:transform-center-y="0.10889224"
     transform="rotate(159.76959,103.16784,99.357335)" />
  <path
     sodipodi:type="star"
     style="fill:#000000;stroke-width:4.47;stroke-linecap:round;stroke-linejoin:round"
     id="path1-8-6-7"
     inkscape:flatsided="false"
     sodipodi:sides="3"
     sodipodi:cx="5.9720817"
     sodipodi:cy="86.380501"
     sodipodi:r1="0.58027047"
     sodipodi:r2="0.29013523"
     sodipodi:arg1="0.73781506"
     sodipodi:arg2="1.7850126"
     inkscape:rounded="0"
     inkscape:randomized="0"
     d="M 6.401447,86.770833 5.9104042,86.664004 5.4193614,86.557176 5.757399,86.185335 l 0.3380375,-0.371842 0.1530053,0.47867 z"
     inkscape:transform-center-x="-0.12130406"
     inkscape:transform-center-y="0.026728557"
     transform="rotate(-167.55943,102.77291,73.229716)" />
  <path
     sodipodi:type="star"
     style="fill:#000000;stroke-width:4.47;stroke-linecap:round;stroke-linejoin:round"
     id="path1-9-1-9-2"
     inkscape:flatsided="false"
     sodipodi:sides="3"
     sodipodi:cx="5.9720817"
     sodipodi:cy="86.380501"
     sodipodi:r1="0.58027047"
     sodipodi:r2="0.29013523"
     sodipodi:arg1="0.73781506"
     sodipodi:arg2="1.7850126"
     inkscape:rounded="0"
     inkscape:randomized="0"
     d="M 6.401447,86.770833 5.9104042,86.664004 5.4193614,86.557176 5.757399,86.185335 l 0.3380375,-0.371842 0.1530053,0.47867 z"
     inkscape:transform-center-x="-0.014366239"
     inkscape:transform-center-y="-0.13244525"
     transform="rotate(-135.11256,102.42927,45.217559)" />
  <path
     d="m 189.88056,71.601155 v 1.659465 h -0.55316 v -1.659465 h -0.45437 v -0.468489 h 1.46191 v 0.468489 z m 1.25836,-0.468489 v 2.127954 h -0.55316 v -2.127954 z m 0.35524,2.127954 0.36125,-2.127954 h 0.54751 l 0.42615,1.134533 0.42334,-1.134533 h 0.54751 l 0.36124,2.127954 h -0.55033 l -0.18345,-1.224843 -0.50235,1.224843 h -0.22013 l -0.47696,-1.224843 -0.18344,1.224843 z m 4.23298,-1.659465 h -0.65758 v 0.355599 h 0.62089 v 0.468489 h -0.62089 v 0.366889 h 0.65758 v 0.468488 h -1.21073 v -2.127954 h 1.21073 z m 2.94516,1.659465 h -1.71308 l 0.52775,-0.547511 q 0.20885,-0.217311 0.32738,-0.366888 0.11853,-0.1524 0.17498,-0.256822 0.0593,-0.104422 0.0734,-0.169333 0.0141,-0.06491 0.0141,-0.110067 0,-0.04798 -0.0169,-0.09313 -0.0141,-0.04516 -0.0452,-0.07902 -0.031,-0.03669 -0.0762,-0.05644 -0.0423,-0.02258 -0.1016,-0.02258 -0.11289,0 -0.1778,0.07338 -0.0621,0.07338 -0.0621,0.183444 0,0.03105 0.008,0.09031 h -0.60395 q 0,-0.186266 0.0593,-0.338666 0.0621,-0.1524 0.17215,-0.262466 0.11007,-0.110067 0.25965,-0.169334 0.1524,-0.05927 0.33302,-0.05927 0.1778,0 0.32738,0.05644 0.15239,0.05644 0.26246,0.158044 0.11007,0.1016 0.17216,0.242711 0.0621,0.138289 0.0621,0.301978 0,0.174978 -0.0762,0.324555 -0.0734,0.146756 -0.23707,0.301978 l -0.35278,0.3302 h 0.68862 z"
     id="text1-3"
     style="font-weight:bold;font-size:2.82222px;line-height:0.1;font-family:Futura;-inkscape-font-specification:'Futura Bold';letter-spacing:0.00529167px;word-spacing:0.0079375px;stroke-width:4.47;stroke-linecap:round;stroke-linejoin:round"
     aria-label="TIME 2" />
  <path
     d="m 190.80112,109.1322 q 0,0.0953 0.036,0.17568 0.036,0.0804 0.0974,0.1397 0.0614,0.0593 0.14181,0.0931 0.0825,0.0318 0.17357,0.0318 0.091,0 0.17145,-0.0318 0.0825,-0.0339 0.14393,-0.0931 0.0635,-0.0593 0.0995,-0.1397 0.036,-0.0804 0.036,-0.17568 0,-0.0952 -0.036,-0.17568 -0.036,-0.0804 -0.0995,-0.1397 -0.0614,-0.0593 -0.14393,-0.091 -0.0804,-0.0339 -0.17145,-0.0339 -0.091,0 -0.17357,0.0339 -0.0804,0.0317 -0.14181,0.091 -0.0614,0.0593 -0.0974,0.1397 -0.036,0.0804 -0.036,0.17568 z m -0.43391,0 q 0,-0.1778 0.0656,-0.3302 0.0656,-0.15452 0.18204,-0.26882 0.11641,-0.1143 0.27728,-0.1778 0.16299,-0.0656 0.35772,-0.0656 0.19262,0 0.3556,0.0656 0.16298,0.0635 0.2794,0.1778 0.11853,0.1143 0.18415,0.26882 0.0656,0.1524 0.0656,0.3302 0,0.1778 -0.0656,0.33232 -0.0656,0.1524 -0.18415,0.2667 -0.11642,0.1143 -0.2794,0.17991 -0.16298,0.0635 -0.3556,0.0635 -0.19473,0 -0.35772,-0.0635 -0.16087,-0.0656 -0.27728,-0.17991 -0.11642,-0.1143 -0.18204,-0.2667 -0.0656,-0.15452 -0.0656,-0.33232 z m 2.45004,-0.79799 v 0.86784 q 0,0.0699 0.004,0.14393 0.006,0.072 0.0317,0.13124 0.0275,0.0593 0.0847,0.0974 0.0571,0.036 0.16087,0.036 0.10372,0 0.15875,-0.036 0.0572,-0.0381 0.0847,-0.0974 0.0275,-0.0593 0.0318,-0.13124 0.006,-0.0741 0.006,-0.14393 v -0.86784 h 0.41275 v 0.92499 q 0,0.37253 -0.17145,0.54398 -0.16934,0.17145 -0.52282,0.17145 -0.35349,0 -0.52494,-0.17145 -0.17145,-0.17145 -0.17145,-0.54398 v -0.92499 z m 1.92088,0.35137 v 1.2446 h -0.41487 v -1.2446 h -0.34078 v -0.35137 h 1.09643 v 0.35137 z m 2.43999,1.2446 h -1.28482 l 0.39582,-0.41063 q 0.15663,-0.16298 0.24554,-0.27517 0.0889,-0.1143 0.13123,-0.19261 0.0445,-0.0783 0.055,-0.127 0.0106,-0.0487 0.0106,-0.0825 0,-0.036 -0.0127,-0.0699 -0.0106,-0.0339 -0.0339,-0.0593 -0.0233,-0.0275 -0.0572,-0.0423 -0.0318,-0.0169 -0.0762,-0.0169 -0.0847,0 -0.13335,0.055 -0.0466,0.055 -0.0466,0.13759 0,0.0233 0.006,0.0677 h -0.45297 q 0,-0.1397 0.0445,-0.254 0.0466,-0.1143 0.12912,-0.19685 0.0825,-0.0825 0.19473,-0.127 0.1143,-0.0444 0.24977,-0.0444 0.13335,0 0.24554,0.0423 0.1143,0.0423 0.19685,0.11854 0.0825,0.0762 0.12911,0.18203 0.0466,0.10372 0.0466,0.22649 0,0.13123 -0.0572,0.24341 -0.055,0.11007 -0.1778,0.22649 l -0.26458,0.24765 h 0.51646 z"
     id="text2"
     style="font-weight:bold;font-size:2.11667px;line-height:0.1;font-family:Futura;-inkscape-font-specification:'Futura Bold';letter-spacing:0.00529167px;word-spacing:0.0079375px;fill:#ffffff;stroke-width:4.47;stroke-linecap:round;stroke-linejoin:round"
     aria-label="OUT 2" />
  <path
     d="M 191.88857,7.0437907 V 8.6397598 H 191.4737 V 7.0437907 Z m 0.33973,1.5959691 V 7.0437907 h 0.41487 l 0.76623,0.9757848 V 7.0437907 h 0.41275 v 1.5959691 h -0.41275 l -0.76623,-0.9757849 v 0.9757849 z m 3.84334,0 h -1.28482 l 0.39582,-0.410634 q 0.15663,-0.1629836 0.24553,-0.2751671 0.0889,-0.1143002 0.13124,-0.1926169 0.0444,-0.078317 0.055,-0.1270002 0.0106,-0.048683 0.0106,-0.08255 0,-0.035983 -0.0127,-0.06985 -0.0106,-0.033867 -0.0339,-0.059267 -0.0233,-0.027517 -0.0572,-0.042333 -0.0317,-0.016933 -0.0762,-0.016933 -0.0847,0 -0.13335,0.055033 -0.0466,0.055033 -0.0466,0.1375836 0,0.023283 0.006,0.067733 h -0.45297 q 0,-0.1397002 0.0445,-0.2540004 0.0466,-0.1143002 0.12912,-0.1968504 0.0825,-0.08255 0.19473,-0.1270002 0.1143,-0.04445 0.24977,-0.04445 0.13335,0 0.24553,0.042333 0.1143,0.042333 0.19685,0.1185335 0.0825,0.0762 0.12912,0.1820336 0.0466,0.1037168 0.0466,0.2264837 0,0.1312335 -0.0572,0.243417 -0.055,0.1100668 -0.1778,0.2264837 l -0.26459,0.2476505 h 0.51647 z"
     id="text2-3"
     style="font-weight:bold;font-size:2.11667px;line-height:0.1;font-family:Futura;-inkscape-font-specification:'Futura Bold';letter-spacing:0.00529167px;word-spacing:0.0079375px;stroke-width:4.47;stroke-linecap:round;stroke-linejoin:round"
     aria-label="IN 2" />
  <path
     d="m 190.86621,23.736651 v 1.244602 h -0.41486 v -1.244602 h -0.34079 v -0.351367 h 1.09644 v 0.351367 z m 0.9451,0.36195 h 0.0783 q 0.12277,0 0.18839,-0.0508 0.0656,-0.0508 0.0656,-0.14605 0,-0.09525 -0.0656,-0.14605 -0.0656,-0.0508 -0.18839,-0.0508 h -0.0783 z m 0.91228,0.882652 h -0.51647 l -0.39581,-0.613835 v 0.613835 h -0.41487 v -1.595969 h 0.64558 q 0.13335,0 0.23284,0.04022 0.0995,0.0381 0.16298,0.105834 0.0656,0.06773 0.0974,0.156633 0.0339,0.0889 0.0339,0.190501 0,0.182033 -0.0889,0.296333 -0.0868,0.112184 -0.25823,0.152401 z m 0.59373,-1.595969 v 1.595969 h -0.41487 v -1.595969 z m 1.11654,0.702734 h 0.82338 q 0,0.127 -0.0106,0.230717 -0.0106,0.103717 -0.0423,0.192617 -0.0445,0.124884 -0.12065,0.22225 -0.0762,0.09525 -0.17992,0.160867 -0.1016,0.0635 -0.22437,0.09737 -0.12276,0.03387 -0.25823,0.03387 -0.18627,0 -0.34078,-0.06138 -0.1524,-0.06138 -0.26247,-0.17145 -0.11007,-0.112183 -0.17145,-0.2667 -0.0614,-0.156634 -0.0614,-0.345018 0,-0.186266 0.0593,-0.340783 0.0614,-0.156634 0.17145,-0.266701 0.11219,-0.110067 0.26882,-0.17145 0.15663,-0.06138 0.34925,-0.06138 0.24977,0 0.43815,0.10795 0.18838,0.10795 0.29845,0.334434 l -0.3937,0.162983 q -0.055,-0.131233 -0.14393,-0.188383 -0.0868,-0.05715 -0.19897,-0.05715 -0.0931,0 -0.16933,0.03598 -0.0762,0.03387 -0.13124,0.09948 -0.0529,0.0635 -0.0847,0.154517 -0.0296,0.09102 -0.0296,0.2032 0,0.101601 0.0254,0.188384 0.0275,0.08678 0.0804,0.150284 0.0529,0.0635 0.13123,0.09948 0.0783,0.03387 0.18203,0.03387 0.0614,0 0.11854,-0.0127 0.0571,-0.01482 0.1016,-0.04445 0.0466,-0.03175 0.0762,-0.08043 0.0296,-0.04868 0.0402,-0.118533 h -0.34078 z m 3.00091,0.893235 h -1.28482 l 0.39582,-0.410634 q 0.15663,-0.162984 0.24553,-0.275167 0.0889,-0.114301 0.13123,-0.192617 0.0445,-0.07832 0.055,-0.127 0.0106,-0.04868 0.0106,-0.08255 0,-0.03598 -0.0127,-0.06985 -0.0106,-0.03387 -0.0339,-0.05927 -0.0233,-0.02752 -0.0571,-0.04233 -0.0318,-0.01693 -0.0762,-0.01693 -0.0847,0 -0.13335,0.05503 -0.0466,0.05503 -0.0466,0.137584 0,0.02328 0.006,0.06773 h -0.45297 q 0,-0.1397 0.0444,-0.254 0.0466,-0.1143 0.12912,-0.196851 0.0825,-0.08255 0.19473,-0.127 0.1143,-0.04445 0.24977,-0.04445 0.13335,0 0.24553,0.04233 0.1143,0.04233 0.19685,0.118533 0.0825,0.0762 0.12912,0.182034 0.0466,0.103717 0.0466,0.226483 0,0.131234 -0.0572,0.243417 -0.055,0.110067 -0.1778,0.226484 l -0.26458,0.24765 h 0.51647 z"
     id="text2-3-4"
     style="font-weight:bold;font-size:2.11667px;line-height:0.1;font-family:Futura;-inkscape-font-specification:'Futura Bold';letter-spacing:0.00529167px;word-spacing:0.0079375px;stroke-width:4.47;stroke-linecap:round;stroke-linejoin:round"
     aria-label="TRIG 2" />
  <g
     inkscape:groupmode="layer"
     id="layer2"
     inkscape:label="components"
     style="display:none">
    <rect
       style="fill:#ffff00;fill-opacity:1;stroke:none;stroke-width:2.92922;stroke-opacity:1"
       id="rect1"
       width="165.49001"
       height="128.5"
       x="18.855"
       y="0.025001526"
       inkscape:label="WIDGET_CANVAS" />
    <circle
       id="uuid-cae7cb64-b9d2-4491-a6b2-1bbe8644b71e-6-6"
       display="inline"
       fill="#0000ff"
       cx="193.77267"
       cy="115.86398"
       r="1.3229166"
       inkscape:label="OUT_2"
       style="stroke-width:0.264583" />
    <circle
       id="uuid-cae7cb64-b9d2-4491-a6b2-1bbe8644b71e-6"
       display="inline"
       fill="#0000ff"
       cx="9.4273167"
       cy="115.86398"
       r="1.3229166"
       inkscape:label="OUT_1"
       style="stroke-width:0.264583" />
    <circle
       id="uuid-cae7cb64-b9d2-4491-a6b2-1bbe8644b71e-6-0-0-2"
       display="inline"
       fill="#0000ff"
       cx="193.77267"
       cy="14.552081"
       r="1.3229166"
       inkscape:label="IN_2"
       style="fill:#00ff00;fill-opacity:1;stroke-width:0.264583" />
    <circle
       id="uuid-cae7cb64-b9d2-4491-a6b2-1bbe8644b71e-6-0-0"
       display="inline"
       fill="#0000ff"
       cx="9.4273186"
       cy="14.552081"
       r="1.3229166"
       inkscape:label="IN_1"
       style="fill:#00ff00;fill-opacity:1;stroke-width:0.264583" />
    <circle
       id="uuid-cae7cb64-b9d2-4491-a6b2-1bbe8644b71e-6-0-0-0"
       display="inline"
       fill="#0000ff"
       cx="9.4273186"
       cy="30.91577"
       r="1.3229166"
       inkscape:label="TRIG_1"
       style="display:inline;fill:#00ff00;fill-opacity:1;stroke-width:0.264583" />
    <circle
       id="uuid-cae7cb64-b9d2-4491-a6b2-1bbe8644b71e-6-0-0-0-3"
       display="inline"
       fill="#0000ff"
       cx="193.77267"
       cy="30.91577"
       r="1.3229166"
       inkscape:label="TRIG_2"
       style="display:inline;fill:#00ff00;fill-opacity:1;stroke-width:0.264583" />
    <circle
       id="uuid-cae7cb64-b9d2-4491-a6b2-1bbe8644b71e-6-0-0-9"
       display="inline"
       fill="#0000ff"
       cx="9.4273167"
       cy="81.756241"
       r="1.3229166"
       inkscape:label="PARAM_TIME_1"
       style="fill:#ff0000;fill-opacity:1;stroke-width:0.264583" />
    <circle
       id="uuid-cae7cb64-b9d2-4491-a6b2-1bbe8644b71e-6-0-0-9-7"
       display="inline"
       fill="#0000ff"
       cx="193.77267"
       cy="81.756241"
       r="1.3229166"
       inkscape:label="PARAM_TIME_2"
       style="display:inline;fill:#ff0000;fill-opacity:1;stroke-width:0.264583" />
  </g>
</svg>
