<?xml version="1.0" encoding="UTF-8" standalone="no"?>
<!-- Generator: Adobe Illustrator 27.8.1, SVG Export Plug-In . SVG Version: 6.00 Build 0)  -->

<svg
   version="1.0"
   id="svg269"
   x="0px"
   y="0px"
   width="195px"
   height="380px"
   viewBox="0 0 195 380"
   enable-background="new 0 0 195 380"
   xml:space="preserve"
   sodipodi:docname="draw.svg"
   inkscape:version="1.3.2 (091e20e, 2023-11-25)"
   xmlns:inkscape="http://www.inkscape.org/namespaces/inkscape"
   xmlns:sodipodi="http://sodipodi.sourceforge.net/DTD/sodipodi-0.dtd"
   xmlns="http://www.w3.org/2000/svg"
   xmlns:svg="http://www.w3.org/2000/svg"><defs
   id="defs2"><rect
     x="32.958184"
     y="32.958184"
     width="148.68635"
     height="24.344113"
     id="rect3" /><rect
     x="122.09509"
     y="14.980993"
     width="53.557049"
     height="18.351716"
     id="rect2" /></defs>
<sodipodi:namedview
   bordercolor="#666666"
   borderopacity="1.0"
   id="namedview271"
   inkscape:current-layer="uuid-01687cb8-7441-45ec-98e1-245f9b20292f"
   inkscape:cx="100.15456"
   inkscape:cy="266.82202"
   inkscape:pagecheckerboard="0"
   inkscape:pageopacity="0.0"
   inkscape:pageshadow="2"
   inkscape:window-height="726"
   inkscape:window-maximized="0"
   inkscape:window-width="1440"
   inkscape:window-x="0"
   inkscape:window-y="25"
   inkscape:zoom="1.9469907"
   pagecolor="#ffffff"
   showgrid="false"
   inkscape:showpageshadow="2"
   inkscape:deskcolor="#d1d1d1"
   showguides="false">
	</sodipodi:namedview>
<g
   id="uuid-c4ee3f4d-09f1-4b84-8562-00919c5a3800"
   style="display:inline">
	
		<linearGradient
   id="rect9_00000092426418500424291310000009388725874193446806_"
   gradientUnits="userSpaceOnUse"
   x1="97.500023"
   y1="381.27557"
   x2="97.500023"
   y2="1.27557"
   gradientTransform="matrix(1,0,0,-1,0,381.27557)">
		<stop
   offset="0"
   style="stop-color:#EBEBEB"
   id="stop1" />
		<stop
   offset="1"
   style="stop-color:#E1E1E1"
   id="stop2" />
	</linearGradient>
	
		<rect
   id="rect9"
   x="3.9999999e-05"
   y="0"
   fill="url(#rect9_00000092426418500424291310000009388725874193446806_)"
   width="194.99995"
   height="380" />
</g><path
   style="font-weight:600;font-size:9.33333px;line-height:0.1;font-family:'Gill Sans';-inkscape-font-specification:'Gill Sans Semi-Bold';letter-spacing:0.02px;word-spacing:0.03px;stroke-width:11.2252"
   d="m 20.569318,257.62581 v 0.96158 h -2.260416 v 5.40495 h -1.230468 v -5.40495 h -2.260416 v -0.96158 z m 2.212056,0 v 6.36653 h -1.230468 v -6.36653 z m 2.558411,0 2.091796,2.51106 2.091796,-2.51106 h 1.098307 v 6.36653 h -1.230468 v -4.4707 h -0.03646 l -1.841145,2.24219 h -0.173177 l -1.841145,-2.24219 h -0.03646 v 4.4707 h -1.230468 v -6.36653 z m 10.820777,0 v 0.96158 h -2.884765 v 1.67253 h 2.761718 v 0.96159 h -2.761718 v 1.80924 h 2.948567 v 0.96159 h -4.179035 v -6.36653 z"
   id="text1-4-9"
   aria-label="TIME" />
<g
   id="uuid-d53dfa26-254a-467a-ac58-d86b307427be"
   style="display:inline">
	
		<line
   id="line12"
   fill="none"
   stroke="#1f1f1f"
   stroke-width="0.8"
   stroke-linecap="round"
   stroke-linejoin="round"
   x1="169.47881"
   y1="302.57367"
   x2="169.47881"
   y2="308.02136" />
	
	<path
   id="rect24"
   fill="#1f1f1f"
   d="m 50.03322,309.08893 h 22.9623 c 1.56554,0 2.83465,1.26913 2.83465,2.83466 v 33.48761 c 0,1.56552 -1.26911,2.83466 -2.83465,2.83466 h -22.9623 c -1.56553,0 -2.83465,-1.26913 -2.83465,-2.83466 v -33.48761 c 0,-1.56553 1.26912,-2.83466 2.83465,-2.83466 z"
   style="display:inline" />
	<path
   id="rect26"
   fill="#1f1f1f"
   d="m 122.01958,309.08893 h 22.9623 c 1.56554,0 2.83466,1.26913 2.83466,2.83466 v 33.48761 c 0,1.56552 -1.26912,2.83466 -2.83466,2.83466 h -22.9623 c -1.56554,0 -2.83465,-1.26913 -2.83465,-2.83466 v -33.48761 c 0,-1.56553 1.26911,-2.83466 2.83465,-2.83466 z"
   style="display:inline" />
	<path
   id="path28"
   fill="#1f1f1f"
   d="m 43.82551,333.67795 -2.87167,-1.65796 c -0.24791,-0.14313 -0.55779,0.0358 -0.55779,0.32205 v 3.31592 c 0,0.28625 0.30989,0.46518 0.55779,0.32205 l 2.87167,-1.65796 c 0.24791,-0.14313 0.24791,-0.50094 0,-0.6441 z"
   style="display:inline" />
	<path
   id="path30"
   fill="#1f1f1f"
   d="m 115.81186,333.67795 -2.87167,-1.65796 c -0.24791,-0.14313 -0.55779,0.0358 -0.55779,0.32205 v 3.31592 c 0,0.28625 0.30989,0.46518 0.55779,0.32205 l 2.87167,-1.65796 c 0.24791,-0.14313 0.24791,-0.50094 0,-0.6441 z"
   style="display:inline" />
	<g
   id="g38"
   style="display:inline">
		
			<line
   id="line32"
   fill="none"
   stroke="#1f1f1f"
   stroke-width="0.8"
   stroke-linecap="round"
   stroke-linejoin="round"
   x1="121.4965"
   y1="273.34799"
   x2="121.4965"
   y2="269.62473" />
		<path
   id="path34"
   fill="none"
   stroke="#1f1f1f"
   stroke-width="0.8"
   stroke-linecap="round"
   stroke-linejoin="round"
   d="m 130.13213,300.17661 c 4.83522,-2.92859 8.06662,-8.2395 8.06662,-14.30515 0,-9.23001 -7.48239,-16.7124 -16.71239,-16.7124 -9.23,0 -16.71239,7.48239 -16.71239,16.7124 0,6.09738 3.2653,11.4321 8.14264,14.35092" />
		<circle
   id="circle36"
   fill="none"
   cx="121.49648"
   cy="285.87146"
   r="20.694189" />
	</g>
	<g
   id="g46"
   style="display:inline">
		
			<line
   id="line40"
   fill="none"
   stroke="#1f1f1f"
   stroke-width="0.8"
   stroke-linecap="round"
   stroke-linejoin="round"
   x1="169.47884"
   y1="273.34799"
   x2="169.47884"
   y2="269.62473" />
		<path
   id="path42"
   fill="none"
   stroke="#1f1f1f"
   stroke-width="0.8"
   stroke-linecap="round"
   stroke-linejoin="round"
   d="m 178.11444,300.17661 c 4.83522,-2.92859 8.06662,-8.2395 8.06662,-14.30515 0,-9.23001 -7.48239,-16.7124 -16.71239,-16.7124 -9.23,0 -16.71239,7.48239 -16.71239,16.7124 0,6.09738 3.2653,11.4321 8.14264,14.35092" />
		<circle
   id="circle44"
   fill="none"
   cx="169.47881"
   cy="285.87146"
   r="20.69418" />
	</g>
	<g
   id="g68">
		
			<line
   id="line48"
   fill="none"
   stroke="#1f1f1f"
   stroke-width="0.5"
   stroke-linecap="round"
   stroke-linejoin="round"
   x1="73.515862"
   y1="225.32297"
   x2="73.515862"
   y2="221.5997" />
		<g
   id="g62">
			
				<line
   id="line50"
   fill="none"
   stroke="#1f1f1f"
   stroke-width="0.5"
   stroke-linecap="round"
   stroke-miterlimit="10"
   x1="58.11972"
   y1="244.29977"
   x2="73.514633"
   y2="237.77696" />
			
				<line
   id="line52"
   fill="none"
   stroke="#1f1f1f"
   stroke-width="0.5"
   stroke-linecap="round"
   stroke-miterlimit="10"
   x1="57.426842"
   y1="233.42999"
   x2="73.57328"
   y2="237.76965" />
			
				<line
   id="line54"
   fill="none"
   stroke="#1f1f1f"
   stroke-width="0.5"
   stroke-linecap="round"
   stroke-miterlimit="10"
   x1="63.269009"
   y1="224.68408"
   x2="73.591309"
   y2="237.83643" />
			
				<line
   id="line56"
   fill="none"
   stroke="#1f1f1f"
   stroke-width="0.5"
   stroke-linecap="round"
   stroke-miterlimit="10"
   x1="83.589684"
   y1="224.5587"
   x2="73.496002"
   y2="237.88731" />
			
				<line
   id="line58"
   fill="none"
   stroke="#1f1f1f"
   stroke-width="0.5"
   stroke-linecap="round"
   stroke-miterlimit="10"
   x1="89.538254"
   y1="233.2282"
   x2="73.470459"
   y2="237.85056" />
			
				<line
   id="line60"
   fill="none"
   stroke="#1f1f1f"
   stroke-width="0.5"
   stroke-linecap="round"
   stroke-miterlimit="10"
   x1="88.954399"
   y1="244.1479"
   x2="73.484497"
   y2="237.80498" />
		</g>
		<path
   id="path64"
   fill="none"
   stroke="#1f1f1f"
   stroke-width="0.8"
   stroke-linecap="round"
   stroke-linejoin="round"
   d="m 64.93596,252.19736 c -4.87734,-2.91881 -8.14264,-8.25352 -8.14264,-14.35091 0,-9.23 7.48239,-16.71239 16.71239,-16.71239 9.23,0 16.71239,7.48239 16.71239,16.71239 0,6.06564 -3.2314,11.37656 -8.06662,14.30515 l -8.63564,-14.30518 -8.57988,14.35095 z" />
		<circle
   id="circle66"
   fill="none"
   cx="73.515839"
   cy="237.84641"
   r="20.694189" />
	</g>
	<g
   id="g74"
   style="display:inline">
		<path
   id="path70"
   fill="none"
   stroke="#1f1f1f"
   stroke-width="0.8"
   stroke-linecap="round"
   stroke-linejoin="round"
   d="m 34.15683,300.18781 c 4.83522,-2.92859 8.06662,-8.2395 8.06662,-14.30515 0,-9.23001 -7.48239,-16.7124 -16.71239,-16.7124 -9.23,0 -16.71239,7.48239 -16.71239,16.7124 0,6.09738 3.2653,11.4321 8.14264,14.35092" />
		<circle
   id="circle72"
   fill="none"
   cx="25.521191"
   cy="285.88263"
   r="20.694189" />
	</g>
	<g
   id="g82"
   style="display:inline">
		
			<line
   id="line76"
   fill="none"
   stroke="#1f1f1f"
   stroke-width="0.8"
   stroke-linecap="round"
   stroke-linejoin="round"
   x1="73.515831"
   y1="273.34799"
   x2="73.515831"
   y2="269.62473" />
		<path
   id="path78"
   fill="none"
   stroke="#1f1f1f"
   stroke-width="0.8"
   stroke-linecap="round"
   stroke-linejoin="round"
   d="m 82.15145,300.17661 c 4.83522,-2.92859 8.06662,-8.2395 8.06662,-14.30515 0,-9.23001 -7.48239,-16.7124 -16.71239,-16.7124 -9.23,0 -16.71239,7.48239 -16.71239,16.7124 0,6.09738 3.2653,11.4321 8.14264,14.35092" />
		<circle
   id="circle80"
   fill="none"
   cx="73.515808"
   cy="285.87146"
   r="20.694189" />
	</g>
	<g
   id="g104"
   style="display:inline">
		
			<line
   id="line84"
   fill="none"
   stroke="#1f1f1f"
   stroke-width="0.5"
   stroke-linecap="round"
   stroke-linejoin="round"
   x1="121.48637"
   y1="225.32297"
   x2="121.48637"
   y2="221.5997" />
		<g
   id="g98">
			
				<line
   id="line86"
   fill="none"
   stroke="#1f1f1f"
   stroke-width="0.5"
   stroke-linecap="round"
   stroke-miterlimit="10"
   x1="106.09023"
   y1="244.29977"
   x2="121.48514"
   y2="237.77696" />
			
				<line
   id="line88"
   fill="none"
   stroke="#1f1f1f"
   stroke-width="0.5"
   stroke-linecap="round"
   stroke-miterlimit="10"
   x1="105.39735"
   y1="233.42999"
   x2="121.54379"
   y2="237.76965" />
			
				<line
   id="line90"
   fill="none"
   stroke="#1f1f1f"
   stroke-width="0.5"
   stroke-linecap="round"
   stroke-miterlimit="10"
   x1="111.23952"
   y1="224.68408"
   x2="121.56182"
   y2="237.83643" />
			
				<line
   id="line92"
   fill="none"
   stroke="#1f1f1f"
   stroke-width="0.5"
   stroke-linecap="round"
   stroke-miterlimit="10"
   x1="131.5602"
   y1="224.5587"
   x2="121.46651"
   y2="237.88731" />
			
				<line
   id="line94"
   fill="none"
   stroke="#1f1f1f"
   stroke-width="0.5"
   stroke-linecap="round"
   stroke-miterlimit="10"
   x1="137.50876"
   y1="233.2282"
   x2="121.44097"
   y2="237.85056" />
			
				<line
   id="line96"
   fill="none"
   stroke="#1f1f1f"
   stroke-width="0.5"
   stroke-linecap="round"
   stroke-miterlimit="10"
   x1="136.92491"
   y1="244.1479"
   x2="121.45501"
   y2="237.80498" />
		</g>
		<path
   id="path100"
   fill="none"
   stroke="#1f1f1f"
   stroke-width="0.8"
   stroke-linecap="round"
   stroke-linejoin="round"
   d="m 112.90647,252.19736 c -4.87734,-2.91881 -8.14264,-8.25352 -8.14264,-14.35091 0,-9.23 7.48239,-16.71239 16.71239,-16.71239 9.23,0 16.71239,7.48239 16.71239,16.71239 0,6.06564 -3.2314,11.37656 -8.06662,14.30515 l -8.6255,-14.30518 -8.59002,14.35095 z" />
		<circle
   id="circle102"
   fill="none"
   cx="121.48635"
   cy="237.84641"
   r="20.694189" />
	</g>
</g>
<g
   id="uuid-59cf0549-b020-411a-85f6-5c31845f97c7"
   style="display:inline">
	
	<g
   id="g129">
		
		
		
		
		
	</g>
	
	
	
	
	
	<g
   id="g193">
		
		
		
		
	</g>
	
	
	
	
	
	
<path
   style="font-weight:bold;font-size:14.3806px;line-height:0.1;font-family:'Gill Sans';-inkscape-font-specification:'Gill Sans Bold';letter-spacing:0.0239676px;word-spacing:0.0359514px;stroke-width:13.4521"
   d="m 101.6078,20.120688 q 0,1.495639 -0.5477,2.401448 -0.54068,0.905809 -1.277966,1.467551 -1.046245,0.821548 -2.928081,0.821548 h -5.252289 v -9.732183 h 4.044543 q 0.912831,0 1.558835,0.0983 0.653025,0.09128 1.172637,0.266827 0.519611,0.168523 0.884744,0.386198 0.365132,0.210654 0.653025,0.456416 0.498542,0.407263 0.870702,0.961983 0.37917,0.554721 0.59685,1.284985 0.2247,0.730265 0.2247,1.586922 z m -2.984259,-0.126392 q 0,-1.18668 -0.456416,-1.846727 Q 97.717732,17.4805 97.07875,17.255803 96.44679,17.031106 95.786743,17.031106 h -1.249876 v 5.764879 h 1.249876 q 1.151571,0 1.994185,-0.547698 0.842613,-0.547699 0.842613,-2.253991 z m 14.243069,4.816939 h -3.15278 l -0.76537,-1.727357 q -0.42131,-0.94794 -0.75836,-1.38329 -0.33704,-0.442372 -0.66004,-0.561742 -0.31598,-0.126392 -0.82155,-0.126392 h -0.33002 v 3.798781 h -2.93511 v -9.732183 h 4.99249 q 1.20774,0 1.98014,0.491524 0.77239,0.491525 1.10944,1.193703 0.34406,0.702177 0.34406,1.334137 0,0.737287 -0.28789,1.249877 -0.28087,0.505568 -0.59685,0.737286 -0.31598,0.231719 -0.7092,0.442372 0.47046,0.27385 0.7724,0.653026 0.30896,0.372154 0.83559,1.516703 z m -3.98837,-6.656644 q 0,-0.674091 -0.44237,-0.940919 -0.44238,-0.266827 -1.43947,-0.266827 h -0.61791 v 2.345273 h 0.63196 q 1.07433,0 1.46755,-0.231718 0.40024,-0.238741 0.40024,-0.905809 z m 16.03362,6.656644 h -3.00532 l -0.79346,-1.973119 h -4.22711 l -0.80751,1.973119 h -3.00532 l 4.30435,-9.732183 h 3.24406 z m -4.47287,-3.665367 -1.42542,-3.55302 -1.43947,3.55302 z m 20.73118,-6.066816 -4.21306,9.858575 h -1.69927 l -2.52784,-5.736792 -2.59104,5.736792 h -1.71331 l -4.12881,-9.858575 h 3.04043 l 2.02227,5.392725 2.31719,-5.392725 h 2.09951 l 2.27506,5.392725 2.11355,-5.392725 z"
   id="text5"
   transform="scale(0.83445903,1.1983812)"
   aria-label="DRAW" /></g>
<g
   id="uuid-01687cb8-7441-45ec-98e1-245f9b20292f"
   inkscape:groupmode="layer"
   display="none"
   inkscape:label="components">
	<circle
   id="uuid-e9f982fb-2414-43cb-9c46-31dd417c22f3"
   display="inline"
   fill="#ff0000"
   cx="25.521191"
   cy="238"
   r="5"
   inkscape:label="PARAM_1X2" />
	<circle
   id="uuid-0e696d93-9562-4857-865b-1ab1ebc29583"
   display="inline"
   fill="#ff0000"
   cx="169.47881"
   cy="237.75993"
   r="5"
   inkscape:label="PARAM_TRIG" />
	<circle
   id="uuid-ac818d73-593e-47ac-a73a-0468a40d11b6"
   display="inline"
   fill="#00ff00"
   cx="25.521191"
   cy="334"
   r="5"
   inkscape:label="IN_1" />
	<circle
   id="uuid-31465d9b-7446-49a6-923d-bf2d4f2ff800"
   display="inline"
   fill="#00ff00"
   cx="169.47881"
   cy="334"
   r="5"
   inkscape:label="OUT_TRIG" />
	<circle
   id="uuid-cae7cb64-b9d2-4491-a6b2-1bbe8644b71e"
   display="inline"
   fill="#0000ff"
   cx="133.50073"
   cy="334"
   r="5"
   inkscape:label="OUT_2" />
	<circle
   id="uuid-ca0ee116-dd43-4274-a871-e021c37688d9"
   display="inline"
   fill="#00ff00"
   cx="97.507553"
   cy="334"
   r="5"
   inkscape:label="IN_2" /><path
   style="font-weight:600;font-size:6.66667px;line-height:0.1;font-family:'Gill Sans';-inkscape-font-specification:'Gill Sans Semi-Bold';letter-spacing:0.02px;word-spacing:0.03px;stroke-width:11.2252"
   d="m 92.439764,314.27776 v 4.54753 h -0.878907 v -4.54753 z m 1.813621,0 2.701824,3.17383 v -3.17383 h 0.859375 v 4.54753 h -0.755208 l -2.718101,-3.22592 v 3.22592 H 93.4819 v -4.54753 z m 7.514665,-0.0586 q 0.64779,0 1.02865,0.3711 0.38411,0.36784 0.38411,0.98307 0,0.46875 -0.28646,1.01563 -0.2832,0.54687 -0.99935,1.44857 h 1.55925 v 0.78776 h -2.94597 v -0.0944 q 0.51433,-0.63477 0.88217,-1.13933 0.37109,-0.50781 0.57291,-0.83984 0.20183,-0.33529 0.28646,-0.56966 0.0846,-0.23438 0.0846,-0.48503 0,-0.3125 -0.20183,-0.52409 -0.19856,-0.21484 -0.48502,-0.21484 -0.51433,0 -1.06771,0.58594 v -0.89193 q 0.58268,-0.43295 1.18815,-0.43295 z"
   id="text1-6-4"
   aria-label="IN 2" /><path
   style="font-weight:600;font-size:6.66667px;line-height:0.1;font-family:'Gill Sans';-inkscape-font-specification:'Gill Sans Semi-Bold';letter-spacing:0.02px;word-spacing:0.03px;stroke-width:11.2252"
   d="m 165.99014,314.24846 v 0.68685 h -1.61458 v 3.86068 h -0.87891 v -3.86068 h -1.61459 v -0.68685 z m 2.32469,0 q 0.64127,0 1.04492,0.35482 0.40365,0.35482 0.40365,0.92448 0,0.38737 -0.20183,0.67708 -0.19856,0.28646 -0.59244,0.45248 0.21809,0.11718 0.38737,0.31901 0.16927,0.20182 0.41992,0.68034 0.41666,0.82682 0.61849,1.13932 h -0.97982 q -0.10091,-0.14974 -0.27344,-0.47852 -0.3776,-0.72591 -0.55338,-0.97656 -0.17579,-0.25391 -0.33855,-0.35807 -0.16276,-0.10742 -0.37434,-0.10742 h -0.31902 v 1.92057 h -0.8789 v -4.54753 z m -0.19857,1.94011 q 0.34505,0 0.54037,-0.17253 0.19856,-0.17253 0.19856,-0.472 0,-0.3125 -0.19531,-0.4655 -0.19531,-0.15625 -0.55664,-0.15625 h -0.54688 v 1.26628 z m 3.77326,-1.94011 v 4.54753 h -0.87891 v -4.54753 z m 3.4282,-0.0586 q 0.83985,0 1.66667,0.37435 v 0.80403 q -0.82682,-0.41992 -1.62761,-0.41992 -0.49804,0 -0.88541,0.19857 -0.38737,0.19857 -0.60222,0.57292 -0.21158,0.37109 -0.21158,0.83008 0,0.69661 0.46224,1.12304 0.46549,0.42318 1.22395,0.42318 0.20834,0 0.39714,-0.0358 0.19206,-0.0358 0.45573,-0.13672 v -0.7552 h -0.75195 v -0.68685 h 1.63086 v 1.875 q -0.33529,0.23437 -0.8073,0.36784 -0.46875,0.1302 -0.97656,0.1302 -0.7194,0 -1.30534,-0.29622 -0.58268,-0.29622 -0.91146,-0.83008 -0.32552,-0.53385 -0.32552,-1.19141 0,-0.66731 0.32878,-1.20768 0.33203,-0.54036 0.92122,-0.83984 0.59245,-0.29948 1.31836,-0.29948 z"
   id="text1-6-4-4"
   aria-label="TRIG" />
	<circle
   id="uuid-9f6aaa20-2e2d-4157-ac7e-322d135a42a1"
   display="inline"
   fill="#0000ff"
   cx="61.51437"
   cy="334"
   r="5"
   inkscape:label="OUT_1" />
	<circle
   id="uuid-fc739517-3f69-49b2-bc2b-9b7bc3d5fd8a"
   display="inline"
   fill="#ff0000"
   cx="121.49648"
   cy="285.87146"
   r="5"
   inkscape:label="PARAM_OFFSET_2" />
	<circle
   id="uuid-ab39d8e8-140e-432a-bb9c-0c335ce60cca"
   display="inline"
   fill="#ff0000"
   cx="25.521191"
   cy="285.88263"
   r="5"
   inkscape:label="PARAM_TIME" />
	<circle
   id="uuid-02c82747-e2a9-449f-a615-e4803e54047f"
   display="inline"
   fill="#ff0000"
   cx="73.515839"
   cy="285.79443"
   r="5"
   inkscape:label="PARAM_OFFSET_1" />
	<circle
   id="uuid-cac4d032-60a6-4a44-a4f3-589a138067c5"
   display="inline"
   fill="#ff0000"
   cx="121.49648"
   cy="237.84641"
   r="5"
   inkscape:label="PARAM_GAIN_2" />
	<circle
   id="uuid-b89b9fb9-3f2e-4ffc-a858-490ee0fd20ef"
   display="inline"
   fill="#ff0000"
   cx="73.515839"
   cy="237.84641"
   r="5"
   inkscape:label="PARAM_GAIN_1" />
	<circle
   id="uuid-598b36ab-02d4-4246-84c2-bbff6f9dda2e"
   display="inline"
   fill="#ff0000"
   cx="169.47881"
   cy="285.87146"
   r="5"
   inkscape:label="PARAM_THRESHOLD" /><path
   style="font-weight:600;font-size:9.33333px;line-height:0.1;font-family:'Gill Sans';-inkscape-font-specification:'Gill Sans Semi-Bold';letter-spacing:0.02px;word-spacing:0.03px;stroke-width:11.2252"
   d="m 160.63867,257.62581 v 0.96158 h -2.26041 v 5.40495 h -1.23047 v -5.40495 h -2.26042 v -0.96158 z m 2.18472,0 v 2.67968 h 3.30403 v -2.67968 h 1.23047 v 6.36653 h -1.23047 v -2.6888 h -3.30403 v 2.6888 h -1.23047 v -6.36653 z m 8.25046,0 q 0.89779,0 1.46289,0.49674 0.56511,0.49675 0.56511,1.29427 0,0.54232 -0.28255,0.94792 -0.278,0.40104 -0.82943,0.63346 0.30534,0.16406 0.54232,0.44661 0.23698,0.28256 0.58789,0.95248 0.58333,1.15755 0.86588,1.59505 h -1.37174 q -0.14128,-0.20964 -0.38281,-0.66992 -0.52865,-1.01628 -0.77474,-1.36719 -0.2461,-0.35547 -0.47396,-0.5013 -0.22787,-0.15039 -0.52409,-0.15039 H 170.012 v 2.6888 h -1.23046 v -6.36653 z m -0.27799,2.71614 q 0.48307,0 0.75651,-0.24154 0.27799,-0.24153 0.27799,-0.6608 0,-0.4375 -0.27343,-0.6517 -0.27344,-0.21875 -0.7793,-0.21875 H 170.012 v 1.77279 z m 8.13197,-2.71614 v 0.96158 h -2.88476 v 1.67253 h 2.76172 v 0.96159 h -2.76172 v 1.80924 h 2.94857 v 0.96159 h -4.17904 v -6.36653 z m 3.07795,-0.082 q 0.92968,0 1.79101,0.46485 v 1.09375 q -0.98893,-0.59701 -1.75455,-0.59701 -0.46485,0 -0.72917,0.18229 -0.25977,0.17774 -0.25977,0.47852 0,0.36003 0.48763,0.66536 0.13672,0.0912 1.05274,0.51042 0.78385,0.36914 1.13021,0.82031 0.34635,0.45117 0.34635,1.08464 0,0.82031 -0.59245,1.32617 -0.58789,0.5013 -1.52669,0.5013 -0.61068,0 -1.05273,-0.13216 -0.4375,-0.13672 -0.98438,-0.46484 v -1.21224 q 1.02083,0.84765 1.92318,0.84765 0.45117,0 0.72916,-0.19596 0.278,-0.19596 0.278,-0.51953 0,-0.44206 -0.48307,-0.72005 -0.40105,-0.21875 -1.03451,-0.52409 -0.75195,-0.3418 -1.12565,-0.79753 -0.36914,-0.45573 -0.36914,-1.05729 0,-0.80208 0.597,-1.27604 0.59701,-0.47852 1.57683,-0.47852 z"
   id="text1-4-9-9"
   aria-label="THRES" />
	
		<rect
   id="uuid-c451808c-f8de-4d15-a4dc-10dce1838ce1"
   x="3.9999999e-05"
   y="38.5"
   display="inline"
   fill="#ffff00"
   width="194.99995"
   height="165"
   inkscape:label="WIDGET_CANVAS" />
</g>
<path
   style="font-weight:600;font-size:8px;line-height:0.1;font-family:'Gill Sans';-inkscape-font-specification:'Gill Sans Semi-Bold';letter-spacing:0.02px;word-spacing:0.03px;stroke-width:11.2252"
   d="m 15.903066,217.28668 q 0.769531,0 1.253906,0.42578 0.484375,0.42578 0.484375,1.10938 0,0.46484 -0.242188,0.8125 -0.238281,0.34375 -0.710937,0.54297 0.261719,0.14062 0.464844,0.38281 0.203125,0.24219 0.503906,0.81641 0.5,0.99218 0.742187,1.36718 h -1.175781 q -0.121094,-0.17968 -0.328125,-0.57422 -0.453125,-0.87109 -0.664062,-1.17187 -0.210938,-0.30469 -0.40625,-0.42969 -0.195313,-0.1289 -0.449219,-0.1289 h -0.382813 v 2.30468 h -1.054687 v -5.45703 z m -0.238282,2.32813 q 0.414063,0 0.648438,-0.20703 0.238281,-0.20704 0.238281,-0.56641 0,-0.375 -0.234375,-0.55859 -0.234375,-0.1875 -0.667969,-0.1875 h -0.65625 v 1.51953 z m 6.973125,-2.32813 v 0.82422 h -2.472656 v 1.43359 h 2.367188 v 0.82422 h -2.367188 v 1.55078 h 2.527344 v 0.82422 h -3.582031 v -5.45703 z m 2.641094,-0.0703 q 0.796875,0 1.535156,0.39844 v 0.9375 q -0.847656,-0.51172 -1.503906,-0.51172 -0.398437,0 -0.625,0.15625 -0.222656,0.15234 -0.222656,0.41015 0,0.3086 0.417969,0.57032 0.117187,0.0781 0.902343,0.4375 0.671875,0.3164 0.96875,0.70312 0.296875,0.38672 0.296875,0.92969 0,0.70312 -0.507812,1.13672 -0.503906,0.42969 -1.308594,0.42969 -0.523437,0 -0.902344,-0.11329 -0.375,-0.11718 -0.84375,-0.39843 v -1.03907 q 0.875,0.72657 1.648438,0.72657 0.386719,0 0.625,-0.16797 0.238281,-0.16797 0.238281,-0.44531 0,-0.37891 -0.414062,-0.61719 -0.34375,-0.1875 -0.886719,-0.44922 -0.644531,-0.29297 -0.964844,-0.68359 -0.316406,-0.39063 -0.316406,-0.90625 0,-0.6875 0.511719,-1.09375 0.511718,-0.41016 1.351562,-0.41016 z m 6.238751,0.0703 v 0.82422 h -2.472657 v 1.43359 h 2.367188 v 0.82422 h -2.367188 v 1.55078 h 2.527344 v 0.82422 H 27.99041 v -5.45703 z m 5.586405,0 v 0.82422 h -1.9375 v 4.63281 h -1.054687 v -4.63281 h -1.9375 v -0.82422 z"
   id="text1"
   aria-label="RESET" /><path
   style="font-weight:600;font-size:6.66667px;line-height:0.1;font-family:'Gill Sans';-inkscape-font-specification:'Gill Sans Semi-Bold';letter-spacing:0.02px;word-spacing:0.03px;stroke-width:11.2252"
   d="m 20.975863,314.24846 v 4.54753 h -0.878907 v -4.54753 z m 1.81362,0 2.701824,3.17383 v -3.17383 h 0.859376 v 4.54753 h -0.755209 l -2.7181,-3.22591 v 3.22591 h -0.859376 v -4.54753 z m 8.155942,0 v 4.54753 h -0.833334 v -4.54753 z"
   id="text1-6"
   aria-label="IN 1" /><path
   style="font-weight:600;font-size:6.66667px;line-height:0.1;font-family:'Gill Sans';-inkscape-font-specification:'Gill Sans Semi-Bold';letter-spacing:0.02px;word-spacing:0.03px;fill:#ffffff;stroke-width:11.2252"
   d="m 54.524145,314.26454 q 0.70638,0 1.269531,0.29297 0.566407,0.28972 0.901694,0.83985 0.335286,0.54687 0.335286,1.20117 0,0.63802 -0.328776,1.1849 -0.325521,0.54362 -0.898438,0.84635 -0.569662,0.29948 -1.285808,0.29948 -0.70638,0 -1.285808,-0.30599 -0.576172,-0.30599 -0.898438,-0.83984 -0.322265,-0.53711 -0.322265,-1.1849 0,-0.625 0.322265,-1.17513 0.322266,-0.55013 0.888673,-0.85287 0.566406,-0.30599 1.302084,-0.30599 z m -1.604819,2.33399 q 0,0.45247 0.205078,0.8138 0.205079,0.36133 0.569662,0.5599 0.367839,0.19857 0.830079,0.19857 0.69987,0 1.149089,-0.43946 0.452474,-0.43945 0.452474,-1.13281 0,-0.45247 -0.205078,-0.8138 -0.201823,-0.36459 -0.572917,-0.56315 -0.367839,-0.19857 -0.830079,-0.19857 -0.46224,0 -0.833334,0.20182 -0.367838,0.19857 -0.566406,0.5599 -0.198568,0.35807 -0.198568,0.8138 z m 5.801253,-2.27539 v 2.64648 q 0,0.40691 0.120443,0.64779 0.123698,0.24089 0.40039,0.39714 0.276693,0.15625 0.644532,0.15625 0.403646,0 0.683594,-0.14649 0.283203,-0.14974 0.413412,-0.40364 0.130208,-0.25717 0.130208,-0.70964 v -2.58789 h 0.878907 v 2.70182 q 0,0.91797 -0.550131,1.41276 -0.55013,0.49154 -1.55599,0.49154 -0.631511,0 -1.097006,-0.22461 -0.46224,-0.22461 -0.70638,-0.64779 -0.244141,-0.42643 -0.244141,-0.99935 v -2.73437 z m 8.034327,0 v 0.68685 h -1.614585 v 3.86068 h -0.878906 v -3.86068 h -1.614584 v -0.68685 z m 4.26271,0 v 4.54753 h -0.833334 v -4.54753 z"
   id="text1-6-8"
   aria-label="OUT 1" /><path
   style="font-weight:600;font-size:6.66667px;line-height:0.1;font-family:'Gill Sans';-inkscape-font-specification:'Gill Sans Semi-Bold';letter-spacing:0.02px;word-spacing:0.03px;fill:#ffffff;stroke-width:11.2252"
   d="m 125.98805,314.26454 q 0.70638,0 1.26953,0.29297 0.5664,0.28972 0.90169,0.83985 0.33529,0.54687 0.33529,1.20117 0,0.63802 -0.32878,1.1849 -0.32552,0.54362 -0.89844,0.84635 -0.56966,0.29948 -1.2858,0.29948 -0.70638,0 -1.28581,-0.30599 -0.57617,-0.30599 -0.89844,-0.83984 -0.32227,-0.53711 -0.32227,-1.1849 0,-0.625 0.32227,-1.17513 0.32227,-0.55013 0.88867,-0.85287 0.56641,-0.30599 1.30209,-0.30599 z m -1.60482,2.33399 q 0,0.45247 0.20508,0.8138 0.20507,0.36133 0.56966,0.5599 0.36784,0.19857 0.83008,0.19857 0.69987,0 1.14909,-0.43946 0.45247,-0.43945 0.45247,-1.13281 0,-0.45247 -0.20508,-0.8138 -0.20182,-0.36459 -0.57292,-0.56315 -0.36783,-0.19857 -0.83007,-0.19857 -0.46224,0 -0.83334,0.20182 -0.36784,0.19857 -0.5664,0.5599 -0.19857,0.35807 -0.19857,0.8138 z m 5.80125,-2.27539 v 2.64648 q 0,0.40691 0.12044,0.64779 0.1237,0.24089 0.40039,0.39714 0.2767,0.15625 0.64454,0.15625 0.40364,0 0.68359,-0.14649 0.2832,-0.14974 0.41341,-0.40364 0.13021,-0.25717 0.13021,-0.70964 v -2.58789 h 0.87891 v 2.70182 q 0,0.91797 -0.55013,1.41276 -0.55013,0.49154 -1.55599,0.49154 -0.63152,0 -1.09701,-0.22461 -0.46224,-0.22461 -0.70638,-0.64779 -0.24414,-0.42643 -0.24414,-0.99935 v -2.73437 z m 8.03433,0 v 0.68685 h -1.61459 v 3.86068 h -0.8789 v -3.86068 h -1.61459 v -0.68685 z m 3.62143,-0.0586 q 0.64779,0 1.02865,0.3711 0.38411,0.36784 0.38411,0.98307 0,0.46875 -0.28646,1.01563 -0.2832,0.54687 -0.99935,1.44857 h 1.55925 v 0.78776 h -2.94597 v -0.0944 q 0.51433,-0.63477 0.88217,-1.13933 0.37109,-0.50781 0.57291,-0.83984 0.20183,-0.33529 0.28646,-0.56966 0.0846,-0.23438 0.0846,-0.48503 0,-0.3125 -0.20183,-0.52409 -0.19856,-0.21484 -0.48502,-0.21484 -0.51432,0 -1.06771,0.58593 v -0.89192 q 0.58268,-0.43295 1.18815,-0.43295 z"
   id="text1-6-8-2"
   aria-label="OUT 2" /><path
   style="font-weight:600;font-size:9.33333px;line-height:0.1;font-family:'Gill Sans';-inkscape-font-specification:'Gill Sans Semi-Bold';letter-spacing:0.02px;word-spacing:0.03px;stroke-width:11.2252"
   d="m 62.424469,210.07878 q 1.175781,0 2.333332,0.52409 v 1.12565 q -1.157551,-0.58789 -2.278645,-0.58789 -0.697265,0 -1.239583,0.27799 -0.542317,0.278 -0.843098,0.80208 -0.296224,0.51954 -0.296224,1.16211 0,0.97526 0.647135,1.57227 0.651693,0.59245 1.713541,0.59245 0.291667,0 0.55599,-0.0501 0.26888,-0.0501 0.63802,-0.19141 v -1.05729 h -1.052734 v -0.96159 h 2.283203 v 2.625 q -0.469401,0.32812 -1.130208,0.51497 -0.65625,0.18229 -1.367187,0.18229 -1.007162,0 -1.827474,-0.41471 -0.815755,-0.41471 -1.276041,-1.16211 -0.455729,-0.74739 -0.455729,-1.66797 0,-0.93424 0.460286,-1.69075 0.464844,-0.75651 1.289713,-1.17578 0.829427,-0.41927 1.845703,-0.41927 z m 7.019997,0.082 2.811848,6.36653 h -1.298827 l -0.660807,-1.54947 h -2.830078 l -0.615234,1.54947 h -1.289713 l 2.624999,-6.36653 z m -1.604166,3.88281 h 2.055338 l -1.07552,-2.52018 z m 6.441222,-3.88281 v 6.36653 h -1.230469 v -6.36653 z m 2.531066,0 3.782551,4.44336 v -4.44336 h 1.203124 v 6.36653 h -1.057291 l -3.805337,-4.51627 v 4.51627 H 75.73251 v -6.36653 z m 11.39031,0 v 6.36653 h -1.166666 v -6.36653 z"
   id="text1-4"
   aria-label="GAIN 1" /><path
   style="font-weight:600;font-size:9.33333px;line-height:0.1;font-family:'Gill Sans';-inkscape-font-specification:'Gill Sans Semi-Bold';letter-spacing:0.02px;word-spacing:0.03px;stroke-width:11.2252"
   d="m 62.40169,257.54377 q 0.988932,0 1.777343,0.41016 0.792969,0.4056 1.26237,1.17578 0.4694,0.76563 0.4694,1.68164 0,0.89323 -0.460286,1.65886 -0.455729,0.76106 -1.257812,1.18489 -0.797526,0.41927 -1.800129,0.41927 -0.988932,0 -1.80013,-0.42838 -0.80664,-0.42839 -1.257812,-1.17578 -0.451172,-0.75196 -0.451172,-1.65886 0,-0.875 0.451172,-1.64518 0.451172,-0.77018 1.24414,-1.19401 0.792969,-0.42839 1.822916,-0.42839 z m -2.246744,3.26758 q 0,0.63346 0.287109,1.13932 0.28711,0.50586 0.797526,0.78386 0.514974,0.27799 1.162109,0.27799 0.979817,0 1.608723,-0.61523 0.633464,-0.61524 0.633464,-1.58594 0,-0.63346 -0.287109,-1.13932 -0.282552,-0.51042 -0.802084,-0.78841 -0.514973,-0.278 -1.162108,-0.278 -0.647136,0 -1.166667,0.28256 -0.514974,0.27799 -0.792968,0.78385 -0.277995,0.5013 -0.277995,1.13932 z m 10.811663,-3.18554 v 0.96158 h -2.652343 v 1.64519 h 2.652343 v 0.9707 h -2.652343 v 2.78906 h -1.230468 v -6.36653 z m 2.986796,-0.082 q 0.929687,0 1.791015,0.46485 v 1.09375 q -0.988932,-0.59701 -1.754557,-0.59701 -0.464843,0 -0.729166,0.18229 -0.259765,0.17774 -0.259765,0.47852 0,0.36003 0.48763,0.66536 0.136718,0.0912 1.052734,0.51042 0.783853,0.36914 1.130208,0.82031 0.346354,0.45117 0.346354,1.08464 0,0.82031 -0.592448,1.32617 -0.587891,0.5013 -1.526692,0.5013 -0.610677,0 -1.052734,-0.13216 -0.4375,-0.13672 -0.984375,-0.46484 v -1.21224 q 1.020833,0.84765 1.923176,0.84765 0.451172,0 0.729167,-0.19596 0.277995,-0.19596 0.277995,-0.51953 0,-0.44206 -0.483073,-0.72005 -0.401042,-0.21875 -1.034505,-0.52409 -0.751953,-0.3418 -1.125651,-0.79753 -0.36914,-0.45573 -0.36914,-1.05729 0,-0.80208 0.597005,-1.27604 0.597005,-0.47852 1.576822,-0.47852 z m 8.255024,0.082 v 0.96158 h -2.260416 v 5.40495 h -1.230469 v -5.40495 h -2.260416 v -0.96158 z m 5.939789,0 v 6.36653 h -1.166666 v -6.36653 z"
   id="text1-4-5"
   aria-label="OFST 1" /><path
   style="font-weight:600;font-size:9.33333px;line-height:0.1;font-family:'Gill Sans';-inkscape-font-specification:'Gill Sans Semi-Bold';letter-spacing:0.02px;word-spacing:0.03px;stroke-width:11.2252"
   d="m 109.65089,257.54377 q 0.98893,0 1.77734,0.41016 0.79297,0.4056 1.26237,1.17578 0.4694,0.76563 0.4694,1.68164 0,0.89323 -0.46029,1.65886 -0.45573,0.76106 -1.25781,1.18489 -0.79753,0.41927 -1.80013,0.41927 -0.98893,0 -1.80013,-0.42838 -0.80664,-0.42839 -1.25781,-1.17578 -0.45117,-0.75196 -0.45117,-1.65886 0,-0.875 0.45117,-1.64518 0.45117,-0.77018 1.24414,-1.19401 0.79297,-0.42839 1.82292,-0.42839 z m -2.24675,3.26758 q 0,0.63346 0.28711,1.13932 0.28711,0.50586 0.79753,0.78386 0.51497,0.27799 1.16211,0.27799 0.97981,0 1.60872,-0.61523 0.63346,-0.61524 0.63346,-1.58594 0,-0.63346 -0.28711,-1.13932 -0.28255,-0.51042 -0.80208,-0.78841 -0.51497,-0.278 -1.16211,-0.278 -0.64713,0 -1.16667,0.28256 -0.51497,0.27799 -0.79296,0.78385 -0.278,0.5013 -0.278,1.13932 z m 10.81166,-3.18554 v 0.96158 h -2.65234 v 1.64519 h 2.65234 v 0.9707 h -2.65234 v 2.78906 h -1.23047 v -6.36653 z m 2.9868,-0.082 q 0.92969,0 1.79102,0.46485 v 1.09375 q -0.98894,-0.59701 -1.75456,-0.59701 -0.46485,0 -0.72917,0.18229 -0.25976,0.17774 -0.25976,0.47852 0,0.36003 0.48763,0.66536 0.13672,0.0912 1.05273,0.51042 0.78385,0.36914 1.13021,0.82031 0.34635,0.45117 0.34635,1.08464 0,0.82031 -0.59245,1.32617 -0.58789,0.5013 -1.52669,0.5013 -0.61067,0 -1.05273,-0.13216 -0.4375,-0.13672 -0.98438,-0.46484 v -1.21224 q 1.02084,0.84765 1.92318,0.84765 0.45117,0 0.72917,-0.19596 0.27799,-0.19596 0.27799,-0.51953 0,-0.44206 -0.48307,-0.72005 -0.40104,-0.21875 -1.03451,-0.52409 -0.75195,-0.3418 -1.12565,-0.79753 -0.36914,-0.45573 -0.36914,-1.05729 0,-0.80208 0.59701,-1.27604 0.597,-0.47852 1.57682,-0.47852 z m 8.25502,0.082 v 0.96158 h -2.26041 v 5.40495 h -1.23047 v -5.40495 h -2.26042 v -0.96158 z m 5.04201,-0.082 q 0.9069,0 1.4401,0.51954 0.53776,0.51497 0.53776,1.3763 0,0.65625 -0.40104,1.42187 -0.39648,0.76563 -1.39909,2.028 h 2.18294 v 1.10286 h -4.12434 v -0.13216 q 0.72005,-0.88867 1.23502,-1.59505 0.51953,-0.71094 0.80208,-1.17578 0.28256,-0.4694 0.40105,-0.79753 0.11849,-0.32812 0.11849,-0.67904 0,-0.4375 -0.28256,-0.73372 -0.27799,-0.30078 -0.67903,-0.30078 -0.72005,0 -1.49479,0.82031 v -1.2487 q 0.81575,-0.60612 1.66341,-0.60612 z"
   id="text1-4-5-5"
   aria-label="OFST 2" /><path
   style="font-weight:600;font-size:9.33333px;line-height:0.1;font-family:'Gill Sans';-inkscape-font-specification:'Gill Sans Semi-Bold';letter-spacing:0.02px;word-spacing:0.03px;stroke-width:11.2252"
   d="m 109.67368,210.07878 q 1.17578,0 2.33333,0.52409 v 1.12565 q -1.15755,-0.58789 -2.27864,-0.58789 -0.69727,0 -1.23959,0.27799 -0.54231,0.278 -0.84309,0.80208 -0.29623,0.51954 -0.29623,1.16211 0,0.97526 0.64714,1.57227 0.65169,0.59245 1.71354,0.59245 0.29166,0 0.55599,-0.0501 0.26888,-0.0501 0.63802,-0.19141 v -1.05729 h -1.05274 v -0.96159 h 2.28321 v 2.625 q -0.4694,0.32812 -1.13021,0.51497 -0.65625,0.18229 -1.36719,0.18229 -1.00716,0 -1.82747,-0.41471 -0.81576,-0.41471 -1.27604,-1.16211 -0.45573,-0.74739 -0.45573,-1.66797 0,-0.93424 0.46028,-1.69075 0.46485,-0.75651 1.28972,-1.17578 0.82942,-0.41927 1.8457,-0.41927 z m 7.02,0.082 2.81184,6.36653 h -1.29882 l -0.66081,-1.54947 h -2.83008 l -0.61523,1.54947 h -1.28971 l 2.62499,-6.36653 z m -1.60417,3.88281 h 2.05534 l -1.07552,-2.52018 z m 6.44122,-3.88281 v 6.36653 h -1.23047 v -6.36653 z m 2.53107,0 3.78255,4.44336 v -4.44336 h 1.20312 v 6.36653 h -1.05729 l -3.80534,-4.51627 v 4.51627 h -1.20312 v -6.36653 z m 10.49252,-0.082 q 0.9069,0 1.44011,0.51953 0.53776,0.51497 0.53776,1.3763 0,0.65625 -0.40105,1.42188 -0.39648,0.76562 -1.39908,2.02799 h 2.18294 v 1.10286 h -4.12435 v -0.13216 q 0.72005,-0.88867 1.23503,-1.59505 0.51953,-0.71094 0.80208,-1.17578 0.28255,-0.4694 0.40104,-0.79753 0.11849,-0.32812 0.11849,-0.67903 0,-0.4375 -0.28255,-0.73373 -0.278,-0.30078 -0.67904,-0.30078 -0.72005,0 -1.49479,0.82032 v -1.2487 q 0.81576,-0.60612 1.66341,-0.60612 z"
   id="text1-4-8"
   aria-label="GAIN 2" /><path
   style="font-weight:600;font-size:8px;line-height:0.1;font-family:'Gill Sans';-inkscape-font-specification:'Gill Sans Semi-Bold';letter-spacing:0.02px;word-spacing:0.03px;stroke-width:11.2252"
   d="m 159.60287,217.28668 q 0.76563,0 1.24219,0.44531 0.48047,0.44141 0.48047,1.14063 0,0.70703 -0.48437,1.14453 -0.48438,0.4375 -1.27735,0.4375 h -1.01562 v 2.28906 h -1.05469 v -5.45703 z m -0.26171,2.34375 q 0.42187,0 0.65625,-0.1914 0.23828,-0.19532 0.23828,-0.57422 0,-0.75391 -0.96875,-0.75391 h -0.71875 v 1.51953 z m 5.12937,-2.34375 2.41016,5.45703 h -1.11328 l -0.56641,-1.32812 h -2.42578 l -0.52735,1.32812 h -1.10546 l 2.25,-5.45703 z m -1.375,3.32813 h 1.76172 l -0.92188,-2.16016 z m 5.38328,-3.32813 v 3.17578 q 0,0.48828 0.14453,0.77735 0.14844,0.28906 0.48047,0.47656 0.33203,0.1875 0.77344,0.1875 0.48437,0 0.82031,-0.17578 0.33985,-0.17969 0.4961,-0.48438 0.15625,-0.30859 0.15625,-0.85156 v -3.10547 h 1.05468 v 3.24219 q 0,1.10156 -0.66015,1.69531 -0.66016,0.58985 -1.86719,0.58985 -0.75781,0 -1.31641,-0.26954 -0.55468,-0.26953 -0.84765,-0.77734 -0.29297,-0.51172 -0.29297,-1.19922 v -3.28125 z m 6.69188,-0.0703 q 0.79687,0 1.53515,0.39844 v 0.9375 q -0.84765,-0.51172 -1.5039,-0.51172 -0.39844,0 -0.625,0.15625 -0.22266,0.15234 -0.22266,0.41015 0,0.3086 0.41797,0.57032 0.11719,0.0781 0.90234,0.4375 0.67188,0.3164 0.96875,0.70312 0.29688,0.38672 0.29688,0.92969 0,0.70312 -0.50781,1.13672 -0.50391,0.42969 -1.3086,0.42969 -0.52344,0 -0.90234,-0.11329 -0.375,-0.11718 -0.84375,-0.39843 v -1.03907 q 0.875,0.72657 1.64844,0.72657 0.38671,0 0.625,-0.16797 0.23828,-0.16797 0.23828,-0.44531 0,-0.37891 -0.41407,-0.61719 -0.34375,-0.1875 -0.88671,-0.44922 -0.64454,-0.29297 -0.96485,-0.68359 -0.3164,-0.39063 -0.3164,-0.90625 0,-0.6875 0.51171,-1.09375 0.51172,-0.41016 1.35157,-0.41016 z m 6.23875,0.0703 v 0.82422 h -2.47266 v 1.43359 h 2.36719 v 0.82422 h -2.36719 v 1.55078 h 2.52734 v 0.82422 h -3.58203 v -5.45703 z"
   id="text1-7"
   aria-label="PAUSE" /></svg>
