<?xml version="1.0" encoding="UTF-8" standalone="no"?>
<!-- Generator: Adobe Illustrator 27.8.1, SVG Export Plug-In . SVG Version: 6.00 Build 0)  -->

<svg
   version="1.0"
   id="svg269"
   x="0px"
   y="0px"
   width="195px"
   height="380px"
   viewBox="0 0 195 380"
   enable-background="new 0 0 195 380"
   xml:space="preserve"
   sodipodi:docname="draw.svg"
   inkscape:version="1.3.2 (091e20e, 2023-11-25)"
   xmlns:inkscape="http://www.inkscape.org/namespaces/inkscape"
   xmlns:sodipodi="http://sodipodi.sourceforge.net/DTD/sodipodi-0.dtd"
   xmlns="http://www.w3.org/2000/svg"
   xmlns:svg="http://www.w3.org/2000/svg"><defs
   id="defs2"><rect
     x="32.958184"
     y="32.958184"
     width="148.68635"
     height="24.344113"
     id="rect3" /><rect
     x="122.09509"
     y="14.980993"
     width="53.557049"
     height="18.351716"
     id="rect2" /></defs>
<sodipodi:namedview
   bordercolor="#666666"
   borderopacity="1.0"
   id="namedview271"
   inkscape:current-layer="uuid-59cf0549-b020-411a-85f6-5c31845f97c7"
   inkscape:cx="146.06674"
   inkscape:cy="-27.221529"
   inkscape:pagecheckerboard="0"
   inkscape:pageopacity="0.0"
   inkscape:pageshadow="2"
   inkscape:window-height="449"
   inkscape:window-maximized="0"
   inkscape:window-width="1312"
   inkscape:window-x="0"
   inkscape:window-y="25"
   inkscape:zoom="1.5061608"
   pagecolor="#ffffff"
   showgrid="false"
   inkscape:showpageshadow="2"
   inkscape:deskcolor="#d1d1d1"
   showguides="false">
	</sodipodi:namedview>
<g
   id="uuid-c4ee3f4d-09f1-4b84-8562-00919c5a3800"
   style="display:inline">
	
		<linearGradient
   id="rect9_00000092426418500424291310000009388725874193446806_"
   gradientUnits="userSpaceOnUse"
   x1="97.500023"
   y1="381.27557"
   x2="97.500023"
   y2="1.27557"
   gradientTransform="matrix(1,0,0,-1,0,381.27557)">
		<stop
   offset="0"
   style="stop-color:#EBEBEB"
   id="stop1" />
		<stop
   offset="1"
   style="stop-color:#E1E1E1"
   id="stop2" />
	</linearGradient>
	
		<rect
   id="rect9"
   x="3.9999999e-05"
   y="0"
   fill="url(#rect9_00000092426418500424291310000009388725874193446806_)"
   width="194.99995"
   height="380" />
</g>
<g
   id="uuid-d53dfa26-254a-467a-ac58-d86b307427be"
   style="display:inline">
	
		<line
   id="line12"
   fill="none"
   stroke="#1f1f1f"
   stroke-width="0.8"
   stroke-linecap="round"
   stroke-linejoin="round"
   x1="169.47881"
   y1="302.57367"
   x2="169.47881"
   y2="308.02136" />
	
	<path
   id="rect24"
   fill="#1f1f1f"
   d="m 50.03322,309.08893 h 22.9623 c 1.56554,0 2.83465,1.26913 2.83465,2.83466 v 33.48761 c 0,1.56552 -1.26911,2.83466 -2.83465,2.83466 h -22.9623 c -1.56553,0 -2.83465,-1.26913 -2.83465,-2.83466 v -33.48761 c 0,-1.56553 1.26912,-2.83466 2.83465,-2.83466 z"
   style="display:inline" />
	<path
   id="rect26"
   fill="#1f1f1f"
   d="m 122.01958,309.08893 h 22.9623 c 1.56554,0 2.83466,1.26913 2.83466,2.83466 v 33.48761 c 0,1.56552 -1.26912,2.83466 -2.83466,2.83466 h -22.9623 c -1.56554,0 -2.83465,-1.26913 -2.83465,-2.83466 v -33.48761 c 0,-1.56553 1.26911,-2.83466 2.83465,-2.83466 z"
   style="display:inline" />
	<path
   id="path28"
   fill="#1f1f1f"
   d="m 43.82551,333.67795 -2.87167,-1.65796 c -0.24791,-0.14313 -0.55779,0.0358 -0.55779,0.32205 v 3.31592 c 0,0.28625 0.30989,0.46518 0.55779,0.32205 l 2.87167,-1.65796 c 0.24791,-0.14313 0.24791,-0.50094 0,-0.6441 z"
   style="display:inline" />
	<path
   id="path30"
   fill="#1f1f1f"
   d="m 115.81186,333.67795 -2.87167,-1.65796 c -0.24791,-0.14313 -0.55779,0.0358 -0.55779,0.32205 v 3.31592 c 0,0.28625 0.30989,0.46518 0.55779,0.32205 l 2.87167,-1.65796 c 0.24791,-0.14313 0.24791,-0.50094 0,-0.6441 z"
   style="display:inline" />
	<g
   id="g38"
   style="display:inline">
		
			<line
   id="line32"
   fill="none"
   stroke="#1f1f1f"
   stroke-width="0.8"
   stroke-linecap="round"
   stroke-linejoin="round"
   x1="121.4965"
   y1="273.34799"
   x2="121.4965"
   y2="269.62473" />
		<path
   id="path34"
   fill="none"
   stroke="#1f1f1f"
   stroke-width="0.8"
   stroke-linecap="round"
   stroke-linejoin="round"
   d="m 130.13213,300.17661 c 4.83522,-2.92859 8.06662,-8.2395 8.06662,-14.30515 0,-9.23001 -7.48239,-16.7124 -16.71239,-16.7124 -9.23,0 -16.71239,7.48239 -16.71239,16.7124 0,6.09738 3.2653,11.4321 8.14264,14.35092" />
		<circle
   id="circle36"
   fill="none"
   cx="121.49648"
   cy="285.87146"
   r="20.694189" />
	</g>
	<g
   id="g46"
   style="display:inline">
		
			<line
   id="line40"
   fill="none"
   stroke="#1f1f1f"
   stroke-width="0.8"
   stroke-linecap="round"
   stroke-linejoin="round"
   x1="169.47884"
   y1="273.34799"
   x2="169.47884"
   y2="269.62473" />
		<path
   id="path42"
   fill="none"
   stroke="#1f1f1f"
   stroke-width="0.8"
   stroke-linecap="round"
   stroke-linejoin="round"
   d="m 178.11444,300.17661 c 4.83522,-2.92859 8.06662,-8.2395 8.06662,-14.30515 0,-9.23001 -7.48239,-16.7124 -16.71239,-16.7124 -9.23,0 -16.71239,7.48239 -16.71239,16.7124 0,6.09738 3.2653,11.4321 8.14264,14.35092" />
		<circle
   id="circle44"
   fill="none"
   cx="169.47881"
   cy="285.87146"
   r="20.69418" />
	</g>
	<g
   id="g68">
		
			<line
   id="line48"
   fill="none"
   stroke="#1f1f1f"
   stroke-width="0.5"
   stroke-linecap="round"
   stroke-linejoin="round"
   x1="73.515862"
   y1="225.32297"
   x2="73.515862"
   y2="221.5997" />
		<g
   id="g62">
			
				<line
   id="line50"
   fill="none"
   stroke="#1f1f1f"
   stroke-width="0.5"
   stroke-linecap="round"
   stroke-miterlimit="10"
   x1="58.11972"
   y1="244.29977"
   x2="73.514633"
   y2="237.77696" />
			
				<line
   id="line52"
   fill="none"
   stroke="#1f1f1f"
   stroke-width="0.5"
   stroke-linecap="round"
   stroke-miterlimit="10"
   x1="57.426842"
   y1="233.42999"
   x2="73.57328"
   y2="237.76965" />
			
				<line
   id="line54"
   fill="none"
   stroke="#1f1f1f"
   stroke-width="0.5"
   stroke-linecap="round"
   stroke-miterlimit="10"
   x1="63.269009"
   y1="224.68408"
   x2="73.591309"
   y2="237.83643" />
			
				<line
   id="line56"
   fill="none"
   stroke="#1f1f1f"
   stroke-width="0.5"
   stroke-linecap="round"
   stroke-miterlimit="10"
   x1="83.589684"
   y1="224.5587"
   x2="73.496002"
   y2="237.88731" />
			
				<line
   id="line58"
   fill="none"
   stroke="#1f1f1f"
   stroke-width="0.5"
   stroke-linecap="round"
   stroke-miterlimit="10"
   x1="89.538254"
   y1="233.2282"
   x2="73.470459"
   y2="237.85056" />
			
				<line
   id="line60"
   fill="none"
   stroke="#1f1f1f"
   stroke-width="0.5"
   stroke-linecap="round"
   stroke-miterlimit="10"
   x1="88.954399"
   y1="244.1479"
   x2="73.484497"
   y2="237.80498" />
		</g>
		<path
   id="path64"
   fill="none"
   stroke="#1f1f1f"
   stroke-width="0.8"
   stroke-linecap="round"
   stroke-linejoin="round"
   d="m 64.93596,252.19736 c -4.87734,-2.91881 -8.14264,-8.25352 -8.14264,-14.35091 0,-9.23 7.48239,-16.71239 16.71239,-16.71239 9.23,0 16.71239,7.48239 16.71239,16.71239 0,6.06564 -3.2314,11.37656 -8.06662,14.30515 l -8.63564,-14.30518 -8.57988,14.35095 z" />
		<circle
   id="circle66"
   fill="none"
   cx="73.515839"
   cy="237.84641"
   r="20.694189" />
	</g>
	<g
   id="g74"
   style="display:inline">
		<path
   id="path70"
   fill="none"
   stroke="#1f1f1f"
   stroke-width="0.8"
   stroke-linecap="round"
   stroke-linejoin="round"
   d="m 34.15683,300.18781 c 4.83522,-2.92859 8.06662,-8.2395 8.06662,-14.30515 0,-9.23001 -7.48239,-16.7124 -16.71239,-16.7124 -9.23,0 -16.71239,7.48239 -16.71239,16.7124 0,6.09738 3.2653,11.4321 8.14264,14.35092" />
		<circle
   id="circle72"
   fill="none"
   cx="25.521191"
   cy="285.88263"
   r="20.694189" />
	</g>
	<g
   id="g82"
   style="display:inline">
		
			<line
   id="line76"
   fill="none"
   stroke="#1f1f1f"
   stroke-width="0.8"
   stroke-linecap="round"
   stroke-linejoin="round"
   x1="73.515831"
   y1="273.34799"
   x2="73.515831"
   y2="269.62473" />
		<path
   id="path78"
   fill="none"
   stroke="#1f1f1f"
   stroke-width="0.8"
   stroke-linecap="round"
   stroke-linejoin="round"
   d="m 82.15145,300.17661 c 4.83522,-2.92859 8.06662,-8.2395 8.06662,-14.30515 0,-9.23001 -7.48239,-16.7124 -16.71239,-16.7124 -9.23,0 -16.71239,7.48239 -16.71239,16.7124 0,6.09738 3.2653,11.4321 8.14264,14.35092" />
		<circle
   id="circle80"
   fill="none"
   cx="73.515808"
   cy="285.87146"
   r="20.694189" />
	</g>
	<g
   id="g104"
   style="display:inline">
		
			<line
   id="line84"
   fill="none"
   stroke="#1f1f1f"
   stroke-width="0.5"
   stroke-linecap="round"
   stroke-linejoin="round"
   x1="121.48637"
   y1="225.32297"
   x2="121.48637"
   y2="221.5997" />
		<g
   id="g98">
			
				<line
   id="line86"
   fill="none"
   stroke="#1f1f1f"
   stroke-width="0.5"
   stroke-linecap="round"
   stroke-miterlimit="10"
   x1="106.09023"
   y1="244.29977"
   x2="121.48514"
   y2="237.77696" />
			
				<line
   id="line88"
   fill="none"
   stroke="#1f1f1f"
   stroke-width="0.5"
   stroke-linecap="round"
   stroke-miterlimit="10"
   x1="105.39735"
   y1="233.42999"
   x2="121.54379"
   y2="237.76965" />
			
				<line
   id="line90"
   fill="none"
   stroke="#1f1f1f"
   stroke-width="0.5"
   stroke-linecap="round"
   stroke-miterlimit="10"
   x1="111.23952"
   y1="224.68408"
   x2="121.56182"
   y2="237.83643" />
			
				<line
   id="line92"
   fill="none"
   stroke="#1f1f1f"
   stroke-width="0.5"
   stroke-linecap="round"
   stroke-miterlimit="10"
   x1="131.5602"
   y1="224.5587"
   x2="121.46651"
   y2="237.88731" />
			
				<line
   id="line94"
   fill="none"
   stroke="#1f1f1f"
   stroke-width="0.5"
   stroke-linecap="round"
   stroke-miterlimit="10"
   x1="137.50876"
   y1="233.2282"
   x2="121.44097"
   y2="237.85056" />
			
				<line
   id="line96"
   fill="none"
   stroke="#1f1f1f"
   stroke-width="0.5"
   stroke-linecap="round"
   stroke-miterlimit="10"
   x1="136.92491"
   y1="244.1479"
   x2="121.45501"
   y2="237.80498" />
		</g>
		<path
   id="path100"
   fill="none"
   stroke="#1f1f1f"
   stroke-width="0.8"
   stroke-linecap="round"
   stroke-linejoin="round"
   d="m 112.90647,252.19736 c -4.87734,-2.91881 -8.14264,-8.25352 -8.14264,-14.35091 0,-9.23 7.48239,-16.71239 16.71239,-16.71239 9.23,0 16.71239,7.48239 16.71239,16.71239 0,6.06564 -3.2314,11.37656 -8.06662,14.30515 l -8.6255,-14.30518 -8.59002,14.35095 z" />
		<circle
   id="circle102"
   fill="none"
   cx="121.48635"
   cy="237.84641"
   r="20.694189" />
	</g>
</g>
<g
   id="uuid-59cf0549-b020-411a-85f6-5c31845f97c7"
   style="display:inline">
	<g
   id="g117">
		<path
   id="path107"
   fill="#1f1f1f"
   d="m 106.87891,213.19287 v -0.0166 c 0,-1.63574 1.25195,-3.02148 3.01367,-3.02148 0.87598,0 1.45996,0.20898 1.99414,0.59277 0.10059,0.0752 0.20898,0.2168 0.20898,0.41748 0,0.27539 -0.22559,0.50879 -0.50879,0.50879 -0.13379,0 -0.23438,-0.0581 -0.31738,-0.1167 -0.37598,-0.27539 -0.78418,-0.45898 -1.41895,-0.45898 -1.07715,0 -1.89453,0.94287 -1.89453,2.06152 v 0.0166 c 0,1.20215 0.79297,2.08691 1.98633,2.08691 0.55078,0 1.05176,-0.17529 1.41016,-0.44238 v -1.09375 h -1.15137 c -0.25,0 -0.45898,-0.19189 -0.45898,-0.44238 0,-0.25 0.20898,-0.45068 0.45898,-0.45068 h 1.62793 c 0.29199,0 0.5166,0.22559 0.5166,0.51758 v 1.56104 c 0,0.29199 -0.11621,0.50049 -0.3584,0.65088 -0.50098,0.33398 -1.20215,0.63428 -2.07812,0.63428 -1.82813,-2e-5 -3.03028,-1.30226 -3.03027,-3.0049 z" />
		<path
   id="path109"
   fill="#1f1f1f"
   d="m 113.4502,215.42969 2.1709,-4.84082 c 0.11621,-0.25879 0.3252,-0.41748 0.61719,-0.41748 h 0.0498 c 0.29199,0 0.49316,0.15869 0.60938,0.41748 l 2.16992,4.84082 c 0.042,0.0752 0.0586,0.15039 0.0586,0.21729 0,0.27539 -0.20801,0.49219 -0.48438,0.49219 -0.24121,0 -0.4082,-0.1416 -0.5,-0.35889 l -0.47559,-1.09326 h -2.83789 l -0.49316,1.12695 c -0.083,0.2085 -0.25879,0.3252 -0.47559,0.3252 -0.2666,0 -0.47559,-0.2085 -0.47559,-0.47559 0,-0.0752 0.0254,-0.15039 0.0664,-0.23389 z m 3.82325,-1.65235 -1.02637,-2.3623 -1.02734,2.3623 z" />
		<path
   id="path111"
   fill="#1f1f1f"
   d="m 120.3584,210.72266 c 0,-0.28418 0.22559,-0.50928 0.51758,-0.50928 0.28418,0 0.50879,0.2251 0.50879,0.50928 v 4.90771 c 0,0.28369 -0.22461,0.50879 -0.50879,0.50879 -0.29199,0 -0.51758,-0.2251 -0.51758,-0.50879 z" />
		<path
   id="path113"
   fill="#1f1f1f"
   d="m 123.13574,210.73926 c 0,-0.28369 0.22559,-0.51758 0.51758,-0.51758 h 0.1084 c 0.25098,0 0.39258,0.125 0.53418,0.30029 l 2.92188,3.78125 v -3.58887 c 0,-0.27588 0.22461,-0.50098 0.5,-0.50098 0.28419,0 0.50977,0.2251 0.50977,0.50098 v 4.90771 c 0,0.28369 -0.2168,0.50879 -0.50098,0.50879 h -0.042 c -0.24219,0 -0.3916,-0.125 -0.53418,-0.30859 l -3.00488,-3.88965 v 3.70605 c 0,0.27539 -0.22461,0.50049 -0.5,0.50049 -0.28418,0 -0.50977,-0.2251 -0.50977,-0.50049 0,1e-5 0,-4.8994 -1e-5,-4.8994 z" />
		<path
   id="path115"
   fill="#1f1f1f"
   d="m 132.1123,215.10449 1.79492,-1.52734 c 0.80078,-0.67627 1.09277,-1.05176 1.09277,-1.57764 0,-0.57568 -0.40918,-0.90967 -0.94336,-0.90967 -0.4668,0 -0.79297,0.2168 -1.15137,0.65088 -0.0752,0.0835 -0.19238,0.15869 -0.35938,0.15869 -0.25781,0 -0.4668,-0.20898 -0.4668,-0.46729 0,-0.10889 0.042,-0.22559 0.11621,-0.31738 0.47656,-0.59277 1.01855,-0.94336 1.93652,-0.94336 1.14355,0 1.92871,0.70117 1.92871,1.74463 v 0.0166 c 0,0.91846 -0.48438,1.41895 -1.51953,2.26221 l -1.20215,1.00146 h 2.37109 c 0.25,0 0.4502,0.2002 0.4502,0.45068 0,0.25048 -0.2002,0.45068 -0.4502,0.45068 h -3.31348 c -0.31738,0 -0.55078,-0.18359 -0.55078,-0.48389 3e-5,-0.20066 0.0918,-0.36766 0.26663,-0.50926 z" />
	</g>
	<g
   id="g129">
		<path
   id="path119"
   fill="#1f1f1f"
   d="m 59.24902,260.82617 v -0.0166 c 0,-1.64404 1.26855,-3.02148 3.06348,-3.02148 1.79493,0 3.04688,1.36084 3.04688,3.00488 v 0.0166 c 0,1.64453 -1.26953,3.02148 -3.06348,3.02148 -1.79492,0 -3.04688,-1.36035 -3.04688,-3.00488 z m 5.0332,0 v -0.0166 c 0,-1.13525 -0.82617,-2.07812 -1.98633,-2.07812 -1.16016,0 -1.96973,0.92627 -1.96973,2.06152 v 0.0166 c 0,1.13525 0.82617,2.06982 1.98633,2.06982 1.16016,0 1.96973,-0.91796 1.96973,-2.05322 z" />
		<path
   id="path121"
   fill="#1f1f1f"
   d="m 66.78906,258.40576 c 0,-0.29199 0.22559,-0.51758 0.51758,-0.51758 h 3.40527 c 0.25879,0 0.46777,0.20898 0.46777,0.46777 0,0.25879 -0.20898,0.46729 -0.46777,0.46729 h -2.89648 v 1.59424 h 2.52148 c 0.25879,0 0.4668,0.2085 0.4668,0.46729 0,0.25879 -0.20801,0.46729 -0.4668,0.46729 h -2.52148 v 1.91162 c 0,0.28369 -0.22461,0.50879 -0.50879,0.50879 -0.29199,0 -0.51758,-0.2251 -0.51758,-0.50879 10e-6,-1e-5 10e-6,-4.85792 0,-4.85792 z" />
		<path
   id="path123"
   fill="#1f1f1f"
   d="m 72.17383,263.08008 c -0.11621,-0.0835 -0.2002,-0.22559 -0.2002,-0.39258 0,-0.26709 0.2168,-0.47559 0.48438,-0.47559 0.1416,0 0.2334,0.0415 0.30078,0.0918 0.4834,0.38379 1.00098,0.60107 1.63574,0.60107 0.63379,0 1.03516,-0.30078 1.03516,-0.73486 v -0.0166 c 0,-0.41699 -0.23438,-0.64258 -1.31934,-0.89307 -1.24316,-0.30029 -1.94434,-0.66748 -1.94434,-1.74414 v -0.0171 c 0,-1.00146 0.83496,-1.69434 1.99512,-1.69434 0.73438,0 1.32617,0.19238 1.85254,0.54297 0.11719,0.0664 0.22559,0.2085 0.22559,0.40869 0,0.26709 -0.21777,0.47559 -0.48438,0.47559 -0.10059,0 -0.18359,-0.0249 -0.26758,-0.0747 -0.4502,-0.29248 -0.88379,-0.44238 -1.34375,-0.44238 -0.60059,0 -0.95117,0.30859 -0.95117,0.69238 v 0.0171 c 0,0.45068 0.26758,0.65088 1.39355,0.91797 1.23535,0.30029 1.87012,0.74268 1.87012,1.71094 v 0.0166 c 0,1.09375 -0.85938,1.74463 -2.08691,1.74463 -0.79297,0 -1.54395,-0.25049 -2.19531,-0.73438 z" />
		<path
   id="path125"
   fill="#1f1f1f"
   d="M 79.23926,258.83984 H 77.8203 c -0.2666,0 -0.47559,-0.2168 -0.47559,-0.47559 0,-0.25879 0.20898,-0.47607 0.47559,-0.47607 h 3.88184 c 0.25879,0 0.4668,0.21729 0.4668,0.47607 0,0.25878 -0.20801,0.47559 -0.4668,0.47559 h -1.42773 v 4.42383 c 0,0.28369 -0.2334,0.50879 -0.51758,0.50879 -0.2832,0 -0.51758,-0.2251 -0.51758,-0.50879 2e-5,0 2e-5,-4.42383 1e-5,-4.42383 z" />
		<path
   id="path127"
   fill="#1f1f1f"
   d="m 86.4541,258.85645 -0.60059,0.18359 c -0.05859,0.0166 -0.13379,0.0254 -0.18359,0.0254 -0.24219,0 -0.45117,-0.20068 -0.45117,-0.43408 0,-0.21729 0.13379,-0.38428 0.34277,-0.44238 l 0.88477,-0.28369 c 0.2002,-0.0586 0.35059,-0.0918 0.50098,-0.0918 h 0.0166 c 0.29199,0 0.50879,0.2251 0.50879,0.50879 v 4.94141 c 0,0.28369 -0.22559,0.50879 -0.50879,0.50879 -0.27539,0 -0.50977,-0.2251 -0.50977,-0.50879 -1e-5,-10e-6 -1e-5,-4.40723 0,-4.40723 z" />
	</g>
	
	<g
   id="g149">
		<path
   id="path143"
   fill="#1f1f1f"
   d="m 21.19141,219.1416 -0.48828,0.14893 c -0.04688,0.0132 -0.10742,0.02 -0.14844,0.02 -0.19629,0 -0.36523,-0.16211 -0.36523,-0.35205 0,-0.17627 0.10742,-0.31201 0.27734,-0.35889 l 0.71777,-0.23047 c 0.16309,-0.0478 0.28418,-0.0747 0.40723,-0.0747 h 0.0127 c 0.2373,0 0.41309,0.18311 0.41309,0.41357 v 4.01074 c 0,0.22998 -0.18262,0.41309 -0.41309,0.41309 -0.22363,0 -0.41309,-0.18311 -0.41309,-0.41309 v -3.57714 z" />
		<path
   id="path145"
   fill="#1f1f1f"
   d="m 23.23828,222.50195 1.01562,-1.21973 -0.94141,-1.11816 c -0.08789,-0.1084 -0.13574,-0.20312 -0.13574,-0.31152 0,-0.23047 0.17676,-0.37891 0.37988,-0.37891 0.16211,0 0.27734,0.0742 0.37891,0.20312 l 0.80664,1.05664 0.81934,-1.0498 c 0.09473,-0.12207 0.20996,-0.20996 0.35254,-0.20996 0.2168,0 0.38672,0.15527 0.38672,0.35889 0,0.11475 -0.04785,0.19629 -0.11523,0.27783 l -0.96875,1.1582 1.00195,1.18555 c 0.08789,0.1084 0.13574,0.20312 0.13574,0.31152 0,0.23047 -0.17676,0.37988 -0.37988,0.37988 -0.16211,0 -0.27734,-0.0747 -0.37891,-0.20996 l -0.86719,-1.11816 -0.86719,1.11816 c -0.09473,0.11523 -0.20996,0.20996 -0.35938,0.20996 -0.20996,0 -0.37891,-0.15625 -0.37891,-0.35938 0,-0.11523 0.04102,-0.20312 0.11523,-0.28418 h 2e-5 z" />
		<path
   id="path147"
   fill="#1f1f1f"
   d="m 27.40039,222.29199 1.45703,-1.24023 c 0.65039,-0.54883 0.8877,-0.85352 0.8877,-1.28027 0,-0.46777 -0.33203,-0.73828 -0.76562,-0.73828 -0.37988,0 -0.64355,0.17578 -0.93457,0.52832 -0.06152,0.0674 -0.15625,0.12891 -0.29199,0.12891 -0.20996,0 -0.37891,-0.16992 -0.37891,-0.37988 0,-0.0879 0.03418,-0.18262 0.09473,-0.25732 0.38672,-0.48096 0.82617,-0.76562 1.57227,-0.76562 0.92773,0 1.56445,0.56934 1.56445,1.41602 v 0.0137 c 0,0.74512 -0.39258,1.15186 -1.23242,1.83594 l -0.97656,0.81299 h 1.92383 c 0.2041,0 0.36621,0.1626 0.36621,0.36572 0,0.20361 -0.16211,0.36572 -0.36621,0.36572 h -2.68945 c -0.25684,0 -0.44727,-0.14893 -0.44727,-0.39258 0,-0.1626 0.0752,-0.29834 0.2168,-0.41309 h -2e-5 z" />
	</g>
	<g
   id="g159">
		<path
   id="path151"
   fill="#1f1f1f"
   d="m 162.60645,219.12793 h -1.15137 c -0.2168,0 -0.38672,-0.17627 -0.38672,-0.38623 0,-0.20996 0.16992,-0.38623 0.38672,-0.38623 h 3.15039 c 0.20996,0 0.37891,0.17627 0.37891,0.38623 0,0.20996 -0.16895,0.38623 -0.37891,0.38623 h -1.1582 v 3.59082 c 0,0.22998 -0.19043,0.41309 -0.4209,0.41309 -0.22949,0 -0.41992,-0.18311 -0.41992,-0.41309 z" />
		<path
   id="path153"
   fill="#1f1f1f"
   d="m 165.98535,218.77539 c 0,-0.2373 0.18262,-0.41992 0.41992,-0.41992 h 1.69434 c 0.5957,0 1.0625,0.17627 1.36816,0.47412 0.25098,0.25732 0.39258,0.60986 0.39258,1.02295 v 0.0137 c 0,0.75879 -0.44043,1.21973 -1.07715,1.41602 l 0.9082,1.14502 c 0.0811,0.10156 0.13477,0.18994 0.13477,0.31836 0,0.23047 -0.19629,0.38623 -0.39941,0.38623 -0.18945,0 -0.31152,-0.0879 -0.40625,-0.2168 l -1.15137,-1.47021 h -1.05078 v 1.27393 c 0,0.22998 -0.18262,0.41309 -0.41309,0.41309 -0.2373,0 -0.41992,-0.18311 -0.41992,-0.41309 z m 2.05274,1.93066 c 0.59668,0 0.97559,-0.31152 0.97559,-0.79248 v -0.0132 c 0,-0.5083 -0.36621,-0.78613 -0.98242,-0.78613 h -1.21289 v 1.5918 h 1.21972 z" />
		<path
   id="path155"
   fill="#1f1f1f"
   d="m 171.14355,218.73486 c 0,-0.23047 0.18262,-0.41357 0.41992,-0.41357 0.23047,0 0.41309,0.18311 0.41309,0.41357 v 3.98389 c 0,0.22998 -0.18262,0.41309 -0.41309,0.41309 -0.2373,0 -0.41992,-0.18311 -0.41992,-0.41309 z" />
		<path
   id="path157"
   fill="#1f1f1f"
   d="m 173.2041,220.74023 v -0.0137 c 0,-1.32764 1.0166,-2.45215 2.44629,-2.45215 0.71094,0 1.18555,0.16895 1.61914,0.48047 0.0811,0.0615 0.16895,0.17676 0.16895,0.33887 0,0.22363 -0.18262,0.41357 -0.41309,0.41357 -0.1084,0 -0.18945,-0.0474 -0.25781,-0.0952 -0.30469,-0.22363 -0.63672,-0.37207 -1.15137,-0.37207 -0.87402,0 -1.53809,0.76514 -1.53809,1.67285 v 0.0137 c 0,0.97559 0.64355,1.69385 1.6123,1.69385 0.44727,0 0.85352,-0.14209 1.14551,-0.35889 v -0.8877 h -0.93555 c -0.20312,0 -0.37305,-0.15576 -0.37305,-0.35938 0,-0.20312 0.16992,-0.36523 0.37305,-0.36523 h 1.32129 c 0.2373,0 0.41992,0.18262 0.41992,0.41992 v 1.2666 c 0,0.2373 -0.0947,0.40674 -0.29102,0.52832 -0.40723,0.27148 -0.97559,0.51514 -1.68652,0.51514 -1.48436,1e-5 -2.45995,-1.05712 -2.45995,-2.43896 z" />
	</g>
	<g
   id="g171">
		<path
   id="path161"
   fill="#1f1f1f"
   d="m 106.32324,260.82617 v -0.0166 c 0,-1.64404 1.26855,-3.02148 3.06348,-3.02148 1.79493,0 3.04688,1.36084 3.04688,3.00488 v 0.0166 c 0,1.64453 -1.26953,3.02148 -3.06348,3.02148 -1.79492,0 -3.04688,-1.36035 -3.04688,-3.00488 z m 5.03321,0 v -0.0166 c 0,-1.13525 -0.82617,-2.07812 -1.98633,-2.07812 -1.16016,0 -1.96973,0.92627 -1.96973,2.06152 v 0.0166 c 0,1.13525 0.82617,2.06982 1.98633,2.06982 1.16016,0 1.96973,-0.91796 1.96973,-2.05322 z" />
		<path
   id="path163"
   fill="#1f1f1f"
   d="m 113.86328,258.40576 c 0,-0.29199 0.22559,-0.51758 0.51758,-0.51758 h 3.40527 c 0.25879,0 0.46777,0.20898 0.46777,0.46777 0,0.25879 -0.20898,0.46729 -0.46777,0.46729 h -2.89648 v 1.59424 h 2.52148 c 0.25879,0 0.4668,0.2085 0.4668,0.46729 0,0.25879 -0.20801,0.46729 -0.4668,0.46729 h -2.52148 v 1.91162 c 0,0.28369 -0.22461,0.50879 -0.50879,0.50879 -0.29199,0 -0.51758,-0.2251 -0.51758,-0.50879 1e-5,-1e-5 1e-5,-4.85792 0,-4.85792 z" />
		<path
   id="path165"
   fill="#1f1f1f"
   d="m 119.24805,263.08008 c -0.11621,-0.0835 -0.2002,-0.22559 -0.2002,-0.39258 0,-0.26709 0.2168,-0.47559 0.48438,-0.47559 0.1416,0 0.2334,0.0415 0.30078,0.0918 0.4834,0.38379 1.00098,0.60107 1.63574,0.60107 0.63379,0 1.03516,-0.30078 1.03516,-0.73486 v -0.0166 c 0,-0.41699 -0.23438,-0.64258 -1.31934,-0.89307 -1.24316,-0.30029 -1.94434,-0.66748 -1.94434,-1.74414 v -0.0171 c 0,-1.00146 0.83496,-1.69434 1.99512,-1.69434 0.73438,0 1.32617,0.19238 1.85254,0.54297 0.11719,0.0664 0.22559,0.2085 0.22559,0.40869 0,0.26709 -0.21777,0.47559 -0.48438,0.47559 -0.10059,0 -0.18359,-0.0249 -0.26758,-0.0747 -0.4502,-0.29248 -0.88379,-0.44238 -1.34375,-0.44238 -0.60059,0 -0.95117,0.30859 -0.95117,0.69238 v 0.0171 c 0,0.45068 0.26758,0.65088 1.39355,0.91797 1.23535,0.30029 1.87012,0.74268 1.87012,1.71094 v 0.0166 c 0,1.09375 -0.85938,1.74463 -2.08691,1.74463 -0.79297,0 -1.54395,-0.25049 -2.19531,-0.73438 z" />
		<path
   id="path167"
   fill="#1f1f1f"
   d="m 126.31348,258.83984 h -1.41895 c -0.2666,0 -0.47559,-0.2168 -0.47559,-0.47559 0,-0.25879 0.20898,-0.47607 0.47559,-0.47607 h 3.88184 c 0.25879,0 0.4668,0.21729 0.4668,0.47607 0,0.25878 -0.20801,0.47559 -0.4668,0.47559 h -1.42773 v 4.42383 c 0,0.28369 -0.2334,0.50879 -0.51758,0.50879 -0.2832,0 -0.51758,-0.2251 -0.51758,-0.50879 0,0 0,-4.42383 0,-4.42383 z" />
		<path
   id="path169"
   fill="#1f1f1f"
   d="m 132.66895,262.73779 1.79492,-1.52734 c 0.80078,-0.67627 1.09277,-1.05176 1.09277,-1.57764 0,-0.57617 -0.40918,-0.90967 -0.94336,-0.90967 -0.4668,0 -0.79297,0.2168 -1.15137,0.65088 -0.0752,0.0835 -0.19238,0.15869 -0.35938,0.15869 -0.25781,0 -0.4668,-0.2085 -0.4668,-0.46729 0,-0.10889 0.042,-0.22559 0.11621,-0.31738 0.47656,-0.59277 1.01855,-0.94336 1.93652,-0.94336 1.14355,0 1.92871,0.70117 1.92871,1.74463 v 0.0166 c 0,0.91846 -0.48438,1.41895 -1.51953,2.26221 l -1.20215,1.00146 h 2.37109 c 0.25,0 0.4502,0.2002 0.4502,0.45068 0,0.25048 -0.2002,0.45068 -0.4502,0.45068 h -3.31348 c -0.31738,0 -0.55078,-0.18359 -0.55078,-0.48389 2e-5,-0.20066 0.0918,-0.36766 0.26663,-0.50926 z" />
	</g>
	<g
   id="g183">
		<path
   id="path173"
   fill="#1f1f1f"
   d="m 156.93164,258.83936 h -1.41895 c -0.2666,0 -0.47559,-0.2168 -0.47559,-0.47559 0,-0.25879 0.20898,-0.47607 0.47559,-0.47607 h 3.88184 c 0.25879,0 0.4668,0.21729 0.4668,0.47607 0,0.25878 -0.20801,0.47559 -0.4668,0.47559 h -1.42773 v 4.42383 c 0,0.28369 -0.2334,0.50879 -0.51758,0.50879 -0.2832,0 -0.51758,-0.2251 -0.51758,-0.50879 z" />
		<path
   id="path175"
   fill="#1f1f1f"
   d="m 161.02441,258.35547 c 0,-0.28418 0.22559,-0.50928 0.51758,-0.50928 0.28418,0 0.50879,0.2251 0.50879,0.50928 v 1.96143 h 2.78809 v -1.96143 c 0,-0.28418 0.22559,-0.50928 0.50977,-0.50928 0.29199,0 0.5166,0.2251 0.5166,0.50928 v 4.90771 c 0,0.28369 -0.22461,0.50879 -0.5166,0.50879 -0.28418,0 -0.50977,-0.2251 -0.50977,-0.50879 v -1.99512 h -2.78809 v 1.99512 c 0,0.28369 -0.22461,0.50879 -0.50879,0.50879 -0.29199,0 -0.51758,-0.2251 -0.51758,-0.50879 z" />
		<path
   id="path177"
   fill="#1f1f1f"
   d="m 167.59863,258.40527 c 0,-0.29199 0.22559,-0.51758 0.51758,-0.51758 h 2.08691 c 0.73438,0 1.31055,0.21729 1.68555,0.58447 0.30957,0.31689 0.48438,0.75098 0.48438,1.26025 v 0.0166 c 0,0.93506 -0.54297,1.50244 -1.32715,1.74463 l 1.11816,1.41064 c 0.10059,0.125 0.16699,0.2334 0.16699,0.39209 0,0.28369 -0.24219,0.47559 -0.49219,0.47559 -0.2334,0 -0.38379,-0.1084 -0.50098,-0.26709 l -1.41895,-1.81104 H 168.625 v 1.56934 c 0,0.28369 -0.22461,0.50879 -0.50879,0.50879 -0.29199,0 -0.51758,-0.2251 -0.51758,-0.50879 z m 2.5293,2.37891 c 0.73438,0 1.20215,-0.38379 1.20215,-0.97656 v -0.0166 c 0,-0.62598 -0.45117,-0.96826 -1.21094,-0.96826 H 168.625 v 1.96143 h 1.50293 z" />
		<path
   id="path179"
   fill="#1f1f1f"
   d="m 173.85352,263.21289 v -4.80762 c 0,-0.29199 0.22559,-0.51758 0.51758,-0.51758 h 3.39746 c 0.25,0 0.45898,0.20898 0.45898,0.45947 0,0.2583 -0.20898,0.45898 -0.45898,0.45898 h -2.88867 v 1.51904 h 2.5127 c 0.25098,0 0.45898,0.2085 0.45898,0.46729 0,0.25049 -0.20801,0.45068 -0.45898,0.45068 h -2.5127 v 1.56934 h 2.92969 c 0.25098,0 0.45996,0.2085 0.45996,0.45898 0,0.25879 -0.20898,0.45898 -0.45996,0.45898 h -3.43848 c -0.292,2e-5 -0.51758,-0.22557 -0.51758,-0.51756 z" />
		<path
   id="path181"
   fill="#1f1f1f"
   d="m 179.46973,263.07959 c -0.11621,-0.0835 -0.2002,-0.22559 -0.2002,-0.39258 0,-0.26709 0.2168,-0.47559 0.48438,-0.47559 0.1416,0 0.2334,0.0415 0.30078,0.0918 0.4834,0.38379 1.00098,0.60107 1.63574,0.60107 0.63379,0 1.03516,-0.30078 1.03516,-0.73486 v -0.0166 c 0,-0.41699 -0.23438,-0.64258 -1.31934,-0.89307 -1.24316,-0.30029 -1.94434,-0.66748 -1.94434,-1.74414 v -0.0171 c 0,-1.00146 0.83496,-1.69434 1.99512,-1.69434 0.73438,0 1.32617,0.19238 1.85254,0.54297 0.11719,0.0664 0.22559,0.2085 0.22559,0.40869 0,0.26709 -0.21777,0.47559 -0.48438,0.47559 -0.10059,0 -0.18359,-0.0249 -0.26758,-0.0747 -0.4502,-0.29248 -0.88379,-0.44238 -1.34375,-0.44238 -0.60059,0 -0.95117,0.30859 -0.95117,0.69238 v 0.0171 c 0,0.45068 0.26758,0.65088 1.39355,0.91797 1.23535,0.30029 1.87012,0.74268 1.87012,1.71094 v 0.0166 c 0,1.09375 -0.85938,1.74463 -2.08691,1.74463 -0.79297,0 -1.54395,-0.25048 -2.19531,-0.73437 z" />
	</g>
	<g
   id="g193">
		<path
   id="path185"
   fill="#1f1f1f"
   d="M 17.00195,258.83936 H 15.583 c -0.2666,0 -0.47559,-0.2168 -0.47559,-0.47559 0,-0.25879 0.20898,-0.47607 0.47559,-0.47607 h 3.88184 c 0.25879,0 0.4668,0.21729 0.4668,0.47607 0,0.25878 -0.20801,0.47559 -0.4668,0.47559 h -1.42773 v 4.42383 c 0,0.28369 -0.2334,0.50879 -0.51758,0.50879 -0.2832,0 -0.51758,-0.2251 -0.51758,-0.50879 z" />
		<path
   id="path187"
   fill="#1f1f1f"
   d="m 21.125,258.35547 c 0,-0.28418 0.22559,-0.50928 0.51758,-0.50928 0.28418,0 0.50879,0.2251 0.50879,0.50928 v 4.90771 c 0,0.28369 -0.22461,0.50879 -0.50879,0.50879 -0.29199,0 -0.51758,-0.2251 -0.51758,-0.50879 z" />
		<path
   id="path189"
   fill="#1f1f1f"
   d="m 23.90332,258.37207 c 0,-0.28369 0.22559,-0.51758 0.51758,-0.51758 h 0.1084 c 0.22559,0 0.37598,0.1167 0.47559,0.27539 l 1.76953,2.771 1.77832,-2.7793 c 0.1084,-0.17529 0.25879,-0.26709 0.4668,-0.26709 h 0.10938 c 0.29199,0 0.5166,0.23389 0.5166,0.51758 v 4.89111 c 0,0.28369 -0.22461,0.50879 -0.5166,0.50879 -0.27539,0 -0.50977,-0.2334 -0.50977,-0.50879 v -3.50586 l -1.42676,2.14502 c -0.1084,0.16699 -0.24219,0.26709 -0.43457,0.26709 -0.18359,0 -0.31738,-0.1001 -0.42578,-0.26709 l -1.41895,-2.12793 v 3.49707 c 0,0.28369 -0.22461,0.50049 -0.50879,0.50049 -0.28418,0 -0.50098,-0.2168 -0.50098,-0.50049 0,0 0,-4.89941 0,-4.89941 z" />
		<path
   id="path191"
   fill="#1f1f1f"
   d="m 31.38379,263.21289 v -4.80762 c 0,-0.29199 0.22559,-0.51758 0.51758,-0.51758 h 3.39746 c 0.25,0 0.45898,0.20898 0.45898,0.45947 0,0.2583 -0.20898,0.45898 -0.45898,0.45898 h -2.88867 v 1.51904 h 2.5127 c 0.25,0 0.45898,0.2085 0.45898,0.46729 0,0.25049 -0.20898,0.45068 -0.45898,0.45068 h -2.5127 v 1.56934 h 2.92969 c 0.25098,0 0.45996,0.2085 0.45996,0.45898 0,0.25879 -0.20898,0.45898 -0.45996,0.45898 h -3.43848 c -0.29199,2e-5 -0.51758,-0.22557 -0.51758,-0.51756 z" />
	</g>
	<g
   id="g201">
		<path
   id="path195"
   fill="#1f1f1f"
   d="m 19.96191,314.54736 c 0,-0.23047 0.18262,-0.41357 0.41992,-0.41357 0.23047,0 0.41309,0.18311 0.41309,0.41357 v 3.98389 c 0,0.22998 -0.18262,0.41309 -0.41309,0.41309 -0.2373,0 -0.41992,-0.18311 -0.41992,-0.41309 z" />
		<path
   id="path197"
   fill="#1f1f1f"
   d="m 22.27148,314.56104 c 0,-0.23047 0.18262,-0.42041 0.41992,-0.42041 h 0.08789 c 0.20312,0 0.31836,0.10156 0.43359,0.24414 l 2.37109,3.06934 v -2.91357 c 0,-0.22363 0.18359,-0.40674 0.40625,-0.40674 0.23047,0 0.41406,0.18311 0.41406,0.40674 v 3.98389 c 0,0.23047 -0.17578,0.41309 -0.40625,0.41309 h -0.03418 c -0.19629,0 -0.31836,-0.10156 -0.43359,-0.25098 l -2.43945,-3.15674 v 3.0083 c 0,0.22314 -0.18262,0.40625 -0.40625,0.40625 -0.23047,0 -0.41309,-0.18311 -0.41309,-0.40625 0,-10e-6 0,-3.97706 10e-6,-3.97706 z" />
		<path
   id="path199"
   fill="#1f1f1f"
   d="m 30.25879,314.9541 -0.4873,0.14893 c -0.04785,0.0132 -0.10938,0.02 -0.14941,0.02 -0.19629,0 -0.36621,-0.16211 -0.36621,-0.35205 0,-0.17627 0.1084,-0.31201 0.27734,-0.35889 l 0.71875,-0.23047 c 0.16211,-0.0479 0.28418,-0.0747 0.40625,-0.0747 h 0.01367 c 0.2373,0 0.41309,0.18311 0.41309,0.41357 v 4.01074 c 0,0.22998 -0.18262,0.41309 -0.41309,0.41309 -0.22363,0 -0.41309,-0.18311 -0.41309,-0.41309 0,1e-5 0,-3.57714 0,-3.57714 z" />
	</g>
	<g
   id="g211">
		<path
   id="path203"
   fill="#f0f0f0"
   d="m 51.58008,316.61035 v -0.0137 c 0,-1.34814 1.06445,-2.45215 2.52734,-2.45215 1.46387,0 2.51367,1.09082 2.51367,2.43848 v 0.0137 c 0,1.34863 -1.06348,2.45264 -2.52734,2.45264 -1.46289,0 -2.51367,-1.09082 -2.51367,-2.43897 z m 3.9502,0 v -0.0137 c 0,-0.81299 -0.59668,-1.49023 -1.43652,-1.49023 -0.83984,0 -1.42285,0.66406 -1.42285,1.47656 v 0.0137 c 0,0.81299 0.59668,1.49072 1.43652,1.49072 0.83984,0 1.42285,-0.66406 1.42285,-1.47705 z" />
		<path
   id="path205"
   fill="#f0f0f0"
   d="m 57.69922,316.93555 v -2.229 c 0,-0.2915 0.23047,-0.52148 0.52148,-0.52148 0.29199,0 0.52246,0.22998 0.52246,0.52148 v 2.20166 c 0,0.77246 0.38574,1.17236 1.02246,1.17236 0.63672,0 1.02344,-0.38623 1.02344,-1.13818 v -2.23584 c 0,-0.2915 0.23047,-0.52148 0.52148,-0.52148 0.29101,0 0.52148,0.22998 0.52148,0.52148 v 2.19482 c 0,1.43652 -0.80664,2.14111 -2.08008,2.14111 -1.27344,0 -2.05273,-0.71143 -2.05272,-2.10693 z" />
		<path
   id="path207"
   fill="#f0f0f0"
   d="m 64.18457,315.1875 h -1.00293 c -0.26465,0 -0.48145,-0.2168 -0.48145,-0.48096 0,-0.26416 0.2168,-0.48096 0.48145,-0.48096 h 3.04883 c 0.26367,0 0.48047,0.2168 0.48047,0.48096 0,0.26416 -0.2168,0.48096 -0.48047,0.48096 h -1.00293 v 3.2998 c 0,0.29102 -0.23047,0.52148 -0.52148,0.52148 -0.29101,0 -0.52148,-0.23047 -0.52148,-0.52148 v -3.2998 z" />
		<path
   id="path209"
   fill="#f0f0f0"
   d="m 70.14551,315.21484 -0.36621,0.0947 c -0.05469,0.0137 -0.12891,0.0273 -0.18262,0.0273 -0.24414,0 -0.4541,-0.20361 -0.4541,-0.44727 0,-0.20996 0.13574,-0.38623 0.3457,-0.44727 l 0.66992,-0.19629 c 0.19727,-0.0547 0.3457,-0.0884 0.48828,-0.0884 h 0.01367 c 0.28418,0 0.51465,0.23047 0.51465,0.51514 v 3.8208 c 0,0.28467 -0.23047,0.51514 -0.51465,0.51514 -0.28516,0 -0.51465,-0.23047 -0.51465,-0.51514 v -3.2788 z" />
	</g>
	<g
   id="g219">
		<path
   id="path213"
   fill="#1f1f1f"
   d="m 91.21191,314.54736 c 0,-0.23047 0.18262,-0.41357 0.41992,-0.41357 0.23047,0 0.41309,0.18311 0.41309,0.41357 v 3.98389 c 0,0.22998 -0.18262,0.41309 -0.41309,0.41309 -0.2373,0 -0.41992,-0.18311 -0.41992,-0.41309 z" />
		<path
   id="path215"
   fill="#1f1f1f"
   d="m 93.52148,314.56104 c 0,-0.23047 0.18262,-0.42041 0.41992,-0.42041 h 0.08789 c 0.20312,0 0.31836,0.10156 0.43359,0.24414 l 2.37109,3.06934 v -2.91357 c 0,-0.22363 0.18359,-0.40674 0.40625,-0.40674 0.23047,0 0.41406,0.18311 0.41406,0.40674 v 3.98389 c 0,0.23047 -0.17676,0.41309 -0.40723,0.41309 h -0.03418 c -0.19531,0 -0.31836,-0.10156 -0.43359,-0.25098 L 94.3408,315.5298 v 3.0083 c 0,0.22314 -0.18262,0.40625 -0.40625,0.40625 -0.23047,0 -0.41309,-0.18311 -0.41309,-0.40625 v -3.97705 h 2e-5 z" />
		<path
   id="path217"
   fill="#1f1f1f"
   d="m 100.81055,318.10449 1.45703,-1.24023 c 0.65039,-0.54883 0.88672,-0.85352 0.88672,-1.28027 0,-0.46777 -0.33203,-0.73828 -0.76562,-0.73828 -0.37891,0 -0.64258,0.17578 -0.93457,0.52832 -0.0606,0.0674 -0.15527,0.12891 -0.29102,0.12891 -0.20996,0 -0.37988,-0.16992 -0.37988,-0.37988 0,-0.0879 0.0342,-0.18262 0.0957,-0.25732 0.38574,-0.48096 0.82617,-0.76562 1.57129,-0.76562 0.92871,0 1.56543,0.56934 1.56543,1.41602 v 0.0137 c 0,0.74512 -0.39355,1.15186 -1.2334,1.83594 l -0.97559,0.81299 h 1.92383 c 0.20312,0 0.36621,0.1626 0.36621,0.36572 0,0.20361 -0.16309,0.36572 -0.36621,0.36572 h -2.68945 c -0.25781,0 -0.44727,-0.14893 -0.44727,-0.39258 0,-0.1626 0.0742,-0.29834 0.2168,-0.41309 v 0 z" />
	</g>
	<g
   id="g229">
		<path
   id="path221"
   fill="#1f1f1f"
   d="m 162.6084,314.93896 h -1.15137 c -0.2168,0 -0.38672,-0.17627 -0.38672,-0.38623 0,-0.20996 0.16992,-0.38574 0.38672,-0.38574 h 3.15039 c 0.20996,0 0.37891,0.17578 0.37891,0.38574 0,0.20996 -0.16895,0.38623 -0.37891,0.38623 h -1.1582 v 3.59082 c 0,0.23047 -0.19043,0.41357 -0.4209,0.41357 -0.22949,0 -0.41992,-0.18311 -0.41992,-0.41357 z" />
		<path
   id="path223"
   fill="#1f1f1f"
   d="m 165.9873,314.58691 c 0,-0.2373 0.18262,-0.41992 0.41992,-0.41992 h 1.69434 c 0.5957,0 1.0625,0.17578 1.36816,0.47412 0.25098,0.25732 0.39258,0.60986 0.39258,1.02295 v 0.0137 c 0,0.75879 -0.44043,1.21924 -1.07715,1.41602 l 0.9082,1.14453 c 0.0811,0.10156 0.13477,0.18994 0.13477,0.31836 0,0.23047 -0.19629,0.38672 -0.39941,0.38672 -0.18945,0 -0.31152,-0.0884 -0.40625,-0.2168 l -1.15137,-1.4707 h -1.05078 v 1.27393 c 0,0.23047 -0.18262,0.41357 -0.41309,0.41357 -0.2373,0 -0.41992,-0.18311 -0.41992,-0.41357 v -3.94288 z m 2.05274,1.93067 c 0.59668,0 0.97559,-0.31152 0.97559,-0.79248 v -0.0137 c 0,-0.5083 -0.36621,-0.78564 -0.98242,-0.78564 h -1.21289 v 1.5918 h 1.21972 z" />
		<path
   id="path225"
   fill="#1f1f1f"
   d="m 171.14551,314.5459 c 0,-0.22998 0.18262,-0.41309 0.41992,-0.41309 0.23047,0 0.41309,0.18311 0.41309,0.41309 v 3.98389 c 0,0.23047 -0.18262,0.41357 -0.41309,0.41357 -0.2373,0 -0.41992,-0.18311 -0.41992,-0.41357 z" />
		<path
   id="path227"
   fill="#1f1f1f"
   d="m 173.20605,316.55176 v -0.0137 c 0,-1.32812 1.0166,-2.45264 2.44629,-2.45264 0.71094,0 1.18555,0.16943 1.61914,0.48096 0.0811,0.061 0.16895,0.17627 0.16895,0.33887 0,0.22363 -0.18262,0.41309 -0.41309,0.41309 -0.1084,0 -0.18945,-0.0474 -0.25781,-0.0947 -0.30469,-0.22363 -0.63672,-0.37256 -1.15137,-0.37256 -0.87402,0 -1.53809,0.76562 -1.53809,1.67334 v 0.0137 c 0,0.97559 0.64355,1.69336 1.6123,1.69336 0.44727,0 0.85352,-0.14209 1.14551,-0.35889 v -0.88721 h -0.93555 c -0.20312,0 -0.37305,-0.15625 -0.37305,-0.35938 0,-0.20313 0.16992,-0.36572 0.37305,-0.36572 h 1.32129 c 0.2373,0 0.41992,0.18311 0.41992,0.41992 v 1.26709 c 0,0.2373 -0.0947,0.40625 -0.29102,0.52832 -0.40723,0.271 -0.97559,0.51465 -1.68652,0.51465 -1.48436,0 -2.45995,-1.05664 -2.45995,-2.43847 z" />
	</g>
	<g
   id="g239">
		<path
   id="path231"
   fill="#f0f0f0"
   d="m 122.88477,316.61035 v -0.0137 c 0,-1.34814 1.06445,-2.45215 2.52734,-2.45215 1.46387,0 2.51367,1.09082 2.51367,2.43848 v 0.0137 c 0,1.34863 -1.06348,2.45264 -2.52734,2.45264 -1.46289,0 -2.51367,-1.09082 -2.51367,-2.43897 z m 3.95118,0 v -0.0137 c 0,-0.81299 -0.59766,-1.49023 -1.4375,-1.49023 -0.83984,0 -1.42188,0.66406 -1.42188,1.47656 v 0.0137 c 0,0.81299 0.5957,1.49072 1.43555,1.49072 0.83985,0 1.42382,-0.66406 1.42383,-1.47705 z" />
		<path
   id="path233"
   fill="#f0f0f0"
   d="m 129.00391,316.93555 v -2.229 c 0,-0.2915 0.23047,-0.52148 0.52148,-0.52148 0.29199,0 0.52246,0.22998 0.52246,0.52148 v 2.20166 c 0,0.77246 0.38574,1.17236 1.02246,1.17236 0.63672,0 1.02344,-0.38623 1.02344,-1.13818 v -2.23584 c 0,-0.2915 0.23047,-0.52148 0.52148,-0.52148 0.29101,0 0.52148,0.22998 0.52148,0.52148 v 2.19482 c 0,1.43652 -0.80664,2.14111 -2.08008,2.14111 -1.27344,0 -2.05272,-0.71143 -2.05272,-2.10693 z" />
		<path
   id="path235"
   fill="#f0f0f0"
   d="m 135.48926,315.1875 h -1.00293 c -0.26367,0 -0.48047,-0.2168 -0.48047,-0.48096 0,-0.26416 0.2168,-0.48096 0.48047,-0.48096 h 3.04883 c 0.26367,0 0.48047,0.2168 0.48047,0.48096 0,0.26416 -0.2168,0.48096 -0.48047,0.48096 h -1.00195 v 3.2998 c 0,0.29102 -0.23047,0.52148 -0.52148,0.52148 -0.29199,0 -0.52246,-0.23047 -0.52246,-0.52148 v -3.2998 z" />
		<path
   id="path237"
   fill="#f0f0f0"
   d="m 140.80664,317.95166 1.34766,-1.104 c 0.58984,-0.48145 0.82031,-0.74512 0.82031,-1.13867 0,-0.39941 -0.26367,-0.61621 -0.63672,-0.61621 -0.29883,0 -0.50781,0.12891 -0.77246,0.41309 -0.0674,0.0747 -0.19043,0.14941 -0.35254,0.14941 -0.26367,0 -0.47461,-0.20996 -0.47461,-0.47461 0,-0.11523 0.0479,-0.23682 0.12305,-0.3252 0.37891,-0.44043 0.82617,-0.69775 1.54395,-0.69775 0.98242,0 1.63281,0.57568 1.63281,1.46338 v 0.0137 c 0,0.79297 -0.40723,1.18555 -1.24707,1.83594 l -0.77148,0.59619 h 1.65234 c 0.25098,0 0.4541,0.20361 0.4541,0.4541 0,0.25049 -0.20312,0.44678 -0.4541,0.44678 h -2.57422 c -0.3252,0 -0.5625,-0.18262 -0.5625,-0.49414 0,-0.20313 0.0957,-0.37989 0.27148,-0.52198 z" />
	</g>
	<g
   id="g251">
		<path
   id="path241"
   fill="#1f1f1f"
   d="m 59.80469,213.19287 v -0.0166 c 0,-1.63574 1.25195,-3.02148 3.01367,-3.02148 0.87598,0 1.45996,0.20898 1.99414,0.59277 0.10059,0.0752 0.20898,0.2168 0.20898,0.41748 0,0.27539 -0.22559,0.50879 -0.50879,0.50879 -0.13379,0 -0.23438,-0.0581 -0.31738,-0.1167 -0.37598,-0.27539 -0.78418,-0.45898 -1.41895,-0.45898 -1.07715,0 -1.89453,0.94287 -1.89453,2.06152 v 0.0166 c 0,1.20215 0.79297,2.08691 1.98633,2.08691 0.55078,0 1.05176,-0.17529 1.41016,-0.44238 v -1.09375 h -1.15137 c -0.25,0 -0.45898,-0.19189 -0.45898,-0.44238 0,-0.25 0.20898,-0.45068 0.45898,-0.45068 h 1.62793 c 0.29199,0 0.5166,0.22559 0.5166,0.51758 v 1.56104 c 0,0.29199 -0.11621,0.50049 -0.3584,0.65088 -0.50098,0.33398 -1.20215,0.63428 -2.07812,0.63428 -1.82812,-2e-5 -3.03027,-1.30226 -3.03027,-3.0049 z" />
		<path
   id="path243"
   fill="#1f1f1f"
   d="m 66.37598,215.42969 2.1709,-4.84082 c 0.11621,-0.25879 0.3252,-0.41748 0.61719,-0.41748 h 0.0498 c 0.29199,0 0.49316,0.15869 0.60938,0.41748 l 2.16992,4.84082 c 0.04199,0.0752 0.05859,0.15039 0.05859,0.21729 0,0.27539 -0.20801,0.49219 -0.48438,0.49219 -0.24121,0 -0.4082,-0.1416 -0.5,-0.35889 l -0.47559,-1.09326 H 67.7539 l -0.49316,1.12695 c -0.08301,0.2085 -0.25879,0.3252 -0.47559,0.3252 -0.2666,0 -0.47559,-0.2085 -0.47559,-0.47559 0,-0.0752 0.02539,-0.15039 0.06641,-0.23389 z m 3.82324,-1.65235 -1.02637,-2.3623 -1.02734,2.3623 z" />
		<path
   id="path245"
   fill="#1f1f1f"
   d="m 73.28418,210.72266 c 0,-0.28418 0.22559,-0.50928 0.51758,-0.50928 0.28418,0 0.50879,0.2251 0.50879,0.50928 v 4.90771 c 0,0.28369 -0.22461,0.50879 -0.50879,0.50879 -0.29199,0 -0.51758,-0.2251 -0.51758,-0.50879 z" />
		<path
   id="path247"
   fill="#1f1f1f"
   d="m 76.06152,210.73926 c 0,-0.28369 0.22559,-0.51758 0.51758,-0.51758 h 0.1084 c 0.25098,0 0.39258,0.125 0.53418,0.30029 l 2.92188,3.78125 v -3.58887 c 0,-0.27588 0.22461,-0.50098 0.5,-0.50098 0.28418,0 0.50977,0.2251 0.50977,0.50098 v 4.90771 c 0,0.28369 -0.2168,0.50879 -0.50098,0.50879 h -0.04199 c -0.24219,0 -0.3916,-0.125 -0.53418,-0.30859 l -3.00488,-3.88965 v 3.70605 c 0,0.27539 -0.22461,0.50049 -0.5,0.50049 -0.28418,0 -0.50977,-0.2251 -0.50977,-0.50049 0,1e-5 0,-4.8994 -1e-5,-4.8994 z" />
		<path
   id="path249"
   fill="#1f1f1f"
   d="m 85.89746,211.22314 -0.60059,0.18359 c -0.05859,0.0171 -0.13379,0.0254 -0.18359,0.0254 -0.24219,0 -0.45117,-0.20068 -0.45117,-0.43408 0,-0.21729 0.13379,-0.38428 0.34277,-0.44238 l 0.88477,-0.28369 c 0.2002,-0.0586 0.35059,-0.0918 0.50098,-0.0918 h 0.0166 c 0.29199,0 0.50879,0.2251 0.50879,0.50879 v 4.94141 c 0,0.28369 -0.22559,0.50879 -0.50879,0.50879 -0.27539,0 -0.50977,-0.2251 -0.50977,-0.50879 -10e-6,0 -10e-6,-4.40723 0,-4.40723 z" />
	</g>
<path
   style="font-weight:bold;font-size:14.3806px;line-height:0.1;font-family:'Gill Sans';-inkscape-font-specification:'Gill Sans Bold';letter-spacing:0.0239676px;word-spacing:0.0359514px;stroke-width:13.4521"
   d="m 101.6078,20.120688 q 0,1.495639 -0.5477,2.401448 -0.54068,0.905809 -1.277966,1.467551 -1.046245,0.821548 -2.928081,0.821548 h -5.252289 v -9.732183 h 4.044543 q 0.912831,0 1.558835,0.0983 0.653025,0.09128 1.172637,0.266827 0.519611,0.168523 0.884744,0.386198 0.365132,0.210654 0.653025,0.456416 0.498542,0.407263 0.870702,0.961983 0.37917,0.554721 0.59685,1.284985 0.2247,0.730265 0.2247,1.586922 z m -2.984259,-0.126392 q 0,-1.18668 -0.456416,-1.846727 Q 97.717732,17.4805 97.07875,17.255803 96.44679,17.031106 95.786743,17.031106 h -1.249876 v 5.764879 h 1.249876 q 1.151571,0 1.994185,-0.547698 0.842613,-0.547699 0.842613,-2.253991 z m 14.243069,4.816939 h -3.15278 l -0.76537,-1.727357 q -0.42131,-0.94794 -0.75836,-1.38329 -0.33704,-0.442372 -0.66004,-0.561742 -0.31598,-0.126392 -0.82155,-0.126392 h -0.33002 v 3.798781 h -2.93511 v -9.732183 h 4.99249 q 1.20774,0 1.98014,0.491524 0.77239,0.491525 1.10944,1.193703 0.34406,0.702177 0.34406,1.334137 0,0.737287 -0.28789,1.249877 -0.28087,0.505568 -0.59685,0.737286 -0.31598,0.231719 -0.7092,0.442372 0.47046,0.27385 0.7724,0.653026 0.30896,0.372154 0.83559,1.516703 z m -3.98837,-6.656644 q 0,-0.674091 -0.44237,-0.940919 -0.44238,-0.266827 -1.43947,-0.266827 h -0.61791 v 2.345273 h 0.63196 q 1.07433,0 1.46755,-0.231718 0.40024,-0.238741 0.40024,-0.905809 z m 16.03362,6.656644 h -3.00532 l -0.79346,-1.973119 h -4.22711 l -0.80751,1.973119 h -3.00532 l 4.30435,-9.732183 h 3.24406 z m -4.47287,-3.665367 -1.42542,-3.55302 -1.43947,3.55302 z m 20.73118,-6.066816 -4.21306,9.858575 h -1.69927 l -2.52784,-5.736792 -2.59104,5.736792 h -1.71331 l -4.12881,-9.858575 h 3.04043 l 2.02227,5.392725 2.31719,-5.392725 h 2.09951 l 2.27506,5.392725 2.11355,-5.392725 z"
   id="text5"
   transform="scale(0.83445903,1.1983812)"
   aria-label="DRAW" /></g>
<g
   id="uuid-01687cb8-7441-45ec-98e1-245f9b20292f"
   inkscape:groupmode="layer"
   display="none"
   inkscape:label="components">
	<circle
   id="uuid-e9f982fb-2414-43cb-9c46-31dd417c22f3"
   display="inline"
   fill="#ff0000"
   cx="25.521191"
   cy="238"
   r="5"
   inkscape:label="PARAM_1X2" />
	<circle
   id="uuid-0e696d93-9562-4857-865b-1ab1ebc29583"
   display="inline"
   fill="#ff0000"
   cx="169.47881"
   cy="237.75993"
   r="5"
   inkscape:label="PARAM_TRIG" />
	<circle
   id="uuid-ac818d73-593e-47ac-a73a-0468a40d11b6"
   display="inline"
   fill="#00ff00"
   cx="25.521191"
   cy="334"
   r="5"
   inkscape:label="IN_1" />
	<circle
   id="uuid-31465d9b-7446-49a6-923d-bf2d4f2ff800"
   display="inline"
   fill="#00ff00"
   cx="169.47881"
   cy="334"
   r="5"
   inkscape:label="OUT_TRIG" />
	<circle
   id="uuid-cae7cb64-b9d2-4491-a6b2-1bbe8644b71e"
   display="inline"
   fill="#0000ff"
   cx="133.50073"
   cy="334"
   r="5"
   inkscape:label="OUT_2" />
	<circle
   id="uuid-ca0ee116-dd43-4274-a871-e021c37688d9"
   display="inline"
   fill="#00ff00"
   cx="97.507553"
   cy="334"
   r="5"
   inkscape:label="IN_2" />
	<circle
   id="uuid-9f6aaa20-2e2d-4157-ac7e-322d135a42a1"
   display="inline"
   fill="#0000ff"
   cx="61.51437"
   cy="334"
   r="5"
   inkscape:label="OUT_1" />
	<circle
   id="uuid-fc739517-3f69-49b2-bc2b-9b7bc3d5fd8a"
   display="inline"
   fill="#ff0000"
   cx="121.49648"
   cy="285.87146"
   r="5"
   inkscape:label="PARAM_OFFSET_2" />
	<circle
   id="uuid-ab39d8e8-140e-432a-bb9c-0c335ce60cca"
   display="inline"
   fill="#ff0000"
   cx="25.521191"
   cy="285.88263"
   r="5"
   inkscape:label="PARAM_TIME" />
	<circle
   id="uuid-02c82747-e2a9-449f-a615-e4803e54047f"
   display="inline"
   fill="#ff0000"
   cx="73.515839"
   cy="285.79443"
   r="5"
   inkscape:label="PARAM_OFFSET_1" />
	<circle
   id="uuid-cac4d032-60a6-4a44-a4f3-589a138067c5"
   display="inline"
   fill="#ff0000"
   cx="121.49648"
   cy="237.84641"
   r="5"
   inkscape:label="PARAM_GAIN_2" />
	<circle
   id="uuid-b89b9fb9-3f2e-4ffc-a858-490ee0fd20ef"
   display="inline"
   fill="#ff0000"
   cx="73.515839"
   cy="237.84641"
   r="5"
   inkscape:label="PARAM_GAIN_1" />
	<circle
   id="uuid-598b36ab-02d4-4246-84c2-bbff6f9dda2e"
   display="inline"
   fill="#ff0000"
   cx="169.47881"
   cy="285.87146"
   r="5"
   inkscape:label="PARAM_THRESHOLD" />
	
		<rect
   id="uuid-c451808c-f8de-4d15-a4dc-10dce1838ce1"
   x="3.9999999e-05"
   y="38.5"
   display="inline"
   fill="#ffff00"
   width="194.99995"
   height="165"
   inkscape:label="WIDGET_CANVAS" />
</g>
</svg>
