<?xml version="1.0" encoding="UTF-8" standalone="no"?>
<!-- Created with Inkscape (http://www.inkscape.org/) -->

<svg
   width="203.2mm"
   height="128.5mm"
   viewBox="0 0 203.2 128.5"
   version="1.1"
   id="svg1"
   inkscape:version="1.3.2 (091e20e, 2023-11-25)"
   sodipodi:docname="glab.svg"
   xmlns:inkscape="http://www.inkscape.org/namespaces/inkscape"
   xmlns:sodipodi="http://sodipodi.sourceforge.net/DTD/sodipodi-0.dtd"
   xmlns="http://www.w3.org/2000/svg"
   xmlns:svg="http://www.w3.org/2000/svg">
  <sodipodi:namedview
     id="namedview1"
     pagecolor="#ffffff"
     bordercolor="#000000"
     borderopacity="0.25"
     inkscape:showpageshadow="2"
     inkscape:pageopacity="0.0"
     inkscape:pagecheckerboard="0"
     inkscape:deskcolor="#d1d1d1"
     inkscape:document-units="mm"
     inkscape:zoom="1.7973338"
     inkscape:cx="355.8048"
     inkscape:cy="371.10524"
     inkscape:window-width="1264"
     inkscape:window-height="707"
     inkscape:window-x="66"
     inkscape:window-y="25"
     inkscape:window-maximized="0"
     inkscape:current-layer="svg1"
     showguides="false" />
  <defs
     id="defs1" />
  <rect
     style="fill:#e0e0e0;fill-opacity:1;stroke:none;stroke-width:2.98453;stroke-opacity:1"
     id="rect2"
     width="203.2"
     height="128.5"
     x="-2.6645353e-15"
     y="0" />
  <path
     style="font-weight:bold;font-size:2.11667px;line-height:0.1;font-family:Futura;-inkscape-font-specification:'Futura Bold';letter-spacing:0.00529167px;word-spacing:0.0079375px;stroke-width:1.058;stroke-linecap:square;stroke-linejoin:round"
     d="m 98.404887,125.84243 q 0,0.10583 0.01905,0.19262 0.01905,0.0868 0.05292,0.15028 0.03598,0.0635 0.08467,0.0995 0.04868,0.0339 0.110067,0.0339 0.05927,0 0.10795,-0.0339 0.0508,-0.036 0.08467,-0.0995 0.03387,-0.0635 0.05292,-0.15028 0.01905,-0.0868 0.01905,-0.19262 0,-0.10372 -0.01905,-0.1905 -0.01905,-0.0889 -0.05292,-0.15028 -0.03387,-0.0635 -0.08467,-0.0974 -0.04868,-0.036 -0.10795,-0.036 -0.06138,0 -0.110067,0.036 -0.04868,0.0339 -0.08467,0.0974 -0.03387,0.0614 -0.05292,0.15028 -0.01905,0.0868 -0.01905,0.1905 z m -0.410634,0 q 0,-0.1905 0.04868,-0.34502 0.0508,-0.15663 0.139701,-0.2667 0.09102,-0.11006 0.213783,-0.16933 Q 98.521304,125 98.671587,125 q 0.148167,0 0.273051,0.0614 0.124883,0.0593 0.213783,0.16933 0.0889,0.11007 0.137584,0.2667 0.0508,0.15452 0.0508,0.34502 0,0.1905 -0.0508,0.34713 -0.04868,0.15452 -0.137584,0.26671 -0.0889,0.11006 -0.213783,0.17145 -0.124884,0.0593 -0.273051,0.0593 -0.150283,0 -0.275167,-0.0593 -0.122767,-0.0614 -0.213783,-0.17145 -0.0889,-0.11219 -0.139701,-0.26671 -0.04868,-0.15663 -0.04868,-0.34713 z m 1.944162,0.21167 -0.440267,-0.49742 h 0.499534 l 0.186268,0.22437 0.1905,-0.22437 h 0.49953 l -0.45085,0.49742 0.54399,0.58843 h -0.508 l -0.27729,-0.32173 -0.279398,0.32173 h -0.505885 z m 2.219325,-0.65617 h -0.55245 l -0.0275,0.17568 q 0.0381,-0.004 0.0699,-0.006 0.0317,-0.004 0.0656,-0.004 0.12065,0 0.22437,0.0423 0.10372,0.0423 0.1778,0.11642 0.0741,0.0741 0.11642,0.1778 0.0423,0.10372 0.0423,0.22648 0,0.12912 -0.0487,0.23284 -0.0466,0.10372 -0.13335,0.1778 -0.0868,0.072 -0.21167,0.11007 -0.12488,0.0402 -0.27728,0.0402 -0.14394,0 -0.27517,-0.036 -0.12912,-0.0339 -0.24342,-0.10583 l 0.0614,-0.38947 q 0.10583,0.091 0.2159,0.1397 0.11006,0.0466 0.20955,0.0466 0.127,0 0.20108,-0.0677 0.0741,-0.0699 0.0741,-0.17145 0,-0.11853 -0.0995,-0.1905 -0.0995,-0.0741 -0.26035,-0.0741 -0.072,0 -0.14817,0.0169 -0.0762,0.0148 -0.15028,0.0487 l 0.13335,-0.85725 h 0.83608 z m 0.71226,0.4445 q 0,0.10583 0.019,0.19262 0.0191,0.0868 0.0529,0.15028 0.036,0.0635 0.0847,0.0995 0.0487,0.0339 0.11006,0.0339 0.0593,0 0.10795,-0.0339 0.0508,-0.036 0.0847,-0.0995 0.0339,-0.0635 0.0529,-0.15028 0.0191,-0.0868 0.0191,-0.19262 0,-0.10372 -0.0191,-0.1905 -0.019,-0.0889 -0.0529,-0.15028 -0.0339,-0.0635 -0.0847,-0.0974 -0.0487,-0.036 -0.10795,-0.036 -0.0614,0 -0.11006,0.036 -0.0487,0.0339 -0.0847,0.0974 -0.0339,0.0614 -0.0529,0.15028 -0.019,0.0868 -0.019,0.1905 z m -0.41063,0 q 0,-0.1905 0.0487,-0.34502 0.0508,-0.15663 0.1397,-0.2667 0.091,-0.11006 0.21379,-0.16933 Q 102.98642,125 103.1367,125 q 0.14817,0 0.27306,0.0614 0.12488,0.0593 0.21378,0.16933 0.0889,0.11007 0.13758,0.2667 0.0508,0.15452 0.0508,0.34502 0,0.1905 -0.0508,0.34713 -0.0487,0.15452 -0.13758,0.26671 -0.0889,0.11006 -0.21378,0.17145 -0.12489,0.0593 -0.27306,0.0593 -0.15028,0 -0.27516,-0.0593 -0.12277,-0.0614 -0.21379,-0.17145 -0.0889,-0.11219 -0.1397,-0.26671 -0.0487,-0.15663 -0.0487,-0.34713 z m 2.74638,0.8001 h -1.28482 l 0.39582,-0.41063 q 0.15663,-0.16299 0.24553,-0.27517 0.0889,-0.1143 0.13124,-0.19262 0.0444,-0.0783 0.055,-0.127 0.0106,-0.0487 0.0106,-0.0826 0,-0.036 -0.0127,-0.0698 -0.0106,-0.0339 -0.0339,-0.0593 -0.0233,-0.0275 -0.0571,-0.0423 -0.0318,-0.0169 -0.0762,-0.0169 -0.0847,0 -0.13335,0.055 -0.0466,0.055 -0.0466,0.13759 0,0.0233 0.006,0.0677 h -0.45297 q 0,-0.1397 0.0444,-0.254 0.0466,-0.1143 0.12912,-0.19685 0.0825,-0.0825 0.19473,-0.127 0.1143,-0.0444 0.24977,-0.0444 0.13335,0 0.24553,0.0423 0.1143,0.0423 0.19685,0.11854 0.0825,0.0762 0.12912,0.18203 0.0466,0.10372 0.0466,0.22648 0,0.13124 -0.0572,0.24342 -0.055,0.11007 -0.1778,0.22648 l -0.26459,0.24766 h 0.51647 z"
     id="text2-5"
     aria-label="0x502" />
  <path
     id="rect26-7"
     fill="#1f1f1f"
     d="M 5.0163631,106.40229 H 13.83827 c 0.601466,0 1.089046,0.48425 1.089046,1.08167 v 12.7784 c 0,0.59741 -0.48758,1.08166 -1.089046,1.08166 H 5.0163631 c -0.6014666,0 -1.0890469,-0.48425 -1.0890469,-1.08166 v -12.7784 c 0,-0.59742 0.4875803,-1.08167 1.0890469,-1.08167 z"
     style="display:inline;stroke-width:0.382891" />
  <path
     id="rect26-7-3"
     fill="#1f1f1f"
     d="m 4.9142905,72.449353 h 8.8219055 c 0.601466,0 1.089046,0.993267 1.089046,2.218663 v 26.210344 c 0,1.22538 -0.48758,2.21864 -1.089046,2.21864 H 4.9142905 c -0.601467,0 -1.089047,-0.99326 -1.089047,-2.21864 V 74.668016 c 0,-1.225396 0.48758,-2.218663 1.089047,-2.218663 z"
     style="display:inline;stroke-width:0.54837;fill:#f2f2f2" />
  <rect
     style="fill:#000000;fill-opacity:1;stroke:none;stroke-width:1.75636;stroke-linecap:round;stroke-linejoin:round;stroke-dasharray:none;stroke-opacity:1"
     id="rect6-2-60-6"
     width="0.2"
     height="13.897575"
     x="9.3273163"
     y="21.788841" />
  <path
     id="rect26-7-9"
     fill="#1f1f1f"
     d="m 189.36171,106.40242 h 8.82191 c 0.60147,0 1.08905,0.48425 1.08905,1.08167 v 12.77841 c 0,0.59741 -0.48758,1.08166 -1.08905,1.08166 h -8.82191 c -0.60146,0 -1.08904,-0.48425 -1.08904,-1.08166 v -12.77841 c 0,-0.59742 0.48758,-1.08167 1.08904,-1.08167 z"
     style="display:inline;stroke-width:0.382891" />
  <g
     id="text4"
     style="font-weight:bold;font-size:8.1139px;line-height:0.1;font-family:Futura;-inkscape-font-specification:'Futura Bold';letter-spacing:0.00529167px;word-spacing:0.0079375px;stroke-width:1.058;stroke-linecap:square;stroke-linejoin:round"
     aria-label="G &#10;&#10;           B&#10;    &#10;    L   &#10;       &#10;       &#10;       &#10;       A   "
     transform="translate(1.9341065)">
    <path
       d="m 42.458124,111.42883 h 3.156308 q 0,0.48684 -0.04057,0.88442 -0.04057,0.39758 -0.162278,0.73836 -0.170392,0.47872 -0.462492,0.85196 -0.292101,0.36513 -0.689682,0.61666 -0.389467,0.24341 -0.860073,0.37324 -0.470606,0.12982 -0.989896,0.12982 -0.714023,0 -1.306338,-0.2353 -0.584201,-0.23531 -1.006124,-0.65723 -0.421922,-0.43004 -0.657225,-1.02235 -0.235304,-0.60043 -0.235304,-1.32257 0,-0.71402 0.22719,-1.30633 0.235303,-0.60043 0.657226,-1.02236 0.430036,-0.42192 1.030465,-0.65722 0.600429,-0.2353 1.338793,-0.2353 0.957441,0 1.679578,0.4138 0.722137,0.41381 1.14406,1.282 l -1.509186,0.62477 q -0.210961,-0.50306 -0.551745,-0.72214 -0.33267,-0.21907 -0.762707,-0.21907 -0.357011,0 -0.649112,0.13793 -0.2921,0.12983 -0.503061,0.38136 -0.202848,0.24341 -0.324556,0.59231 -0.113595,0.3489 -0.113595,0.77894 0,0.38946 0.09737,0.72213 0.105481,0.33267 0.308328,0.57609 0.202848,0.24342 0.503062,0.38135 0.300214,0.12983 0.697795,0.12983 0.235303,0 0.454379,-0.0487 0.219075,-0.0568 0.389467,-0.17039 0.178506,-0.12171 0.2921,-0.30833 0.113595,-0.18662 0.154164,-0.45438 h -1.306338 z"
       id="path18" />
    <path
       d="m 71.562169,115.24236 h 0.348898 q 0.600429,0 0.860073,-0.15416 0.259645,-0.15416 0.259645,-0.49495 0,-0.34078 -0.259645,-0.49495 -0.259644,-0.15416 -0.860073,-0.15416 h -0.348898 z m 0,-2.48285 h 0.292101 q 0.746479,0 0.746479,-0.59231 0,-0.59232 -0.746479,-0.59232 h -0.292101 z m -1.590324,-2.40171 h 2.369259 q 0.843845,0 1.281996,0.40569 0.438151,0.4057 0.438151,1.1684 0,0.4625 -0.170392,0.77082 -0.162278,0.30022 -0.503062,0.51118 0.340784,0.0649 0.576087,0.20285 0.243417,0.12982 0.389467,0.32455 0.154164,0.19474 0.219075,0.43815 0.06491,0.24342 0.06491,0.51929 0,0.43004 -0.154165,0.76271 -0.14605,0.33267 -0.421922,0.55986 -0.267759,0.22719 -0.657226,0.34078 -0.389468,0.1136 -0.876302,0.1136 h -2.555878 z"
       id="path19" />
    <path
       d="m 52.158473,111.98058 v 4.77097 h 1.906767 v 1.34691 h -3.497091 v -6.11788 z"
       id="path20" />
    <path
       d="m 62.210718,119.07213 -0.714023,-2.03659 -0.714023,2.03659 z m 0.421923,1.20897 h -2.271892 l -0.365126,1.06292 h -1.695805 l 2.32869,-6.11788 h 1.736374 l 2.32869,6.11788 h -1.695805 z"
       id="path21" />
  </g>
  <path
     style="font-weight:bold;font-size:2.11667px;line-height:0.1;font-family:Futura;-inkscape-font-specification:'Futura Bold';letter-spacing:0.00529167px;word-spacing:0.0079375px;fill:#ffffff;stroke-width:1.058;stroke-linecap:square;stroke-linejoin:round"
     d="m 6.2906755,109.13207 q 0,0.0953 0.035983,0.17568 0.035983,0.0804 0.097367,0.1397 0.061383,0.0593 0.1418168,0.0931 0.08255,0.0318 0.173567,0.0318 0.091017,0 0.1714502,-0.0318 0.08255,-0.0339 0.1439336,-0.0931 0.0635,-0.0593 0.099483,-0.1397 0.035983,-0.0804 0.035983,-0.17568 0,-0.0952 -0.035983,-0.17568 -0.035983,-0.0804 -0.099483,-0.1397 -0.061383,-0.0593 -0.1439336,-0.091 -0.080433,-0.0339 -0.1714502,-0.0339 -0.091017,0 -0.173567,0.0339 -0.080433,0.0318 -0.1418168,0.091 -0.061383,0.0593 -0.097367,0.1397 -0.035983,0.0804 -0.035983,0.17568 z m -0.4339174,0 q 0,-0.1778 0.065617,-0.3302 0.065617,-0.15452 0.1820336,-0.26882 0.1164169,-0.1143 0.2772838,-0.1778 0.1629835,-0.0656 0.3577172,-0.0656 0.1926169,0 0.3556005,0.0656 0.1629836,0.0635 0.2794004,0.1778 0.1185336,0.1143 0.1841503,0.26882 0.065617,0.1524 0.065617,0.3302 0,0.1778 -0.065617,0.33232 -0.065617,0.1524 -0.1841503,0.2667 -0.1164168,0.1143 -0.2794004,0.17991 -0.1629836,0.0635 -0.3556005,0.0635 -0.1947337,0 -0.3577172,-0.0635 -0.1608669,-0.0656 -0.2772838,-0.17991 -0.1164168,-0.1143 -0.1820336,-0.2667 -0.065617,-0.15452 -0.065617,-0.33232 z m 2.4500439,-0.79799 v 0.86784 q 0,0.0699 0.00423,0.14393 0.00635,0.072 0.03175,0.13124 0.027517,0.0593 0.084667,0.0974 0.05715,0.036 0.160867,0.036 0.1037168,0 0.1587502,-0.036 0.05715,-0.0381 0.084667,-0.0974 0.027517,-0.0593 0.03175,-0.13124 0.00635,-0.0741 0.00635,-0.14393 v -0.86784 h 0.4127507 v 0.92499 q 0,0.37253 -0.1714503,0.54398 -0.1693336,0.17145 -0.5228174,0.17145 -0.3534839,0 -0.5249342,-0.17145 -0.1714502,-0.17145 -0.1714502,-0.54398 v -0.92499 z m 1.920879,0.35137 v 1.2446 H 9.8128137 v -1.2446 H 9.4720298 v -0.35137 h 1.0964352 v 0.35137 z m 1.546758,-0.35137 0.385234,0.97156 0.38735,-0.97156 h 0.450851 l -0.673101,1.59597 h -0.330201 l -0.670984,-1.59597 z"
     id="text21"
     aria-label="OUT V" />
  <path
     style="font-weight:bold;font-size:2.11667px;line-height:0.1;font-family:Futura;-inkscape-font-specification:'Futura Bold';letter-spacing:0.00529167px;word-spacing:0.0079375px;fill:#ffffff;stroke-width:1.058;stroke-linecap:square;stroke-linejoin:round"
     d="m 190.93237,109.13221 q 0,0.0952 0.036,0.17568 0.036,0.0804 0.0974,0.1397 0.0614,0.0593 0.14181,0.0931 0.0825,0.0318 0.17357,0.0318 0.091,0 0.17145,-0.0318 0.0825,-0.0339 0.14393,-0.0931 0.0635,-0.0593 0.0995,-0.1397 0.036,-0.0804 0.036,-0.17568 0,-0.0953 -0.036,-0.17569 -0.036,-0.0804 -0.0995,-0.1397 -0.0614,-0.0593 -0.14393,-0.091 -0.0804,-0.0339 -0.17145,-0.0339 -0.091,0 -0.17357,0.0339 -0.0804,0.0318 -0.14181,0.091 -0.0614,0.0593 -0.0974,0.1397 -0.036,0.0804 -0.036,0.17569 z m -0.43392,0 q 0,-0.1778 0.0656,-0.3302 0.0656,-0.15452 0.18203,-0.26882 0.11642,-0.1143 0.27728,-0.1778 0.16299,-0.0656 0.35772,-0.0656 0.19262,0 0.3556,0.0656 0.16298,0.0635 0.2794,0.1778 0.11853,0.1143 0.18415,0.26882 0.0656,0.1524 0.0656,0.3302 0,0.1778 -0.0656,0.33231 -0.0656,0.1524 -0.18415,0.2667 -0.11642,0.1143 -0.2794,0.17992 -0.16298,0.0635 -0.3556,0.0635 -0.19473,0 -0.35772,-0.0635 -0.16086,-0.0656 -0.27728,-0.17992 -0.11642,-0.1143 -0.18203,-0.2667 -0.0656,-0.15451 -0.0656,-0.33231 z m 2.45004,-0.79799 v 0.86784 q 0,0.0699 0.004,0.14393 0.006,0.072 0.0317,0.13123 0.0275,0.0593 0.0847,0.0974 0.0572,0.036 0.16087,0.036 0.10372,0 0.15875,-0.036 0.0572,-0.0381 0.0847,-0.0974 0.0275,-0.0593 0.0317,-0.13123 0.006,-0.0741 0.006,-0.14393 v -0.86784 h 0.41275 v 0.92499 q 0,0.37253 -0.17145,0.54398 -0.16934,0.17145 -0.52282,0.17145 -0.35348,0 -0.52493,-0.17145 -0.17146,-0.17145 -0.17146,-0.54398 v -0.92499 z m 1.92088,0.35137 v 1.2446 h -0.41487 v -1.2446 h -0.34078 v -0.35137 h 1.09644 v 0.35137 z m 2.17753,0 h -0.49954 v 0.2667 h 0.45509 v 0.35137 h -0.45509 v 0.62653 h -0.41486 v -1.59597 h 0.9144 z"
     id="text21-7"
     aria-label="OUT F" />
  <path
     d="m 191.81342,7.4218007 v 1.5959691 h -0.41486 V 7.4218007 Z m 0.33973,1.5959691 V 7.4218007 h 0.41487 l 0.76623,0.9757848 V 7.4218007 h 0.41275 v 1.5959691 h -0.41275 L 192.56802,8.041985 v 0.9757848 z m 3.08134,-0.8826513 h 0.0783 q 0.12276,0 0.18838,-0.0508 0.0656,-0.0508 0.0656,-0.1460502 0,-0.09525 -0.0656,-0.1460503 -0.0656,-0.0508 -0.18838,-0.0508 h -0.0783 z m 0.91228,0.8826513 h -0.51646 l -0.39582,-0.6138343 v 0.6138343 h -0.41487 V 7.4218007 h 0.64559 q 0.13335,0 0.23283,0.040217 0.0995,0.0381 0.16298,0.1058335 0.0656,0.067734 0.0974,0.1566336 0.0339,0.0889 0.0339,0.1905003 0,0.1820336 -0.0889,0.2963338 -0.0868,0.1121835 -0.25824,0.1524002 z"
     id="text1"
     style="font-weight:bold;font-size:2.11667px;line-height:0.1;font-family:Futura;-inkscape-font-specification:'Futura Bold';letter-spacing:0.00529167px;word-spacing:0.0079375px;stroke-width:1.058;stroke-linecap:square;stroke-linejoin:round"
     aria-label="IN R" />
  <path
     d="M 7.6755081,7.4218007 V 9.0177698 H 7.2606408 V 7.4218007 Z M 8.0152337,9.0177698 V 7.4218007 H 8.430101 L 9.1963355,8.3975855 V 7.4218007 H 9.6090861 V 9.0177698 H 9.1963355 L 8.430101,8.041985 V 9.0177698 Z M 11.096575,7.4218007 v 1.2446019 h 0.497417 V 9.0177698 H 10.681708 V 7.4218007 Z"
     id="text1-0"
     style="font-weight:bold;font-size:2.11667px;line-height:0.1;font-family:Futura;-inkscape-font-specification:'Futura Bold';letter-spacing:0.00529167px;word-spacing:0.0079375px;stroke-width:1.058;stroke-linecap:square;stroke-linejoin:round"
     aria-label="IN L" />
  <path
     d="m 8.2025588,58.090725 q -0.1439335,-0.175683 -0.3556005,-0.175683 -0.093133,0 -0.173567,0.03387 -0.078317,0.03387 -0.1354668,0.09313 -0.05715,0.05715 -0.091017,0.137583 -0.03175,0.08043 -0.03175,0.173567 0,0.09525 0.03175,0.175684 0.033867,0.08043 0.091017,0.1397 0.059267,0.05927 0.1375835,0.09313 0.078317,0.03387 0.1693336,0.03387 0.198967,0 0.3577172,-0.169333 v 0.491067 l -0.042333,0.01482 q -0.09525,0.03387 -0.1778003,0.04868 -0.08255,0.01693 -0.1629835,0.01693 -0.1651003,0 -0.3175005,-0.06138 -0.1502836,-0.0635 -0.2667004,-0.175683 -0.1143002,-0.114301 -0.1841503,-0.268817 -0.06985,-0.156634 -0.06985,-0.340784 0,-0.184151 0.067733,-0.336551 0.06985,-0.154517 0.1841503,-0.264584 0.1164168,-0.112183 0.2688171,-0.173566 0.1524002,-0.0635 0.3196171,-0.0635 0.09525,0 0.186267,0.02117 0.093134,0.01905 0.1947336,0.06138 z m 0.5513921,-0.5334 0.3852339,0.971551 0.3873506,-0.971551 h 0.4508507 l -0.673101,1.595969 H 8.9740846 L 8.3031002,57.557325 Z m 3.3057101,1.595969 H 10.774842 L 11.17066,58.74266 q 0.156633,-0.162984 0.245533,-0.275167 0.0889,-0.114301 0.131234,-0.192617 0.04445,-0.07832 0.05503,-0.127001 0.01058,-0.04868 0.01058,-0.08255 0,-0.03598 -0.0127,-0.06985 -0.01058,-0.03387 -0.03387,-0.05927 -0.02328,-0.02752 -0.05715,-0.04233 -0.03175,-0.01693 -0.0762,-0.01693 -0.08467,0 -0.13335,0.05503 -0.04657,0.05503 -0.04657,0.137584 0,0.02328 0.0064,0.06773 h -0.452967 q 0,-0.1397 0.04445,-0.254 0.04657,-0.114301 0.129116,-0.196851 0.08255,-0.08255 0.194734,-0.127 0.1143,-0.04445 0.249767,-0.04445 0.13335,0 0.245534,0.04233 0.1143,0.04233 0.19685,0.118533 0.08255,0.0762 0.129117,0.182034 0.04657,0.103716 0.04657,0.226483 0,0.131234 -0.05715,0.243417 -0.05503,0.110067 -0.177801,0.226484 l -0.264583,0.24765 h 0.516467 z"
     id="text1-4"
     style="font-weight:bold;font-size:2.11667px;line-height:0.1;font-family:Futura;-inkscape-font-specification:'Futura Bold';letter-spacing:0.00529167px;word-spacing:0.0079375px;stroke-width:1.058;stroke-linecap:square;stroke-linejoin:round"
     inkscape:label="text1-4"
     aria-label="CV 2" />
  <path
     d="m 5.8705748,74.802987 q -0.1439336,-0.175684 -0.3556006,-0.175684 -0.093133,0 -0.1735669,0.03387 -0.078317,0.03387 -0.1354669,0.09313 -0.05715,0.05715 -0.091017,0.137584 -0.03175,0.08043 -0.03175,0.173567 0,0.09525 0.03175,0.175683 0.033867,0.08043 0.091017,0.1397 0.059267,0.05927 0.1375836,0.09313 0.078317,0.03387 0.1693336,0.03387 0.1989669,0 0.3577172,-0.169334 v 0.491067 l -0.042333,0.01482 q -0.09525,0.03387 -0.1778003,0.04868 -0.08255,0.01693 -0.1629836,0.01693 -0.1651002,0 -0.3175005,-0.06138 -0.1502835,-0.0635 -0.2667004,-0.175683 -0.1143001,-0.1143 -0.1841502,-0.268817 -0.06985,-0.156634 -0.06985,-0.340784 0,-0.18415 0.067734,-0.336551 0.06985,-0.154516 0.1841503,-0.264583 0.1164168,-0.112184 0.268817,-0.173567 0.1524003,-0.0635 0.3196172,-0.0635 0.09525,0 0.1862669,0.02117 0.093133,0.01905 0.1947337,0.06138 z m 0.6529916,0.264583 q 0,0.09525 0.035983,0.175684 0.035983,0.08043 0.097367,0.1397 0.061384,0.05927 0.1418169,0.09313 0.08255,0.03175 0.1735669,0.03175 0.091017,0 0.1714503,-0.03175 0.08255,-0.03387 0.1439336,-0.09313 0.0635,-0.05927 0.099483,-0.1397 0.035983,-0.08043 0.035983,-0.175684 0,-0.09525 -0.035983,-0.175683 -0.035983,-0.08043 -0.099483,-0.139701 -0.061383,-0.05927 -0.1439336,-0.09102 -0.080433,-0.03387 -0.1714503,-0.03387 -0.091017,0 -0.1735669,0.03387 -0.080433,0.03175 -0.1418169,0.09102 -0.061383,0.05927 -0.097367,0.139701 -0.035983,0.08043 -0.035983,0.175683 z m -0.4339173,0 q 0,-0.1778 0.065617,-0.3302 0.065617,-0.154517 0.1820336,-0.268817 0.1164168,-0.1143 0.2772837,-0.177801 0.1629836,-0.06562 0.3577172,-0.06562 0.192617,0 0.3556006,0.06562 0.1629836,0.0635 0.2794004,0.177801 0.1185335,0.1143 0.1841503,0.268817 0.065617,0.1524 0.065617,0.3302 0,0.177801 -0.065617,0.332317 -0.065617,0.152401 -0.1841503,0.266701 -0.1164168,0.1143 -0.2794004,0.179917 -0.1629836,0.0635 -0.3556006,0.0635 -0.1947336,0 -0.3577172,-0.0635 -0.1608669,-0.06562 -0.2772837,-0.179917 -0.1164169,-0.1143 -0.1820336,-0.266701 -0.065617,-0.154516 -0.065617,-0.332317 z m 1.9632097,0.797985 0.2709338,-1.595969 h 0.410634 l 0.3196171,0.850901 0.3175005,-0.850901 h 0.4106339 l 0.2709339,1.595969 H 9.6403613 L 9.5027777,74.94692 9.1260105,75.865555 H 8.9609102 L 8.603193,74.94692 8.4656095,75.865555 Z m 2.6828782,-0.863602 h 0.137584 q 0.2286,0 0.2286,-0.198966 0,-0.198967 -0.2286,-0.198967 h -0.137584 z m 0,0.863602 H 10.32087 v -1.595969 h 0.660401 q 0.268817,0 0.410634,0.1397 0.143934,0.1397 0.143934,0.393701 0,0.254 -0.143934,0.3937 -0.141817,0.1397 -0.410634,0.1397 h -0.245534 z m 2.042057,-1.595969 0.385234,0.971551 0.387351,-0.971551 h 0.45085 l -0.673101,1.595969 h -0.3302 l -0.670985,-1.595969 z"
     id="text1-4-1"
     style="font-weight:bold;font-size:2.11667px;line-height:0.1;font-family:Futura;-inkscape-font-specification:'Futura Bold';letter-spacing:0.00529167px;word-spacing:0.0079375px;stroke-width:1.058;stroke-linecap:square;stroke-linejoin:round"
     aria-label="COMP V" />
  <path
     d="M 8.4099925,41.378918 Q 8.266059,41.203234 8.054392,41.203234 q -0.093134,0 -0.173567,0.03387 -0.078317,0.03387 -0.1354668,0.09313 -0.05715,0.05715 -0.091017,0.137583 -0.03175,0.08043 -0.03175,0.173567 0,0.09525 0.03175,0.175684 0.033867,0.08043 0.091017,0.1397 0.059267,0.05927 0.1375835,0.09313 0.078317,0.03387 0.1693336,0.03387 0.198967,0 0.3577172,-0.169333 v 0.491067 l -0.042333,0.01482 q -0.09525,0.03387 -0.1778003,0.04868 -0.08255,0.01693 -0.1629835,0.01693 -0.1651003,0 -0.3175005,-0.06138 -0.1502836,-0.0635 -0.2667004,-0.175684 -0.1143002,-0.1143 -0.1841503,-0.268817 -0.06985,-0.156633 -0.06985,-0.340784 0,-0.18415 0.067733,-0.33655 0.06985,-0.154517 0.1841503,-0.264584 0.1164169,-0.112183 0.2688171,-0.173567 0.1524002,-0.0635 0.3196171,-0.0635 0.09525,0 0.186267,0.02117 0.093134,0.01905 0.1947336,0.06138 z m 0.5513921,-0.533401 0.3852339,0.971552 0.3873506,-0.971552 H 10.18482 L 9.5117188,42.441486 H 9.1815183 L 8.5105339,40.845517 Z m 2.5225424,0.351367 h -0.232834 v -0.351367 h 0.647701 v 1.595969 h -0.414867 z"
     id="text1-0-1"
     style="font-weight:bold;font-size:2.11667px;line-height:0.1;font-family:Futura;-inkscape-font-specification:'Futura Bold';letter-spacing:0.00529167px;word-spacing:0.0079375px;stroke-width:1.058;stroke-linecap:square;stroke-linejoin:round"
     aria-label="CV 1" />
  <path
     id="rect26-7-3-8"
     fill="#1f1f1f"
     d="m 189.36171,72.449357 h 8.82191 c 0.60147,0 1.08905,0.993267 1.08905,2.218663 v 26.21034 c 0,1.22538 -0.48758,2.21864 -1.08905,2.21864 h -8.82191 c -0.60146,0 -1.08904,-0.99326 -1.08904,-2.21864 V 74.66802 c 0,-1.225396 0.48758,-2.218663 1.08904,-2.218663 z"
     style="display:inline;fill:#f2f2f2;stroke-width:0.54837" />
  <rect
     style="fill:#000000;fill-opacity:1;stroke:none;stroke-width:1.75636;stroke-linecap:round;stroke-linejoin:round;stroke-dasharray:none;stroke-opacity:1"
     id="rect6-2-60-6-6"
     width="0.2"
     height="13.897575"
     x="193.77473"
     y="21.788841" />
  <path
     d="m 192.64999,58.090729 q -0.14394,-0.175683 -0.3556,-0.175683 -0.0931,0 -0.17357,0.03387 -0.0783,0.03387 -0.13547,0.09313 -0.0572,0.05715 -0.091,0.137583 -0.0317,0.08043 -0.0317,0.173567 0,0.09525 0.0317,0.175684 0.0339,0.08043 0.091,0.1397 0.0593,0.05927 0.13759,0.09313 0.0783,0.03387 0.16933,0.03387 0.19897,0 0.35772,-0.169333 v 0.491067 l -0.0423,0.01482 q -0.0953,0.03387 -0.17781,0.04868 -0.0825,0.01693 -0.16298,0.01693 -0.1651,0 -0.3175,-0.06138 -0.15028,-0.0635 -0.2667,-0.175684 -0.1143,-0.1143 -0.18415,-0.268817 -0.0699,-0.156633 -0.0699,-0.340783 0,-0.184151 0.0677,-0.336551 0.0699,-0.154517 0.18415,-0.264584 0.11642,-0.112183 0.26882,-0.173567 0.1524,-0.0635 0.31962,-0.0635 0.0952,0 0.18626,0.02117 0.0931,0.01905 0.19474,0.06138 z m 0.55139,-0.533401 0.38523,0.971552 0.38736,-0.971552 h 0.45085 l -0.67311,1.595969 h -0.3302 l -0.67098,-1.595969 z m 2.76173,0.950385 v -0.628651 l -0.36619,0.628651 z m 0.38523,0 h 0.19262 v 0.317501 h -0.19262 v 0.328083 h -0.38523 v -0.328083 h -0.77047 v -0.266701 l 0.6096,-1.001185 h 0.5461 z"
     id="text1-4-0"
     style="font-weight:bold;font-size:2.11667px;line-height:0.1;font-family:Futura;-inkscape-font-specification:'Futura Bold';letter-spacing:0.00529167px;word-spacing:0.0079375px;stroke-width:1.058;stroke-linecap:square;stroke-linejoin:round"
     aria-label="CV 4" />
  <path
     d="m 190.61433,74.802994 q -0.14393,-0.175683 -0.3556,-0.175683 -0.0931,0 -0.17357,0.03387 -0.0783,0.03387 -0.13547,0.09313 -0.0572,0.05715 -0.091,0.137583 -0.0317,0.08043 -0.0317,0.173567 0,0.09525 0.0317,0.175684 0.0339,0.08043 0.091,0.1397 0.0593,0.05927 0.13759,0.09313 0.0783,0.03387 0.16933,0.03387 0.19897,0 0.35772,-0.169333 v 0.491067 l -0.0423,0.01482 q -0.0952,0.03387 -0.1778,0.04868 -0.0826,0.01693 -0.16299,0.01693 -0.1651,0 -0.3175,-0.06138 -0.15028,-0.0635 -0.2667,-0.175684 -0.1143,-0.1143 -0.18415,-0.268817 -0.0699,-0.156633 -0.0699,-0.340783 0,-0.184151 0.0677,-0.336551 0.0699,-0.154517 0.18415,-0.264584 0.11642,-0.112183 0.26882,-0.173567 0.1524,-0.0635 0.31962,-0.0635 0.0952,0 0.18627,0.02117 0.0931,0.01905 0.19473,0.06138 z m 0.65299,0.264584 q 0,0.09525 0.036,0.175683 0.036,0.08043 0.0974,0.139701 0.0614,0.05927 0.14182,0.09313 0.0826,0.03175 0.17356,0.03175 0.091,0 0.17145,-0.03175 0.0825,-0.03387 0.14394,-0.09313 0.0635,-0.05927 0.0995,-0.139701 0.036,-0.08043 0.036,-0.175683 0,-0.09525 -0.036,-0.175684 -0.036,-0.08043 -0.0995,-0.1397 -0.0614,-0.05927 -0.14394,-0.09102 -0.0804,-0.03387 -0.17145,-0.03387 -0.091,0 -0.17356,0.03387 -0.0804,0.03175 -0.14182,0.09102 -0.0614,0.05927 -0.0974,0.1397 -0.036,0.08043 -0.036,0.175684 z m -0.43392,0 q 0,-0.1778 0.0656,-0.330201 0.0656,-0.154517 0.18203,-0.268817 0.11642,-0.1143 0.27729,-0.1778 0.16298,-0.06562 0.35771,-0.06562 0.19262,0 0.3556,0.06562 0.16299,0.0635 0.27941,0.1778 0.11853,0.1143 0.18415,0.268817 0.0656,0.152401 0.0656,0.330201 0,0.1778 -0.0656,0.332317 -0.0656,0.1524 -0.18415,0.2667 -0.11642,0.114301 -0.27941,0.179917 -0.16298,0.0635 -0.3556,0.0635 -0.19473,0 -0.35771,-0.0635 -0.16087,-0.06562 -0.27729,-0.179917 -0.11641,-0.1143 -0.18203,-0.2667 -0.0656,-0.154517 -0.0656,-0.332317 z m 1.96321,0.797984 0.27094,-1.595969 h 0.41063 l 0.31962,0.850902 0.3175,-0.850902 h 0.41063 l 0.27094,1.595969 h -0.41275 l -0.13759,-0.918634 -0.37677,0.918634 h -0.1651 l -0.35771,-0.918634 -0.13759,0.918634 z m 2.68288,-0.863601 h 0.13758 q 0.22861,0 0.22861,-0.198967 0,-0.198967 -0.22861,-0.198967 h -0.13758 z m 0,0.863601 h -0.41487 v -1.595969 h 0.6604 q 0.26882,0 0.41064,0.139701 0.14393,0.1397 0.14393,0.3937 0,0.254001 -0.14393,0.393701 -0.14182,0.1397 -0.41064,0.1397 h -0.24553 z m 2.67283,-1.244601 h -0.49954 v 0.2667 h 0.45509 v 0.351367 h -0.45509 v 0.626534 h -0.41487 v -1.595969 h 0.91441 z"
     id="text1-4-1-8"
     style="font-weight:bold;font-size:2.11667px;line-height:0.1;font-family:Futura;-inkscape-font-specification:'Futura Bold';letter-spacing:0.00529167px;word-spacing:0.0079375px;stroke-width:1.058;stroke-linecap:square;stroke-linejoin:round"
     aria-label="COMP F" />
  <path
     d="m 192.85742,41.378918 q -0.14394,-0.175684 -0.3556,-0.175684 -0.0931,0 -0.17357,0.03387 -0.0783,0.03387 -0.13547,0.09313 -0.0572,0.05715 -0.091,0.137583 -0.0317,0.08043 -0.0317,0.173567 0,0.09525 0.0317,0.175684 0.0339,0.08043 0.091,0.1397 0.0593,0.05927 0.13759,0.09313 0.0783,0.03387 0.16933,0.03387 0.19897,0 0.35772,-0.169333 v 0.491067 l -0.0423,0.01482 q -0.0952,0.03387 -0.1778,0.04868 -0.0825,0.01693 -0.16298,0.01693 -0.1651,0 -0.3175,-0.06138 -0.15028,-0.0635 -0.2667,-0.175684 -0.1143,-0.1143 -0.18415,-0.268817 -0.0699,-0.156633 -0.0699,-0.340784 0,-0.18415 0.0677,-0.33655 0.0699,-0.154517 0.18415,-0.264584 0.11642,-0.112183 0.26882,-0.173567 0.1524,-0.0635 0.31962,-0.0635 0.0953,0 0.18626,0.02117 0.0931,0.01905 0.19474,0.06138 z m 0.55139,-0.533401 0.38523,0.971552 0.38735,-0.971552 h 0.45085 l -0.6731,1.595969 h -0.3302 l -0.67098,-1.595969 z m 2.59451,0.622301 q 0.0169,0.0021 0.0275,0.0021 0.0127,0 0.0212,0 0.0783,0 0.127,-0.04657 0.0487,-0.04657 0.0487,-0.12065 0,-0.07197 -0.0466,-0.116417 -0.0444,-0.04445 -0.11642,-0.04445 -0.0762,0 -0.12277,0.0508 -0.0466,0.0508 -0.0466,0.131234 h -0.38312 q 0.0148,-0.124884 0.0614,-0.222251 0.0487,-0.09737 0.12277,-0.162983 0.0741,-0.06773 0.17357,-0.1016 0.0995,-0.03598 0.22013,-0.03598 0.11853,0 0.21378,0.03387 0.0974,0.03175 0.16511,0.09313 0.0699,0.05927 0.10583,0.146051 0.0381,0.08467 0.0381,0.1905 0,0.1143 -0.0445,0.188384 -0.0423,0.07197 -0.12277,0.124883 0.12277,0.0381 0.1905,0.137584 0.0699,0.09737 0.0699,0.2413 0,0.118533 -0.0466,0.2159 -0.0466,0.09737 -0.13124,0.167217 -0.0826,0.06985 -0.19897,0.10795 -0.1143,0.0381 -0.25188,0.0381 -0.18415,0 -0.33232,-0.07197 -0.14816,-0.07197 -0.23706,-0.228601 -0.0402,-0.06985 -0.055,-0.1397 -0.0127,-0.06985 -0.0127,-0.141817 h 0.41064 q 0.004,0.112184 0.0656,0.17145 0.0614,0.05715 0.1651,0.05715 0.11007,0 0.16087,-0.05927 0.0508,-0.05927 0.0508,-0.14605 0,-0.103717 -0.0614,-0.156634 -0.0614,-0.05292 -0.14605,-0.05292 -0.0212,0 -0.0402,0.0042 -0.019,0.0021 -0.0423,0.0063 z"
     id="text1-0-1-4"
     style="font-weight:bold;font-size:2.11667px;line-height:0.1;font-family:Futura;-inkscape-font-specification:'Futura Bold';letter-spacing:0.00529167px;word-spacing:0.0079375px;stroke-width:1.058;stroke-linecap:square;stroke-linejoin:round"
     aria-label="CV 3" />
  <g
     inkscape:groupmode="layer"
     id="layer2"
     inkscape:label="components"
     style="display:none">
    <rect
       style="fill:#ffff00;fill-opacity:1;stroke:none;stroke-width:1.77501;stroke-opacity:1"
       id="rect1"
       width="80"
       height="97.607002"
       x="18.855"
       y="5.4899998"
       inkscape:label="WIDGET_VERT" />
    <circle
       id="uuid-cae7cb64-b9d2-4491-a6b2-1bbe8644b71e-6-2-1-7"
       display="inline"
       fill="#0000ff"
       cx="9.325243"
       cy="81.799484"
       r="1.3229166"
       inkscape:label="INPUT_COMP_V"
       style="display:inline;fill:#00ff00;stroke-width:0.264583" />
    <circle
       id="uuid-cae7cb64-b9d2-4491-a6b2-1bbe8644b71e-6-2-1-7-2"
       display="inline"
       fill="#0000ff"
       cx="9.325243"
       cy="92.339584"
       r="1.3229166"
       inkscape:label="PARAM_COMP_V"
       style="display:inline;fill:#ff0000;stroke-width:0.264583" />
    <circle
       id="uuid-cae7cb64-b9d2-4491-a6b2-1bbe8644b71e-6-2-6"
       display="inline"
       fill="#0000ff"
       cx="9.4273167"
       cy="14.951692"
       r="1.3229166"
       inkscape:label="INPUT_L"
       style="display:inline;fill:#00ff00;stroke-width:0.264583" />
    <circle
       id="uuid-cae7cb64-b9d2-4491-a6b2-1bbe8644b71e-6-2-1-7-2-9"
       display="inline"
       fill="#0000ff"
       cx="9.325243"
       cy="100.0125"
       r="1.3229166"
       inkscape:label="LIGHT_COMP_V"
       style="display:inline;fill:#ff00ff;stroke-width:0.264583" />
    <circle
       id="uuid-cae7cb64-b9d2-4491-a6b2-1bbe8644b71e-6-2-6-7"
       display="inline"
       fill="#0000ff"
       cx="9.4273167"
       cy="48.375408"
       r="1.3229166"
       inkscape:label="INPUT_CV_1"
       style="display:inline;fill:#00ff00;stroke-width:0.264583" />
    <rect
       style="display:inline;fill:#ffff00;fill-opacity:1;stroke:none;stroke-width:1.77501;stroke-opacity:1"
       id="rect1-7"
       width="80"
       height="97.607002"
       x="104.34502"
       y="25.402994"
       inkscape:label="WIDGET_FRAG" />
    <rect
       style="display:inline;fill:#ffff00;fill-opacity:1;stroke:none;stroke-width:0.633677;stroke-opacity:1"
       id="rect1-7-5"
       width="69"
       height="14.423"
       x="115.345"
       y="5.4899998"
       inkscape:label="WIDGET_ERROR" />
    <circle
       id="uuid-cae7cb64-b9d2-4491-a6b2-1bbe8644b71e-6-6"
       display="inline"
       fill="#0000ff"
       cx="193.77267"
       cy="115.86398"
       r="1.3229166"
       inkscape:label="OUTPUT_FRAG"
       style="stroke-width:0.264583" />
    <circle
       id="uuid-cae7cb64-b9d2-4491-a6b2-1bbe8644b71e-6"
       display="inline"
       fill="#0000ff"
       cx="9.4273167"
       cy="115.86398"
       r="1.3229166"
       inkscape:label="OUTPUT_VERT"
       style="stroke-width:0.264583" />
    <circle
       id="uuid-cae7cb64-b9d2-4491-a6b2-1bbe8644b71e-6-2-1-7-6"
       display="inline"
       fill="#0000ff"
       cx="193.77266"
       cy="81.799492"
       r="1.3229166"
       inkscape:label="INPUT_COMP_F"
       style="display:inline;fill:#00ff00;stroke-width:0.264583" />
    <circle
       id="uuid-cae7cb64-b9d2-4491-a6b2-1bbe8644b71e-6-2-1-7-2-4"
       display="inline"
       fill="#0000ff"
       cx="193.77266"
       cy="92.339584"
       r="1.3229166"
       inkscape:label="PARAM_COMP_F"
       style="display:inline;fill:#ff0000;stroke-width:0.264583" />
    <circle
       id="uuid-cae7cb64-b9d2-4491-a6b2-1bbe8644b71e-6-2-1-7-2-9-4"
       display="inline"
       fill="#0000ff"
       cx="193.77266"
       cy="100.01248"
       r="1.3229166"
       inkscape:label="LIGHT_COMP_F"
       style="display:inline;fill:#ff00ff;stroke-width:0.264583" />
    <circle
       id="uuid-cae7cb64-b9d2-4491-a6b2-1bbe8644b71e-6-2-1-9"
       display="inline"
       fill="#0000ff"
       cx="193.87474"
       cy="65.087219"
       r="1.3229166"
       inkscape:label="INPUT_CV_4"
       style="display:inline;fill:#00ff00;stroke-width:0.264583" />
    <circle
       id="uuid-cae7cb64-b9d2-4491-a6b2-1bbe8644b71e-6-2-6-7-1"
       display="inline"
       fill="#0000ff"
       cx="193.87474"
       cy="48.375408"
       r="1.3229166"
       inkscape:label="INPUT_CV_3"
       style="display:inline;fill:#00ff00;stroke-width:0.264583" />
    <circle
       id="uuid-cae7cb64-b9d2-4491-a6b2-1bbe8644b71e-6-2"
       display="inline"
       fill="#0000ff"
       cx="193.77266"
       cy="14.951692"
       r="1.3229166"
       inkscape:label="INPUT_R"
       style="display:inline;fill:#00ff00;stroke-width:0.264583" />
    <circle
       id="uuid-cae7cb64-b9d2-4491-a6b2-1bbe8644b71e-6-2-1"
       display="inline"
       fill="#0000ff"
       cx="9.4273167"
       cy="65.087219"
       r="1.3229166"
       inkscape:label="INPUT_CV_2"
       style="display:inline;fill:#00ff00;stroke-width:0.264583" />
    <circle
       id="uuid-cae7cb64-b9d2-4491-a6b2-1bbe8644b71e-6-2-1-7-24"
       display="inline"
       fill="#0000ff"
       cx="109.00908"
       cy="15.82724"
       r="1.3229166"
       inkscape:label="PARAM_PUBLISH"
       style="display:inline;fill:#ff0000;stroke-width:0.264583" />
  </g>
  <path
     style="display:inline;font-weight:bold;font-size:2.11667px;line-height:0.1;font-family:Futura;-inkscape-font-specification:'Futura Bold';letter-spacing:0.00529167px;word-spacing:0.0079375px;stroke-width:1.058;stroke-linecap:square;stroke-linejoin:round"
     d="m 104.75986,9.0296558 h 0.13759 q 0.2286,0 0.2286,-0.1989669 0,-0.198967 -0.2286,-0.198967 h -0.13759 z m 0,0.8636013 H 104.345 V 8.297288 h 0.6604 q 0.26882,0 0.41063,0.1397003 0.14394,0.1397002 0.14394,0.3937006 0,0.2540003 -0.14394,0.3937006 -0.14181,0.1397002 -0.41063,0.1397002 h -0.24554 z m 1.4404,-1.5959691 v 0.8678347 q 0,0.06985 0.004,0.1439336 0.006,0.071967 0.0317,0.1312335 0.0275,0.059267 0.0847,0.097367 0.0572,0.035983 0.16086,0.035983 0.10372,0 0.15875,-0.035983 0.0572,-0.0381 0.0847,-0.097367 0.0275,-0.059267 0.0318,-0.1312335 0.006,-0.074084 0.006,-0.1439336 V 8.297288 h 0.41275 v 0.9249848 q 0,0.3725339 -0.17145,0.5439841 -0.16933,0.1714503 -0.52282,0.1714503 -0.35348,0 -0.52493,-0.1714503 -0.17145,-0.1714502 -0.17145,-0.5439841 V 8.297288 Z m 1.73038,1.2742353 h 0.091 q 0.15664,0 0.22437,-0.040217 0.0677,-0.040217 0.0677,-0.1291169 0,-0.0889 -0.0677,-0.1291168 -0.0677,-0.040217 -0.22437,-0.040217 h -0.091 z m 0,-0.647701 h 0.0762 q 0.19473,0 0.19473,-0.1545169 0,-0.1545169 -0.19473,-0.1545169 h -0.0762 z M 107.51577,8.297288 h 0.61807 q 0.22013,0 0.33443,0.1058335 0.1143,0.1058335 0.1143,0.3048005 0,0.1206502 -0.0444,0.2010836 -0.0423,0.078317 -0.13123,0.1333502 0.0889,0.016933 0.15028,0.052917 0.0635,0.033867 0.1016,0.084667 0.0402,0.0508 0.0571,0.1143002 0.0169,0.0635 0.0169,0.1354668 0,0.1121835 -0.0402,0.198967 -0.0381,0.086783 -0.11007,0.1460502 -0.0699,0.059267 -0.17145,0.0889 -0.1016,0.029633 -0.2286,0.029633 h -0.66675 z m 1.88489,0 v 1.2446019 h 0.49742 v 0.3513672 h -0.91229 V 8.297288 Z m 1.13136,0 v 1.5959691 h -0.41487 V 8.297288 Z m 1.21603,0.4085173 q -0.0677,-0.055033 -0.13547,-0.080433 -0.0677,-0.027517 -0.13123,-0.027517 -0.0804,0 -0.13124,0.0381 -0.0508,0.0381 -0.0508,0.099483 0,0.042333 0.0254,0.06985 0.0254,0.027517 0.0656,0.048683 0.0423,0.01905 0.0931,0.033867 0.0529,0.014817 0.10372,0.03175 0.2032,0.067733 0.29633,0.1820336 0.0953,0.1121835 0.0953,0.2942171 0,0.1227669 -0.0423,0.2222504 -0.0402,0.099483 -0.12065,0.1714502 -0.0783,0.06985 -0.19473,0.1079502 -0.1143,0.040217 -0.26035,0.040217 -0.30269,0 -0.56092,-0.1799169 l 0.1778,-0.3344339 q 0.0931,0.08255 0.18415,0.1227669 0.091,0.040217 0.17992,0.040217 0.1016,0 0.15028,-0.046567 0.0508,-0.046567 0.0508,-0.1058335 0,-0.035983 -0.0127,-0.061383 -0.0127,-0.027517 -0.0423,-0.048683 -0.0296,-0.023283 -0.0783,-0.042333 -0.0466,-0.01905 -0.1143,-0.042333 -0.0804,-0.0254 -0.15875,-0.055033 -0.0762,-0.03175 -0.13758,-0.08255 -0.0593,-0.0508 -0.0974,-0.1270002 -0.036,-0.078317 -0.036,-0.1968503 0,-0.1185335 0.0381,-0.2137837 0.0402,-0.097367 0.11006,-0.1651002 0.072,-0.06985 0.17357,-0.1079502 0.10372,-0.0381 0.23072,-0.0381 0.11853,0 0.24765,0.033867 0.12911,0.03175 0.24765,0.09525 z m 0.91122,0.2074337 h 0.59902 V 8.297288 h 0.41487 v 1.5959691 h -0.41487 V 9.2349728 h -0.59902 v 0.6582843 h -0.41486 V 8.297288 h 0.41486 z"
     id="text2"
     aria-label="PUBLISH" />
</svg>
