<?xml version="1.0" encoding="UTF-8" standalone="no"?>
<!-- Created with Inkscape (http://www.inkscape.org/) -->

<svg
   width="203.2mm"
   height="128.5mm"
   viewBox="0 0 203.2 128.5"
   version="1.1"
   id="svg1"
   inkscape:version="1.3.2 (091e20e, 2023-11-25)"
   sodipodi:docname="glab.svg"
   xmlns:inkscape="http://www.inkscape.org/namespaces/inkscape"
   xmlns:sodipodi="http://sodipodi.sourceforge.net/DTD/sodipodi-0.dtd"
   xmlns="http://www.w3.org/2000/svg"
   xmlns:svg="http://www.w3.org/2000/svg">
  <sodipodi:namedview
     id="namedview1"
     pagecolor="#ffffff"
     bordercolor="#000000"
     borderopacity="0.25"
     inkscape:showpageshadow="2"
     inkscape:pageopacity="0.0"
     inkscape:pagecheckerboard="0"
     inkscape:deskcolor="#d1d1d1"
     inkscape:document-units="mm"
     inkscape:zoom="0.49554741"
     inkscape:cx="506.51057"
     inkscape:cy="337.00105"
     inkscape:window-width="1264"
     inkscape:window-height="707"
     inkscape:window-x="66"
     inkscape:window-y="25"
     inkscape:window-maximized="0"
     inkscape:current-layer="svg1"
     showguides="false" />
  <defs
     id="defs1" />
  <rect
     style="fill:#e0e0e0;fill-opacity:1;stroke:none;stroke-width:2.98453;stroke-opacity:1"
     id="rect2"
     width="203.2"
     height="128.5"
     x="-2.6645353e-15"
     y="0" />
  <path
     id="rect26-7"
     fill="#1f1f1f"
     d="M 5.0163631,106.40229 H 13.83827 c 0.601466,0 1.089046,0.48425 1.089046,1.08167 v 12.7784 c 0,0.59741 -0.48758,1.08166 -1.089046,1.08166 H 5.0163631 c -0.6014666,0 -1.0890469,-0.48425 -1.0890469,-1.08166 v -12.7784 c 0,-0.59742 0.4875803,-1.08167 1.0890469,-1.08167 z"
     style="display:inline;stroke-width:0.382891" />
  <rect
     style="fill:#000000;fill-opacity:1;stroke:none;stroke-width:2.70484;stroke-linecap:round;stroke-linejoin:round;stroke-dasharray:none;stroke-opacity:1"
     id="rect6-2"
     width="0.2"
     height="32.960529"
     x="9.3273163"
     y="67.066917" />
  <rect
     style="fill:#000000;fill-opacity:1;stroke:none;stroke-width:2.81364;stroke-linecap:round;stroke-linejoin:round;stroke-dasharray:none;stroke-opacity:1"
     id="rect6-2-4"
     width="0.2"
     height="35.665554"
     x="9.3273163"
     y="5.4899998" />
  <rect
     style="fill:#000000;fill-opacity:1;stroke:none;stroke-width:4.06298;stroke-linecap:round;stroke-linejoin:round;stroke-dasharray:none;stroke-opacity:1"
     id="rect6-2-60"
     width="0.2"
     height="74.3703"
     x="193.67267"
     y="25.657148" />
  <g
     id="g22"
     transform="translate(0,-24.400891)">
    <circle
       id="uuid-cae7cb64-b9d2-4491-a6b2-1bbe8644b71e-6-0-0-9-0"
       display="inline"
       fill="#0000ff"
       cx="9.4273167"
       cy="81.756248"
       r="4.3757935"
       inkscape:label="PARAM_TIME"
       style="display:inline;fill:none;fill-opacity:1;stroke:#000000;stroke-width:0.248413;stroke-dasharray:none;stroke-opacity:1" />
    <path
       sodipodi:type="star"
       style="fill:#000000;stroke-width:4.47;stroke-linecap:round;stroke-linejoin:round"
       id="path1"
       inkscape:flatsided="false"
       sodipodi:sides="3"
       sodipodi:cx="5.9720817"
       sodipodi:cy="86.380501"
       sodipodi:r1="0.58027047"
       sodipodi:r2="0.29013523"
       sodipodi:arg1="0.73781506"
       sodipodi:arg2="1.7850126"
       inkscape:rounded="0"
       inkscape:randomized="0"
       d="M 6.401447,86.770833 5.9104042,86.664004 5.4193614,86.557176 5.757399,86.185335 l 0.3380375,-0.371842 0.1530053,0.47867 z"
       inkscape:transform-center-x="0.022141576"
       inkscape:transform-center-y="-0.12547079"
       transform="rotate(-7.8970025,-8.2947838,102.47548)" />
    <path
       sodipodi:type="star"
       style="fill:#000000;stroke-width:4.47;stroke-linecap:round;stroke-linejoin:round"
       id="path1-9"
       inkscape:flatsided="false"
       sodipodi:sides="3"
       sodipodi:cx="5.9720817"
       sodipodi:cy="86.380501"
       sodipodi:r1="0.58027047"
       sodipodi:r2="0.29013523"
       sodipodi:arg1="0.73781506"
       sodipodi:arg2="1.7850126"
       inkscape:rounded="0"
       inkscape:randomized="0"
       d="M 6.401447,86.770833 5.9104042,86.664004 5.4193614,86.557176 5.757399,86.185335 l 0.3380375,-0.371842 0.1530053,0.47867 z"
       inkscape:transform-center-x="0.11418628"
       inkscape:transform-center-y="0.03447111"
       transform="rotate(24.549862,16.767886,77.033455)" />
    <path
       sodipodi:type="star"
       style="fill:#000000;stroke-width:4.47;stroke-linecap:round;stroke-linejoin:round"
       id="path1-8"
       inkscape:flatsided="false"
       sodipodi:sides="3"
       sodipodi:cx="5.9720817"
       sodipodi:cy="86.380501"
       sodipodi:r1="0.58027047"
       sodipodi:r2="0.29013523"
       sodipodi:arg1="0.73781506"
       sodipodi:arg2="1.7850126"
       inkscape:rounded="0"
       inkscape:randomized="0"
       d="M 6.401447,86.770833 5.9104042,86.664004 5.4193614,86.557176 5.757399,86.185335 l 0.3380375,-0.371842 0.1530053,0.47867 z"
       inkscape:transform-center-x="-0.047859823"
       inkscape:transform-center-y="0.10163236"
       transform="rotate(57.220842,13.120052,80.675622)" />
    <path
       sodipodi:type="star"
       style="fill:#000000;stroke-width:4.47;stroke-linecap:round;stroke-linejoin:round"
       id="path1-9-1"
       inkscape:flatsided="false"
       sodipodi:sides="3"
       sodipodi:cx="5.9720817"
       sodipodi:cy="86.380501"
       sodipodi:r1="0.58027047"
       sodipodi:r2="0.29013523"
       sodipodi:arg1="0.73781506"
       sodipodi:arg2="1.7850126"
       inkscape:rounded="0"
       inkscape:randomized="0"
       d="M 6.401447,86.770833 5.9104042,86.664004 5.4193614,86.557176 5.757399,86.185335 l 0.3380375,-0.371842 0.1530053,0.47867 z"
       inkscape:transform-center-x="-0.089939348"
       inkscape:transform-center-y="-0.060031288"
       transform="rotate(89.667707,12.032294,81.796831)" />
    <path
       sodipodi:type="star"
       style="fill:#000000;stroke-width:4.47;stroke-linecap:round;stroke-linejoin:round"
       id="path1-3"
       inkscape:flatsided="false"
       sodipodi:sides="3"
       sodipodi:cx="5.9720817"
       sodipodi:cy="86.380501"
       sodipodi:r1="0.58027047"
       sodipodi:r2="0.29013523"
       sodipodi:arg1="0.73781506"
       sodipodi:arg2="1.7850126"
       inkscape:rounded="0"
       inkscape:randomized="0"
       d="M 6.401447,86.770833 5.9104042,86.664004 5.4193614,86.557176 5.757399,86.185335 l 0.3380375,-0.371842 0.1530053,0.47867 z"
       inkscape:transform-center-x="0.097305646"
       inkscape:transform-center-y="-0.052392356"
       transform="rotate(127.32273,11.380374,82.417503)" />
    <path
       sodipodi:type="star"
       style="fill:#000000;stroke-width:4.47;stroke-linecap:round;stroke-linejoin:round"
       id="path1-9-2"
       inkscape:flatsided="false"
       sodipodi:sides="3"
       sodipodi:cx="5.9720817"
       sodipodi:cy="86.380501"
       sodipodi:r1="0.58027047"
       sodipodi:r2="0.29013523"
       sodipodi:arg1="0.73781506"
       sodipodi:arg2="1.7850126"
       inkscape:rounded="0"
       inkscape:randomized="0"
       d="M 6.401447,86.770833 5.9104042,86.664004 5.4193614,86.557176 5.757399,86.185335 l 0.3380375,-0.371842 0.1530053,0.47867 z"
       inkscape:transform-center-x="0.04016288"
       inkscape:transform-center-y="0.10889224"
       transform="rotate(159.76959,10.995175,82.913575)" />
    <path
       sodipodi:type="star"
       style="fill:#000000;stroke-width:4.47;stroke-linecap:round;stroke-linejoin:round"
       id="path1-8-6"
       inkscape:flatsided="false"
       sodipodi:sides="3"
       sodipodi:cx="5.9720817"
       sodipodi:cy="86.380501"
       sodipodi:r1="0.58027047"
       sodipodi:r2="0.29013523"
       sodipodi:arg1="0.73781506"
       sodipodi:arg2="1.7850126"
       inkscape:rounded="0"
       inkscape:randomized="0"
       d="M 6.401447,86.770833 5.9104042,86.664004 5.4193614,86.557176 5.757399,86.185335 l 0.3380375,-0.371842 0.1530053,0.47867 z"
       inkscape:transform-center-x="-0.12130406"
       inkscape:transform-center-y="0.026728557"
       transform="rotate(-167.55943,10.600223,83.275825)" />
    <path
       sodipodi:type="star"
       style="fill:#000000;stroke-width:4.47;stroke-linecap:round;stroke-linejoin:round"
       id="path1-9-1-9"
       inkscape:flatsided="false"
       sodipodi:sides="3"
       sodipodi:cx="5.9720817"
       sodipodi:cy="86.380501"
       sodipodi:r1="0.58027047"
       sodipodi:r2="0.29013523"
       sodipodi:arg1="0.73781506"
       sodipodi:arg2="1.7850126"
       inkscape:rounded="0"
       inkscape:randomized="0"
       d="M 6.401447,86.770833 5.9104042,86.664004 5.4193614,86.557176 5.757399,86.185335 l 0.3380375,-0.371842 0.1530053,0.47867 z"
       inkscape:transform-center-x="-0.014366239"
       inkscape:transform-center-y="-0.13244525"
       transform="rotate(-135.11256,10.256568,83.290635)" />
  </g>
  <path
     id="rect26-7-9"
     fill="#1f1f1f"
     d="m 189.36171,106.40242 h 8.82191 c 0.60147,0 1.08905,0.48425 1.08905,1.08167 v 12.77841 c 0,0.59741 -0.48758,1.08166 -1.08905,1.08166 h -8.82191 c -0.60146,0 -1.08904,-0.48425 -1.08904,-1.08166 v -12.77841 c 0,-0.59742 0.48758,-1.08167 1.08904,-1.08167 z"
     style="display:inline;stroke-width:0.382891" />
  <g
     id="g23"
     transform="translate(0,-65.94928)">
    <circle
       id="uuid-cae7cb64-b9d2-4491-a6b2-1bbe8644b71e-6-0-0-9-0-2"
       display="inline"
       fill="#0000ff"
       cx="193.77266"
       cy="81.756378"
       r="4.3757935"
       inkscape:label="PARAM_TIME"
       style="display:inline;fill:none;fill-opacity:1;stroke:#000000;stroke-width:0.248413;stroke-dasharray:none;stroke-opacity:1" />
    <path
       sodipodi:type="star"
       style="fill:#000000;stroke-width:4.47;stroke-linecap:round;stroke-linejoin:round"
       id="path1-7"
       inkscape:flatsided="false"
       sodipodi:sides="3"
       sodipodi:cx="5.9720817"
       sodipodi:cy="86.380501"
       sodipodi:r1="0.58027047"
       sodipodi:r2="0.29013523"
       sodipodi:arg1="0.73781506"
       sodipodi:arg2="1.7850126"
       inkscape:rounded="0"
       inkscape:randomized="0"
       d="M 6.401447,86.770833 5.9104042,86.664004 5.4193614,86.557176 5.757399,86.185335 l 0.3380375,-0.371842 0.1530053,0.47867 z"
       inkscape:transform-center-x="0.022141576"
       inkscape:transform-center-y="-0.12547079"
       transform="rotate(-7.8970025,83.87887,-1232.9026)" />
    <path
       sodipodi:type="star"
       style="fill:#000000;stroke-width:4.47;stroke-linecap:round;stroke-linejoin:round"
       id="path1-9-0"
       inkscape:flatsided="false"
       sodipodi:sides="3"
       sodipodi:cx="5.9720817"
       sodipodi:cy="86.380501"
       sodipodi:r1="0.58027047"
       sodipodi:r2="0.29013523"
       sodipodi:arg1="0.73781506"
       sodipodi:arg2="1.7850126"
       inkscape:rounded="0"
       inkscape:randomized="0"
       d="M 6.401447,86.770833 5.9104042,86.664004 5.4193614,86.557176 5.757399,86.185335 l 0.3380375,-0.371842 0.1530053,0.47867 z"
       inkscape:transform-center-x="0.11418628"
       inkscape:transform-center-y="0.03447111"
       transform="rotate(24.549862,108.94025,500.66603)" />
    <path
       sodipodi:type="star"
       style="fill:#000000;stroke-width:4.47;stroke-linecap:round;stroke-linejoin:round"
       id="path1-8-3"
       inkscape:flatsided="false"
       sodipodi:sides="3"
       sodipodi:cx="5.9720817"
       sodipodi:cy="86.380501"
       sodipodi:r1="0.58027047"
       sodipodi:r2="0.29013523"
       sodipodi:arg1="0.73781506"
       sodipodi:arg2="1.7850126"
       inkscape:rounded="0"
       inkscape:randomized="0"
       d="M 6.401447,86.770833 5.9104042,86.664004 5.4193614,86.557176 5.757399,86.185335 l 0.3380375,-0.371842 0.1530053,0.47867 z"
       inkscape:transform-center-x="-0.047859823"
       inkscape:transform-center-y="0.10163236"
       transform="rotate(57.220842,105.2926,249.6592)" />
    <path
       sodipodi:type="star"
       style="fill:#000000;stroke-width:4.47;stroke-linecap:round;stroke-linejoin:round"
       id="path1-9-1-99"
       inkscape:flatsided="false"
       sodipodi:sides="3"
       sodipodi:cx="5.9720817"
       sodipodi:cy="86.380501"
       sodipodi:r1="0.58027047"
       sodipodi:r2="0.29013523"
       sodipodi:arg1="0.73781506"
       sodipodi:arg2="1.7850126"
       inkscape:rounded="0"
       inkscape:randomized="0"
       d="M 6.401447,86.770833 5.9104042,86.664004 5.4193614,86.557176 5.757399,86.185335 l 0.3380375,-0.371842 0.1530053,0.47867 z"
       inkscape:transform-center-x="-0.089939348"
       inkscape:transform-center-y="-0.060031288"
       transform="rotate(89.667707,104.2049,174.50569)" />
    <path
       sodipodi:type="star"
       style="fill:#000000;stroke-width:4.47;stroke-linecap:round;stroke-linejoin:round"
       id="path1-3-9"
       inkscape:flatsided="false"
       sodipodi:sides="3"
       sodipodi:cx="5.9720817"
       sodipodi:cy="86.380501"
       sodipodi:r1="0.58027047"
       sodipodi:r2="0.29013523"
       sodipodi:arg1="0.73781506"
       sodipodi:arg2="1.7850126"
       inkscape:rounded="0"
       inkscape:randomized="0"
       d="M 6.401447,86.770833 5.9104042,86.664004 5.4193614,86.557176 5.757399,86.185335 l 0.3380375,-0.371842 0.1530053,0.47867 z"
       inkscape:transform-center-x="0.097305646"
       inkscape:transform-center-y="-0.052392356"
       transform="rotate(127.32273,103.55302,128.0495)" />
    <path
       sodipodi:type="star"
       style="fill:#000000;stroke-width:4.47;stroke-linecap:round;stroke-linejoin:round"
       id="path1-9-2-1"
       inkscape:flatsided="false"
       sodipodi:sides="3"
       sodipodi:cx="5.9720817"
       sodipodi:cy="86.380501"
       sodipodi:r1="0.58027047"
       sodipodi:r2="0.29013523"
       sodipodi:arg1="0.73781506"
       sodipodi:arg2="1.7850126"
       inkscape:rounded="0"
       inkscape:randomized="0"
       d="M 6.401447,86.770833 5.9104042,86.664004 5.4193614,86.557176 5.757399,86.185335 l 0.3380375,-0.371842 0.1530053,0.47867 z"
       inkscape:transform-center-x="0.04016288"
       inkscape:transform-center-y="0.10889224"
       transform="rotate(159.76959,103.16784,99.357335)" />
    <path
       sodipodi:type="star"
       style="fill:#000000;stroke-width:4.47;stroke-linecap:round;stroke-linejoin:round"
       id="path1-8-6-7"
       inkscape:flatsided="false"
       sodipodi:sides="3"
       sodipodi:cx="5.9720817"
       sodipodi:cy="86.380501"
       sodipodi:r1="0.58027047"
       sodipodi:r2="0.29013523"
       sodipodi:arg1="0.73781506"
       sodipodi:arg2="1.7850126"
       inkscape:rounded="0"
       inkscape:randomized="0"
       d="M 6.401447,86.770833 5.9104042,86.664004 5.4193614,86.557176 5.757399,86.185335 l 0.3380375,-0.371842 0.1530053,0.47867 z"
       inkscape:transform-center-x="-0.12130406"
       inkscape:transform-center-y="0.026728557"
       transform="rotate(-167.55943,102.77291,73.229716)" />
    <path
       sodipodi:type="star"
       style="fill:#000000;stroke-width:4.47;stroke-linecap:round;stroke-linejoin:round"
       id="path1-9-1-9-2"
       inkscape:flatsided="false"
       sodipodi:sides="3"
       sodipodi:cx="5.9720817"
       sodipodi:cy="86.380501"
       sodipodi:r1="0.58027047"
       sodipodi:r2="0.29013523"
       sodipodi:arg1="0.73781506"
       sodipodi:arg2="1.7850126"
       inkscape:rounded="0"
       inkscape:randomized="0"
       d="M 6.401447,86.770833 5.9104042,86.664004 5.4193614,86.557176 5.757399,86.185335 l 0.3380375,-0.371842 0.1530053,0.47867 z"
       inkscape:transform-center-x="-0.014366239"
       inkscape:transform-center-y="-0.13244525"
       transform="rotate(-135.11256,102.42927,45.217559)" />
  </g>
  <g
     id="text4"
     style="font-weight:bold;font-size:8.1139px;line-height:0.1;font-family:Futura;-inkscape-font-specification:'Futura Bold';letter-spacing:0.00529167px;word-spacing:0.0079375px;stroke-width:1.058;stroke-linecap:square;stroke-linejoin:round"
     aria-label="G &#10;&#10;           B&#10;    &#10;    L   &#10;       &#10;       &#10;       &#10;       A   ">
    <path
       d="m 42.458124,111.42883 h 3.156308 q 0,0.48684 -0.04057,0.88442 -0.04057,0.39758 -0.162278,0.73836 -0.170392,0.47872 -0.462492,0.85196 -0.292101,0.36513 -0.689682,0.61666 -0.389467,0.24341 -0.860073,0.37324 -0.470606,0.12982 -0.989896,0.12982 -0.714023,0 -1.306338,-0.2353 -0.584201,-0.23531 -1.006124,-0.65723 -0.421922,-0.43004 -0.657225,-1.02235 -0.235304,-0.60043 -0.235304,-1.32257 0,-0.71402 0.22719,-1.30633 0.235303,-0.60043 0.657226,-1.02236 0.430036,-0.42192 1.030465,-0.65722 0.600429,-0.2353 1.338793,-0.2353 0.957441,0 1.679578,0.4138 0.722137,0.41381 1.14406,1.282 l -1.509186,0.62477 q -0.210961,-0.50306 -0.551745,-0.72214 -0.33267,-0.21907 -0.762707,-0.21907 -0.357011,0 -0.649112,0.13793 -0.2921,0.12983 -0.503061,0.38136 -0.202848,0.24341 -0.324556,0.59231 -0.113595,0.3489 -0.113595,0.77894 0,0.38946 0.09737,0.72213 0.105481,0.33267 0.308328,0.57609 0.202848,0.24342 0.503062,0.38135 0.300214,0.12983 0.697795,0.12983 0.235303,0 0.454379,-0.0487 0.219075,-0.0568 0.389467,-0.17039 0.178506,-0.12171 0.2921,-0.30833 0.113595,-0.18662 0.154164,-0.45438 h -1.306338 z"
       id="path18" />
    <path
       d="m 71.562169,115.24236 h 0.348898 q 0.600429,0 0.860073,-0.15416 0.259645,-0.15416 0.259645,-0.49495 0,-0.34078 -0.259645,-0.49495 -0.259644,-0.15416 -0.860073,-0.15416 h -0.348898 z m 0,-2.48285 h 0.292101 q 0.746479,0 0.746479,-0.59231 0,-0.59232 -0.746479,-0.59232 h -0.292101 z m -1.590324,-2.40171 h 2.369259 q 0.843845,0 1.281996,0.40569 0.438151,0.4057 0.438151,1.1684 0,0.4625 -0.170392,0.77082 -0.162278,0.30022 -0.503062,0.51118 0.340784,0.0649 0.576087,0.20285 0.243417,0.12982 0.389467,0.32455 0.154164,0.19474 0.219075,0.43815 0.06491,0.24342 0.06491,0.51929 0,0.43004 -0.154165,0.76271 -0.14605,0.33267 -0.421922,0.55986 -0.267759,0.22719 -0.657226,0.34078 -0.389468,0.1136 -0.876302,0.1136 h -2.555878 z"
       id="path19" />
    <path
       d="m 52.158473,111.98058 v 4.77097 h 1.906767 v 1.34691 h -3.497091 v -6.11788 z"
       id="path20" />
    <path
       d="m 62.210718,119.07213 -0.714023,-2.03659 -0.714023,2.03659 z m 0.421923,1.20897 h -2.271892 l -0.365126,1.06292 h -1.695805 l 2.32869,-6.11788 h 1.736374 l 2.32869,6.11788 h -1.695805 z"
       id="path21" />
  </g>
  <path
     style="font-weight:bold;font-size:2.11667px;line-height:0.1;font-family:Futura;-inkscape-font-specification:'Futura Bold';letter-spacing:0.00529167px;word-spacing:0.0079375px;fill:#ffffff;stroke-width:1.058;stroke-linecap:square;stroke-linejoin:round"
     d="m 6.2906755,109.13207 q 0,0.0953 0.035983,0.17568 0.035983,0.0804 0.097367,0.1397 0.061383,0.0593 0.1418168,0.0931 0.08255,0.0318 0.173567,0.0318 0.091017,0 0.1714502,-0.0318 0.08255,-0.0339 0.1439336,-0.0931 0.0635,-0.0593 0.099483,-0.1397 0.035983,-0.0804 0.035983,-0.17568 0,-0.0952 -0.035983,-0.17568 -0.035983,-0.0804 -0.099483,-0.1397 -0.061383,-0.0593 -0.1439336,-0.091 -0.080433,-0.0339 -0.1714502,-0.0339 -0.091017,0 -0.173567,0.0339 -0.080433,0.0318 -0.1418168,0.091 -0.061383,0.0593 -0.097367,0.1397 -0.035983,0.0804 -0.035983,0.17568 z m -0.4339174,0 q 0,-0.1778 0.065617,-0.3302 0.065617,-0.15452 0.1820336,-0.26882 0.1164169,-0.1143 0.2772838,-0.1778 0.1629835,-0.0656 0.3577172,-0.0656 0.1926169,0 0.3556005,0.0656 0.1629836,0.0635 0.2794004,0.1778 0.1185336,0.1143 0.1841503,0.26882 0.065617,0.1524 0.065617,0.3302 0,0.1778 -0.065617,0.33232 -0.065617,0.1524 -0.1841503,0.2667 -0.1164168,0.1143 -0.2794004,0.17991 -0.1629836,0.0635 -0.3556005,0.0635 -0.1947337,0 -0.3577172,-0.0635 -0.1608669,-0.0656 -0.2772838,-0.17991 -0.1164168,-0.1143 -0.1820336,-0.2667 -0.065617,-0.15452 -0.065617,-0.33232 z m 2.4500439,-0.79799 v 0.86784 q 0,0.0699 0.00423,0.14393 0.00635,0.072 0.03175,0.13124 0.027517,0.0593 0.084667,0.0974 0.05715,0.036 0.160867,0.036 0.1037168,0 0.1587502,-0.036 0.05715,-0.0381 0.084667,-0.0974 0.027517,-0.0593 0.03175,-0.13124 0.00635,-0.0741 0.00635,-0.14393 v -0.86784 h 0.4127507 v 0.92499 q 0,0.37253 -0.1714503,0.54398 -0.1693336,0.17145 -0.5228174,0.17145 -0.3534839,0 -0.5249342,-0.17145 -0.1714502,-0.17145 -0.1714502,-0.54398 v -0.92499 z m 1.920879,0.35137 v 1.2446 H 9.8128137 v -1.2446 H 9.4720298 v -0.35137 h 1.0964352 v 0.35137 z m 1.546758,-0.35137 0.385234,0.97156 0.38735,-0.97156 h 0.450851 l -0.673101,1.59597 h -0.330201 l -0.670984,-1.59597 z"
     id="text21"
     aria-label="OUT V" />
  <path
     style="font-weight:bold;font-size:2.11667px;line-height:0.1;font-family:Futura;-inkscape-font-specification:'Futura Bold';letter-spacing:0.00529167px;word-spacing:0.0079375px;fill:#ffffff;stroke-width:1.058;stroke-linecap:square;stroke-linejoin:round"
     d="m 190.93237,109.13221 q 0,0.0952 0.036,0.17568 0.036,0.0804 0.0974,0.1397 0.0614,0.0593 0.14181,0.0931 0.0825,0.0318 0.17357,0.0318 0.091,0 0.17145,-0.0318 0.0825,-0.0339 0.14393,-0.0931 0.0635,-0.0593 0.0995,-0.1397 0.036,-0.0804 0.036,-0.17568 0,-0.0953 -0.036,-0.17569 -0.036,-0.0804 -0.0995,-0.1397 -0.0614,-0.0593 -0.14393,-0.091 -0.0804,-0.0339 -0.17145,-0.0339 -0.091,0 -0.17357,0.0339 -0.0804,0.0318 -0.14181,0.091 -0.0614,0.0593 -0.0974,0.1397 -0.036,0.0804 -0.036,0.17569 z m -0.43392,0 q 0,-0.1778 0.0656,-0.3302 0.0656,-0.15452 0.18203,-0.26882 0.11642,-0.1143 0.27728,-0.1778 0.16299,-0.0656 0.35772,-0.0656 0.19262,0 0.3556,0.0656 0.16298,0.0635 0.2794,0.1778 0.11853,0.1143 0.18415,0.26882 0.0656,0.1524 0.0656,0.3302 0,0.1778 -0.0656,0.33231 -0.0656,0.1524 -0.18415,0.2667 -0.11642,0.1143 -0.2794,0.17992 -0.16298,0.0635 -0.3556,0.0635 -0.19473,0 -0.35772,-0.0635 -0.16086,-0.0656 -0.27728,-0.17992 -0.11642,-0.1143 -0.18203,-0.2667 -0.0656,-0.15451 -0.0656,-0.33231 z m 2.45004,-0.79799 v 0.86784 q 0,0.0699 0.004,0.14393 0.006,0.072 0.0317,0.13123 0.0275,0.0593 0.0847,0.0974 0.0572,0.036 0.16087,0.036 0.10372,0 0.15875,-0.036 0.0572,-0.0381 0.0847,-0.0974 0.0275,-0.0593 0.0317,-0.13123 0.006,-0.0741 0.006,-0.14393 v -0.86784 h 0.41275 v 0.92499 q 0,0.37253 -0.17145,0.54398 -0.16934,0.17145 -0.52282,0.17145 -0.35348,0 -0.52493,-0.17145 -0.17146,-0.17145 -0.17146,-0.54398 v -0.92499 z m 1.92088,0.35137 v 1.2446 h -0.41487 v -1.2446 h -0.34078 v -0.35137 h 1.09644 v 0.35137 z m 2.17753,0 h -0.49954 v 0.2667 h 0.45509 v 0.35137 h -0.45509 v 0.62653 h -0.41486 v -1.59597 h 0.9144 z"
     id="text21-7"
     aria-label="OUT F" />
  <path
     style="font-weight:bold;font-size:2.82222px;line-height:0.1;font-family:Futura;-inkscape-font-specification:'Futura Bold';letter-spacing:0.00529167px;word-spacing:0.0079375px;stroke-width:1.058;stroke-linecap:square;stroke-linejoin:round"
     d="m 4.1426228,46.731645 v 2.127954 H 3.5894677 v -2.127954 z m 0.4512027,2.127954 v -2.127954 h 0.5531551 l 1.0216437,1.301044 v -1.301044 h 0.5503329 v 2.127954 H 6.1686243 L 5.1469806,47.558556 v 1.301043 z m 3.9272941,-2.127954 0.5136441,1.295399 0.5164662,-1.295399 H 10.152363 L 9.2548968,48.859599 H 8.8146305 L 7.9199867,46.731645 Z m 3.0702244,0.468489 h -0.657578 v 0.3556 h 0.620889 v 0.468488 h -0.620889 v 0.366889 h 0.657578 v 0.468488 h -1.210733 v -2.127954 h 1.210733 z m 0.956379,0.4826 h 0.104422 q 0.163689,0 0.251177,-0.06773 0.08749,-0.06773 0.08749,-0.194733 0,-0.127 -0.08749,-0.194733 -0.08749,-0.06773 -0.251177,-0.06773 h -0.104422 z m 1.216377,1.176865 h -0.688622 l -0.527755,-0.818443 v 0.818443 h -0.553155 v -2.127954 h 0.860777 q 0.1778,0 0.310444,0.05362 0.132644,0.0508 0.217311,0.141111 0.08749,0.09031 0.129822,0.208844 0.04516,0.118533 0.04516,0.254 0,0.242711 -0.118533,0.395111 -0.115711,0.149577 -0.344311,0.203199 z m 1.046687,-1.659465 v 1.659465 h -0.553155 v -1.659465 h -0.454377 v -0.468489 h 1.46191 v 0.468489 z"
     id="text22"
     aria-label="IN VERT" />
  <path
     style="font-weight:bold;font-size:2.82222px;line-height:0.1;font-family:Futura;-inkscape-font-specification:'Futura Bold';letter-spacing:0.00529167px;word-spacing:0.0079375px;stroke-width:1.058;stroke-linecap:square;stroke-linejoin:round"
     d="m 188.10132,5.1551644 v 2.127954 h -0.55315 v -2.127954 z m 0.4512,2.127954 v -2.127954 h 0.55316 l 1.02164,1.301044 v -1.301044 h 0.55034 v 2.127954 h -0.55034 l -1.02164,-1.301043 v 1.301043 z m 4.76832,-1.659465 h -0.66604 v 0.355599 h 0.60677 v 0.468489 h -0.60677 v 0.835377 h -0.55316 v -2.127954 h 1.2192 z m 0.88865,0.482599 h 0.10442 q 0.16369,0 0.25118,-0.06773 0.0875,-0.06773 0.0875,-0.194733 0,-0.127 -0.0875,-0.194733 -0.0875,-0.06773 -0.25118,-0.06773 h -0.10442 z m 1.21637,1.176866 h -0.68862 l -0.52775,-0.818444 v 0.818444 h -0.55316 v -2.127954 h 0.86078 q 0.1778,0 0.31044,0.05362 0.13265,0.0508 0.21731,0.141111 0.0875,0.09031 0.12982,0.208845 0.0452,0.118533 0.0452,0.253999 0,0.242711 -0.11853,0.395111 -0.11571,0.149578 -0.34431,0.2032 z m 1.39383,-0.790222 -0.24836,-0.708377 -0.24836,0.708377 z m 0.14675,0.420511 h -0.79022 l -0.127,0.369711 h -0.58984 l 0.80997,-2.127954 h 0.60396 l 0.80997,2.127954 h -0.58984 z m 1.93287,-0.821266 h 1.09784 q 0,0.169333 -0.0141,0.307622 -0.0141,0.138289 -0.0564,0.256822 -0.0593,0.166511 -0.16087,0.296333 -0.1016,0.127 -0.23989,0.214489 -0.13547,0.08467 -0.29915,0.129822 -0.16369,0.04516 -0.34431,0.04516 -0.24836,0 -0.45438,-0.08185 -0.2032,-0.08184 -0.34996,-0.2286 -0.14675,-0.149577 -0.2286,-0.355599 -0.0818,-0.208845 -0.0818,-0.460022 0,-0.248356 0.079,-0.454378 0.0818,-0.208844 0.2286,-0.355599 0.14958,-0.146756 0.35842,-0.2286 0.20885,-0.08184 0.46567,-0.08184 0.33302,0 0.5842,0.143934 0.25118,0.143933 0.39793,0.44591 l -0.52493,0.217311 q -0.0734,-0.174977 -0.19191,-0.251177 -0.11571,-0.0762 -0.26529,-0.0762 -0.12418,0 -0.22578,0.04798 -0.1016,0.04515 -0.17498,0.132644 -0.0705,0.08467 -0.11289,0.206022 -0.0395,0.121355 -0.0395,0.270933 0,0.135467 0.0339,0.251178 0.0367,0.115711 0.10724,0.200377 0.0706,0.08467 0.17498,0.132645 0.10442,0.04515 0.24271,0.04515 0.0818,0 0.15805,-0.01693 0.0762,-0.01976 0.13546,-0.05927 0.0621,-0.04233 0.1016,-0.107244 0.0395,-0.06491 0.0536,-0.158044 h -0.45438 z"
     id="text22-0"
     aria-label="IN FRAG" />
  <g
     inkscape:groupmode="layer"
     id="layer2"
     inkscape:label="components"
     style="display:none">
    <rect
       style="fill:#ffff00;fill-opacity:1;stroke:none;stroke-width:1.77501;stroke-opacity:1"
       id="rect1"
       width="80"
       height="97.607002"
       x="18.855"
       y="5.4899998"
       inkscape:label="WIDGET_VERT" />
    <rect
       style="display:inline;fill:#ffff00;fill-opacity:1;stroke:none;stroke-width:1.77501;stroke-opacity:1"
       id="rect1-7"
       width="80"
       height="97.607002"
       x="104.34502"
       y="25.402994"
       inkscape:label="WIDGET_FRAG" />
    <rect
       style="display:inline;fill:#ffff00;fill-opacity:1;stroke:none;stroke-width:0.68232;stroke-opacity:1"
       id="rect1-7-5"
       width="80"
       height="14.423"
       x="104.34502"
       y="5.4899998"
       inkscape:label="WIDGET_ERROR" />
    <circle
       id="uuid-cae7cb64-b9d2-4491-a6b2-1bbe8644b71e-6-6"
       display="inline"
       fill="#0000ff"
       cx="193.77267"
       cy="115.86398"
       r="1.3229166"
       inkscape:label="OUT_FRAG"
       style="stroke-width:0.264583" />
    <circle
       id="uuid-cae7cb64-b9d2-4491-a6b2-1bbe8644b71e-6"
       display="inline"
       fill="#0000ff"
       cx="9.4273167"
       cy="115.86398"
       r="1.3229166"
       inkscape:label="OUT_VERT"
       style="stroke-width:0.264583" />
    <circle
       id="uuid-cae7cb64-b9d2-4491-a6b2-1bbe8644b71e-6-0-0-2"
       display="inline"
       fill="#0000ff"
       cx="197.94975"
       cy="57.238541"
       r="1.3229166"
       inkscape:label="LIGHT_FRAG_1"
       style="fill:#ff00ff;fill-opacity:1;stroke-width:0.264583" />
    <circle
       id="uuid-cae7cb64-b9d2-4491-a6b2-1bbe8644b71e-6-0-0-2-0"
       display="inline"
       fill="#0000ff"
       cx="189.59558"
       cy="71.261459"
       r="1.3229166"
       inkscape:label="LIGHT_FRAG_2"
       style="display:inline;fill:#ff00ff;fill-opacity:1;stroke-width:0.264583" />
    <circle
       id="uuid-cae7cb64-b9d2-4491-a6b2-1bbe8644b71e-6-0-0-9"
       display="inline"
       fill="#0000ff"
       cx="9.4273167"
       cy="57.35535"
       r="1.3229166"
       inkscape:label="PARAM_VERT"
       style="fill:#ff0000;fill-opacity:1;stroke-width:0.264583" />
    <circle
       id="uuid-cae7cb64-b9d2-4491-a6b2-1bbe8644b71e-6-0-0-9-7"
       display="inline"
       fill="#0000ff"
       cx="193.77267"
       cy="15.806965"
       r="1.3229166"
       inkscape:label="PARAM_FRAG"
       style="display:inline;fill:#ff0000;fill-opacity:1;stroke-width:0.264583" />
    <circle
       id="uuid-cae7cb64-b9d2-4491-a6b2-1bbe8644b71e-6-0-0-2-9"
       display="inline"
       fill="#0000ff"
       cx="5.2502303"
       cy="16.311317"
       r="1.3229166"
       inkscape:label="LIGHT_VERT_1"
       style="display:inline;fill:#ff00ff;fill-opacity:1;stroke-width:0.264583" />
    <circle
       id="uuid-cae7cb64-b9d2-4491-a6b2-1bbe8644b71e-6-0-0-2-0-4"
       display="inline"
       fill="#0000ff"
       cx="13.6044"
       cy="30.334236"
       r="1.3229166"
       inkscape:label="LIGHT_VERT_2"
       style="display:inline;fill:#ff00ff;fill-opacity:1;stroke-width:0.264583" />
    <circle
       id="uuid-cae7cb64-b9d2-4491-a6b2-1bbe8644b71e-6-0-0-2-0-4-7"
       display="inline"
       fill="#0000ff"
       cx="5.2502327"
       cy="83.54718"
       r="1.3229166"
       inkscape:label="LIGHT_VERT_3"
       style="display:inline;fill:#ff00ff;fill-opacity:1;stroke-width:0.264583" />
  </g>
</svg>
