<?xml version="1.0" encoding="UTF-8" standalone="no"?>
<!-- Created with Inkscape (http://www.inkscape.org/) -->

<svg
   width="60.959999mm"
   height="128.5mm"
   viewBox="0 0 60.96 128.5"
   version="1.1"
   id="svg1"
   inkscape:version="1.3.2 (091e20e, 2023-11-25)"
   sodipodi:docname="glaze.svg"
   xmlns:inkscape="http://www.inkscape.org/namespaces/inkscape"
   xmlns:sodipodi="http://sodipodi.sourceforge.net/DTD/sodipodi-0.dtd"
   xmlns="http://www.w3.org/2000/svg"
   xmlns:svg="http://www.w3.org/2000/svg">
  <sodipodi:namedview
     id="namedview1"
     pagecolor="#ffffff"
     bordercolor="#000000"
     borderopacity="0.25"
     inkscape:showpageshadow="2"
     inkscape:pageopacity="0.0"
     inkscape:pagecheckerboard="0"
     inkscape:deskcolor="#d1d1d1"
     inkscape:document-units="mm"
     inkscape:zoom="1.0220185"
     inkscape:cx="111.05474"
     inkscape:cy="246.57088"
     inkscape:window-width="1120"
     inkscape:window-height="707"
     inkscape:window-x="56"
     inkscape:window-y="92"
     inkscape:window-maximized="0"
     inkscape:current-layer="svg1"
     showguides="false" />
  <defs
     id="defs1" />
  <rect
     style="fill:#e0e0e0;fill-opacity:1;stroke:none;stroke-width:1.63469;stroke-opacity:1"
     id="rect2"
     width="60.959999"
     height="128.5"
     x="-2.6645353e-15"
     y="0" />
  <path
     d="m 86.936326,71.944443 0.361244,-2.127954 h 0.547511 l 0.426155,1.134532 0.423333,-1.134532 h 0.547511 l 0.361244,2.127954 h -0.550333 l -0.183444,-1.224844 -0.502355,1.224844 h -0.220134 l -0.476955,-1.224844 -0.183444,1.224844 z m 3.504844,-1.063977 q 0,0.127 0.04798,0.234244 0.04798,0.107244 0.129822,0.186267 0.08185,0.07902 0.189089,0.124177 0.110066,0.04233 0.231422,0.04233 0.121355,0 0.2286,-0.04233 0.110066,-0.04516 0.191911,-0.124177 0.08467,-0.07902 0.132644,-0.186267 0.04798,-0.107244 0.04798,-0.234244 0,-0.127 -0.04798,-0.234244 -0.04798,-0.107245 -0.132644,-0.186267 -0.08185,-0.07902 -0.191911,-0.121355 -0.107245,-0.04516 -0.2286,-0.04516 -0.121356,0 -0.231422,0.04516 -0.107244,0.04233 -0.189089,0.121355 -0.08184,0.07902 -0.129822,0.186267 -0.04798,0.107244 -0.04798,0.234244 z m -0.578555,0 q 0,-0.237067 0.08749,-0.440267 0.08749,-0.206022 0.242711,-0.358422 0.155222,-0.152399 0.369711,-0.237066 0.217311,-0.08749 0.476955,-0.08749 0.256822,0 0.474133,0.08749 0.217311,0.08467 0.372533,0.237066 0.158044,0.1524 0.245533,0.358422 0.08749,0.2032 0.08749,0.440267 0,0.237066 -0.08749,0.443088 -0.08749,0.2032 -0.245533,0.3556 -0.155222,0.1524 -0.372533,0.239889 -0.217311,0.08467 -0.474133,0.08467 -0.259644,0 -0.476955,-0.08467 -0.214489,-0.08749 -0.369711,-0.239889 -0.155222,-0.1524 -0.242711,-0.3556 -0.08749,-0.206022 -0.08749,-0.443088 z m 3.264954,0.595488 h 0.127 q 0.143933,0 0.256822,-0.04516 0.112888,-0.04516 0.189088,-0.124178 0.07902,-0.07902 0.118534,-0.186267 0.04233,-0.110066 0.04233,-0.239888 0,-0.127 -0.04233,-0.237067 -0.04233,-0.110066 -0.121356,-0.189088 -0.0762,-0.07902 -0.189089,-0.124178 -0.112888,-0.04516 -0.253999,-0.04516 h -0.127 z m -0.553156,-1.659465 h 0.818444 q 0.217311,0 0.4064,0.08749 0.191911,0.08749 0.333022,0.234244 0.143933,0.143933 0.225778,0.338666 0.08184,0.191911 0.08184,0.403578 0,0.208844 -0.08184,0.403577 -0.07902,0.191911 -0.222956,0.338667 -0.141111,0.146755 -0.333022,0.234244 -0.189089,0.08749 -0.409222,0.08749 h -0.818444 z m 3.434287,0.468488 h -0.657577 v 0.3556 h 0.620889 v 0.468489 h -0.620889 v 0.366888 H 96.0087 v 0.468489 H 94.797968 V 69.816489 H 96.0087 Z"
     id="text27-4-2"
     style="font-weight:bold;font-size:2.82222px;line-height:0.1;font-family:Futura;-inkscape-font-specification:'Futura Bold';letter-spacing:0.00529167px;word-spacing:0.0079375px;stroke-width:1.058;stroke-linecap:square;stroke-linejoin:round"
     transform="rotate(45)"
     aria-label="MODE" />
  <rect
     style="fill:#000000;fill-opacity:1;stroke:none;stroke-width:1.26767;stroke-linecap:round;stroke-linejoin:round;stroke-dasharray:none;stroke-opacity:1"
     id="rect6-2-6"
     width="0.2"
     height="7.2396965"
     x="10.377839"
     y="90.503151" />
  <rect
     style="fill:#000000;fill-opacity:1;stroke:none;stroke-width:1.26767;stroke-linecap:round;stroke-linejoin:round;stroke-dasharray:none;stroke-opacity:1"
     id="rect6-2-6-0"
     width="0.2"
     height="7.2396965"
     x="101.25844"
     y="-47.111515"
     transform="rotate(90)" />
  <rect
     style="fill:#000000;fill-opacity:1;stroke:none;stroke-width:1.26767;stroke-linecap:round;stroke-linejoin:round;stroke-dasharray:none;stroke-opacity:1"
     id="rect6-2-6-0-3"
     width="0.2"
     height="7.2396965"
     x="118.75788"
     y="-41.635525"
     transform="rotate(90)" />
  <path
     id="rect26-7-9-1"
     fill="#1f1f1f"
     d="m 46.071043,23.224426 h 8.821904 c 0.60147,0 1.08905,0.48425 1.08905,1.08167 v 12.778408 c 0,0.59741 -0.48758,1.08166 -1.08905,1.08166 h -8.821904 c -0.60146,0 -1.08904,-0.48425 -1.08904,-1.08166 V 24.306096 c 0,-0.59742 0.48758,-1.08167 1.08904,-1.08167 z"
     style="display:inline;stroke-width:0.382891" />
  <path
     id="rect26-7-5"
     fill="#1f1f1f"
     d="m 46.071047,5.09 h 8.821908 C 55.49442,5.09 55.982,5.57425 55.982,6.17167 v 12.7784 c 0,0.59741 -0.48758,1.08166 -1.089045,1.08166 H 46.071047 C 45.46958,20.03173 44.982,19.54748 44.982,18.95007 V 6.17167 C 44.982,5.57425 45.46958,5.09 46.071047,5.09 Z"
     style="display:inline;stroke-width:0.382891" />
  <g
     id="g75"
     style="display:inline">
    <path
       d="m 26.272784,92.433632 h 0.121356 q 0.208844,0 0.299155,-0.05362 0.09031,-0.05362 0.09031,-0.172155 0,-0.118533 -0.09031,-0.172156 -0.09031,-0.05362 -0.299155,-0.05362 h -0.121356 z m 0,-0.863599 h 0.1016 q 0.259644,0 0.259644,-0.206022 0,-0.206022 -0.259644,-0.206022 h -0.1016 z m -0.553155,-0.835377 h 0.824088 q 0.293511,0 0.445911,0.141111 0.1524,0.141111 0.1524,0.4064 0,0.160866 -0.05927,0.268111 -0.05644,0.104422 -0.174977,0.177799 0.118533,0.02258 0.200377,0.07056 0.08467,0.04516 0.135467,0.112889 0.05362,0.06773 0.0762,0.1524 0.02258,0.08467 0.02258,0.180622 0,0.149577 -0.05362,0.265288 -0.0508,0.115711 -0.146755,0.194734 -0.09313,0.07902 -0.2286,0.118533 -0.135466,0.03951 -0.3048,0.03951 h -0.888999 z m 2.511421,0 v 1.659465 h 0.663222 v 0.468489 h -1.216377 v -2.127954 z m 2.164289,0.468488 h -0.657577 v 0.3556 h 0.620889 v 0.468489 h -0.620889 v 0.366888 h 0.657577 v 0.468489 h -1.210732 v -2.127954 h 1.210732 z m 0.403224,1.659466 v -2.127954 h 0.553155 l 1.021644,1.301043 v -1.301043 h 0.550333 v 2.127954 h -0.550333 l -1.021644,-1.301044 v 1.301044 z m 3.129487,-0.468489 h 0.127 q 0.143934,0 0.256822,-0.04515 0.112889,-0.04516 0.189089,-0.124178 0.07902,-0.07902 0.118533,-0.186266 0.04233,-0.110067 0.04233,-0.239889 0,-0.127 -0.04233,-0.237067 -0.04233,-0.110066 -0.121355,-0.189088 -0.0762,-0.07902 -0.189089,-0.124178 -0.112889,-0.04516 -0.254,-0.04516 h -0.127 z m -0.553155,-1.659465 h 0.818444 q 0.217311,0 0.4064,0.08749 0.191911,0.08749 0.333022,0.234244 0.143933,0.143933 0.225777,0.338666 0.08185,0.191911 0.08185,0.403578 0,0.208844 -0.08185,0.403577 -0.07902,0.191911 -0.222955,0.338667 -0.141111,0.146755 -0.333022,0.234244 -0.189089,0.08749 -0.409222,0.08749 h -0.818444 z"
       id="text27-4"
       style="font-weight:bold;font-size:2.82222px;line-height:0.1;font-family:Futura;-inkscape-font-specification:'Futura Bold';letter-spacing:0.00529167px;word-spacing:0.0079375px;stroke-width:1.058;stroke-linecap:square;stroke-linejoin:round"
       aria-label="BLEND" />
    <path
       sodipodi:type="star"
       style="display:inline;fill:#000000;stroke-width:4.47;stroke-linecap:round;stroke-linejoin:round"
       id="path1-4"
       inkscape:flatsided="false"
       sodipodi:sides="3"
       sodipodi:cx="5.9720817"
       sodipodi:cy="86.380501"
       sodipodi:r1="0.58027047"
       sodipodi:r2="0.29013523"
       sodipodi:arg1="0.73781506"
       sodipodi:arg2="1.7850126"
       inkscape:rounded="0"
       inkscape:randomized="0"
       d="M 6.401447,86.770833 5.9104042,86.664004 5.4193614,86.557176 5.757399,86.185335 l 0.3380375,-0.371842 0.1530053,0.47867 z"
       inkscape:transform-center-x="0.022141576"
       inkscape:transform-center-y="-0.12547079"
       transform="rotate(-7.8970024,144.22787,-40.226865)" />
    <path
       sodipodi:type="star"
       style="display:inline;fill:#000000;stroke-width:4.47;stroke-linecap:round;stroke-linejoin:round"
       id="path1-9-9"
       inkscape:flatsided="false"
       sodipodi:sides="3"
       sodipodi:cx="5.9720817"
       sodipodi:cy="86.380501"
       sodipodi:r1="0.58027047"
       sodipodi:r2="0.29013523"
       sodipodi:arg1="0.73781506"
       sodipodi:arg2="1.7850126"
       inkscape:rounded="0"
       inkscape:randomized="0"
       d="M 6.401447,86.770833 5.9104042,86.664004 5.4193614,86.557176 5.757399,86.185335 l 0.3380375,-0.371842 0.1530053,0.47867 z"
       inkscape:transform-center-x="0.11418628"
       inkscape:transform-center-y="0.03447111"
       transform="rotate(24.549863,-17.752379,135.2144)" />
    <path
       sodipodi:type="star"
       style="display:inline;fill:#000000;stroke-width:4.47;stroke-linecap:round;stroke-linejoin:round"
       id="path1-8-5"
       inkscape:flatsided="false"
       sodipodi:sides="3"
       sodipodi:cx="5.9720817"
       sodipodi:cy="86.380501"
       sodipodi:r1="0.58027047"
       sodipodi:r2="0.29013523"
       sodipodi:arg1="0.73781506"
       sodipodi:arg2="1.7850126"
       inkscape:rounded="0"
       inkscape:randomized="0"
       d="M 6.401447,86.770833 5.9104042,86.664004 5.4193614,86.557176 5.757399,86.185335 l 0.3380375,-0.371842 0.1530053,0.47867 z"
       inkscape:transform-center-x="-0.047859823"
       inkscape:transform-center-y="0.10163236"
       transform="rotate(57.220842,5.6776773,109.77504)" />
    <path
       sodipodi:type="star"
       style="display:inline;fill:#000000;stroke-width:4.47;stroke-linecap:round;stroke-linejoin:round"
       id="path1-9-1-90"
       inkscape:flatsided="false"
       sodipodi:sides="3"
       sodipodi:cx="5.9720817"
       sodipodi:cy="86.380501"
       sodipodi:r1="0.58027047"
       sodipodi:r2="0.29013523"
       sodipodi:arg1="0.73781506"
       sodipodi:arg2="1.7850126"
       inkscape:rounded="0"
       inkscape:randomized="0"
       d="M 6.401447,86.770833 5.9104042,86.664004 5.4193614,86.557176 5.757399,86.185335 l 0.3380375,-0.371842 0.1530053,0.47867 z"
       inkscape:transform-center-x="-0.089939348"
       inkscape:transform-center-y="-0.060031288"
       transform="rotate(89.667707,12.700525,102.1855)" />
    <path
       sodipodi:type="star"
       style="display:inline;fill:#000000;stroke-width:4.47;stroke-linecap:round;stroke-linejoin:round"
       id="path1-3-93"
       inkscape:flatsided="false"
       sodipodi:sides="3"
       sodipodi:cx="5.9720817"
       sodipodi:cy="86.380501"
       sodipodi:r1="0.58027047"
       sodipodi:r2="0.29013523"
       sodipodi:arg1="0.73781506"
       sodipodi:arg2="1.7850126"
       inkscape:rounded="0"
       inkscape:randomized="0"
       d="M 6.401447,86.770833 5.9104042,86.664004 5.4193614,86.557176 5.757399,86.185335 l 0.3380375,-0.371842 0.1530053,0.47867 z"
       inkscape:transform-center-x="0.097305646"
       inkscape:transform-center-y="-0.052392356"
       transform="rotate(127.32273,17.054483,97.429882)" />
    <path
       sodipodi:type="star"
       style="display:inline;fill:#000000;stroke-width:4.47;stroke-linecap:round;stroke-linejoin:round"
       id="path1-9-2-4"
       inkscape:flatsided="false"
       sodipodi:sides="3"
       sodipodi:cx="5.9720817"
       sodipodi:cy="86.380501"
       sodipodi:r1="0.58027047"
       sodipodi:r2="0.29013523"
       sodipodi:arg1="0.73781506"
       sodipodi:arg2="1.7850126"
       inkscape:rounded="0"
       inkscape:randomized="0"
       d="M 6.401447,86.770833 5.9104042,86.664004 5.4193614,86.557176 5.757399,86.185335 l 0.3380375,-0.371842 0.1530053,0.47867 z"
       inkscape:transform-center-x="0.04016288"
       inkscape:transform-center-y="0.10889224"
       transform="rotate(159.76959,19.772993,94.592587)" />
    <path
       sodipodi:type="star"
       style="display:inline;fill:#000000;stroke-width:4.47;stroke-linecap:round;stroke-linejoin:round"
       id="path1-8-6-0"
       inkscape:flatsided="false"
       sodipodi:sides="3"
       sodipodi:cx="5.9720817"
       sodipodi:cy="86.380501"
       sodipodi:r1="0.58027047"
       sodipodi:r2="0.29013523"
       sodipodi:arg1="0.73781506"
       sodipodi:arg2="1.7850126"
       inkscape:rounded="0"
       inkscape:randomized="0"
       d="M 6.401447,86.770833 5.9104042,86.664004 5.4193614,86.557176 5.757399,86.185335 l 0.3380375,-0.371842 0.1530053,0.47867 z"
       inkscape:transform-center-x="-0.12130406"
       inkscape:transform-center-y="0.026728557"
       transform="rotate(-167.55943,22.194817,91.929631)" />
    <path
       sodipodi:type="star"
       style="display:inline;fill:#000000;stroke-width:4.47;stroke-linecap:round;stroke-linejoin:round"
       id="path1-9-1-9-7"
       inkscape:flatsided="false"
       sodipodi:sides="3"
       sodipodi:cx="5.9720817"
       sodipodi:cy="86.380501"
       sodipodi:r1="0.58027047"
       sodipodi:r2="0.29013523"
       sodipodi:arg1="0.73781506"
       sodipodi:arg2="1.7850126"
       inkscape:rounded="0"
       inkscape:randomized="0"
       d="M 6.401447,86.770833 5.9104042,86.664004 5.4193614,86.557176 5.757399,86.185335 l 0.3380375,-0.371842 0.1530053,0.47867 z"
       inkscape:transform-center-x="-0.014366239"
       inkscape:transform-center-y="-0.13244525"
       transform="rotate(-135.11256,24.831386,88.743693)" />
    <circle
       id="uuid-cae7cb64-b9d2-4491-a6b2-1bbe8644b71e-6-0-0-9-0-1"
       display="inline"
       fill="#0000ff"
       cx="30.480003"
       cy="101.35846"
       r="4.3757935"
       inkscape:label="PARAM_TIME"
       style="display:inline;fill:none;fill-opacity:1;stroke:#000000;stroke-width:0.248413;stroke-dasharray:none;stroke-opacity:1" />
  </g>
  <g
     id="g79">
    <path
       sodipodi:type="star"
       style="display:inline;fill:#000000;stroke-width:4.47;stroke-linecap:round;stroke-linejoin:round"
       id="path1-4-1"
       inkscape:flatsided="false"
       sodipodi:sides="3"
       sodipodi:cx="5.9720817"
       sodipodi:cy="86.380501"
       sodipodi:r1="0.58027047"
       sodipodi:r2="0.29013523"
       sodipodi:arg1="0.73781506"
       sodipodi:arg2="1.7850126"
       inkscape:rounded="0"
       inkscape:randomized="0"
       d="M 6.401447,86.770833 5.9104042,86.664004 5.4193614,86.557176 5.757399,86.185335 l 0.3380375,-0.371842 0.1530053,0.47867 z"
       inkscape:transform-center-x="0.022141576"
       inkscape:transform-center-y="-0.12547079"
       transform="rotate(-7.8970024,280.85158,-176.3793)" />
    <path
       sodipodi:type="star"
       style="display:inline;fill:#000000;stroke-width:4.47;stroke-linecap:round;stroke-linejoin:round"
       id="path1-9-9-0"
       inkscape:flatsided="false"
       sodipodi:sides="3"
       sodipodi:cx="5.9720817"
       sodipodi:cy="86.380501"
       sodipodi:r1="0.58027047"
       sodipodi:r2="0.29013523"
       sodipodi:arg1="0.73781506"
       sodipodi:arg2="1.7850126"
       inkscape:rounded="0"
       inkscape:randomized="0"
       d="M 6.401447,86.770833 5.9104042,86.664004 5.4193614,86.557176 5.757399,86.185335 l 0.3380375,-0.371842 0.1530053,0.47867 z"
       inkscape:transform-center-x="0.11418628"
       inkscape:transform-center-y="0.03447111"
       transform="rotate(24.549863,-47.920894,189.91971)" />
    <path
       sodipodi:type="star"
       style="display:inline;fill:#000000;stroke-width:4.47;stroke-linecap:round;stroke-linejoin:round"
       id="path1-8-5-4"
       inkscape:flatsided="false"
       sodipodi:sides="3"
       sodipodi:cx="5.9720817"
       sodipodi:cy="86.380501"
       sodipodi:r1="0.58027047"
       sodipodi:r2="0.29013523"
       sodipodi:arg1="0.73781506"
       sodipodi:arg2="1.7850126"
       inkscape:rounded="0"
       inkscape:randomized="0"
       d="M 6.401447,86.770833 5.9104042,86.664004 5.4193614,86.557176 5.757399,86.185335 l 0.3380375,-0.371842 0.1530053,0.47867 z"
       inkscape:transform-center-x="-0.047859823"
       inkscape:transform-center-y="0.10163236"
       transform="rotate(57.220842,-0.3446104,136.85019)" />
    <path
       sodipodi:type="star"
       style="display:inline;fill:#000000;stroke-width:4.47;stroke-linecap:round;stroke-linejoin:round"
       id="path1-9-1-90-9"
       inkscape:flatsided="false"
       sodipodi:sides="3"
       sodipodi:cx="5.9720817"
       sodipodi:cy="86.380501"
       sodipodi:r1="0.58027047"
       sodipodi:r2="0.29013523"
       sodipodi:arg1="0.73781506"
       sodipodi:arg2="1.7850126"
       inkscape:rounded="0"
       inkscape:randomized="0"
       d="M 6.401447,86.770833 5.9104042,86.664004 5.4193614,86.557176 5.757399,86.185335 l 0.3380375,-0.371842 0.1530053,0.47867 z"
       inkscape:transform-center-x="-0.089939348"
       inkscape:transform-center-y="-0.060031288"
       transform="rotate(89.667707,13.910728,120.98463)" />
    <path
       sodipodi:type="star"
       style="display:inline;fill:#000000;stroke-width:4.47;stroke-linecap:round;stroke-linejoin:round"
       id="path1-3-93-0"
       inkscape:flatsided="false"
       sodipodi:sides="3"
       sodipodi:cx="5.9720817"
       sodipodi:cy="86.380501"
       sodipodi:r1="0.58027047"
       sodipodi:r2="0.29013523"
       sodipodi:arg1="0.73781506"
       sodipodi:arg2="1.7850126"
       inkscape:rounded="0"
       inkscape:randomized="0"
       d="M 6.401447,86.770833 5.9104042,86.664004 5.4193614,86.557176 5.757399,86.185335 l 0.3380375,-0.371842 0.1530053,0.47867 z"
       inkscape:transform-center-x="0.097305646"
       inkscape:transform-center-y="-0.052392356"
       transform="rotate(127.32273,22.72859,111.12103)" />
    <path
       sodipodi:type="star"
       style="display:inline;fill:#000000;stroke-width:4.47;stroke-linecap:round;stroke-linejoin:round"
       id="path1-9-2-4-0"
       inkscape:flatsided="false"
       sodipodi:sides="3"
       sodipodi:cx="5.9720817"
       sodipodi:cy="86.380501"
       sodipodi:r1="0.58027047"
       sodipodi:r2="0.29013523"
       sodipodi:arg1="0.73781506"
       sodipodi:arg2="1.7850126"
       inkscape:rounded="0"
       inkscape:randomized="0"
       d="M 6.401447,86.770833 5.9104042,86.664004 5.4193614,86.557176 5.757399,86.185335 l 0.3380375,-0.371842 0.1530053,0.47867 z"
       inkscape:transform-center-x="0.04016288"
       inkscape:transform-center-y="0.10889224"
       transform="rotate(159.76959,28.214777,105.11673)" />
    <path
       sodipodi:type="star"
       style="display:inline;fill:#000000;stroke-width:4.47;stroke-linecap:round;stroke-linejoin:round"
       id="path1-8-6-0-0"
       inkscape:flatsided="false"
       sodipodi:sides="3"
       sodipodi:cx="5.9720817"
       sodipodi:cy="86.380501"
       sodipodi:r1="0.58027047"
       sodipodi:r2="0.29013523"
       sodipodi:arg1="0.73781506"
       sodipodi:arg2="1.7850126"
       inkscape:rounded="0"
       inkscape:randomized="0"
       d="M 6.401447,86.770833 5.9104042,86.664004 5.4193614,86.557176 5.757399,86.185335 l 0.3380375,-0.371842 0.1530053,0.47867 z"
       inkscape:transform-center-x="-0.12130406"
       inkscape:transform-center-y="0.026728557"
       transform="rotate(-167.55943,33.148412,99.579553)" />
    <path
       sodipodi:type="star"
       style="display:inline;fill:#000000;stroke-width:4.47;stroke-linecap:round;stroke-linejoin:round"
       id="path1-9-1-9-7-3"
       inkscape:flatsided="false"
       sodipodi:sides="3"
       sodipodi:cx="5.9720817"
       sodipodi:cy="86.380501"
       sodipodi:r1="0.58027047"
       sodipodi:r2="0.29013523"
       sodipodi:arg1="0.73781506"
       sodipodi:arg2="1.7850126"
       inkscape:rounded="0"
       inkscape:randomized="0"
       d="M 6.401447,86.770833 5.9104042,86.664004 5.4193614,86.557176 5.757399,86.185335 l 0.3380375,-0.371842 0.1530053,0.47867 z"
       inkscape:transform-center-x="-0.014366239"
       inkscape:transform-center-y="-0.13244525"
       transform="rotate(-135.11256,38.442543,93.352608)" />
    <circle
       id="uuid-cae7cb64-b9d2-4491-a6b2-1bbe8644b71e-6-0-0-9-0-1-2"
       display="inline"
       fill="#0000ff"
       cx="50.482006"
       cy="118.83837"
       r="4.3757935"
       inkscape:label="PARAM_TIME"
       style="display:inline;fill:none;fill-opacity:1;stroke:#000000;stroke-width:0.248413;stroke-dasharray:none;stroke-opacity:1" />
    <path
       d="m 47.445649,110.34254 0.361244,-2.12796 h 0.547511 l 0.426155,1.13454 0.423333,-1.13454 h 0.547511 l 0.361244,2.12796 h -0.550333 l -0.183444,-1.22485 -0.502355,1.22485 h -0.220133 l -0.476956,-1.22485 -0.183444,1.22485 z m 3.5754,-2.12796 v 2.12796 h -0.553155 v -2.12796 z m 1.060802,0.99342 -0.663222,-0.99342 h 0.682978 l 0.287866,0.55034 0.3556,-0.55034 h 0.682977 l -0.702733,0.99342 0.793044,1.13454 h -0.67451 l -0.426156,-0.69427 -0.499533,0.69427 h -0.668866 z"
       id="text27-4-9"
       style="display:inline;font-weight:bold;font-size:2.82222px;line-height:0.1;font-family:Futura;-inkscape-font-specification:'Futura Bold';letter-spacing:0.00529167px;word-spacing:0.0079375px;stroke-width:1.058;stroke-linecap:square;stroke-linejoin:round"
       aria-label="MIX" />
  </g>
  <g
     id="g80">
    <circle
       id="uuid-cae7cb64-b9d2-4491-a6b2-1bbe8644b71e-6-0-0-9-0"
       display="inline"
       fill="#0000ff"
       cx="10.477839"
       cy="83.87854"
       r="4.3757935"
       inkscape:label="PARAM_TIME"
       style="display:inline;fill:none;fill-opacity:1;stroke:#000000;stroke-width:0.248413;stroke-dasharray:none;stroke-opacity:1" />
    <path
       sodipodi:type="star"
       style="display:inline;fill:#000000;stroke-width:4.47;stroke-linecap:round;stroke-linejoin:round"
       id="path1"
       inkscape:flatsided="false"
       sodipodi:sides="3"
       sodipodi:cx="5.9720817"
       sodipodi:cy="86.380501"
       sodipodi:r1="0.58027047"
       sodipodi:r2="0.29013523"
       sodipodi:arg1="0.73781506"
       sodipodi:arg2="1.7850126"
       inkscape:rounded="0"
       inkscape:randomized="0"
       d="M 6.401447,86.770833 5.9104042,86.664004 5.4193614,86.557176 5.757399,86.185335 l 0.3380375,-0.371842 0.1530053,0.47867 z"
       inkscape:transform-center-x="0.022141576"
       inkscape:transform-center-y="-0.12547079"
       transform="rotate(-7.8970024,7.6041129,95.926749)" />
    <path
       sodipodi:type="star"
       style="display:inline;fill:#000000;stroke-width:4.47;stroke-linecap:round;stroke-linejoin:round"
       id="path1-9"
       inkscape:flatsided="false"
       sodipodi:sides="3"
       sodipodi:cx="5.9720817"
       sodipodi:cy="86.380501"
       sodipodi:r1="0.58027047"
       sodipodi:r2="0.29013523"
       sodipodi:arg1="0.73781506"
       sodipodi:arg2="1.7850126"
       inkscape:rounded="0"
       inkscape:randomized="0"
       d="M 6.401447,86.770833 5.9104042,86.664004 5.4193614,86.557176 5.757399,86.185335 l 0.3380375,-0.371842 0.1530053,0.47867 z"
       inkscape:transform-center-x="0.11418628"
       inkscape:transform-center-y="0.03447111"
       transform="rotate(24.549863,12.416048,80.508737)" />
    <path
       sodipodi:type="star"
       style="display:inline;fill:#000000;stroke-width:4.47;stroke-linecap:round;stroke-linejoin:round"
       id="path1-8"
       inkscape:flatsided="false"
       sodipodi:sides="3"
       sodipodi:cx="5.9720817"
       sodipodi:cy="86.380501"
       sodipodi:r1="0.58027047"
       sodipodi:r2="0.29013523"
       sodipodi:arg1="0.73781506"
       sodipodi:arg2="1.7850126"
       inkscape:rounded="0"
       inkscape:randomized="0"
       d="M 6.401447,86.770833 5.9104042,86.664004 5.4193614,86.557176 5.757399,86.185335 l 0.3380375,-0.371842 0.1530053,0.47867 z"
       inkscape:transform-center-x="-0.047859823"
       inkscape:transform-center-y="0.10163236"
       transform="rotate(57.220842,11.699881,82.699747)" />
    <path
       sodipodi:type="star"
       style="display:inline;fill:#000000;stroke-width:4.47;stroke-linecap:round;stroke-linejoin:round"
       id="path1-9-1"
       inkscape:flatsided="false"
       sodipodi:sides="3"
       sodipodi:cx="5.9720817"
       sodipodi:cy="86.380501"
       sodipodi:r1="0.58027047"
       sodipodi:r2="0.29013523"
       sodipodi:arg1="0.73781506"
       sodipodi:arg2="1.7850126"
       inkscape:rounded="0"
       inkscape:randomized="0"
       d="M 6.401447,86.770833 5.9104042,86.664004 5.4193614,86.557176 5.757399,86.185335 l 0.3380375,-0.371842 0.1530053,0.47867 z"
       inkscape:transform-center-x="-0.089939348"
       inkscape:transform-center-y="-0.060031288"
       transform="rotate(89.667707,11.490238,83.386292)" />
    <path
       sodipodi:type="star"
       style="display:inline;fill:#000000;stroke-width:4.47;stroke-linecap:round;stroke-linejoin:round"
       id="path1-3"
       inkscape:flatsided="false"
       sodipodi:sides="3"
       sodipodi:cx="5.9720817"
       sodipodi:cy="86.380501"
       sodipodi:r1="0.58027047"
       sodipodi:r2="0.29013523"
       sodipodi:arg1="0.73781506"
       sodipodi:arg2="1.7850126"
       inkscape:rounded="0"
       inkscape:randomized="0"
       d="M 6.401447,86.770833 5.9104042,86.664004 5.4193614,86.557176 5.757399,86.185335 l 0.3380375,-0.371842 0.1530053,0.47867 z"
       inkscape:transform-center-x="0.097305646"
       inkscape:transform-center-y="-0.052392356"
       transform="rotate(127.32273,11.380294,83.738688)" />
    <path
       sodipodi:type="star"
       style="display:inline;fill:#000000;stroke-width:4.47;stroke-linecap:round;stroke-linejoin:round"
       id="path1-9-2"
       inkscape:flatsided="false"
       sodipodi:sides="3"
       sodipodi:cx="5.9720817"
       sodipodi:cy="86.380501"
       sodipodi:r1="0.58027047"
       sodipodi:r2="0.29013523"
       sodipodi:arg1="0.73781506"
       sodipodi:arg2="1.7850126"
       inkscape:rounded="0"
       inkscape:randomized="0"
       d="M 6.401447,86.770833 5.9104042,86.664004 5.4193614,86.557176 5.757399,86.185335 l 0.3380375,-0.371842 0.1530053,0.47867 z"
       inkscape:transform-center-x="0.04016288"
       inkscape:transform-center-y="0.10889224"
       transform="rotate(159.76959,11.331127,84.068425)" />
    <path
       sodipodi:type="star"
       style="display:inline;fill:#000000;stroke-width:4.47;stroke-linecap:round;stroke-linejoin:round"
       id="path1-8-6"
       inkscape:flatsided="false"
       sodipodi:sides="3"
       sodipodi:cx="5.9720817"
       sodipodi:cy="86.380501"
       sodipodi:r1="0.58027047"
       sodipodi:r2="0.29013523"
       sodipodi:arg1="0.73781506"
       sodipodi:arg2="1.7850126"
       inkscape:rounded="0"
       inkscape:randomized="0"
       d="M 6.401447,86.770833 5.9104042,86.664004 5.4193614,86.557176 5.757399,86.185335 l 0.3380375,-0.371842 0.1530053,0.47867 z"
       inkscape:transform-center-x="-0.12130406"
       inkscape:transform-center-y="0.026728557"
       transform="rotate(-167.55943,11.241142,84.279718)" />
    <path
       sodipodi:type="star"
       style="display:inline;fill:#000000;stroke-width:4.47;stroke-linecap:round;stroke-linejoin:round"
       id="path1-9-1-9"
       inkscape:flatsided="false"
       sodipodi:sides="3"
       sodipodi:cx="5.9720817"
       sodipodi:cy="86.380501"
       sodipodi:r1="0.58027047"
       sodipodi:r2="0.29013523"
       sodipodi:arg1="0.73781506"
       sodipodi:arg2="1.7850126"
       inkscape:rounded="0"
       inkscape:randomized="0"
       d="M 6.401447,86.770833 5.9104042,86.664004 5.4193614,86.557176 5.757399,86.185335 l 0.3380375,-0.371842 0.1530053,0.47867 z"
       inkscape:transform-center-x="-0.014366239"
       inkscape:transform-center-y="-0.13244525"
       transform="rotate(-135.11256,11.220148,84.134813)" />
    <path
       d="m 6.4851054,73.25482 v 1.659466 h 0.6632217 v 0.468488 H 5.9319503 V 73.25482 Z M 8.6832613,74.592553 8.434906,73.884175 8.1865506,74.592553 Z m 0.1467555,0.420511 H 8.0397952 l -0.1269999,0.36971 H 7.3229513 L 8.1329284,73.25482 h 0.6039551 l 0.8099772,2.127954 H 8.9570167 Z M 10.108132,74.361131 9.3320218,73.25482 h 0.6603995 l 0.3951107,0.581378 0.392289,-0.581378 h 0.660399 l -0.778933,1.106311 v 1.021643 h -0.553155 z m 2.742844,-0.637822 h -0.657577 v 0.3556 h 0.620888 v 0.468488 h -0.620888 v 0.366889 h 0.657577 v 0.468488 H 11.640244 V 73.25482 h 1.210732 z m 0.956379,0.4826 h 0.104422 q 0.163689,0 0.251178,-0.06773 0.08749,-0.06773 0.08749,-0.194733 0,-0.127 -0.08749,-0.194733 -0.08749,-0.06773 -0.251178,-0.06773 h -0.104422 z m 1.216377,1.176865 H 14.33511 l -0.527755,-0.818443 v 0.818443 H 13.2542 V 73.25482 h 0.860777 q 0.1778,0 0.310444,0.05362 0.132645,0.0508 0.217311,0.141111 0.08749,0.09031 0.129823,0.208844 0.04515,0.118533 0.04515,0.254 0,0.242711 -0.118533,0.39511 -0.115711,0.149578 -0.344311,0.2032 z"
       id="text27"
       style="display:inline;font-weight:bold;font-size:2.82222px;line-height:0.1;font-family:Futura;-inkscape-font-specification:'Futura Bold';letter-spacing:0.00529167px;word-spacing:0.0079375px;stroke-width:1.058;stroke-linecap:square;stroke-linejoin:round"
       aria-label="LAYER" />
  </g>
  <path
     style="font-weight:bold;font-size:2.11667px;line-height:0.1;font-family:Futura;-inkscape-font-specification:'Futura Bold';letter-spacing:0.00529167px;word-spacing:0.0079375px;fill:#ffffff;stroke-width:1.058;stroke-linecap:square;stroke-linejoin:round"
     d="m 47.642758,7.8197752 q 0,0.09525 0.03598,0.1756836 0.03598,0.080433 0.09737,0.1397002 0.06138,0.059267 0.141817,0.093133 0.08255,0.03175 0.173567,0.03175 0.09102,0 0.17145,-0.03175 0.08255,-0.033867 0.143934,-0.093133 0.0635,-0.059267 0.09948,-0.1397002 0.03598,-0.080433 0.03598,-0.1756836 0,-0.09525 -0.03598,-0.1756836 -0.03598,-0.080434 -0.09948,-0.1397003 -0.06138,-0.059267 -0.143934,-0.091017 -0.08043,-0.033867 -0.17145,-0.033867 -0.09102,0 -0.173567,0.033867 -0.08043,0.03175 -0.141817,0.091017 -0.06138,0.059267 -0.09737,0.1397003 -0.03598,0.080433 -0.03598,0.1756836 z m -0.433918,0 q 0,-0.1778003 0.06562,-0.3302005 0.06562,-0.154517 0.182034,-0.2688171 0.116417,-0.1143002 0.277284,-0.1778003 0.162983,-0.065617 0.357717,-0.065617 0.192617,0 0.3556,0.065617 0.162984,0.0635 0.279401,0.1778003 0.118533,0.1143001 0.18415,0.2688171 0.06562,0.1524002 0.06562,0.3302005 0,0.1778002 -0.06562,0.3323171 -0.06562,0.1524003 -0.18415,0.2667004 -0.116417,0.1143002 -0.279401,0.179917 -0.162983,0.0635 -0.3556,0.0635 -0.194734,0 -0.357717,-0.0635 Q 47.572908,8.5330929 47.456491,8.4187927 47.340074,8.3044926 47.274457,8.1520923 47.20884,7.9975754 47.20884,7.8197752 Z m 2.450044,-0.7979846 v 0.8678347 q 0,0.06985 0.0042,0.1439335 0.0064,0.071967 0.03175,0.1312335 0.02752,0.059267 0.08467,0.097367 0.05715,0.035983 0.160867,0.035983 0.103717,0 0.158751,-0.035983 0.05715,-0.0381 0.08467,-0.097367 0.02752,-0.059267 0.03175,-0.1312335 0.0064,-0.074083 0.0064,-0.1439335 V 7.0217906 h 0.412751 v 0.9249847 q 0,0.3725339 -0.17145,0.5439842 -0.169334,0.1714503 -0.522818,0.1714503 -0.353484,0 -0.524934,-0.1714503 -0.17145,-0.1714503 -0.17145,-0.5439842 V 7.0217906 Z m 1.920879,0.3513672 V 8.6177597 H 51.164896 V 7.3731578 H 50.824112 V 7.0217906 h 1.096435 v 0.3513672 z m 1.677991,-0.3513672 v 1.2446019 h 0.497418 V 8.6177597 H 52.842887 V 7.0217906 Z"
     id="text3"
     aria-label="OUT L" />
  <path
     style="font-weight:bold;font-size:2.11667px;line-height:0.1;font-family:Futura;-inkscape-font-specification:'Futura Bold';letter-spacing:0.00529167px;word-spacing:0.0079375px;stroke-width:1.058;stroke-linecap:square;stroke-linejoin:round"
     d="M 8.7260309,7.0226241 V 8.6185932 H 8.3111636 V 7.0226241 Z M 9.0657565,8.6185932 V 7.0226241 H 9.4806238 L 10.246858,7.9984089 V 7.0226241 h 0.412751 V 8.6185932 H 10.246858 L 9.4806238,7.6428084 V 8.6185932 Z M 12.147098,7.0226241 V 8.267226 h 0.497417 V 8.6185932 H 11.73223 V 7.0226241 Z"
     id="text3-7"
     aria-label="IN L" />
  <path
     style="font-weight:bold;font-size:2.11667px;line-height:0.1;font-family:Futura;-inkscape-font-specification:'Futura Bold';letter-spacing:0.00529167px;word-spacing:0.0079375px;stroke-width:1.058;stroke-linecap:square;stroke-linejoin:round"
     d="m 49.260952,76.35 v 0.867834 q 0,0.06985 0.0042,0.143934 0.0063,0.07197 0.03175,0.131233 0.02752,0.05927 0.08467,0.09737 0.05715,0.03598 0.160867,0.03598 0.103716,0 0.15875,-0.03598 0.05715,-0.0381 0.08467,-0.09737 0.02752,-0.05927 0.03175,-0.131233 0.0063,-0.07408 0.0063,-0.143934 V 76.35 h 0.41275 v 0.924984 q 0,0.372534 -0.17145,0.543984 -0.169333,0.171451 -0.522817,0.171451 -0.353484,0 -0.524934,-0.171451 -0.171451,-0.17145 -0.171451,-0.543984 V 76.35 Z m 2.514076,0.6223 q 0.01693,0.0021 0.02752,0.0021 0.0127,0 0.02117,0 0.07832,0 0.127,-0.04657 0.04868,-0.04657 0.04868,-0.12065 0,-0.07197 -0.04657,-0.116417 -0.04445,-0.04445 -0.116417,-0.04445 -0.0762,0 -0.122767,0.0508 -0.04657,0.0508 -0.04657,0.131234 H 51.28396 q 0.01482,-0.124884 0.06138,-0.22225 0.04868,-0.09737 0.122766,-0.162984 0.07408,-0.06773 0.173567,-0.1016 0.09948,-0.03598 0.220134,-0.03598 0.118534,0 0.213784,0.03387 0.09737,0.03175 0.1651,0.09313 0.06985,0.05927 0.105833,0.14605 0.0381,0.08467 0.0381,0.1905 0,0.1143 -0.04445,0.188384 -0.04233,0.07197 -0.122766,0.124883 0.122766,0.0381 0.1905,0.137584 0.06985,0.09737 0.06985,0.2413 0,0.118534 -0.04657,0.215901 -0.04657,0.09737 -0.131233,0.167216 -0.08255,0.06985 -0.198967,0.107951 -0.1143,0.0381 -0.251884,0.0381 -0.18415,0 -0.332317,-0.07197 -0.148167,-0.07197 -0.237067,-0.2286 -0.04022,-0.06985 -0.05503,-0.139701 -0.0127,-0.06985 -0.0127,-0.141817 h 0.410634 q 0.0042,0.112184 0.06562,0.171451 0.06138,0.05715 0.1651,0.05715 0.110067,0 0.160867,-0.05927 0.0508,-0.05927 0.0508,-0.14605 0,-0.103717 -0.06138,-0.156634 -0.06138,-0.05292 -0.14605,-0.05292 -0.02117,0 -0.04022,0.0042 -0.01905,0.0021 -0.04233,0.0063 z"
     id="text3-7-9"
     aria-label="U 3" />
  <path
     style="font-weight:bold;font-size:2.11667px;line-height:0.1;font-family:Futura;-inkscape-font-specification:'Futura Bold';letter-spacing:0.00529167px;word-spacing:0.0079375px;stroke-width:1.058;stroke-linecap:square;stroke-linejoin:round"
     d="m 22.657903,76.35 v 0.867834 q 0,0.06985 0.0042,0.143934 0.0063,0.07197 0.03175,0.131233 0.02752,0.05927 0.08467,0.09737 0.05715,0.03598 0.160867,0.03598 0.103717,0 0.158751,-0.03598 0.05715,-0.0381 0.08467,-0.09737 0.02752,-0.05927 0.03175,-0.131233 0.0063,-0.07408 0.0063,-0.143934 V 76.35 h 0.412751 v 0.924984 q 0,0.372534 -0.17145,0.543984 -0.169334,0.171451 -0.522818,0.171451 -0.353484,0 -0.524934,-0.171451 -0.17145,-0.17145 -0.17145,-0.543984 V 76.35 Z m 2.442109,0.351367 H 24.867179 V 76.35 h 0.647701 v 1.595969 h -0.414868 z"
     id="text3-7-9-6"
     aria-label="U 1" />
  <path
     style="font-weight:bold;font-size:2.11667px;line-height:0.1;font-family:Futura;-inkscape-font-specification:'Futura Bold';letter-spacing:0.00529167px;word-spacing:0.0079375px;stroke-width:1.058;stroke-linecap:square;stroke-linejoin:round"
     d="m 35.893852,76.35 v 0.867834 q 0,0.06985 0.0042,0.143934 0.0063,0.07197 0.03175,0.131233 0.02752,0.05927 0.08467,0.09737 0.05715,0.03598 0.160867,0.03598 0.103717,0 0.15875,-0.03598 0.05715,-0.0381 0.08467,-0.09737 0.02752,-0.05927 0.03175,-0.131233 0.0063,-0.07408 0.0063,-0.143934 V 76.35 h 0.412751 v 0.924984 q 0,0.372534 -0.171451,0.543984 -0.169333,0.171451 -0.522817,0.171451 -0.353484,0 -0.524934,-0.171451 -0.171451,-0.17145 -0.171451,-0.543984 V 76.35 Z m 3.225277,1.595969 H 37.83431 l 0.395818,-0.410634 q 0.156633,-0.162984 0.245533,-0.275167 0.0889,-0.114301 0.131234,-0.192617 0.04445,-0.07832 0.05503,-0.127001 0.01058,-0.04868 0.01058,-0.08255 0,-0.03598 -0.0127,-0.06985 -0.01058,-0.03387 -0.03387,-0.05927 -0.02328,-0.02752 -0.05715,-0.04233 -0.03175,-0.01693 -0.0762,-0.01693 -0.08467,0 -0.133351,0.05503 -0.04657,0.05503 -0.04657,0.137584 0,0.02328 0.0064,0.06773 H 37.86606 q 0,-0.1397 0.04445,-0.254 0.04657,-0.1143 0.129117,-0.196851 0.08255,-0.08255 0.194734,-0.127 0.1143,-0.04445 0.249767,-0.04445 0.13335,0 0.245534,0.04233 0.1143,0.04233 0.19685,0.118533 0.08255,0.0762 0.129117,0.182034 0.04657,0.103716 0.04657,0.226483 0,0.131234 -0.05715,0.243417 -0.05503,0.110067 -0.1778,0.226484 l -0.264584,0.24765 h 0.516468 z"
     id="text3-7-9-6-1"
     aria-label="U 2" />
  <path
     style="font-weight:bold;font-size:2.11667px;line-height:0.1;font-family:Futura;-inkscape-font-specification:'Futura Bold';letter-spacing:0.00529167px;word-spacing:0.0079375px;stroke-width:1.058;stroke-linecap:square;stroke-linejoin:round"
     d="m 8.5185972,25.156226 v 1.595969 H 8.1037299 v -1.595969 z m 0.3397256,1.595969 v -1.595969 h 0.4148673 l 0.7662349,0.975785 v -0.975785 h 0.41275 v 1.595969 h -0.41275 L 9.2731901,25.776411 v 0.975784 z m 3.0813412,-0.882651 h 0.07832 q 0.122767,0 0.188383,-0.0508 0.06562,-0.0508 0.06562,-0.14605 0,-0.09525 -0.06562,-0.146051 -0.06562,-0.0508 -0.188383,-0.0508 h -0.07832 z m 0.912285,0.882651 h -0.516468 l -0.395817,-0.613834 v 0.613834 h -0.414867 v -1.595969 h 0.645584 q 0.13335,0 0.232834,0.04022 0.09948,0.0381 0.162983,0.105833 0.06562,0.06773 0.09737,0.156634 0.03387,0.0889 0.03387,0.1905 0,0.182034 -0.0889,0.296334 -0.08678,0.112184 -0.258234,0.1524 z"
     id="text3-7-6"
     aria-label="IN R" />
  <path
     style="font-weight:bold;font-size:2.11667px;line-height:0.1;font-family:Futura;-inkscape-font-specification:'Futura Bold';letter-spacing:0.00529167px;word-spacing:0.0079375px;stroke-width:1.058;stroke-linecap:square;stroke-linejoin:round"
     d="m 8.7443653,47.809152 h 0.078317 q 0.1227669,0 0.1883837,-0.0508 0.065617,-0.0508 0.065617,-0.146051 0,-0.09525 -0.065617,-0.14605 -0.065617,-0.0508 -0.1883837,-0.0508 H 8.7443653 Z M 9.65665,48.691803 H 9.1401825 L 8.7443653,48.077969 v 0.613834 H 8.329498 v -1.595969 h 0.6455843 q 0.1333502,0 0.2328337,0.04022 0.099483,0.0381 0.1629835,0.105833 0.065617,0.06773 0.097367,0.156634 0.033867,0.0889 0.033867,0.1905 0,0.182034 -0.0889,0.296334 -0.086783,0.112183 -0.2582337,0.1524 z m 1.086909,-1.244602 h -0.493184 v 0.2667 h 0.465668 v 0.351368 h -0.465668 v 0.275167 h 0.493184 v 0.351367 H 9.8355079 v -1.595969 h 0.9080511 z m 0.587375,-0.351367 0.385234,0.971551 0.387351,-0.971551 h 0.450851 l -0.673101,1.595969 h -0.330201 l -0.670984,-1.595969 z"
     id="text3-7-6-5"
     aria-label="REV" />
  <path
     style="font-weight:bold;font-size:2.11667px;line-height:0.1;font-family:Futura;-inkscape-font-specification:'Futura Bold';letter-spacing:0.00529167px;word-spacing:0.0079375px;stroke-width:1.058;stroke-linecap:square;stroke-linejoin:round"
     d="m 22.281934,48.340436 h 0.09525 q 0.107951,0 0.192617,-0.03387 0.08467,-0.03387 0.141817,-0.09313 0.05927,-0.05927 0.0889,-0.139701 0.03175,-0.08255 0.03175,-0.179917 0,-0.09525 -0.03175,-0.1778 -0.03175,-0.08255 -0.09102,-0.141817 -0.05715,-0.05927 -0.141817,-0.09313 -0.08467,-0.03387 -0.190501,-0.03387 h -0.09525 z m -0.414867,-1.244602 h 0.613834 q 0.162984,0 0.304801,0.06562 0.143933,0.06562 0.249767,0.175683 0.10795,0.10795 0.169333,0.254001 0.06138,0.143933 0.06138,0.302683 0,0.156634 -0.06138,0.302684 -0.05927,0.143934 -0.167217,0.254001 -0.105833,0.110066 -0.249767,0.175683 -0.141816,0.06562 -0.306917,0.06562 h -0.613834 z m 2.08386,0 v 1.244602 h 0.497417 v 0.351367 H 23.53606 v -1.595969 z m 0.940858,0.829734 -0.582084,-0.829734 h 0.495301 l 0.296334,0.436034 0.294217,-0.436034 h 0.495301 l -0.584201,0.829734 v 0.766235 h -0.414868 z"
     id="text3-7-6-5-0"
     aria-label="DLY" />
  <path
     style="font-weight:bold;font-size:2.11667px;line-height:0.1;font-family:Futura;-inkscape-font-specification:'Futura Bold';letter-spacing:0.00529167px;word-spacing:0.0079375px;stroke-width:1.058;stroke-linecap:square;stroke-linejoin:round"
     d="m 36.031165,47.447201 h -0.499534 v 0.2667 h 0.455084 v 0.351368 h -0.455084 v 0.626534 h -0.414867 v -1.595969 h 0.914401 z m 0.813859,0.893235 h 0.668868 v 0.351367 H 36.14864 l 0.755651,-1.244602 H 36.27564 v -0.351367 h 1.320802 z m 1.516596,0 h 0.668867 v 0.351367 h -1.365252 l 0.755652,-1.244602 h -0.628651 v -0.351367 h 1.320802 z"
     id="text3-7-6-5-0-0"
     aria-label="FZZ" />
  <path
     style="font-weight:bold;font-size:2.11667px;line-height:0.1;font-family:Futura;-inkscape-font-specification:'Futura Bold';letter-spacing:0.00529167px;word-spacing:0.0079375px;stroke-width:1.058;stroke-linecap:square;stroke-linejoin:round"
     d="m 49.008881,47.820793 h 0.823384 q 0,0.127 -0.01058,0.230717 -0.01058,0.103717 -0.04233,0.192617 -0.04445,0.124883 -0.120651,0.22225 -0.0762,0.09525 -0.179916,0.160867 -0.101601,0.0635 -0.224367,0.09737 -0.122767,0.03387 -0.258234,0.03387 -0.186267,0 -0.340784,-0.06138 -0.1524,-0.06138 -0.262467,-0.17145 -0.110067,-0.112184 -0.17145,-0.266701 -0.06138,-0.156633 -0.06138,-0.345017 0,-0.186267 0.05927,-0.340784 0.06138,-0.156633 0.17145,-0.2667 0.112184,-0.110067 0.268817,-0.17145 0.156634,-0.06138 0.349251,-0.06138 0.249767,0 0.43815,0.10795 0.188384,0.107951 0.298451,0.334434 l -0.393701,0.162984 q -0.05503,-0.131234 -0.143933,-0.188384 -0.08678,-0.05715 -0.198967,-0.05715 -0.09313,0 -0.169334,0.03598 -0.0762,0.03387 -0.131233,0.09948 -0.05292,0.0635 -0.08467,0.154517 -0.02963,0.09102 -0.02963,0.2032 0,0.1016 0.0254,0.188384 0.02752,0.08678 0.08043,0.150283 0.05292,0.0635 0.131234,0.09948 0.07832,0.03387 0.182033,0.03387 0.06138,0 0.118534,-0.0127 0.05715,-0.01482 0.1016,-0.04445 0.04657,-0.03175 0.0762,-0.08043 0.02963,-0.04868 0.04022,-0.118533 h -0.340784 z m 1.506009,-0.702735 v 1.244602 h 0.497417 v 0.351367 h -0.912285 v -1.595969 z m 1.131359,1.244602 h 0.09525 q 0.10795,0 0.192617,-0.03387 0.08467,-0.03387 0.141817,-0.09313 0.05927,-0.05927 0.0889,-0.1397 0.03175,-0.08255 0.03175,-0.179917 0,-0.09525 -0.03175,-0.1778 -0.03175,-0.08255 -0.09102,-0.141817 -0.05715,-0.05927 -0.141817,-0.09313 -0.08467,-0.03387 -0.1905,-0.03387 h -0.09525 z m -0.414867,-1.244602 h 0.613834 q 0.162983,0 0.3048,0.06562 0.143934,0.06562 0.249767,0.175684 0.107951,0.10795 0.169334,0.254 0.06138,0.143934 0.06138,0.302684 0,0.156633 -0.06138,0.302684 -0.05927,0.143933 -0.167217,0.254 -0.105833,0.110067 -0.249767,0.175684 -0.141817,0.06562 -0.306917,0.06562 h -0.613834 z"
     id="text3-7-6-5-0-7"
     aria-label="GLD" />
  <path
     style="font-weight:bold;font-size:2.11667px;line-height:0.1;font-family:Futura;-inkscape-font-specification:'Futura Bold';letter-spacing:0.00529167px;word-spacing:0.0079375px;stroke-width:1.058;stroke-linecap:square;stroke-linejoin:round"
     d="m 8.7708197,59.72705 h 0.8233846 q 0,0.127001 -0.010583,0.230717 -0.010583,0.103717 -0.042333,0.192617 -0.04445,0.124884 -0.1206502,0.222251 -0.0762,0.09525 -0.1799169,0.160867 -0.1016002,0.0635 -0.2243671,0.09737 -0.1227668,0.03387 -0.2582337,0.03387 -0.1862669,0 -0.3407838,-0.06138 -0.1524003,-0.06138 -0.2624671,-0.171451 -0.1100668,-0.112183 -0.1714503,-0.2667 -0.061383,-0.156634 -0.061383,-0.345017 0,-0.186267 0.059267,-0.340784 0.061383,-0.156634 0.1714502,-0.2667 0.1121835,-0.110067 0.2688171,-0.171451 0.1566336,-0.06138 0.3492505,-0.06138 0.2497671,0 0.4381507,0.10795 0.1883836,0.10795 0.2984505,0.334434 l -0.3937019,0.16297 Q 9.0586868,59.454 8.9697867,59.39685 8.8830032,59.3397 8.7708197,59.3397 q -0.093133,0 -0.1693336,0.03598 -0.0762,0.03387 -0.1312335,0.09948 -0.052917,0.0635 -0.084667,0.154517 -0.029633,0.09102 -0.029633,0.2032 0,0.1016 0.0254,0.188383 0.027517,0.08678 0.080433,0.150284 0.052917,0.0635 0.1312336,0.09948 0.078317,0.03387 0.1820336,0.03387 0.061383,0 0.1185335,-0.0127 0.05715,-0.01482 0.1016001,-0.04445 0.046567,-0.03175 0.0762,-0.08043 0.029633,-0.04868 0.040217,-0.118534 H 8.7708197 Z m 1.5060083,0.01058 h 0.07832 q 0.122767,0 0.188384,-0.0508 0.06562,-0.0508 0.06562,-0.146051 0,-0.09525 -0.06562,-0.14605 -0.06562,-0.0508 -0.188384,-0.0508 h -0.07832 z m 0.912285,0.882651 h -0.516468 l -0.395817,-0.613834 v 0.613834 H 9.8619613 v -1.595969 h 0.6455837 q 0.13335,0 0.232834,0.04022 0.09948,0.0381 0.162983,0.105833 0.06562,0.06773 0.09737,0.156634 0.03387,0.0889 0.03387,0.1905 0,0.182034 -0.0889,0.296334 -0.08678,0.112183 -0.258234,0.1524 z m 0.178858,0 v -1.595969 h 0.414867 l 0.766235,0.975785 v -0.975785 h 0.41275 v 1.595969 h -0.41275 L 11.782838,59.6445 v 0.975785 z"
     id="text3-7-6-5-9"
     aria-label="GRN" />
  <path
     style="font-weight:bold;font-size:2.11667px;line-height:0.1;font-family:Futura;-inkscape-font-specification:'Futura Bold';letter-spacing:0.00529167px;word-spacing:0.0079375px;stroke-width:1.058;stroke-linecap:square;stroke-linejoin:round"
     d="m 22.94445,59.375683 h -0.499534 v 0.266701 H 22.9 v 0.351367 h -0.455084 v 0.626534 h -0.414867 v -1.595969 h 0.914401 z m 0.667809,-0.351367 v 1.244602 h 0.497418 v 0.351367 h -0.912285 v -1.595969 z m 1.13136,1.244602 h 0.09525 q 0.10795,0 0.192617,-0.03387 0.08467,-0.03387 0.141817,-0.09313 0.05927,-0.05927 0.0889,-0.139701 0.03175,-0.08255 0.03175,-0.179917 0,-0.09525 -0.03175,-0.1778 -0.03175,-0.08255 -0.09102,-0.141817 -0.05715,-0.05927 -0.141817,-0.09313 -0.08467,-0.03387 -0.1905,-0.03387 h -0.09525 z m -0.414868,-1.244602 h 0.613835 q 0.162983,0 0.3048,0.06562 0.143934,0.06562 0.249767,0.175683 0.10795,0.10795 0.169334,0.254001 0.06138,0.143933 0.06138,0.302683 0,0.156634 -0.06138,0.302684 -0.05927,0.143934 -0.167217,0.254001 -0.105834,0.110067 -0.249767,0.175683 -0.141817,0.06562 -0.306917,0.06562 h -0.613835 z"
     id="text3-7-6-5-0-4"
     aria-label="FLD" />
  <path
     style="font-weight:bold;font-size:2.11667px;line-height:0.1;font-family:Futura;-inkscape-font-specification:'Futura Bold';letter-spacing:0.00529167px;word-spacing:0.0079375px;stroke-width:1.058;stroke-linecap:square;stroke-linejoin:round"
     d="m 34.889228,59.024316 0.275167,1.030818 0.338667,-1.030818 h 0.330201 l 0.338667,1.030818 0.275167,-1.030818 h 0.433917 l -0.47625,1.595969 H 35.98143 L 35.668162,59.6953 35.354895,60.620285 h -0.423334 l -0.47625,-1.595969 z m 2.579162,0.713318 h 0.07832 q 0.122767,0 0.188383,-0.0508 0.06562,-0.0508 0.06562,-0.146051 0,-0.09525 -0.06562,-0.14605 -0.06562,-0.0508 -0.188383,-0.0508 h -0.07832 z m 0.912285,0.882651 H 37.864207 L 37.46839,60.006451 v 0.613834 h -0.414867 v -1.595969 h 0.645584 q 0.13335,0 0.232834,0.04022 0.09948,0.0381 0.162983,0.105833 0.06562,0.06773 0.09737,0.156634 0.03387,0.0889 0.03387,0.1905 0,0.182034 -0.0889,0.296334 -0.08678,0.112183 -0.258234,0.1524 z M 38.9744,59.756684 h 0.137583 q 0.228601,0 0.228601,-0.198967 0,-0.198967 -0.228601,-0.198967 H 38.9744 Z m 0,0.863601 h -0.414867 v -1.595969 h 0.660401 q 0.268817,0 0.410634,0.1397 0.143933,0.1397 0.143933,0.393701 0,0.254 -0.143933,0.3937 -0.141817,0.139701 -0.410634,0.139701 H 38.9744 Z"
     id="text3-7-6-5-0-0-9"
     aria-label="WRP" />
  <path
     style="font-weight:bold;font-size:2.11667px;line-height:0.1;font-family:Futura;-inkscape-font-specification:'Futura Bold';letter-spacing:0.00529167px;word-spacing:0.0079375px;stroke-width:1.058;stroke-linecap:square;stroke-linejoin:round"
     d="m 49.326382,59.455058 q -0.06773,-0.05503 -0.135467,-0.08043 -0.06773,-0.02752 -0.131233,-0.02752 -0.08043,0 -0.131234,0.0381 -0.0508,0.0381 -0.0508,0.09948 0,0.04233 0.0254,0.06985 0.0254,0.02752 0.06562,0.04868 0.04233,0.01905 0.09313,0.03387 0.05292,0.01482 0.103717,0.03175 0.203201,0.06773 0.296334,0.182034 0.09525,0.112183 0.09525,0.294217 0,0.122767 -0.04233,0.22225 -0.04022,0.09948 -0.12065,0.171451 -0.07832,0.06985 -0.194734,0.10795 -0.1143,0.04022 -0.26035,0.04022 -0.302684,0 -0.560918,-0.179917 l 0.1778,-0.334434 q 0.09313,0.08255 0.184151,0.122767 0.09102,0.04022 0.179916,0.04022 0.101601,0 0.150284,-0.04657 0.0508,-0.04657 0.0508,-0.105834 0,-0.03598 -0.0127,-0.06138 -0.0127,-0.02752 -0.04233,-0.04868 -0.02963,-0.02328 -0.07832,-0.04233 -0.04657,-0.01905 -0.1143,-0.04233 -0.08043,-0.0254 -0.15875,-0.05503 -0.0762,-0.03175 -0.137584,-0.08255 -0.05927,-0.0508 -0.09737,-0.127 -0.03598,-0.07832 -0.03598,-0.196851 0,-0.118533 0.0381,-0.213783 0.04022,-0.09737 0.110067,-0.1651 0.07197,-0.06985 0.173567,-0.107951 0.103716,-0.0381 0.230717,-0.0381 0.118533,0 0.24765,0.03387 0.129117,0.03175 0.24765,0.09525 z m 0.911226,0.32385 h 0.137584 q 0.2286,0 0.2286,-0.198967 0,-0.198967 -0.2286,-0.198967 h -0.137584 z m 0,0.863601 H 49.822741 V 59.04654 h 0.660401 q 0.268817,0 0.410634,0.139701 0.143934,0.1397 0.143934,0.3937 0,0.254001 -0.143934,0.393701 -0.141817,0.1397 -0.410634,0.1397 h -0.245534 z m 2.174878,-1.062568 q -0.143934,-0.175683 -0.355601,-0.175683 -0.09313,0 -0.173567,0.03387 -0.07832,0.03387 -0.135467,0.09313 -0.05715,0.05715 -0.09102,0.137583 -0.03175,0.08043 -0.03175,0.173567 0,0.09525 0.03175,0.175684 0.03387,0.08043 0.09102,0.1397 0.05927,0.05927 0.137584,0.09313 0.07832,0.03387 0.169333,0.03387 0.198967,0 0.357718,-0.169333 v 0.491067 l -0.04233,0.01482 q -0.09525,0.03387 -0.1778,0.04868 -0.08255,0.01693 -0.162984,0.01693 -0.1651,0 -0.3175,-0.06138 -0.150284,-0.0635 -0.2667,-0.175683 -0.114301,-0.114301 -0.184151,-0.268818 -0.06985,-0.156633 -0.06985,-0.340783 0,-0.184151 0.06773,-0.336551 0.06985,-0.154517 0.18415,-0.264584 0.116417,-0.112183 0.268817,-0.173567 0.1524,-0.0635 0.319617,-0.0635 0.09525,0 0.186267,0.02117 0.09313,0.01905 0.194734,0.06138 z"
     id="text3-7-6-5-0-7-3"
     aria-label="SPC" />
  <path
     style="font-weight:bold;font-size:2.11667px;line-height:0.1;font-family:Futura;-inkscape-font-specification:'Futura Bold';letter-spacing:0.00529167px;word-spacing:0.0079375px;fill:#ffffff;stroke-width:1.058;stroke-linecap:square;stroke-linejoin:round"
     d="m 47.435322,25.954211 q 0,0.09525 0.03598,0.175683 0.03598,0.08043 0.09737,0.139701 0.06138,0.05927 0.141817,0.09313 0.08255,0.03175 0.173567,0.03175 0.09102,0 0.17145,-0.03175 0.08255,-0.03387 0.143934,-0.09313 0.0635,-0.05927 0.09948,-0.139701 0.03598,-0.08043 0.03598,-0.175683 0,-0.09525 -0.03598,-0.175684 -0.03598,-0.08043 -0.09948,-0.1397 -0.06138,-0.05927 -0.143934,-0.09102 -0.08043,-0.03387 -0.17145,-0.03387 -0.09102,0 -0.173567,0.03387 -0.08043,0.03175 -0.141817,0.09102 -0.06138,0.05927 -0.09737,0.1397 -0.03598,0.08043 -0.03598,0.175684 z m -0.433917,0 q 0,-0.1778 0.06562,-0.330201 0.06562,-0.154517 0.182033,-0.268817 0.116417,-0.1143 0.277284,-0.1778 0.162983,-0.06562 0.357717,-0.06562 0.192617,0 0.355601,0.06562 0.162983,0.0635 0.2794,0.1778 0.118534,0.1143 0.18415,0.268817 0.06562,0.152401 0.06562,0.330201 0,0.1778 -0.06562,0.332317 -0.06562,0.1524 -0.18415,0.2667 -0.116417,0.114301 -0.2794,0.179917 -0.162984,0.0635 -0.355601,0.0635 -0.194734,0 -0.357717,-0.0635 -0.160867,-0.06562 -0.277284,-0.179917 -0.116417,-0.1143 -0.182033,-0.2667 -0.06562,-0.154517 -0.06562,-0.332317 z m 2.450044,-0.797985 v 0.867835 q 0,0.06985 0.0042,0.143933 0.0063,0.07197 0.03175,0.131234 0.02752,0.05927 0.08467,0.09737 0.05715,0.03598 0.160867,0.03598 0.103717,0 0.15875,-0.03598 0.05715,-0.0381 0.08467,-0.09737 0.02752,-0.05927 0.03175,-0.131234 0.0063,-0.07408 0.0063,-0.143933 v -0.867835 h 0.41275 v 0.924985 q 0,0.372534 -0.17145,0.543984 -0.169333,0.17145 -0.522817,0.17145 -0.353484,0 -0.524934,-0.17145 -0.171451,-0.17145 -0.171451,-0.543984 v -0.924985 z m 1.920879,0.351367 v 1.244602 H 50.95746 v -1.244602 h -0.340784 v -0.351367 h 1.096435 v 0.351367 z m 1.677991,0.361951 h 0.07832 q 0.122766,0 0.188383,-0.0508 0.06562,-0.0508 0.06562,-0.14605 0,-0.09525 -0.06562,-0.146051 -0.06562,-0.0508 -0.188383,-0.0508 h -0.07832 z m 0.912284,0.882651 h -0.516467 l -0.395817,-0.613834 v 0.613834 h -0.414868 v -1.595969 h 0.645585 q 0.13335,0 0.232833,0.04022 0.09948,0.0381 0.162984,0.105833 0.06562,0.06773 0.09737,0.156634 0.03387,0.0889 0.03387,0.1905 0,0.182034 -0.0889,0.296334 -0.08678,0.112184 -0.258233,0.1524 z"
     id="text3-1"
     aria-label="OUT R" />
  <g
     id="text45"
     style="font-weight:bold;font-size:8.11389px;line-height:0.1;font-family:Futura;-inkscape-font-specification:'Futura Bold';letter-spacing:0.00529167px;word-spacing:0.0079375px;stroke-width:1.058;stroke-linecap:square;stroke-linejoin:round"
     aria-label="  G  &#10;&#10;&#10;&#10;       E&#10; &#10;&#10;  &#10;&#10;L&#10;      &#10;&#10;&#10;&#10;&#10;     Z &#10;&#10;&#10;       &#10;&#10;&#10;&#10;&#10;  A  &#10;">
    <path
       d="m 27.879936,10.90375 h 3.156303 q 0,0.486833 -0.04057,0.884414 -0.04057,0.39758 -0.162278,0.738364 -0.170392,0.478719 -0.462492,0.851958 -0.2921,0.365125 -0.68968,0.616656 -0.389467,0.243416 -0.860073,0.373239 -0.470605,0.129822 -0.989894,0.129822 -0.714023,0 -1.306336,-0.235303 -0.584201,-0.235303 -1.006123,-0.657225 -0.421922,-0.430036 -0.657225,-1.02235 -0.235303,-0.600428 -0.235303,-1.322564 0,-0.714022 0.227189,-1.3063363 0.235303,-0.6004278 0.657225,-1.0223501 0.430036,-0.4219223 1.030464,-0.6572251 0.600428,-0.2353028 1.338792,-0.2353028 0.957439,0 1.679575,0.4138084 0.722136,0.4138084 1.144059,1.2819946 L 29.194386,10.360119 Q 28.983425,9.857058 28.642642,9.637983 28.309972,9.418908 27.879936,9.418908 q -0.357011,0 -0.649111,0.1379361 -0.2921,0.1298222 -0.503061,0.3813528 -0.202847,0.2434171 -0.324556,0.5923141 -0.113594,0.348897 -0.113594,0.778933 0,0.389467 0.09737,0.722136 0.105481,0.33267 0.308328,0.576087 0.202847,0.243416 0.503061,0.381352 0.300214,0.129823 0.697795,0.129823 0.235303,0 0.454378,-0.04868 0.219075,-0.0568 0.389466,-0.170391 0.178506,-0.121709 0.2921,-0.308328 0.113595,-0.18662 0.154164,-0.454378 h -1.306336 z"
       id="path75" />
    <path
       d="m 42.242763,12.8024 h -1.890537 v 1.02235 h 1.785056 v 1.346906 h -1.785056 v 1.054805 h 1.890537 v 1.346906 h -3.480859 v -6.117873 h 3.480859 z"
       id="path76" />
    <path
       d="m 20.948555,15.512439 v 4.770967 h 1.906764 v 1.346906 h -3.497086 v -6.117873 z"
       id="path77" />
    <path
       d="m 35.368178,25.15174 h 2.563989 v 1.346906 h -5.233459 l 2.896659,-4.770967 h -2.409826 v -1.346906 h 5.063068 z"
       id="path78" />
    <path
       d="m 28.228833,30.717869 -0.714022,-2.036587 -0.714022,2.036587 z m 0.421923,1.208969 h -2.271889 l -0.365126,1.06292 h -1.695802 l 2.328686,-6.117873 h 1.736372 l 2.328687,6.117873 h -1.695803 z"
       id="path79" />
  </g>
  <g
     inkscape:groupmode="layer"
     id="layer2"
     inkscape:label="components"
     style="display:none">
    <circle
       id="uuid-cae7cb64-b9d2-4491-a6b2-1bbe8644b71e-6-0-0"
       display="inline"
       fill="#0000ff"
       cx="10.477839"
       cy="14.552081"
       r="1.3229166"
       inkscape:label="IN_L"
       style="fill:#00ff00;fill-opacity:1;stroke-width:0.264583" />
    <circle
       id="uuid-cae7cb64-b9d2-4491-a6b2-1bbe8644b71e-6-0-0-3"
       display="inline"
       fill="#0000ff"
       cx="10.477839"
       cy="32.686115"
       r="1.3229166"
       inkscape:label="IN_R"
       style="display:inline;fill:#00ff00;fill-opacity:1;stroke-width:0.264583" />
    <circle
       id="uuid-cae7cb64-b9d2-4491-a6b2-1bbe8644b71e-6-9-8"
       display="inline"
       fill="#0000ff"
       cx="50.482006"
       cy="32.686115"
       r="1.3229166"
       inkscape:label="OUT_R"
       style="display:inline;stroke-width:0.264583" />
    <circle
       id="uuid-cae7cb64-b9d2-4491-a6b2-1bbe8644b71e-6-0-0-9-6"
       display="inline"
       fill="#0000ff"
       cx="30.480005"
       cy="101.35844"
       r="1.3229166"
       inkscape:label="PARAM_BLEND"
       style="display:inline;fill:#ff0000;fill-opacity:1;stroke-width:0.264583" />
    <circle
       id="uuid-cae7cb64-b9d2-4491-a6b2-1bbe8644b71e-6-0-0-9-6-8"
       display="inline"
       fill="#0000ff"
       cx="50.482006"
       cy="118.83837"
       r="1.3229166"
       inkscape:label="PARAM_MIX"
       style="display:inline;fill:#ff0000;fill-opacity:1;stroke-width:0.264583" />
    <circle
       id="uuid-cae7cb64-b9d2-4491-a6b2-1bbe8644b71e-6-9"
       display="inline"
       fill="#0000ff"
       cx="50.481918"
       cy="14.551684"
       r="1.3229166"
       inkscape:label="OUT_L"
       style="display:inline;stroke-width:0.264583" />
    <circle
       id="uuid-cae7cb64-b9d2-4491-a6b2-1bbe8644b71e-6-0-0-36"
       display="inline"
       fill="#0000ff"
       cx="50.482006"
       cy="83.879456"
       r="1.3229166"
       inkscape:label="INPUT_U3"
       style="display:inline;fill:#00ff00;fill-opacity:1;stroke-width:0.264583" />
    <circle
       id="uuid-cae7cb64-b9d2-4491-a6b2-1bbe8644b71e-6-0-0-9"
       display="inline"
       fill="#0000ff"
       cx="10.477841"
       cy="83.878525"
       r="1.3229166"
       inkscape:label="PARAM_LAYER"
       style="display:inline;fill:#ff0000;fill-opacity:1;stroke-width:0.264583" />
    <circle
       id="uuid-cae7cb64-b9d2-4491-a6b2-1bbe8644b71e-6-0-0-36-2"
       display="inline"
       fill="#0000ff"
       cx="10.477839"
       cy="118.85847"
       r="1.3229166"
       inkscape:label="PARAM_MODE"
       style="display:inline;fill:#ff0000;fill-opacity:1;stroke-width:0.264583" />
    <circle
       id="uuid-cae7cb64-b9d2-4491-a6b2-1bbe8644b71e-6-0-0-36-5"
       display="inline"
       fill="#0000ff"
       cx="23.878958"
       cy="83.879456"
       r="1.3229166"
       inkscape:label="INPUT_U1"
       style="display:inline;fill:#00ff00;fill-opacity:1;stroke-width:0.264583" />
    <circle
       id="uuid-cae7cb64-b9d2-4491-a6b2-1bbe8644b71e-6-0-0-36-5-5"
       display="inline"
       fill="#0000ff"
       cx="37.114906"
       cy="83.879456"
       r="1.3229166"
       inkscape:label="INPUT_U2"
       style="display:inline;fill:#00ff00;fill-opacity:1;stroke-width:0.264583" />
    <circle
       id="uuid-cae7cb64-b9d2-4491-a6b2-1bbe8644b71e-6-0-0-3-40"
       display="inline"
       fill="#0000ff"
       cx="30.480005"
       cy="118.85788"
       r="1.3229166"
       inkscape:label="INPUT_MIX"
       style="display:inline;fill:#00ff00;fill-opacity:1;stroke-width:0.264583" />
    <circle
       id="uuid-cae7cb64-b9d2-4491-a6b2-1bbe8644b71e-6-0-0-3-4-1"
       display="inline"
       fill="#0000ff"
       cx="23.87896"
       cy="52.509052"
       r="1.3229166"
       inkscape:label="LIGHT_DLY"
       style="display:inline;fill:#ff00ff;fill-opacity:1;stroke-width:0.264583" />
    <circle
       id="uuid-cae7cb64-b9d2-4491-a6b2-1bbe8644b71e-6-0-0-3-40-1"
       display="inline"
       fill="#0000ff"
       cx="10.477839"
       cy="101.35844"
       r="1.3229166"
       inkscape:label="INPUT_LAYER"
       style="display:inline;fill:#00ff00;fill-opacity:1;stroke-width:0.264583" />
    <circle
       id="uuid-cae7cb64-b9d2-4491-a6b2-1bbe8644b71e-6-0-0-3-4"
       display="inline"
       fill="#0000ff"
       cx="10.441934"
       cy="52.509052"
       r="1.3229166"
       inkscape:label="LIGHT_REV"
       style="display:inline;fill:#ff00ff;fill-opacity:1;stroke-width:0.264583" />
    <circle
       id="uuid-cae7cb64-b9d2-4491-a6b2-1bbe8644b71e-6-0-0-3-40-1-8"
       display="inline"
       fill="#0000ff"
       cx="50.482006"
       cy="101.35844"
       r="1.3229166"
       inkscape:label="INPUT_BLEND"
       style="display:inline;fill:#00ff00;fill-opacity:1;stroke-width:0.264583" />
    <circle
       id="uuid-cae7cb64-b9d2-4491-a6b2-1bbe8644b71e-6-0-0-3-4-1-9"
       display="inline"
       fill="#0000ff"
       cx="50.395298"
       cy="52.531277"
       r="1.3229166"
       inkscape:label="LIGHT_GLD"
       style="display:inline;fill:#ff00ff;fill-opacity:1;stroke-width:0.264583" />
    <circle
       id="uuid-cae7cb64-b9d2-4491-a6b2-1bbe8644b71e-6-0-0-3-4-1-6"
       display="inline"
       fill="#0000ff"
       cx="37.114902"
       cy="52.509052"
       r="1.3229166"
       inkscape:label="LIGHT_FZZ"
       style="display:inline;fill:#ff00ff;fill-opacity:1;stroke-width:0.264583" />
    <circle
       id="uuid-cae7cb64-b9d2-4491-a6b2-1bbe8644b71e-6-0-0-3-4-3"
       display="inline"
       fill="#0000ff"
       cx="10.44193"
       cy="64.43692"
       r="1.3229166"
       inkscape:label="LIGHT_GRN"
       style="display:inline;fill:#ff00ff;fill-opacity:1;stroke-width:0.264583" />
    <circle
       id="uuid-cae7cb64-b9d2-4491-a6b2-1bbe8644b71e-6-0-0-3-4-1-4"
       display="inline"
       fill="#0000ff"
       cx="23.878958"
       cy="64.43692"
       r="1.3229166"
       inkscape:label="LIGHT_FLD"
       style="display:inline;fill:#ff00ff;fill-opacity:1;stroke-width:0.264583" />
    <circle
       id="uuid-cae7cb64-b9d2-4491-a6b2-1bbe8644b71e-6-0-0-3-4-1-6-6"
       display="inline"
       fill="#0000ff"
       cx="37.114906"
       cy="64.43692"
       r="1.3229166"
       inkscape:label="LIGHT_WRP"
       style="display:inline;fill:#ff00ff;fill-opacity:1;stroke-width:0.264583" />
    <circle
       id="uuid-cae7cb64-b9d2-4491-a6b2-1bbe8644b71e-6-0-0-3-4-1-9-0"
       display="inline"
       fill="#0000ff"
       cx="50.395302"
       cy="64.459145"
       r="1.3229166"
       inkscape:label="LIGHT_SPC"
       style="display:inline;fill:#ff00ff;fill-opacity:1;stroke-width:0.264583" />
  </g>
</svg>
