<?xml version="1.0" encoding="UTF-8" standalone="no"?>
<!-- Created with Inkscape (http://www.inkscape.org/) -->

<svg
   width="40.639999mm"
   height="128.5mm"
   viewBox="0 0 40.64 128.5"
   version="1.1"
   id="svg1"
   inkscape:version="1.3.2 (091e20e, 2023-11-25)"
   sodipodi:docname="glcv.svg"
   xmlns:inkscape="http://www.inkscape.org/namespaces/inkscape"
   xmlns:sodipodi="http://sodipodi.sourceforge.net/DTD/sodipodi-0.dtd"
   xmlns="http://www.w3.org/2000/svg"
   xmlns:svg="http://www.w3.org/2000/svg">
  <sodipodi:namedview
     id="namedview1"
     pagecolor="#ffffff"
     bordercolor="#000000"
     borderopacity="0.25"
     inkscape:showpageshadow="2"
     inkscape:pageopacity="0.0"
     inkscape:pagecheckerboard="0"
     inkscape:deskcolor="#d1d1d1"
     inkscape:document-units="mm"
     inkscape:zoom="1.0719926"
     inkscape:cx="-38.246531"
     inkscape:cy="433.77164"
     inkscape:window-width="1264"
     inkscape:window-height="707"
     inkscape:window-x="56"
     inkscape:window-y="120"
     inkscape:window-maximized="0"
     inkscape:current-layer="svg1" />
  <defs
     id="defs1" />
  <rect
     style="fill:#e0e0e0;fill-opacity:1;stroke:none;stroke-width:1.33472;stroke-opacity:1"
     id="rect2"
     width="40.639999"
     height="128.5"
     x="-2.6645353e-15"
     y="0" />
  <path
     id="rect26-7"
     fill="#1f1f1f"
     d="m 6.0668857,106.40229 h 8.8219073 c 0.601466,0 1.089046,0.48425 1.089046,1.08167 v 12.7784 c 0,0.59741 -0.48758,1.08166 -1.089046,1.08166 H 6.0668857 c -0.6014666,0 -1.0890469,-0.48425 -1.0890469,-1.08166 v -12.7784 c 0,-0.59742 0.4875803,-1.08167 1.0890469,-1.08167 z"
     style="display:inline;stroke-width:0.382891" />
  <rect
     style="fill:#000000;fill-opacity:1;stroke:none;stroke-width:1.74642;stroke-linecap:round;stroke-linejoin:round;stroke-dasharray:none;stroke-opacity:1"
     id="rect6-2-6"
     width="0.2"
     height="13.740685"
     x="10.377839"
     y="86.798988" />
  <g
     id="g4"
     transform="translate(1.0505224,-2.5566976)">
    <circle
       id="uuid-cae7cb64-b9d2-4491-a6b2-1bbe8644b71e-6-0-0-9-0"
       display="inline"
       fill="#0000ff"
       cx="9.4273167"
       cy="81.756248"
       r="4.3757935"
       inkscape:label="PARAM_TIME"
       style="display:inline;fill:none;fill-opacity:1;stroke:#000000;stroke-width:0.248413;stroke-dasharray:none;stroke-opacity:1" />
    <path
       sodipodi:type="star"
       style="fill:#000000;stroke-width:4.47;stroke-linecap:round;stroke-linejoin:round"
       id="path1"
       inkscape:flatsided="false"
       sodipodi:sides="3"
       sodipodi:cx="5.9720817"
       sodipodi:cy="86.380501"
       sodipodi:r1="0.58027047"
       sodipodi:r2="0.29013523"
       sodipodi:arg1="0.73781506"
       sodipodi:arg2="1.7850126"
       inkscape:rounded="0"
       inkscape:randomized="0"
       d="M 6.401447,86.770833 5.9104042,86.664004 5.4193614,86.557176 5.757399,86.185335 l 0.3380375,-0.371842 0.1530053,0.47867 z"
       inkscape:transform-center-x="0.022141576"
       inkscape:transform-center-y="-0.12547079"
       transform="rotate(-7.8970025,-8.2947838,102.47548)" />
    <path
       sodipodi:type="star"
       style="fill:#000000;stroke-width:4.47;stroke-linecap:round;stroke-linejoin:round"
       id="path1-9"
       inkscape:flatsided="false"
       sodipodi:sides="3"
       sodipodi:cx="5.9720817"
       sodipodi:cy="86.380501"
       sodipodi:r1="0.58027047"
       sodipodi:r2="0.29013523"
       sodipodi:arg1="0.73781506"
       sodipodi:arg2="1.7850126"
       inkscape:rounded="0"
       inkscape:randomized="0"
       d="M 6.401447,86.770833 5.9104042,86.664004 5.4193614,86.557176 5.757399,86.185335 l 0.3380375,-0.371842 0.1530053,0.47867 z"
       inkscape:transform-center-x="0.11418628"
       inkscape:transform-center-y="0.03447111"
       transform="rotate(24.549862,16.767886,77.033455)" />
    <path
       sodipodi:type="star"
       style="fill:#000000;stroke-width:4.47;stroke-linecap:round;stroke-linejoin:round"
       id="path1-8"
       inkscape:flatsided="false"
       sodipodi:sides="3"
       sodipodi:cx="5.9720817"
       sodipodi:cy="86.380501"
       sodipodi:r1="0.58027047"
       sodipodi:r2="0.29013523"
       sodipodi:arg1="0.73781506"
       sodipodi:arg2="1.7850126"
       inkscape:rounded="0"
       inkscape:randomized="0"
       d="M 6.401447,86.770833 5.9104042,86.664004 5.4193614,86.557176 5.757399,86.185335 l 0.3380375,-0.371842 0.1530053,0.47867 z"
       inkscape:transform-center-x="-0.047859823"
       inkscape:transform-center-y="0.10163236"
       transform="rotate(57.220842,13.120052,80.675622)" />
    <path
       sodipodi:type="star"
       style="fill:#000000;stroke-width:4.47;stroke-linecap:round;stroke-linejoin:round"
       id="path1-9-1"
       inkscape:flatsided="false"
       sodipodi:sides="3"
       sodipodi:cx="5.9720817"
       sodipodi:cy="86.380501"
       sodipodi:r1="0.58027047"
       sodipodi:r2="0.29013523"
       sodipodi:arg1="0.73781506"
       sodipodi:arg2="1.7850126"
       inkscape:rounded="0"
       inkscape:randomized="0"
       d="M 6.401447,86.770833 5.9104042,86.664004 5.4193614,86.557176 5.757399,86.185335 l 0.3380375,-0.371842 0.1530053,0.47867 z"
       inkscape:transform-center-x="-0.089939348"
       inkscape:transform-center-y="-0.060031288"
       transform="rotate(89.667707,12.032294,81.796831)" />
    <path
       sodipodi:type="star"
       style="fill:#000000;stroke-width:4.47;stroke-linecap:round;stroke-linejoin:round"
       id="path1-3"
       inkscape:flatsided="false"
       sodipodi:sides="3"
       sodipodi:cx="5.9720817"
       sodipodi:cy="86.380501"
       sodipodi:r1="0.58027047"
       sodipodi:r2="0.29013523"
       sodipodi:arg1="0.73781506"
       sodipodi:arg2="1.7850126"
       inkscape:rounded="0"
       inkscape:randomized="0"
       d="M 6.401447,86.770833 5.9104042,86.664004 5.4193614,86.557176 5.757399,86.185335 l 0.3380375,-0.371842 0.1530053,0.47867 z"
       inkscape:transform-center-x="0.097305646"
       inkscape:transform-center-y="-0.052392356"
       transform="rotate(127.32273,11.380374,82.417503)" />
    <path
       sodipodi:type="star"
       style="fill:#000000;stroke-width:4.47;stroke-linecap:round;stroke-linejoin:round"
       id="path1-9-2"
       inkscape:flatsided="false"
       sodipodi:sides="3"
       sodipodi:cx="5.9720817"
       sodipodi:cy="86.380501"
       sodipodi:r1="0.58027047"
       sodipodi:r2="0.29013523"
       sodipodi:arg1="0.73781506"
       sodipodi:arg2="1.7850126"
       inkscape:rounded="0"
       inkscape:randomized="0"
       d="M 6.401447,86.770833 5.9104042,86.664004 5.4193614,86.557176 5.757399,86.185335 l 0.3380375,-0.371842 0.1530053,0.47867 z"
       inkscape:transform-center-x="0.04016288"
       inkscape:transform-center-y="0.10889224"
       transform="rotate(159.76959,10.995175,82.913575)" />
    <path
       sodipodi:type="star"
       style="fill:#000000;stroke-width:4.47;stroke-linecap:round;stroke-linejoin:round"
       id="path1-8-6"
       inkscape:flatsided="false"
       sodipodi:sides="3"
       sodipodi:cx="5.9720817"
       sodipodi:cy="86.380501"
       sodipodi:r1="0.58027047"
       sodipodi:r2="0.29013523"
       sodipodi:arg1="0.73781506"
       sodipodi:arg2="1.7850126"
       inkscape:rounded="0"
       inkscape:randomized="0"
       d="M 6.401447,86.770833 5.9104042,86.664004 5.4193614,86.557176 5.757399,86.185335 l 0.3380375,-0.371842 0.1530053,0.47867 z"
       inkscape:transform-center-x="-0.12130406"
       inkscape:transform-center-y="0.026728557"
       transform="rotate(-167.55943,10.600223,83.275825)" />
    <path
       sodipodi:type="star"
       style="fill:#000000;stroke-width:4.47;stroke-linecap:round;stroke-linejoin:round"
       id="path1-9-1-9"
       inkscape:flatsided="false"
       sodipodi:sides="3"
       sodipodi:cx="5.9720817"
       sodipodi:cy="86.380501"
       sodipodi:r1="0.58027047"
       sodipodi:r2="0.29013523"
       sodipodi:arg1="0.73781506"
       sodipodi:arg2="1.7850126"
       inkscape:rounded="0"
       inkscape:randomized="0"
       d="M 6.401447,86.770833 5.9104042,86.664004 5.4193614,86.557176 5.757399,86.185335 l 0.3380375,-0.371842 0.1530053,0.47867 z"
       inkscape:transform-center-x="-0.014366239"
       inkscape:transform-center-y="-0.13244525"
       transform="rotate(-135.11256,10.256568,83.290635)" />
  </g>
  <rect
     style="fill:#000000;fill-opacity:1;stroke:none;stroke-width:1.47986;stroke-linecap:round;stroke-linejoin:round;stroke-dasharray:none;stroke-opacity:1"
     id="rect6-2-6-7-5"
     width="0.2"
     height="9.8661995"
     x="-93.1688"
     y="12.76"
     transform="rotate(-90)" />
  <path
     id="rect26-7-9"
     fill="#1f1f1f"
     d="m 25.751207,85.597932 h 8.821904 c 0.60147,0 1.08905,0.48425 1.08905,1.08167 V 99.45801 c 0,0.59741 -0.48758,1.08166 -1.08905,1.08166 h -8.821904 c -0.60146,0 -1.08904,-0.48425 -1.08904,-1.08166 V 86.679602 c 0,-0.59742 0.48758,-1.08167 1.08904,-1.08167 z"
     style="display:inline;stroke-width:0.382891" />
  <path
     id="rect26-7-9-1"
     fill="#1f1f1f"
     d="m 25.751207,23.224426 h 8.821904 c 0.60147,0 1.08905,0.48425 1.08905,1.08167 v 12.778408 c 0,0.59741 -0.48758,1.08166 -1.08905,1.08166 h -8.821904 c -0.60146,0 -1.08904,-0.48425 -1.08904,-1.08166 V 24.306096 c 0,-0.59742 0.48758,-1.08167 1.08904,-1.08167 z"
     style="display:inline;stroke-width:0.382891" />
  <path
     id="rect26-7-5"
     fill="#1f1f1f"
     d="m 6.0668857,44.028784 h 8.8219073 c 0.601466,0 1.089046,0.48425 1.089046,1.08167 v 12.7784 c 0,0.59741 -0.48758,1.08166 -1.089046,1.08166 H 6.0668857 c -0.6014666,0 -1.0890469,-0.48425 -1.0890469,-1.08166 v -12.7784 c 0,-0.59742 0.4875803,-1.08167 1.0890469,-1.08167 z"
     style="display:inline;stroke-width:0.382891" />
  <path
     d="m 27.374775,25.954205 q 0,0.0952 0.03598,0.17568 0.03598,0.0804 0.09737,0.1397 0.06138,0.0593 0.141817,0.0931 0.08255,0.0318 0.173566,0.0318 0.09102,0 0.171451,-0.0318 0.08255,-0.0339 0.143933,-0.0931 0.0635,-0.0593 0.09948,-0.1397 0.03598,-0.0804 0.03598,-0.17568 0,-0.0953 -0.03598,-0.17569 -0.03598,-0.0804 -0.09948,-0.1397 -0.06138,-0.0593 -0.143933,-0.091 -0.08043,-0.0339 -0.171451,-0.0339 -0.09102,0 -0.173566,0.0339 -0.08043,0.0318 -0.141817,0.091 -0.06138,0.0593 -0.09737,0.1397 -0.03598,0.0804 -0.03598,0.17569 z m -0.433918,0 q 0,-0.1778 0.06562,-0.3302 0.06562,-0.15452 0.182034,-0.26882 0.116417,-0.1143 0.277284,-0.1778 0.162983,-0.0656 0.357717,-0.0656 0.192617,0 0.355601,0.0656 0.162983,0.0635 0.2794,0.1778 0.118534,0.1143 0.18415,0.26882 0.06562,0.1524 0.06562,0.3302 0,0.1778 -0.06562,0.33231 -0.06562,0.1524 -0.18415,0.2667 -0.116417,0.1143 -0.2794,0.17992 -0.162984,0.0635 -0.355601,0.0635 -0.194734,0 -0.357717,-0.0635 -0.160867,-0.0656 -0.277284,-0.17992 -0.116417,-0.1143 -0.182034,-0.2667 -0.06562,-0.15451 -0.06562,-0.33231 z m 2.450045,-0.79799 v 0.86784 q 0,0.0699 0.0042,0.14393 0.0063,0.072 0.03175,0.13123 0.02752,0.0593 0.08467,0.0974 0.05715,0.036 0.160867,0.036 0.103717,0 0.15875,-0.036 0.05715,-0.0381 0.08467,-0.0974 0.02752,-0.0593 0.03175,-0.13123 0.0063,-0.0741 0.0063,-0.14393 v -0.86784 h 0.41275 v 0.92499 q 0,0.37253 -0.17145,0.54398 -0.169333,0.17145 -0.522817,0.17145 -0.353484,0 -0.524934,-0.17145 -0.171451,-0.17145 -0.171451,-0.54398 v -0.92499 z m 1.920879,0.35137 v 1.2446 h -0.414868 v -1.2446 H 30.55613 v -0.35137 h 1.096435 v 0.35137 z m 1.656824,0 h -0.232834 v -0.35137 h 0.647701 v 1.59597 h -0.414867 z"
     id="text3-8"
     style="font-weight:bold;font-size:2.11667px;line-height:0.1;font-family:Futura;-inkscape-font-specification:'Futura Bold';letter-spacing:0.00529167px;word-spacing:0.0079375px;fill:#ffffff;stroke-width:2.97"
     aria-label="OUT 1" />
  <path
     d="m 7.506296,46.758554 q 0,0.0953 0.036,0.17568 0.036,0.0804 0.0974,0.1397 0.0614,0.0593 0.14181,0.0931 0.0825,0.0318 0.17357,0.0318 0.091,0 0.17145,-0.0318 0.0825,-0.0339 0.14393,-0.0931 0.0635,-0.0593 0.0995,-0.1397 0.036,-0.0804 0.036,-0.17568 0,-0.0952 -0.036,-0.17568 -0.036,-0.0804 -0.0995,-0.1397 -0.0614,-0.0593 -0.14393,-0.091 -0.0804,-0.0339 -0.17145,-0.0339 -0.091,0 -0.17357,0.0339 -0.0804,0.0317 -0.14181,0.091 -0.0614,0.0593 -0.0974,0.1397 -0.036,0.0804 -0.036,0.17568 z m -0.43391,0 q 0,-0.1778 0.0656,-0.3302 0.0656,-0.15452 0.18204,-0.26882 0.11641,-0.1143 0.27728,-0.1778 0.16299,-0.0656 0.35772,-0.0656 0.19262,0 0.3556,0.0656 0.16298,0.0635 0.2794,0.1778 0.11853,0.1143 0.18415,0.26882 0.0656,0.1524 0.0656,0.3302 0,0.1778 -0.0656,0.33232 -0.0656,0.1524 -0.18415,0.2667 -0.11642,0.1143 -0.2794,0.17991 -0.16298,0.0635 -0.3556,0.0635 -0.19473,0 -0.35772,-0.0635 -0.16087,-0.0656 -0.27728,-0.17991 -0.11642,-0.1143 -0.18204,-0.2667 -0.0656,-0.15452 -0.0656,-0.33232 z m 2.45004,-0.79799 v 0.86784 q 0,0.0699 0.004,0.14393 0.006,0.072 0.0317,0.13124 0.0275,0.0593 0.0847,0.0974 0.0571,0.036 0.16087,0.036 0.10372,0 0.15875,-0.036 0.0572,-0.0381 0.0847,-0.0974 0.0275,-0.0593 0.0318,-0.13124 0.006,-0.0741 0.006,-0.14393 v -0.86784 h 0.41275 v 0.92499 q 0,0.37253 -0.17145,0.54398 -0.16934,0.17145 -0.52282,0.17145 -0.35349,0 -0.52494,-0.17145 -0.17145,-0.17145 -0.17145,-0.54398 v -0.92499 z m 1.92088,0.35137 v 1.2446 h -0.41487 v -1.2446 h -0.34078 v -0.35137 h 1.09643 v 0.35137 z m 2.439987,1.2446 h -1.28482 l 0.39582,-0.41063 q 0.15663,-0.16298 0.24554,-0.27517 0.0889,-0.1143 0.13123,-0.19261 0.0445,-0.0783 0.055,-0.127 0.0106,-0.0487 0.0106,-0.0825 0,-0.036 -0.0127,-0.0699 -0.0106,-0.0339 -0.0339,-0.0593 -0.0233,-0.0275 -0.0572,-0.0423 -0.0318,-0.0169 -0.0762,-0.0169 -0.0847,0 -0.13335,0.055 -0.0466,0.055 -0.0466,0.13759 0,0.0233 0.006,0.0677 h -0.45297 q 0,-0.1397 0.0445,-0.254 0.0466,-0.1143 0.12912,-0.19685 0.0825,-0.0825 0.19473,-0.127 0.1143,-0.0444 0.24977,-0.0444 0.13335,0 0.24554,0.0423 0.1143,0.0423 0.19685,0.11854 0.0825,0.0762 0.12911,0.18203 0.0466,0.10372 0.0466,0.22649 0,0.13123 -0.0572,0.24341 -0.055,0.11007 -0.1778,0.22649 l -0.26458,0.24765 h 0.51646 z"
     id="text2-4"
     style="font-weight:bold;font-size:2.11667px;line-height:0.1;font-family:Futura;-inkscape-font-specification:'Futura Bold';letter-spacing:0.00529167px;word-spacing:0.0079375px;fill:#ffffff;stroke-width:4.47;stroke-linecap:round;stroke-linejoin:round"
     aria-label="OUT 2" />
  <path
     d="M 9.642814,7.5560249 Q 9.4988804,7.3803413 9.2872134,7.3803413 q -0.093133,0 -0.1735669,0.033867 -0.078317,0.033867 -0.1354669,0.093133 -0.05715,0.05715 -0.091017,0.1375836 -0.03175,0.080433 -0.03175,0.1735669 0,0.09525 0.03175,0.1756836 0.033867,0.080433 0.091017,0.1397002 0.059267,0.059267 0.1375836,0.093134 0.078317,0.033867 0.1693336,0.033867 0.1989669,0 0.3577172,-0.1693336 v 0.4910674 l -0.042333,0.014817 q -0.09525,0.033867 -0.1778003,0.048683 -0.08255,0.016933 -0.1629836,0.016933 -0.1651002,0 -0.3175005,-0.061383 Q 8.7919127,8.5381598 8.6754958,8.4259763 8.5611957,8.3116761 8.4913456,8.1571592 q -0.06985,-0.1566336 -0.06985,-0.3407839 0,-0.1841503 0.067733,-0.3365505 0.06985,-0.1545169 0.1841503,-0.2645837 0.1164168,-0.1121835 0.268817,-0.173567 0.1524003,-0.0635 0.3196172,-0.0635 0.09525,0 0.186267,0.021167 0.093133,0.01905 0.1947336,0.061383 z M 10.32544,7.0226241 V 8.267226 h 0.497417 V 8.6185932 H 9.9105723 V 7.0226241 Z m 1.131359,0.6582844 0.505884,-0.6582844 h 0.512234 l -0.632884,0.7556512 0.692151,0.8403179 H 11.99655 l -0.539751,-0.692151 v 0.692151 H 11.041932 V 7.0226241 h 0.414867 z"
     id="text6"
     style="font-weight:bold;font-size:2.11667px;line-height:0.1;font-family:Futura;-inkscape-font-specification:'Futura Bold';letter-spacing:0.00529167px;word-spacing:0.0079375px;stroke-width:1.058;stroke-linecap:square;stroke-linejoin:round"
     aria-label="CLK" />
  <path
     d="m 4.5961445,25.404934 v 1.244602 H 4.1812772 V 25.404934 H 3.8404934 v -0.351367 h 1.096435 v 0.351367 z m 0.945094,-0.351367 v 1.595969 H 5.1263712 v -1.595969 z m 0.2677588,1.595969 0.2709337,-1.595969 h 0.410634 l 0.3196171,0.850901 0.3175005,-0.850901 h 0.410634 l 0.2709337,1.595969 H 7.3964997 L 7.2589162,25.730901 6.8821489,26.649536 H 6.7170487 L 6.3593315,25.730901 6.2217479,26.649536 Z M 8.98506,25.404934 H 8.4918759 v 0.266701 h 0.4656674 v 0.351367 H 8.4918759 v 0.275167 H 8.98506 v 0.351367 H 8.0770086 V 25.053567 H 8.98506 Z M 9.9894193,24.8927 H 10.292103 L 9.4200351,27.01572 H 9.119468 Z m 1.3091587,0.569384 q -0.06773,-0.05503 -0.135467,-0.08043 -0.06773,-0.02752 -0.131234,-0.02752 -0.08043,0 -0.131233,0.0381 -0.0508,0.0381 -0.0508,0.09948 0,0.04233 0.0254,0.06985 0.0254,0.02752 0.06562,0.04868 0.04233,0.01905 0.09313,0.03387 0.05292,0.01482 0.103717,0.03175 0.2032,0.06773 0.296334,0.182034 0.09525,0.112183 0.09525,0.294217 0,0.122767 -0.04233,0.22225 -0.04022,0.09948 -0.12065,0.17145 -0.07832,0.06985 -0.194733,0.10795 -0.114301,0.04022 -0.260351,0.04022 -0.302684,0 -0.560917,-0.179917 l 0.1778,-0.334434 q 0.09313,0.08255 0.18415,0.122767 0.09102,0.04022 0.179917,0.04022 0.1016,0 0.150284,-0.04657 0.0508,-0.04657 0.0508,-0.105833 0,-0.03598 -0.0127,-0.06138 -0.0127,-0.02752 -0.04233,-0.04868 -0.02963,-0.02328 -0.07832,-0.04233 -0.04657,-0.01905 -0.114301,-0.04233 -0.08043,-0.0254 -0.15875,-0.05503 -0.0762,-0.03175 -0.137583,-0.08255 -0.05927,-0.0508 -0.09737,-0.127001 -0.03598,-0.07832 -0.03598,-0.19685 0,-0.118533 0.0381,-0.213784 0.04022,-0.09737 0.110067,-0.1651 0.07197,-0.06985 0.173567,-0.10795 0.103717,-0.0381 0.230717,-0.0381 0.118534,0 0.247651,0.03387 0.129116,0.03175 0.24765,0.09525 z m 0.911226,0.323851 h 0.137583 q 0.228601,0 0.228601,-0.198967 0,-0.198967 -0.228601,-0.198967 h -0.137583 z m 0,0.863601 h -0.414867 v -1.595969 h 0.660401 q 0.268817,0 0.410634,0.1397 0.143933,0.1397 0.143933,0.393701 0,0.254 -0.143933,0.3937 -0.141817,0.139701 -0.410634,0.139701 h -0.245534 z m 1.804461,-0.592667 -0.186267,-0.531285 -0.186267,0.531285 z m 0.110066,0.315383 h -0.592667 l -0.09525,0.277284 H 12.99403 l 0.607484,-1.595969 h 0.452967 l 0.607485,1.595969 h -0.442384 z m 1.815044,-0.785284 q -0.143933,-0.175684 -0.3556,-0.175684 -0.09313,0 -0.173567,0.03387 -0.07832,0.03387 -0.135467,0.09313 -0.05715,0.05715 -0.09102,0.137584 -0.03175,0.08043 -0.03175,0.173567 0,0.09525 0.03175,0.175684 0.03387,0.08043 0.09102,0.1397 0.05927,0.05927 0.137584,0.09313 0.07832,0.03387 0.169333,0.03387 0.198967,0 0.357717,-0.169334 v 0.491068 l -0.04233,0.01482 q -0.09525,0.03387 -0.1778,0.04868 -0.08255,0.01693 -0.162984,0.01693 -0.1651,0 -0.3175,-0.06138 -0.150284,-0.0635 -0.266701,-0.175684 -0.1143,-0.1143 -0.18415,-0.268817 -0.06985,-0.156633 -0.06985,-0.340784 0,-0.18415 0.06773,-0.33655 0.06985,-0.154517 0.184151,-0.264584 0.116416,-0.112184 0.268817,-0.173567 0.1524,-0.0635 0.319617,-0.0635 0.09525,0 0.186267,0.02117 0.09313,0.01905 0.194733,0.06138 z m 1.175811,-0.182034 h -0.493185 v 0.266701 h 0.465668 v 0.351367 h -0.465668 v 0.275167 h 0.493185 v 0.351367 h -0.908052 v -1.595969 h 0.908052 z"
     id="text6-5"
     style="font-weight:bold;font-size:2.11667px;line-height:0.1;font-family:Futura;-inkscape-font-specification:'Futura Bold';letter-spacing:0.00529167px;word-spacing:0.0079375px;stroke-width:1.058;stroke-linecap:square;stroke-linejoin:round"
     aria-label="TIME/SPACE" />
  <path
     d="m 28.65933,7.7359419 h 0.07832 q 0.122767,0 0.188383,-0.0508 0.06562,-0.0508 0.06562,-0.1460502 0,-0.09525 -0.06562,-0.1460503 -0.06562,-0.0508 -0.188383,-0.0508 h -0.07832 z m 0.912285,0.8826513 H 29.055147 L 28.65933,8.0047589 V 8.6185932 H 28.244463 V 7.0226241 h 0.645584 q 0.13335,0 0.232834,0.040217 0.09948,0.0381 0.162983,0.1058335 0.06562,0.067734 0.09737,0.1566336 0.03387,0.0889 0.03387,0.1905003 0,0.1820336 -0.0889,0.2963338 -0.08678,0.1121835 -0.258234,0.1524002 z m 1.055159,-1.1874518 q -0.06773,-0.055033 -0.135467,-0.080433 -0.06773,-0.027517 -0.131234,-0.027517 -0.08043,0 -0.131233,0.0381 -0.0508,0.0381 -0.0508,0.099483 0,0.042333 0.0254,0.06985 0.0254,0.027517 0.06562,0.048683 0.04233,0.01905 0.09313,0.033867 0.05292,0.014817 0.103717,0.03175 0.2032,0.067733 0.296334,0.1820336 0.09525,0.1121835 0.09525,0.2942171 0,0.1227668 -0.04233,0.2222503 -0.04022,0.099483 -0.120651,0.1714503 -0.07832,0.06985 -0.194733,0.1079502 -0.1143,0.040217 -0.260351,0.040217 -0.302683,0 -0.560917,-0.179917 l 0.1778,-0.3344338 q 0.09313,0.08255 0.18415,0.1227669 0.09102,0.040217 0.179917,0.040217 0.1016,0 0.150284,-0.046567 0.0508,-0.046567 0.0508,-0.1058335 0,-0.035983 -0.0127,-0.061383 -0.0127,-0.027517 -0.04233,-0.048683 -0.02963,-0.023283 -0.07832,-0.042333 -0.04657,-0.01905 -0.1143,-0.042333 -0.08043,-0.0254 -0.158751,-0.055033 -0.0762,-0.03175 -0.137583,-0.08255 -0.05927,-0.0508 -0.09737,-0.1270002 -0.03598,-0.078317 -0.03598,-0.1968503 0,-0.1185335 0.0381,-0.2137837 0.04022,-0.097367 0.110066,-0.1651002 0.07197,-0.06985 0.173567,-0.1079502 0.103717,-0.0381 0.230717,-0.0381 0.118534,0 0.247651,0.033867 0.129117,0.03175 0.24765,0.09525 z m 1.112308,-0.05715 V 8.6185932 H 31.324215 V 7.3739913 H 30.983431 V 7.0226241 h 1.096435 v 0.3513672 z"
     id="text6-7"
     style="font-weight:bold;font-size:2.11667px;line-height:0.1;font-family:Futura;-inkscape-font-specification:'Futura Bold';letter-spacing:0.00529167px;word-spacing:0.0079375px;stroke-width:1.058;stroke-linecap:square;stroke-linejoin:round"
     aria-label="RST" />
  <path
     d="m 6.7489831,69.287042 q -0.191911,-0.234244 -0.474133,-0.234244 -0.1241776,0 -0.231422,0.04516 -0.1044221,0.04516 -0.1806221,0.124178 -0.0762,0.0762 -0.1213555,0.183444 -0.042333,0.107245 -0.042333,0.231422 0,0.127 0.042333,0.234244 0.045156,0.107245 0.1213555,0.186267 0.079022,0.07902 0.1834443,0.124178 0.1044222,0.04515 0.2257776,0.04515 0.2652887,0 0.4769552,-0.225777 v 0.654755 l -0.056444,0.01976 q -0.1269999,0.04516 -0.2370665,0.06491 -0.1100666,0.02258 -0.2173109,0.02258 -0.2201332,0 -0.423333,-0.08184 -0.2003777,-0.08467 -0.3555998,-0.234245 -0.1523998,-0.1524 -0.2455331,-0.358422 -0.093133,-0.208844 -0.093133,-0.454377 0,-0.245533 0.090311,-0.448733 0.093133,-0.206022 0.2455331,-0.352778 0.1552221,-0.149577 0.358422,-0.231422 0.2031998,-0.08467 0.4261552,-0.08467 0.1269999,0 0.2483554,0.02822 0.1241777,0.0254 0.2596442,0.08184 z m 0.9987115,0.110066 H 8.5463829 V 68.575842 H 9.099538 v 2.127954 H 8.5463829 v -0.87771 H 7.7476946 v 0.87771 H 7.1945395 v -2.127954 h 0.5531551 z m 2.9601564,0.516467 -0.248355,-0.708377 -0.248356,0.708377 z m 0.146756,0.420511 h -0.790222 l -0.127,0.36971 H 9.347541 l 0.809977,-2.127954 h 0.603955 l 0.809977,2.127954 h -0.589844 z m 1.371245,-0.694267 q 0,0.127 0.04798,0.234245 0.04798,0.107244 0.129822,0.186266 0.08184,0.07902 0.189089,0.124178 0.110067,0.04233 0.231422,0.04233 0.121356,0 0.2286,-0.04233 0.110067,-0.04516 0.191911,-0.124178 0.08467,-0.07902 0.132644,-0.186266 0.04798,-0.107245 0.04798,-0.234245 0,-0.126999 -0.04798,-0.234244 -0.04798,-0.107244 -0.132644,-0.186266 -0.08184,-0.07902 -0.191911,-0.121356 -0.107244,-0.04516 -0.2286,-0.04516 -0.121355,0 -0.231422,0.04516 -0.107244,0.04233 -0.189089,0.121356 -0.08184,0.07902 -0.129822,0.186266 -0.04798,0.107245 -0.04798,0.234244 z m -0.578556,0 q 0,-0.237066 0.08749,-0.440266 0.08749,-0.206022 0.242711,-0.358422 0.155222,-0.1524 0.369711,-0.237066 0.217311,-0.08749 0.476955,-0.08749 0.256822,0 0.474133,0.08749 0.217311,0.08467 0.372533,0.237066 0.158045,0.1524 0.245533,0.358422 0.08749,0.2032 0.08749,0.440266 0,0.237067 -0.08749,0.443089 -0.08749,0.2032 -0.245533,0.3556 -0.155222,0.1524 -0.372533,0.239888 -0.217311,0.08467 -0.474133,0.08467 -0.259644,0 -0.476955,-0.08467 -0.214489,-0.08749 -0.369711,-0.239888 -0.155222,-0.1524 -0.242711,-0.3556 -0.08749,-0.206022 -0.08749,-0.443089 z m 3.880198,-0.519288 q -0.09031,-0.07338 -0.180622,-0.107244 -0.09031,-0.03669 -0.174978,-0.03669 -0.107244,0 -0.174977,0.0508 -0.06773,0.0508 -0.06773,0.132644 0,0.05644 0.03387,0.09313 0.03387,0.03669 0.08749,0.06491 0.05644,0.0254 0.124177,0.04516 0.07056,0.01976 0.138289,0.04233 0.270933,0.09031 0.395111,0.242711 0.127,0.149578 0.127,0.392289 0,0.163688 -0.05645,0.296333 -0.05362,0.132644 -0.160866,0.2286 -0.104422,0.09313 -0.259644,0.143933 -0.1524,0.05362 -0.347133,0.05362 -0.403578,0 -0.747889,-0.239889 l 0.237067,-0.44591 q 0.124177,0.110066 0.245533,0.163688 0.121355,0.05362 0.239889,0.05362 0.135466,0 0.200377,-0.06209 0.06773,-0.06209 0.06773,-0.141111 0,-0.04798 -0.01693,-0.08185 -0.01693,-0.03669 -0.05644,-0.06491 -0.03951,-0.03104 -0.104422,-0.05644 -0.06209,-0.0254 -0.1524,-0.05645 -0.107245,-0.03387 -0.211667,-0.07338 -0.1016,-0.04233 -0.183444,-0.110067 -0.07902,-0.06773 -0.129822,-0.169333 -0.04798,-0.104422 -0.04798,-0.262467 0,-0.158044 0.0508,-0.285044 0.05362,-0.129822 0.146756,-0.220133 0.09596,-0.09313 0.231422,-0.143933 0.138288,-0.0508 0.307622,-0.0508 0.158044,0 0.330199,0.04515 0.172156,0.04233 0.3302,0.127 z"
     id="text4"
     style="font-weight:bold;font-size:2.82222px;line-height:0.1;font-family:Futura;-inkscape-font-specification:'Futura Bold';letter-spacing:0.00529167px;word-spacing:0.0079375px;stroke-width:1.058;stroke-linecap:square;stroke-linejoin:round"
     aria-label="CHAOS" />
  <path
     sodipodi:type="star"
     style="display:inline;fill:#000000;stroke-width:4.47;stroke-linecap:round;stroke-linejoin:round"
     id="path1-4"
     inkscape:flatsided="false"
     sodipodi:sides="3"
     sodipodi:cx="5.9720817"
     sodipodi:cy="86.380501"
     sodipodi:r1="0.58027047"
     sodipodi:r2="0.29013523"
     sodipodi:arg1="0.73781506"
     sodipodi:arg2="1.7850126"
     inkscape:rounded="0"
     inkscape:randomized="0"
     d="M 6.401447,86.770833 5.9104042,86.664004 5.4193614,86.557176 5.757399,86.185335 l 0.3380375,-0.371842 0.1530053,0.47867 z"
     inkscape:transform-center-x="0.022141576"
     inkscape:transform-center-y="-0.12547079"
     transform="rotate(-7.8970024,257.11851,-30.121368)" />
  <path
     sodipodi:type="star"
     style="display:inline;fill:#000000;stroke-width:4.47;stroke-linecap:round;stroke-linejoin:round"
     id="path1-9-9"
     inkscape:flatsided="false"
     sodipodi:sides="3"
     sodipodi:cx="5.9720817"
     sodipodi:cy="86.380501"
     sodipodi:r1="0.58027047"
     sodipodi:r2="0.29013523"
     sodipodi:arg1="0.73781506"
     sodipodi:arg2="1.7850126"
     inkscape:rounded="0"
     inkscape:randomized="0"
     d="M 6.401447,86.770833 5.9104042,86.664004 5.4193614,86.557176 5.757399,86.185335 l 0.3380375,-0.371842 0.1530053,0.47867 z"
     inkscape:transform-center-x="0.11418628"
     inkscape:transform-center-y="0.03447111"
     transform="rotate(24.549863,-53.774901,142.2871)" />
  <path
     sodipodi:type="star"
     style="display:inline;fill:#000000;stroke-width:4.47;stroke-linecap:round;stroke-linejoin:round"
     id="path1-8-5"
     inkscape:flatsided="false"
     sodipodi:sides="3"
     sodipodi:cx="5.9720817"
     sodipodi:cy="86.380501"
     sodipodi:r1="0.58027047"
     sodipodi:r2="0.29013523"
     sodipodi:arg1="0.73781506"
     sodipodi:arg2="1.7850126"
     inkscape:rounded="0"
     inkscape:randomized="0"
     d="M 6.401447,86.770833 5.9104042,86.664004 5.4193614,86.557176 5.757399,86.185335 l 0.3380375,-0.371842 0.1530053,0.47867 z"
     inkscape:transform-center-x="-0.047859823"
     inkscape:transform-center-y="0.10163236"
     transform="rotate(57.220842,-8.7869382,117.28679)" />
  <path
     sodipodi:type="star"
     style="display:inline;fill:#000000;stroke-width:4.47;stroke-linecap:round;stroke-linejoin:round"
     id="path1-9-1-90"
     inkscape:flatsided="false"
     sodipodi:sides="3"
     sodipodi:cx="5.9720817"
     sodipodi:cy="86.380501"
     sodipodi:r1="0.58027047"
     sodipodi:r2="0.29013523"
     sodipodi:arg1="0.73781506"
     sodipodi:arg2="1.7850126"
     inkscape:rounded="0"
     inkscape:randomized="0"
     d="M 6.401447,86.770833 5.9104042,86.664004 5.4193614,86.557176 5.757399,86.185335 l 0.3380375,-0.371842 0.1530053,0.47867 z"
     inkscape:transform-center-x="-0.089939348"
     inkscape:transform-center-y="-0.060031288"
     transform="rotate(89.667707,4.6931253,109.82875)" />
  <path
     sodipodi:type="star"
     style="display:inline;fill:#000000;stroke-width:4.47;stroke-linecap:round;stroke-linejoin:round"
     id="path1-3-93"
     inkscape:flatsided="false"
     sodipodi:sides="3"
     sodipodi:cx="5.9720817"
     sodipodi:cy="86.380501"
     sodipodi:r1="0.58027047"
     sodipodi:r2="0.29013523"
     sodipodi:arg1="0.73781506"
     sodipodi:arg2="1.7850126"
     inkscape:rounded="0"
     inkscape:randomized="0"
     d="M 6.401447,86.770833 5.9104042,86.664004 5.4193614,86.557176 5.757399,86.185335 l 0.3380375,-0.371842 0.1530053,0.47867 z"
     inkscape:transform-center-x="0.097305646"
     inkscape:transform-center-y="-0.052392356"
     transform="rotate(127.32273,13.032485,105.1543)" />
  <path
     sodipodi:type="star"
     style="display:inline;fill:#000000;stroke-width:4.47;stroke-linecap:round;stroke-linejoin:round"
     id="path1-9-2-4"
     inkscape:flatsided="false"
     sodipodi:sides="3"
     sodipodi:cx="5.9720817"
     sodipodi:cy="86.380501"
     sodipodi:r1="0.58027047"
     sodipodi:r2="0.29013523"
     sodipodi:arg1="0.73781506"
     sodipodi:arg2="1.7850126"
     inkscape:rounded="0"
     inkscape:randomized="0"
     d="M 6.401447,86.770833 5.9104042,86.664004 5.4193614,86.557176 5.757399,86.185335 l 0.3380375,-0.371842 0.1530053,0.47867 z"
     inkscape:transform-center-x="0.04016288"
     inkscape:transform-center-y="0.10889224"
     transform="rotate(159.76959,18.221993,102.36733)" />
  <path
     sodipodi:type="star"
     style="display:inline;fill:#000000;stroke-width:4.47;stroke-linecap:round;stroke-linejoin:round"
     id="path1-8-6-0"
     inkscape:flatsided="false"
     sodipodi:sides="3"
     sodipodi:cx="5.9720817"
     sodipodi:cy="86.380501"
     sodipodi:r1="0.58027047"
     sodipodi:r2="0.29013523"
     sodipodi:arg1="0.73781506"
     sodipodi:arg2="1.7850126"
     inkscape:rounded="0"
     inkscape:randomized="0"
     d="M 6.401447,86.770833 5.9104042,86.664004 5.4193614,86.557176 5.757399,86.185335 l 0.3380375,-0.371842 0.1530053,0.47867 z"
     inkscape:transform-center-x="-0.12130406"
     inkscape:transform-center-y="0.026728557"
     transform="rotate(-167.55943,22.886381,99.750046)" />
  <path
     sodipodi:type="star"
     style="display:inline;fill:#000000;stroke-width:4.47;stroke-linecap:round;stroke-linejoin:round"
     id="path1-9-1-9-7"
     inkscape:flatsided="false"
     sodipodi:sides="3"
     sodipodi:cx="5.9720817"
     sodipodi:cy="86.380501"
     sodipodi:r1="0.58027047"
     sodipodi:r2="0.29013523"
     sodipodi:arg1="0.73781506"
     sodipodi:arg2="1.7850126"
     inkscape:rounded="0"
     inkscape:randomized="0"
     d="M 6.401447,86.770833 5.9104042,86.664004 5.4193614,86.557176 5.757399,86.185335 l 0.3380375,-0.371842 0.1530053,0.47867 z"
     inkscape:transform-center-x="-0.014366239"
     inkscape:transform-center-y="-0.13244525"
     transform="rotate(-135.11256,27.895638,96.612431)" />
  <path
     d="m 27.001985,106.88562 q -0.09031,-0.0734 -0.180623,-0.10724 -0.09031,-0.0367 -0.174977,-0.0367 -0.107245,0 -0.174978,0.0508 -0.06773,0.0508 -0.06773,0.13264 0,0.0564 0.03387,0.0931 0.03387,0.0367 0.08749,0.0649 0.05645,0.0254 0.124178,0.0452 0.07056,0.0198 0.138289,0.0423 0.270933,0.0903 0.395111,0.24271 0.127,0.14957 0.127,0.39229 0,0.16368 -0.05645,0.29633 -0.05362,0.13264 -0.160866,0.2286 -0.104423,0.0931 -0.259645,0.14393 -0.1524,0.0536 -0.347133,0.0536 -0.403577,0 -0.747888,-0.23988 l 0.237066,-0.44592 q 0.124178,0.11007 0.245534,0.16369 0.121355,0.0536 0.239888,0.0536 0.135467,0 0.200378,-0.0621 0.06773,-0.0621 0.06773,-0.14111 0,-0.048 -0.01693,-0.0819 -0.01693,-0.0367 -0.05645,-0.0649 -0.03951,-0.031 -0.104422,-0.0564 -0.06209,-0.0254 -0.1524,-0.0565 -0.107244,-0.0339 -0.211666,-0.0734 -0.1016,-0.0423 -0.183444,-0.11006 -0.07902,-0.0677 -0.129822,-0.16934 -0.04798,-0.10442 -0.04798,-0.26246 0,-0.15805 0.0508,-0.28505 0.05362,-0.12982 0.146755,-0.22013 0.09596,-0.0931 0.231422,-0.14393 0.138289,-0.0508 0.307622,-0.0508 0.158045,0 0.3302,0.0451 0.172155,0.0423 0.3302,0.127 z m 2.192512,0.16651 q -0.191911,-0.23424 -0.474133,-0.23424 -0.124178,0 -0.231422,0.0451 -0.104423,0.0452 -0.180623,0.12418 -0.0762,0.0762 -0.121355,0.18345 -0.04233,0.10724 -0.04233,0.23142 0,0.127 0.04233,0.23424 0.04516,0.10725 0.121355,0.18627 0.07902,0.079 0.183445,0.12418 0.104422,0.0451 0.225777,0.0451 0.265289,0 0.476956,-0.22578 v 0.65476 l -0.05645,0.0198 q -0.127,0.0452 -0.237066,0.0649 -0.110067,0.0226 -0.217311,0.0226 -0.220133,0 -0.423333,-0.0818 -0.200378,-0.0847 -0.3556,-0.23424 -0.1524,-0.1524 -0.245533,-0.35843 -0.09313,-0.20884 -0.09313,-0.45437 0,-0.24554 0.09031,-0.44874 0.09313,-0.20602 0.245533,-0.35277 0.155222,-0.14958 0.358422,-0.23143 0.2032,-0.0847 0.426155,-0.0847 0.127,0 0.248355,0.0282 0.124178,0.0254 0.259645,0.0818 z m 1.563155,0.62654 -0.248355,-0.70838 -0.248356,0.70838 z m 0.146756,0.42051 h -0.790222 l -0.127,0.36971 h -0.589844 l 0.809977,-2.12796 h 0.603955 l 0.809978,2.12796 h -0.589844 z m 1.518001,-1.75825 v 1.65947 h 0.663222 v 0.46849 h -1.216377 v -2.12796 z m 2.164289,0.46849 h -0.657577 v 0.3556 h 0.620888 v 0.46849 h -0.620888 v 0.36689 h 0.657577 v 0.46849 h -1.210732 v -2.12796 h 1.210732 z"
     id="text4-5"
     style="display:inline;font-weight:bold;font-size:2.82222px;line-height:0.1;font-family:Futura;-inkscape-font-specification:'Futura Bold';letter-spacing:0.00529167px;word-spacing:0.0079375px;stroke-width:1.058;stroke-linecap:square;stroke-linejoin:round"
     aria-label="SCALE" />
  <path
     d="m 27.194857,88.327717 q 0,0.09525 0.03598,0.175684 0.03598,0.08043 0.09737,0.1397 0.06138,0.05927 0.141817,0.09313 0.08255,0.03175 0.173567,0.03175 0.09102,0 0.17145,-0.03175 0.08255,-0.03387 0.143934,-0.09313 0.0635,-0.05927 0.09948,-0.1397 0.03598,-0.08043 0.03598,-0.175684 0,-0.09525 -0.03598,-0.175683 -0.03598,-0.08043 -0.09948,-0.1397 -0.06138,-0.05927 -0.143934,-0.09102 -0.08043,-0.03387 -0.17145,-0.03387 -0.09102,0 -0.173567,0.03387 -0.08043,0.03175 -0.141817,0.09102 -0.06138,0.05927 -0.09737,0.1397 -0.03598,0.08043 -0.03598,0.175683 z m -0.433917,0 q 0,-0.1778 0.06562,-0.3302 0.06562,-0.154517 0.182034,-0.268817 0.116417,-0.1143 0.277284,-0.1778 0.162983,-0.06562 0.357717,-0.06562 0.192617,0 0.355601,0.06562 0.162983,0.0635 0.2794,0.1778 0.118533,0.1143 0.18415,0.268817 0.06562,0.1524 0.06562,0.3302 0,0.177801 -0.06562,0.332318 -0.06562,0.1524 -0.18415,0.2667 -0.116417,0.1143 -0.2794,0.179917 -0.162984,0.0635 -0.355601,0.0635 -0.194734,0 -0.357717,-0.0635 -0.160867,-0.06562 -0.277284,-0.179917 -0.116417,-0.1143 -0.182034,-0.2667 -0.06562,-0.154517 -0.06562,-0.332318 z m 2.450043,-0.797984 v 0.867834 q 0,0.06985 0.0042,0.143934 0.0064,0.07197 0.03175,0.131234 0.02752,0.05927 0.08467,0.09737 0.05715,0.03598 0.160867,0.03598 0.103716,0 0.15875,-0.03598 0.05715,-0.0381 0.08467,-0.09737 0.02752,-0.05927 0.03175,-0.131234 0.0064,-0.07408 0.0064,-0.143934 v -0.867834 h 0.41275 v 0.924985 q 0,0.372533 -0.17145,0.543984 -0.169334,0.17145 -0.522817,0.17145 -0.353484,0 -0.524935,-0.17145 -0.17145,-0.171451 -0.17145,-0.543984 v -0.924985 z m 1.920879,0.351367 v 1.244602 H 30.716995 V 87.8811 h -0.340784 v -0.351367 h 1.096435 V 87.8811 Z m 1.728792,0.270934 q 0.01693,0.0021 0.02752,0.0021 0.0127,0 0.02117,0 0.07832,0 0.127,-0.04657 0.04868,-0.04657 0.04868,-0.12065 0,-0.07197 -0.04657,-0.116417 -0.04445,-0.04445 -0.116417,-0.04445 -0.0762,0 -0.122767,0.0508 -0.04657,0.0508 -0.04657,0.131233 h -0.383118 q 0.01482,-0.124883 0.06138,-0.22225 0.04868,-0.09737 0.122767,-0.162984 0.07408,-0.06773 0.173566,-0.1016 0.09948,-0.03598 0.220134,-0.03598 0.118534,0 0.213784,0.03387 0.09737,0.03175 0.1651,0.09313 0.06985,0.05927 0.105834,0.14605 0.0381,0.08467 0.0381,0.1905 0,0.114301 -0.04445,0.188384 -0.04233,0.07197 -0.122767,0.124884 0.122767,0.0381 0.1905,0.137583 0.06985,0.09737 0.06985,0.2413 0,0.118534 -0.04657,0.215901 -0.04657,0.09737 -0.131233,0.167217 -0.08255,0.06985 -0.198967,0.10795 -0.1143,0.0381 -0.251884,0.0381 -0.18415,0 -0.332317,-0.07197 -0.148167,-0.07197 -0.237067,-0.2286 -0.04022,-0.06985 -0.05503,-0.1397 -0.0127,-0.06985 -0.0127,-0.141817 h 0.410634 q 0.0042,0.112183 0.06562,0.17145 0.06138,0.05715 0.1651,0.05715 0.110067,0 0.160867,-0.05927 0.0508,-0.05927 0.0508,-0.14605 0,-0.103717 -0.06138,-0.156633 -0.06138,-0.05292 -0.14605,-0.05292 -0.02117,0 -0.04022,0.0042 -0.01905,0.0021 -0.04233,0.0063 z"
     id="text7"
     style="font-weight:bold;font-size:2.11667px;line-height:0.1;font-family:Futura;-inkscape-font-specification:'Futura Bold';letter-spacing:0.00529167px;word-spacing:0.0079375px;fill:#ffffff;stroke-width:1.058;stroke-linecap:square;stroke-linejoin:round"
     aria-label="OUT 3" />
  <path
     d="m 7.5105327,109.13207 q 0,0.0953 0.035983,0.17568 0.035983,0.0804 0.097367,0.1397 0.061383,0.0593 0.1418169,0.0931 0.08255,0.0318 0.1735669,0.0318 0.091017,0 0.1714503,-0.0318 0.08255,-0.0339 0.1439335,-0.0931 0.0635,-0.0593 0.099483,-0.1397 0.035983,-0.0804 0.035983,-0.17568 0,-0.0952 -0.035983,-0.17568 -0.035983,-0.0804 -0.099483,-0.1397 -0.061383,-0.0593 -0.1439335,-0.091 -0.080433,-0.0339 -0.1714503,-0.0339 -0.091017,0 -0.1735669,0.0339 -0.080433,0.0318 -0.1418169,0.091 -0.061383,0.0593 -0.097367,0.1397 -0.035983,0.0804 -0.035983,0.17568 z m -0.4339174,0 q 0,-0.1778 0.065617,-0.3302 0.065617,-0.15452 0.1820336,-0.26882 0.1164169,-0.1143 0.2772838,-0.1778 0.1629836,-0.0656 0.3577172,-0.0656 0.192617,0 0.3556005,0.0656 0.1629836,0.0635 0.2794005,0.1778 0.1185335,0.1143 0.1841502,0.26882 0.065617,0.1524 0.065617,0.3302 0,0.1778 -0.065617,0.33232 -0.065617,0.1524 -0.1841502,0.2667 -0.1164169,0.1143 -0.2794005,0.17991 -0.1629835,0.0635 -0.3556005,0.0635 -0.1947336,0 -0.3577172,-0.0635 -0.1608669,-0.0656 -0.2772838,-0.17991 -0.1164168,-0.1143 -0.1820336,-0.2667 -0.065617,-0.15452 -0.065617,-0.33232 z m 2.4500439,-0.79799 v 0.86784 q 0,0.0699 0.00423,0.14393 0.00635,0.072 0.03175,0.13124 0.027517,0.0593 0.084667,0.0974 0.05715,0.036 0.1608669,0.036 0.1037168,0 0.1587502,-0.036 0.057151,-0.0381 0.084667,-0.0974 0.02752,-0.0593 0.03175,-0.13124 0.0064,-0.0741 0.0064,-0.14393 v -0.86784 h 0.412751 v 0.92499 q 0,0.37253 -0.17145,0.54398 -0.169334,0.17145 -0.5228177,0.17145 -0.3534839,0 -0.5249342,-0.17145 -0.1714502,-0.17145 -0.1714502,-0.54398 v -0.92499 z m 1.9208788,0.35137 v 1.2446 h -0.414867 v -1.2446 h -0.340784 v -0.35137 h 1.096435 v 0.35137 z m 1.896008,0.59902 v -0.62865 l -0.366184,0.62865 z m 0.385234,0 h 0.192617 v 0.3175 H 13.72878 v 0.32808 h -0.385234 v -0.32808 h -0.770468 v -0.2667 l 0.609601,-1.00119 h 0.546101 z"
     id="text7-8"
     style="font-weight:bold;font-size:2.11667px;line-height:0.1;font-family:Futura;-inkscape-font-specification:'Futura Bold';letter-spacing:0.00529167px;word-spacing:0.0079375px;fill:#ffffff;stroke-width:1.058;stroke-linecap:square;stroke-linejoin:round"
     aria-label="OUT 4" />
  <g
     id="text8"
     style="display:inline;font-weight:bold;font-size:8.11389px;line-height:0.1;font-family:Futura;-inkscape-font-specification:'Futura Bold';letter-spacing:0.00529167px;word-spacing:0.0079375px;stroke-width:1.058;stroke-linecap:square;stroke-linejoin:round"
     aria-label=" G&#10;&#10;&#10;&#10;&#10;&#10;&#10;&#10;&#10;&#10;  &#10;L&#10;&#10;&#10;&#10;&#10;&#10;&#10;&#10;&#10;  &#10;  C&#10;&#10;&#10;&#10;&#10;&#10;&#10;&#10;&#10;&#10;&#10;&#10;&#10;   V&#10;">
    <path
       d="m 29.185938,46.892986 h 3.156304 q 0,0.486833 -0.04057,0.884414 -0.04057,0.39758 -0.162278,0.738364 -0.170391,0.478719 -0.462491,0.851958 -0.2921,0.365125 -0.689681,0.616656 -0.389467,0.243416 -0.860072,0.373239 -0.470606,0.129822 -0.989895,0.129822 -0.714022,0 -1.306336,-0.235303 -0.5842,-0.235303 -1.006122,-0.657225 -0.421923,-0.430036 -0.657225,-1.02235 -0.235303,-0.600428 -0.235303,-1.322564 0,-0.714022 0.227189,-1.306336 0.235302,-0.600428 0.657225,-1.022351 0.430036,-0.421922 1.030464,-0.657225 0.600428,-0.235302 1.338791,-0.235302 0.957439,0 1.679576,0.413808 0.722136,0.413808 1.144058,1.281995 l -1.509183,0.624769 q -0.210962,-0.503061 -0.551745,-0.722136 -0.332669,-0.219075 -0.762706,-0.219075 -0.357011,0 -0.649111,0.137936 -0.2921,0.129822 -0.503061,0.381353 -0.202847,0.243416 -0.324555,0.592314 -0.113595,0.348897 -0.113595,0.778933 0,0.389467 0.09737,0.722136 0.10548,0.33267 0.308328,0.576087 0.202847,0.243416 0.503061,0.381352 0.300214,0.129823 0.697794,0.129823 0.235303,0 0.454378,-0.04868 0.219075,-0.0568 0.389467,-0.170391 0.178505,-0.121709 0.2921,-0.308328 0.113594,-0.18662 0.154164,-0.454378 h -1.306337 z"
       id="path46" />
    <path
       d="m 25.02651,53.124453 v 4.770967 h 1.906765 v 1.346906 h -3.497087 v -6.117873 z"
       id="path47" />
    <path
       d="m 33.385936,63.283043 q -0.551745,-0.673453 -1.363134,-0.673453 -0.357011,0 -0.665338,0.129822 -0.300214,0.129823 -0.519289,0.357012 -0.219075,0.219075 -0.348898,0.527402 -0.121708,0.308328 -0.121708,0.665339 0,0.365125 0.121708,0.673453 0.129823,0.308328 0.348898,0.535517 0.227188,0.227189 0.527402,0.357011 0.300214,0.129822 0.649112,0.129822 0.762705,0 1.371247,-0.649111 v 1.882423 l -0.162278,0.0568 q -0.365125,0.129822 -0.681567,0.186619 -0.316441,0.06491 -0.624769,0.06491 -0.632883,0 -1.217084,-0.235302 -0.576086,-0.243417 -1.02235,-0.673453 -0.43815,-0.43815 -0.705908,-1.030464 -0.267758,-0.600428 -0.267758,-1.306336 0,-0.705909 0.259644,-1.290109 0.267758,-0.592314 0.705908,-1.014236 0.446264,-0.430036 1.030464,-0.665339 0.584201,-0.243417 1.225198,-0.243417 0.365125,0 0.714022,0.08114 0.357011,0.07303 0.746478,0.235303 z"
       id="path48" />
    <path
       d="m 32.839308,71.7864 1.476728,3.724275 1.484842,-3.724275 h 1.728258 l -2.580217,6.117872 H 33.683153 L 31.11105,71.7864 Z"
       id="path49" />
  </g>
  <circle
     id="uuid-cae7cb64-b9d2-4491-a6b2-1bbe8644b71e-6-0-0-9-0-1"
     display="inline"
     fill="#0000ff"
     cx="30.162163"
     cy="116.96465"
     r="4.3757935"
     inkscape:label="PARAM_TIME"
     style="display:inline;fill:none;fill-opacity:1;stroke:#000000;stroke-width:0.248413;stroke-dasharray:none;stroke-opacity:1" />
  <g
     inkscape:groupmode="layer"
     id="layer2"
     inkscape:label="components"
     style="display:none">
    <circle
       id="uuid-cae7cb64-b9d2-4491-a6b2-1bbe8644b71e-6"
       display="inline"
       fill="#0000ff"
       cx="10.477839"
       cy="115.86398"
       r="1.3229166"
       inkscape:label="OUT_4"
       style="stroke-width:0.264583" />
    <circle
       id="uuid-cae7cb64-b9d2-4491-a6b2-1bbe8644b71e-6-0-0"
       display="inline"
       fill="#0000ff"
       cx="10.477839"
       cy="14.552081"
       r="1.3229166"
       inkscape:label="IN_CLK"
       style="fill:#00ff00;fill-opacity:1;stroke-width:0.264583" />
    <circle
       id="uuid-cae7cb64-b9d2-4491-a6b2-1bbe8644b71e-6-9-8-2"
       display="inline"
       fill="#0000ff"
       cx="30.162165"
       cy="95.059624"
       r="1.3229166"
       inkscape:label="OUT_3"
       style="display:inline;stroke-width:0.264583" />
    <circle
       id="uuid-cae7cb64-b9d2-4491-a6b2-1bbe8644b71e-6-0-0-2"
       display="inline"
       fill="#0000ff"
       cx="30.162165"
       cy="14.552081"
       r="1.3229166"
       inkscape:label="IN_RST"
       style="display:inline;fill:#00ff00;fill-opacity:1;stroke-width:0.264583" />
    <circle
       id="uuid-cae7cb64-b9d2-4491-a6b2-1bbe8644b71e-6-9-8"
       display="inline"
       fill="#0000ff"
       cx="30.162165"
       cy="32.686115"
       r="1.3229166"
       inkscape:label="OUT_1"
       style="display:inline;stroke-width:0.264583" />
    <circle
       id="uuid-cae7cb64-b9d2-4491-a6b2-1bbe8644b71e-6-0-0-0"
       display="inline"
       fill="#0000ff"
       cx="10.477839"
       cy="32.686115"
       r="1.3229166"
       inkscape:label="IN_TS"
       style="display:inline;fill:#00ff00;fill-opacity:1;stroke-width:0.264583" />
    <circle
       id="uuid-cae7cb64-b9d2-4491-a6b2-1bbe8644b71e-6-0-0-9"
       display="inline"
       fill="#0000ff"
       cx="10.477839"
       cy="79.199547"
       r="1.3229166"
       inkscape:label="PARAM_CHAOS"
       style="fill:#ff0000;fill-opacity:1;stroke-width:0.264583" />
    <circle
       id="uuid-cae7cb64-b9d2-4491-a6b2-1bbe8644b71e-6-0-0-9-6"
       display="inline"
       fill="#0000ff"
       cx="30.162165"
       cy="116.96464"
       r="1.3229166"
       inkscape:label="PARAM_SCALE"
       style="display:inline;fill:#ff0000;fill-opacity:1;stroke-width:0.264583" />
    <circle
       id="uuid-cae7cb64-b9d2-4491-a6b2-1bbe8644b71e-6-9"
       display="inline"
       fill="#0000ff"
       cx="10.477839"
       cy="53.490467"
       r="1.3229166"
       inkscape:label="OUT_2"
       style="display:inline;stroke-width:0.264583" />
  </g>
</svg>
