<?xml version="1.0" encoding="UTF-8" standalone="no"?>
<svg
   width="40.639999mm"
   height="128.5mm"
   viewBox="0 0 40.64 128.5"
   version="1.1"
   id="svg1"
   sodipodi:docname="glib.svg"
   inkscape:version="1.3.2 (091e20e, 2023-11-25)"
   xmlns:inkscape="http://www.inkscape.org/namespaces/inkscape"
   xmlns:sodipodi="http://sodipodi.sourceforge.net/DTD/sodipodi-0.dtd"
   xmlns="http://www.w3.org/2000/svg"
   xmlns:svg="http://www.w3.org/2000/svg">
  <rect
     style="fill:#e0e0e0;fill-opacity:1;stroke:none;stroke-width:0.894427"
     width="40.639999"
     height="128.5"
     x="0"
     y="0"
     id="rect1" />
  <g
     id="text6"
     style="font-weight:bold;font-size:8.11389px;line-height:0.1;font-family:Futura;-inkscape-font-specification:'Futura Bold';letter-spacing:0.00529167px;word-spacing:0.0079375px;fill:#fffffe;stroke-width:1.058;stroke-linecap:square;stroke-linejoin:round"
     aria-label="G&#10;&#10;&#10;&#10;    I&#10;       I&#10;       &#10;&#10;&#10;  &#10;    L &#10;    &#10;       I  B"
     transform="translate(-5.2625617,1.5875)">
    <path
       style="fill:#000000"
       d="m 12.452959,9.4488176 h 3.156304 q 0,0.4868334 -0.04057,0.8844144 -0.04057,0.39758 -0.162278,0.738364 -0.170391,0.478719 -0.462491,0.851958 -0.2921,0.365125 -0.689681,0.616656 -0.389467,0.243416 -0.860072,0.373238 -0.470606,0.129823 -0.989895,0.129823 -0.714022,0 -1.306336,-0.235303 -0.5842,-0.235303 -1.006122,-0.657225 -0.4219227,-0.430036 -0.6572255,-1.02235 -0.2353028,-0.600428 -0.2353028,-1.3225643 0,-0.7140223 0.2271889,-1.3063362 0.2353028,-0.6004279 0.6572254,-1.0223501 0.430036,-0.4219223 1.030464,-0.6572251 0.600427,-0.2353028 1.338791,-0.2353028 0.957439,0 1.679576,0.4138084 0.722136,0.4138084 1.144058,1.2819946 L 13.76741,8.905187 q -0.210962,-0.5030612 -0.551745,-0.7221362 -0.332669,-0.219075 -0.762706,-0.219075 -0.357011,0 -0.649111,0.1379361 -0.2921,0.1298222 -0.503061,0.3813528 -0.202847,0.2434167 -0.324556,0.592314 -0.113594,0.3488972 -0.113594,0.7789334 0,0.3894669 0.09737,0.7221359 0.10548,0.33267 0.308328,0.576086 0.202847,0.243417 0.503061,0.381353 0.300214,0.129822 0.697794,0.129822 0.235303,0 0.454378,-0.04868 0.219075,-0.0568 0.389467,-0.170392 0.178505,-0.121708 0.2921,-0.308327 0.113594,-0.18662 0.154164,-0.454378 h -1.306337 z"
       id="path18" />
    <path
       style="fill:#000000"
       d="m 22.153296,10.000562 v 6.117873 h -1.590323 v -6.117873 z"
       id="path19" />
    <path
       style="fill:#000000"
       d="m 30.469156,10.811951 v 6.117873 h -1.590323 v -6.117873 z"
       id="path20" />
    <path
       style="fill:#000000"
       d="m 22.153296,14.868896 v 4.770967 h 1.906764 v 1.346906 h -3.497087 v -6.117873 z"
       id="path21" />
    <path
       style="fill:#000000"
       d="m 30.469156,16.491674 v 6.117873 h -1.590323 v -6.117873 z m 8.421514,4.884562 h 0.348897 q 0.600428,0 0.860073,-0.154164 0.259644,-0.154164 0.259644,-0.494948 0,-0.340783 -0.259644,-0.494947 -0.259645,-0.154164 -0.860073,-0.154164 H 38.89067 Z m 0,-2.482851 h 0.2921 q 0.746478,0 0.746478,-0.592314 0,-0.592314 -0.746478,-0.592314 h -0.2921 z m -1.590322,-2.401711 h 2.369255 q 0.843845,0 1.281995,0.405694 0.43815,0.405695 0.43815,1.168401 0,0.462491 -0.170392,0.770819 -0.162277,0.300214 -0.503061,0.511175 0.340784,0.06491 0.576086,0.202847 0.243417,0.129823 0.389467,0.324556 0.154164,0.194733 0.219075,0.43815 0.06491,0.243417 0.06491,0.519289 0,0.430036 -0.154164,0.762706 -0.14605,0.332669 -0.421922,0.559858 -0.267758,0.227189 -0.657225,0.340783 -0.389467,0.113595 -0.8763,0.113595 h -2.555875 z"
       id="path22" />
  </g>
  <g
     id="g2">
    <path
       style="display:inline;fill:#1f1f1f;fill-opacity:1;stroke-width:1.00007"
       d="m 6.0778388,106.402 h 8.8000002 c 0.6,0 1.1,0.48006 1.1,1.08014 v 12.78172 c 0,0.60008 -0.5,1.08014 -1.1,1.08014 H 6.0778388 c -0.6,0 -1.1,-0.48006 -1.1,-1.08014 v -12.78172 c 0,-0.60008 0.5,-1.08014 1.1,-1.08014 z"
       id="path4" />
    <path
       style="display:inline;font-weight:bold;font-size:2.11667px;line-height:0.1;font-family:Futura;-inkscape-font-specification:'Futura Bold';letter-spacing:0.00529167px;word-spacing:0.0079375px;fill:#ffffff;stroke-width:1.058;stroke-linecap:square;stroke-linejoin:round"
       d="m 7.3411979,109.13092 q 0,0.0952 0.03598,0.17569 0.03598,0.0804 0.09737,0.1397 0.06138,0.0593 0.141817,0.0931 0.08255,0.0318 0.173566,0.0318 0.09102,0 0.171451,-0.0318 0.08255,-0.0339 0.143933,-0.0931 0.0635,-0.0593 0.09948,-0.1397 0.03598,-0.0804 0.03598,-0.17569 0,-0.0953 -0.03598,-0.17568 -0.03598,-0.0804 -0.09948,-0.1397 -0.06138,-0.0593 -0.143933,-0.091 -0.08043,-0.0339 -0.171451,-0.0339 -0.09102,0 -0.173566,0.0339 -0.08043,0.0318 -0.141817,0.091 -0.06138,0.0593 -0.09737,0.1397 -0.03598,0.0804 -0.03598,0.17568 z m -0.433917,0 q 0,-0.1778 0.06562,-0.3302 0.06562,-0.15451 0.182033,-0.26881 0.116417,-0.1143 0.277284,-0.1778 0.162984,-0.0656 0.357717,-0.0656 0.192617,0 0.355601,0.0656 0.162984,0.0635 0.2794,0.1778 0.118534,0.1143 0.184151,0.26881 0.06562,0.1524 0.06562,0.3302 0,0.17781 -0.06562,0.33232 -0.06562,0.1524 -0.184151,0.2667 -0.116416,0.1143 -0.2794,0.17992 -0.162984,0.0635 -0.355601,0.0635 -0.194733,0 -0.357717,-0.0635 -0.160867,-0.0656 -0.277284,-0.17992 -0.116416,-0.1143 -0.182033,-0.2667 -0.06562,-0.15451 -0.06562,-0.33232 z m 2.450044,-0.79798 v 0.86783 q 0,0.0698 0.0042,0.14394 0.0063,0.072 0.03175,0.13123 0.02752,0.0593 0.08467,0.0974 0.05715,0.036 0.160867,0.036 0.103717,0 0.15875,-0.036 0.05715,-0.0381 0.08467,-0.0974 0.02752,-0.0593 0.03175,-0.13123 0.0063,-0.0741 0.0063,-0.14394 v -0.86783 h 0.4127511 v 0.92498 q 0,0.37254 -0.171451,0.54399 -0.1693331,0.17145 -0.5228171,0.17145 -0.353484,0 -0.524934,-0.17145 -0.17145,-0.17145 -0.17145,-0.54399 v -0.92498 z m 1.9208791,0.35137 v 1.2446 h -0.414867 v -1.2446 h -0.340784 v -0.35137 h 1.096435 v 0.35137 z m 1.546758,-0.35137 0.385233,0.97155 0.387351,-0.97155 h 0.450851 l -0.673101,1.59597 h -0.330201 l -0.670984,-1.59597 z"
       id="text1"
       aria-label="OUT V" />
  </g>
  <defs
     id="defs5" />
  <sodipodi:namedview
     id="namedview5"
     pagecolor="#ffffff"
     bordercolor="#000000"
     borderopacity="0.25"
     inkscape:showpageshadow="2"
     inkscape:pageopacity="0.0"
     inkscape:pagecheckerboard="0"
     inkscape:deskcolor="#d1d1d1"
     inkscape:document-units="mm"
     inkscape:zoom="1.5945645"
     inkscape:cx="56.441743"
     inkscape:cy="71.492875"
     inkscape:window-width="1312"
     inkscape:window-height="569"
     inkscape:window-x="0"
     inkscape:window-y="25"
     inkscape:window-maximized="0"
     inkscape:current-layer="svg1" />
  <!-- Background -->
  <!-- Module Title Area -->
  <!-- File Browser Section -->
  <!-- Library Display Section -->
  <!-- Output Ports Area -->
  <g
     id="g3">
    <path
       style="display:inline;fill:#1f1f1f;fill-opacity:1;stroke-width:1.00007"
       d="m 25.762164,106.402 h 8.8 c 0.6,0 1.1,0.48006 1.1,1.08014 v 12.78172 c 0,0.60008 -0.5,1.08014 -1.1,1.08014 h -8.8 c -0.6,0 -1.1,-0.48006 -1.1,-1.08014 v -12.78172 c 0,-0.60008 0.5,-1.08014 1.1,-1.08014 z"
       id="path5" />
    <path
       style="display:inline;font-weight:bold;font-size:2.11667px;line-height:0.1;font-family:Futura;-inkscape-font-specification:'Futura Bold';letter-spacing:0.00529167px;word-spacing:0.0079375px;fill:#ffffff;stroke-width:1.058;stroke-linecap:square;stroke-linejoin:round"
       d="m 27.321857,109.13092 q 0,0.0952 0.03598,0.17569 0.03598,0.0804 0.09737,0.1397 0.06138,0.0593 0.141817,0.0931 0.08255,0.0318 0.173567,0.0318 0.09102,0 0.17145,-0.0318 0.08255,-0.0339 0.143934,-0.0931 0.0635,-0.0593 0.09948,-0.1397 0.03598,-0.0804 0.03598,-0.17569 0,-0.0953 -0.03598,-0.17568 -0.03598,-0.0804 -0.09948,-0.1397 -0.06138,-0.0593 -0.143934,-0.091 -0.08043,-0.0339 -0.17145,-0.0339 -0.09102,0 -0.173567,0.0339 -0.08043,0.0318 -0.141817,0.091 -0.06138,0.0593 -0.09737,0.1397 -0.03598,0.0804 -0.03598,0.17568 z m -0.433918,0 q 0,-0.1778 0.06562,-0.3302 0.06562,-0.15451 0.182034,-0.26881 0.116417,-0.1143 0.277283,-0.1778 0.162984,-0.0656 0.357718,-0.0656 0.192617,0 0.3556,0.0656 0.162984,0.0635 0.279401,0.1778 0.118533,0.1143 0.18415,0.26881 0.06562,0.1524 0.06562,0.3302 0,0.17781 -0.06562,0.33232 -0.06562,0.1524 -0.18415,0.2667 -0.116417,0.1143 -0.279401,0.17992 -0.162983,0.0635 -0.3556,0.0635 -0.194734,0 -0.357718,-0.0635 -0.160866,-0.0656 -0.277283,-0.17992 -0.116417,-0.1143 -0.182034,-0.2667 -0.06562,-0.15451 -0.06562,-0.33232 z m 2.450044,-0.79798 v 0.86783 q 0,0.0698 0.0042,0.14394 0.0063,0.072 0.03175,0.13123 0.02752,0.0593 0.08467,0.0974 0.05715,0.036 0.160867,0.036 0.103717,0 0.158751,-0.036 0.05715,-0.0381 0.08467,-0.0974 0.02752,-0.0593 0.03175,-0.13123 0.0063,-0.0741 0.0063,-0.14394 v -0.86783 h 0.412751 v 0.92498 q 0,0.37254 -0.17145,0.54399 -0.169334,0.17145 -0.522818,0.17145 -0.353484,0 -0.524934,-0.17145 -0.17145,-0.17145 -0.17145,-0.54399 v -0.92498 z m 1.920879,0.35137 v 1.2446 h -0.414867 v -1.2446 h -0.340784 v -0.35137 h 1.096435 v 0.35137 z m 2.177525,0 h -0.499534 v 0.2667 h 0.455084 v 0.35137 h -0.455084 v 0.62653 h -0.414867 v -1.59597 h 0.914401 z"
       id="text1-9"
       aria-label="OUT F" />
  </g>
  <rect
     style="fill:#000000;fill-opacity:1;stroke:none;stroke-width:1.50333;stroke-linecap:round;stroke-linejoin:round;stroke-dasharray:none;stroke-opacity:1"
     id="rect6-2-6"
     width="0.2"
     height="10.181671"
     x="10.37784"
     y="80.085411" />
  <circle
     id="uuid-cae7cb64-b9d2-4491-a6b2-1bbe8644b71e-6-0-0-9-0"
     display="inline"
     fill="#0000ff"
     cx="10.477839"
     cy="72.485962"
     r="4.3757935"
     inkscape:label="PARAM_TIME"
     style="display:inline;fill:none;fill-opacity:1;stroke:#000000;stroke-width:0.248413;stroke-dasharray:none;stroke-opacity:1" />
  <rect
     style="fill:#000000;fill-opacity:1;stroke:none;stroke-width:1.50333;stroke-linecap:round;stroke-linejoin:round;stroke-dasharray:none;stroke-opacity:1"
     id="rect6-2-6-7"
     width="0.2"
     height="10.181671"
     x="30.062164"
     y="80.085411" />
  <rect
     style="fill:#000000;fill-opacity:1;stroke:none;stroke-width:1.50333;stroke-linecap:round;stroke-linejoin:round;stroke-dasharray:none;stroke-opacity:1"
     id="rect6-2-6-7-5"
     width="0.2"
     height="10.181671"
     x="-96.00708"
     y="15.229164"
     transform="rotate(-90)" />
  <path
     style="font-weight:bold;font-size:2.82222px;line-height:0.1;font-family:Futura;-inkscape-font-specification:'Futura Bold';letter-spacing:0.00529167px;word-spacing:0.0079375px;stroke-width:1.058;stroke-linecap:square;stroke-linejoin:round"
     d="m 7.2568058,62.838734 h 0.1834443 q 0.3047997,0 0.3047997,-0.265288 0,-0.265289 -0.3047997,-0.265289 H 7.2568058 Z m 0,1.151466 H 6.7036506 v -2.127954 h 0.8805327 q 0.358422,0 0.5475107,0.186267 0.191911,0.186266 0.191911,0.524933 0,0.338666 -0.191911,0.524932 -0.1890887,0.186267 -0.5475107,0.186267 H 7.2568058 Z m 1.9187555,-1.176866 h 0.1044221 q 0.1636888,0 0.2511776,-0.06773 0.087489,-0.06773 0.087489,-0.194733 0,-0.127 -0.087489,-0.194733 -0.087489,-0.06773 -0.2511776,-0.06773 H 9.1755613 Z M 10.391938,63.9902 H 9.7033165 L 9.1755613,63.171756 V 63.9902 H 8.6224062 v -2.127954 h 0.8607771 q 0.1777999,0 0.3104442,0.05362 0.1326443,0.0508 0.2173105,0.141111 0.08749,0.09031 0.129823,0.208845 0.04516,0.118533 0.04516,0.253999 0,0.242711 -0.118533,0.395111 -0.1157112,0.149578 -0.344311,0.2032 z m 1.447445,-1.659465 h -0.657577 v 0.355599 h 0.620888 v 0.468489 h -0.620888 v 0.366889 h 0.657577 V 63.9902 h -1.210732 v -2.127954 h 1.210732 z m 0.781402,-0.468489 0.513644,1.295399 0.516466,-1.295399 h 0.601133 L 13.354562,63.9902 h -0.440266 l -0.894644,-2.127954 z"
     id="text5"
     aria-label="PREV" />
  <circle
     id="uuid-cae7cb64-b9d2-4491-a6b2-1bbe8644b71e-6-0-0-9-0-40"
     display="inline"
     fill="#0000ff"
     cx="30.162165"
     cy="72.485962"
     r="4.3757935"
     inkscape:label="PARAM_TIME"
     style="display:inline;fill:none;fill-opacity:1;stroke:#000000;stroke-width:0.248413;stroke-dasharray:none;stroke-opacity:1" />
  <path
     style="font-weight:bold;font-size:2.82222px;line-height:0.1;font-family:Futura;-inkscape-font-specification:'Futura Bold';letter-spacing:0.00529167px;word-spacing:0.0079375px;stroke-width:1.058;stroke-linecap:square;stroke-linejoin:round"
     d="m 26.387977,63.9902 v -2.127954 h 0.553155 l 1.021644,1.301044 v -1.301044 h 0.550333 V 63.9902 H 27.962776 L 26.941132,62.689157 V 63.9902 Z m 3.787065,-1.659465 h -0.657577 v 0.355599 h 0.620888 v 0.468489 h -0.620888 v 0.366889 h 0.657577 V 63.9902 H 28.96431 v -2.127954 h 1.210732 z m 1.012823,0.524933 -0.663221,-0.993422 h 0.682977 l 0.287866,0.550333 0.3556,-0.550333 h 0.682977 l -0.702732,0.993422 0.793043,1.134532 h -0.67451 L 31.52371,63.295934 31.024177,63.9902 H 30.35531 Z M 33.65978,62.330735 V 63.9902 h -0.553155 v -1.659465 h -0.454378 v -0.468489 h 1.46191 v 0.468489 z"
     id="text5-2"
     aria-label="NEXT"
     inkscape:label="text5-2" />
  <rect
     style="fill:#000000;fill-opacity:1;stroke:none;stroke-width:1.79624;stroke-linecap:round;stroke-linejoin:round;stroke-dasharray:none;stroke-opacity:1"
     id="rect6-2-6-3"
     width="0.2456689"
     height="11.833772"
     x="38.247482"
     y="33.25713"
     transform="rotate(30)" />
  <rect
     style="fill:#000000;fill-opacity:1;stroke:none;stroke-width:1.79624;stroke-linecap:round;stroke-linejoin:round;stroke-dasharray:none;stroke-opacity:1"
     id="rect6-2-6-3-8"
     width="0.2456689"
     height="11.833772"
     x="-3.1246693"
     y="53.677132"
     transform="rotate(-30)" />
  <circle
     id="uuid-cae7cb64-b9d2-4491-a6b2-1bbe8644b71e-6-0-0-9-0-4"
     display="inline"
     fill="#0000ff"
     cx="20.32"
     cy="42.487621"
     r="4.3757935"
     inkscape:label="PARAM_TIME"
     style="display:inline;fill:none;fill-opacity:1;stroke:#000000;stroke-width:0.248413;stroke-dasharray:none;stroke-opacity:1" />
  <path
     style="font-weight:bold;font-size:2.82222px;line-height:0.1;font-family:Futura;-inkscape-font-specification:'Futura Bold';letter-spacing:0.00529167px;word-spacing:0.0079375px;stroke-width:1.058;stroke-linecap:square;stroke-linejoin:round"
     d="m 17.098967,31.863909 v 1.659466 h 0.663222 v 0.468488 h -1.216377 v -2.127954 z m 1.393825,1.063977 q 0,0.127 0.04798,0.234245 0.04798,0.107244 0.129822,0.186266 0.08184,0.07902 0.189089,0.124178 0.110066,0.04233 0.231422,0.04233 0.121355,0 0.228599,-0.04233 0.110067,-0.04516 0.191911,-0.124178 0.08467,-0.07902 0.132645,-0.186266 0.04798,-0.107245 0.04798,-0.234245 0,-0.127 -0.04798,-0.234244 -0.04798,-0.107244 -0.132645,-0.186267 -0.08184,-0.07902 -0.191911,-0.121355 -0.107244,-0.04516 -0.228599,-0.04516 -0.121356,0 -0.231422,0.04516 -0.107245,0.04233 -0.189089,0.121355 -0.08184,0.07902 -0.129822,0.186267 -0.04798,0.107244 -0.04798,0.234244 z m -0.578555,0 q 0,-0.237066 0.08749,-0.440266 0.08749,-0.206022 0.242711,-0.358422 0.155222,-0.1524 0.36971,-0.237066 0.217311,-0.08749 0.476956,-0.08749 0.256822,0 0.474133,0.08749 0.217311,0.08467 0.372533,0.237066 0.158044,0.1524 0.245533,0.358422 0.08749,0.2032 0.08749,0.440266 0,0.237067 -0.08749,0.443089 -0.08749,0.2032 -0.245533,0.3556 -0.155222,0.152399 -0.372533,0.239888 -0.217311,0.08467 -0.474133,0.08467 -0.259645,0 -0.476956,-0.08467 -0.214488,-0.08749 -0.36971,-0.239888 -0.155223,-0.1524 -0.242711,-0.3556 -0.08749,-0.206022 -0.08749,-0.443089 z m 3.787066,0.273756 -0.248355,-0.708378 -0.248356,0.708378 z m 0.146756,0.42051 h -0.790222 l -0.127,0.369711 h -0.589844 l 0.809977,-2.127954 h 0.603955 l 0.809978,2.127954 h -0.589844 z m 1.518001,-0.09878 h 0.127 q 0.143933,0 0.256822,-0.04516 0.112889,-0.04516 0.189089,-0.124177 0.07902,-0.07902 0.118533,-0.186267 0.04233,-0.110067 0.04233,-0.239889 0,-0.127 -0.04233,-0.237066 -0.04233,-0.110067 -0.121355,-0.189089 -0.0762,-0.07902 -0.189089,-0.124178 -0.112889,-0.04516 -0.254,-0.04516 h -0.127 z m -0.553155,-1.659466 h 0.818444 q 0.217311,0 0.4064,0.08749 0.19191,0.08749 0.333021,0.234244 0.143934,0.143934 0.225778,0.338667 0.08184,0.191911 0.08184,0.403577 0,0.208845 -0.08184,0.403578 -0.07902,0.191911 -0.222955,0.338666 -0.141111,0.146756 -0.333022,0.234244 -0.189089,0.08749 -0.409222,0.08749 h -0.818444 z"
     id="text5-7"
     aria-label="LOAD" />
  <path
     style="font-weight:bold;font-size:2.11667px;line-height:0.1;font-family:Futura;-inkscape-font-specification:'Futura Bold';letter-spacing:0.00529167px;word-spacing:0.0079375px;fill:#1a1a1a;stroke-width:1.058;stroke-linecap:square;stroke-linejoin:round"
     d="m 6.3516584,99.618237 v 1.244603 H 5.9367911 V 99.618237 H 5.5960073 V 99.26687 h 1.096435 v 0.351367 z m 0.945094,0.36195 h 0.078317 q 0.1227668,0 0.1883836,-0.0508 0.065617,-0.0508 0.065617,-0.14605 0,-0.09525 -0.065617,-0.14605 -0.065617,-0.0508 -0.1883836,-0.0508 h -0.078317 z m 0.9122847,0.882653 H 7.6925696 L 7.2967524,100.249 v 0.61384 H 6.8818851 v -1.59597 h 0.6455843 q 0.1333502,0 0.2328337,0.04022 0.099483,0.0381 0.1629836,0.105834 0.065617,0.06773 0.097367,0.156633 0.033867,0.0889 0.033867,0.190501 0,0.182033 -0.0889,0.296336 -0.086784,0.11218 -0.2582338,0.1524 z m 0.9345085,-0.893236 h 0.8233846 q 0,0.126996 -0.010583,0.230716 -0.010583,0.10372 -0.042333,0.19262 -0.04445,0.12488 -0.1206502,0.22225 -0.0762,0.0953 -0.1799169,0.16087 -0.1016002,0.0635 -0.224367,0.0974 -0.1227669,0.0339 -0.2582337,0.0339 -0.186267,0 -0.3407839,-0.0614 -0.1524002,-0.0614 -0.2624671,-0.17145 -0.1100668,-0.11219 -0.1714502,-0.26671 -0.061383,-0.15663 -0.061383,-0.34501 0,-0.186269 0.059267,-0.340786 0.061383,-0.156634 0.1714503,-0.266701 0.1121835,-0.110067 0.2688171,-0.17145 0.1566335,-0.06138 0.3492505,-0.06138 0.249767,0 0.4381507,0.10795 0.1883836,0.10795 0.2984504,0.334434 l -0.3937006,0.162983 q -0.055033,-0.131233 -0.1439335,-0.188383 -0.086783,-0.05715 -0.198967,-0.05715 -0.093133,0 -0.1693336,0.03598 -0.0762,0.03387 -0.1312335,0.09948 -0.052917,0.0635 -0.084667,0.154517 -0.029633,0.09102 -0.029633,0.203203 0,0.1016 0.0254,0.18838 0.027517,0.0868 0.080433,0.15028 0.052917,0.0635 0.1312335,0.0995 0.078317,0.0339 0.1820336,0.0339 0.061383,0 0.1185335,-0.0127 0.05715,-0.0148 0.1016002,-0.0444 0.046567,-0.0318 0.0762,-0.0804 0.029633,-0.0487 0.040217,-0.11853 H 9.1435456 Z m 2.2389064,0.02963 h 0.137583 q 0.2286,0 0.2286,-0.198967 0,-0.198967 -0.2286,-0.198967 h -0.137583 z m 0,0.863603 h -0.414868 v -1.59597 h 0.660401 q 0.268817,0 0.410634,0.1397 0.143934,0.1397 0.143934,0.3937 0,0.254 -0.143934,0.3937 -0.141817,0.1397 -0.410634,0.1397 h -0.245533 z m 1.440393,-0.882653 h 0.07832 q 0.122767,0 0.188384,-0.0508 0.06562,-0.0508 0.06562,-0.14605 0,-0.09525 -0.06562,-0.14605 -0.06562,-0.0508 -0.188384,-0.0508 h -0.07832 z m 0.912284,0.882653 H 13.218662 L 12.822845,100.249 v 0.61384 h -0.414868 v -1.59597 h 0.645585 q 0.13335,0 0.232833,0.04022 0.09948,0.0381 0.162984,0.105834 0.06562,0.06773 0.09737,0.156633 0.03387,0.0889 0.03387,0.190501 0,0.182033 -0.0889,0.296336 -0.08678,0.11218 -0.258233,0.1524 z m 0.401109,-1.59597 0.385234,0.97155 0.387351,-0.97155 h 0.45085 l -0.673101,1.59597 h -0.3302 l -0.670984,-1.59597 z"
     id="text7"
     aria-label="TRG PRV" />
  <path
     style="font-weight:bold;font-size:2.11667px;line-height:0.1;font-family:Futura;-inkscape-font-specification:'Futura Bold';letter-spacing:0.00529167px;word-spacing:0.0079375px;fill:#1a1a1a;stroke-width:1.058;stroke-linecap:square;stroke-linejoin:round"
     d="m 25.938615,99.618237 v 1.244603 H 25.523748 V 99.618237 H 25.182964 V 99.26687 h 1.096435 v 0.351367 z m 0.945094,0.36195 h 0.07832 q 0.122767,0 0.188384,-0.0508 0.06562,-0.0508 0.06562,-0.14605 0,-0.09525 -0.06562,-0.14605 -0.06562,-0.0508 -0.188384,-0.0508 h -0.07832 z m 0.912285,0.882653 H 27.279527 L 26.883709,100.249 v 0.61384 h -0.414867 v -1.59597 h 0.645584 q 0.133351,0 0.232834,0.04022 0.09948,0.0381 0.162984,0.105834 0.06562,0.06773 0.09737,0.156633 0.03387,0.0889 0.03387,0.190501 0,0.182033 -0.0889,0.296336 -0.08678,0.11218 -0.258234,0.1524 z m 0.934509,-0.893236 h 0.823384 q 0,0.126996 -0.01058,0.230716 -0.01058,0.10372 -0.04233,0.19262 -0.04445,0.12488 -0.12065,0.22225 -0.0762,0.0953 -0.179917,0.16087 -0.1016,0.0635 -0.224367,0.0974 -0.122767,0.0339 -0.258233,0.0339 -0.186267,0 -0.340784,-0.0614 -0.152401,-0.0614 -0.262467,-0.17145 -0.110067,-0.11219 -0.171451,-0.26671 -0.06138,-0.15663 -0.06138,-0.34501 0,-0.186269 0.05927,-0.340786 0.06138,-0.156634 0.17145,-0.266701 0.112183,-0.110067 0.268817,-0.17145 0.156634,-0.06138 0.349251,-0.06138 0.249767,0 0.43815,0.10795 0.188384,0.10795 0.298451,0.334434 l -0.393701,0.162983 q -0.05503,-0.131233 -0.143933,-0.188383 -0.08678,-0.05715 -0.198967,-0.05715 -0.09313,0 -0.169334,0.03598 -0.0762,0.03387 -0.131234,0.09948 -0.05292,0.0635 -0.08467,0.154517 -0.02963,0.09102 -0.02963,0.203203 0,0.1016 0.0254,0.18838 0.02752,0.0868 0.08043,0.15028 0.05292,0.0635 0.131233,0.0995 0.07832,0.0339 0.182034,0.0339 0.06138,0 0.118533,-0.0127 0.05715,-0.0148 0.101601,-0.0444 0.04657,-0.0318 0.0762,-0.0804 0.02963,-0.0487 0.04022,-0.11853 h -0.340783 z m 1.824038,0.893236 v -1.59597 h 0.414868 l 0.766234,0.97578 v -0.97578 h 0.412751 v 1.59597 h -0.412751 l -0.766234,-0.975786 v 0.975786 z m 2.390778,-0.8509 -0.497418,-0.74507 h 0.512234 l 0.215901,0.41275 0.2667,-0.41275 h 0.512234 l -0.527051,0.74507 0.594785,0.8509 h -0.505885 l -0.319617,-0.5207 -0.37465,0.5207 h -0.501651 z m 1.855263,-0.393703 v 1.244603 H 34.385714 V 99.618237 H 34.04493 V 99.26687 h 1.096435 v 0.351367 z"
     id="text7-8"
     aria-label="TRG NXT" />
  <g
     inkscape:groupmode="layer"
     id="layer1"
     inkscape:label="components"
     style="display:none">
    <circle
       id="uuid-cae7cb64-b9d2-4491-a6b2-1bbe8644b71e-6"
       display="inline"
       fill="#0000ff"
       cx="10.477839"
       cy="115.86283"
       r="1.3229166"
       inkscape:label="OUTPUT_1"
       style="display:inline;stroke-width:0.264583" />
    <circle
       id="uuid-cae7cb64-b9d2-4491-a6b2-1bbe8644b71e-6-7"
       display="inline"
       fill="#0000ff"
       cx="30.162165"
       cy="115.86283"
       r="1.3229166"
       inkscape:label="OUTPUT_2"
       style="display:inline;stroke-width:0.264583" />
    <circle
       id="uuid-cae7cb64-b9d2-4491-a6b2-1bbe8644b71e-6-0-0-9"
       display="inline"
       fill="#0000ff"
       cx="10.477839"
       cy="72.48597"
       r="1.3229166"
       inkscape:label="PARAM_PREV"
       style="display:inline;fill:#ff0000;fill-opacity:1;stroke-width:0.264583" />
    <circle
       id="uuid-cae7cb64-b9d2-4491-a6b2-1bbe8644b71e-6-0-0-9-8-9-3"
       display="inline"
       fill="#0000ff"
       cx="27.516331"
       cy="85.176247"
       r="1.3229166"
       inkscape:label="LIGHT_FRAG_VALID"
       style="display:inline;fill:#ff00ff;fill-opacity:1;stroke-width:0.264583" />
    <circle
       id="uuid-cae7cb64-b9d2-4491-a6b2-1bbe8644b71e-6-0-0-9-8"
       display="inline"
       fill="#0000ff"
       cx="10.47784"
       cy="93.927086"
       r="1.3229166"
       inkscape:label="INPUT_PREV"
       style="display:inline;fill:#00ff00;fill-opacity:1;stroke-width:0.264583" />
    <circle
       id="uuid-cae7cb64-b9d2-4491-a6b2-1bbe8644b71e-6-0-0-9-8-7"
       display="inline"
       fill="#0000ff"
       cx="30.162165"
       cy="93.927086"
       r="1.3229166"
       inkscape:label="INPUT_NEXT"
       style="display:inline;fill:#00ff00;fill-opacity:1;stroke-width:0.264583" />
    <circle
       id="uuid-cae7cb64-b9d2-4491-a6b2-1bbe8644b71e-6-0-0-9-8-9"
       display="inline"
       fill="#0000ff"
       cx="13.123672"
       cy="85.176247"
       r="1.3229166"
       inkscape:label="LIGHT_VERT_VALID"
       style="display:inline;fill:#ff00ff;fill-opacity:1;stroke-width:0.264583" />
    <circle
       id="uuid-cae7cb64-b9d2-4491-a6b2-1bbe8644b71e-6-0-0-9-06"
       display="inline"
       fill="#0000ff"
       cx="30.162165"
       cy="72.48597"
       r="1.3229166"
       inkscape:label="PARAM_NEXT"
       style="display:inline;fill:#ff0000;fill-opacity:1;stroke-width:0.264583" />
    <circle
       id="uuid-cae7cb64-b9d2-4491-a6b2-1bbe8644b71e-6-0-0-9-9"
       display="inline"
       fill="#0000ff"
       cx="20.32"
       cy="42.487629"
       r="1.3229166"
       inkscape:label="PARAM_LOAD"
       style="display:inline;fill:#ff0000;fill-opacity:1;stroke-width:0.264583" />
    <circle
       id="uuid-cae7cb64-b9d2-4491-a6b2-1bbe8644b71e-6-0-0-9-8-9-3-2"
       display="inline"
       fill="#0000ff"
       cx="20.32"
       cy="53.110851"
       r="1.3229166"
       inkscape:label="LIGHT_LOADED"
       style="display:inline;fill:#ff00ff;fill-opacity:1;stroke-width:0.264583" />
  </g>
</svg>
